<?xml version="1.0" encoding="UTF-8"?>
<svg width="18px" height="16px" viewBox="0 0 18 16" version="1.1" xmlns="http://www.w3.org/2000/svg" xmlns:xlink="http://www.w3.org/1999/xlink">
    <title>Alert</title>
    <g id="Alert" stroke="none" stroke-width="1" fill="none" fill-rule="evenodd">
        <path d="M8.497951,0 L8.60399994,0.002 L8.72106664,0.0047256758 C8.72820385,0.00503966693 8.73531584,0.00544382001 8.7424026,0.00593813504 L8.94508151,0.0209011005 C11.5303314,0.263620752 13.5140939,2.45295628 13.5140939,5.07793719 L13.5145452,5.18132533 L13.6568695,5.30759463 L13.7946536,5.45937205 L13.915284,5.62624685 L13.9995677,5.77351344 C14.0757761,5.92006731 14.1283268,6.06519985 14.1623333,6.21536266 L14.174866,6.28586313 L14.2288372,6.3838376 C14.4017038,6.73619874 14.4858661,7.09964475 14.4858661,7.46854945 L14.4849999,8.857 L17.8402271,14.3410829 C18.0304418,14.6530765 18.0506767,15.0387367 17.9016674,15.3661955 L17.837857,15.4860068 C17.6385778,15.8103952 17.2890356,16 16.9202093,16 L16.9202093,16 L8.57971733,16 C8.21088769,16 7.86133372,15.8103898 7.66231457,15.4864056 C7.60743476,15.3972277 7.56645899,15.3019454 7.53940618,15.2036451 L7.42888994,15.2702266 L7.42888994,15.2702266 L7.28047854,15.3426453 L7.1228795,15.4041159 L6.94135007,15.454765 L6.73893188,15.4892671 L6.55563558,15.4998632 L5.30596666,15.4998632 C4.74970185,15.5000773 4.22891907,15.2471987 3.86610484,14.7969863 L3.86610484,14.7969863 L3.764,14.6508631 L3.70458221,14.6202699 C3.20138183,14.3306751 2.82027084,13.8636419 2.62732172,13.2925215 L2.62732172,13.2925215 L2.5751479,13.1181361 L2.53183864,12.9104273 L2.50713681,12.7084869 L2.49999994,12.5311257 L2.49999994,7.46854945 C2.49999994,7.09964475 2.5841622,6.73619874 2.7570288,6.3838376 L2.7570288,6.3838376 L2.811,6.28586313 L2.82353271,6.21536266 C2.85753917,6.06519985 2.91008989,5.92006731 2.98629832,5.77351344 L2.98629832,5.77351344 L3.07058205,5.62624685 L3.19121238,5.45937205 L3.32899654,5.30759463 L3.47132086,5.18132533 L3.47177208,5.07793719 C3.47177208,2.45295628 5.45553464,0.263620752 8.0407845,0.0209011005 L8.0407845,0.0209011005 L8.24346341,0.00593813504 C8.25055018,0.00544382001 8.25766216,0.00503966693 8.26479937,0.0047256758 L8.38099994,0.002 L8.48791502,0 L8.497951,0 Z" id="Combined-Shape" fill="#000000" fill-rule="nonzero"></path>
        <g id="Brand_Mascot-Copy-8" transform="translate(3.500000, 1.000000)" fill="#E6B400" fill-rule="nonzero">
            <g id="Brand_Mascot" transform="translate(-0.000000, 0.000000)">
                <g id="Pia_Logo_Vertical" transform="translate(-0.000000, 0.000000)">
                    <g id="Lock" transform="translate(-0.000000, 0.000000)">
                        <path d="M4.99961342,0 C7.15455036,0 8.91766174,1.71686641 9.02253815,3.87453971 L9.02747356,4.07807406 L9.02786513,4.79312632 C9.42181133,4.86036466 9.72195726,5.20718231 9.72232096,5.62506994 C9.87261294,5.82789518 9.96533015,6.06731586 9.99199511,6.31757204 L9.996,6.41 L9.6024174,5.82986717 C9.48626517,5.65729512 9.26652034,5.55430499 9.03316846,5.56301151 L9.03313766,5.5625 C8.81914024,5.57079348 8.62503305,5.67195326 8.51829553,5.82986717 L3.52069143,13.2017063 C3.47869847,13.2637972 3.4526033,13.3313486 3.44240585,13.4002461 C3.3610595,13.4468743 3.26857698,13.4777985 3.17159347,13.4916827 L3.05563564,13.4999999 L1.80558147,13.4999999 C1.43095917,13.5001443 1.10239382,13.246901 1.00280339,12.881255 C0.451212245,12.7201429 0.0592013682,12.2339427 0.00614515073,11.6641318 L-6.09290396e-13,11.5312626 L-6.09290396e-13,6.46868632 C-6.09290396e-13,6.1644289 0.0974009108,5.86836818 0.277773106,5.62501267 C0.277733092,5.40124409 0.365512145,5.18662886 0.521791408,5.02840058 C0.644721357,4.90393752 0.802110772,4.82241229 0.971253825,4.79328579 L0.971772138,4.07807406 C0.971772138,1.82584719 2.77733471,0 4.99961342,0 Z M4.99961342,1.40622454 C3.60043001,1.40622454 2.45215456,2.51447587 2.36589548,3.90936419 L2.36069398,4.07807406 L2.35999995,4.781 L2.91669255,4.78133888 C3.11392846,4.78121796 3.30335391,4.85229962 3.45203575,4.97962665 L3.53609215,5.06265265 L6.46264453,5.06265265 C6.59403813,4.91319454 6.77287689,4.81718408 6.96607834,4.78957589 L7.08345807,4.78133888 L7.63799995,4.781 L7.63857057,4.09594009 C7.63857057,2.66227487 6.54407501,1.49886492 5.16625933,1.41149266 L4.99961342,1.40622454 Z" id="Combined-Shape"></path>
                    </g>
                </g>
            </g>
        </g>
        <path d="M12.6342513,8.43789784 C12.8092652,8.4311261 12.9740738,8.51122954 13.061188,8.64545224 L13.061188,8.64545224 L16.8126065,14.3791049 C16.8961886,14.5072759 16.8957958,14.6653501 16.8114291,14.7935119 C16.7274482,14.9213202 16.5720633,15 16.4045032,15 L16.4045032,15 L8.90799701,15 C8.74043691,15 8.58504571,14.9213184 8.50107078,14.7935119 C8.41670417,14.665341 8.41631139,14.5072668 8.49989354,14.3791049 L8.49989354,14.3791049 L12.2480966,8.64545224 C12.3281498,8.52263031 12.4737301,8.44395049 12.6342282,8.4375 Z M12.6988295,13.2836538 C12.3936405,13.2836538 12.1462912,13.5407086 12.1462912,13.8578726 C12.1462912,14.1750366 12.3936405,14.4320913 12.6988295,14.4320913 C13.0040185,14.4320913 13.2513678,14.1750366 13.2513678,13.8578726 C13.2513678,13.5407086 13.0040185,13.2836538 12.6988295,13.2836538 Z M12.6810416,10.0753206 C12.4367202,10.0753206 12.239011,10.276021 12.239011,10.5240386 L12.239011,10.5240386 L12.3495186,12.5432694 C12.3495186,12.7290611 12.4980188,12.8798079 12.6810416,12.8798079 C12.8640644,12.8798079 13.0125646,12.7290611 13.0125646,12.5432694 L13.0125646,12.5432694 L13.1230722,10.5240386 C13.1230722,10.276021 12.925363,10.0753206 12.6810416,10.0753206 Z" id="Combined-Shape" fill="#E6B400"></path>
    </g>
</svg>