<?xml version="1.0" encoding="UTF-8"?>
<svg width="18px" height="16px" viewBox="0 0 18 16" version="1.1" xmlns="http://www.w3.org/2000/svg" xmlns:xlink="http://www.w3.org/1999/xlink">
    <title>Snoozed</title>
    <g id="Snoozed" stroke="none" stroke-width="1" fill="none" fill-rule="evenodd">
        <path d="M8.48791502,0.000136870037 L8.27477848,0.0051249254 L8.0407845,0.0210379705 C5.45553464,0.263757622 3.47177208,2.45309315 3.47177208,5.07807406 L3.47132086,5.1814622 L3.32899654,5.3077315 L3.19121238,5.45950892 L3.07058205,5.62638372 L2.98629832,5.77365031 C2.91008989,5.92020418 2.85753917,6.06533672 2.82353271,6.21549953 L2.811,6.286 L2.7570288,6.38397447 C2.5841622,6.73633561 2.49999994,7.09978162 2.49999994,7.46868632 L2.49999994,12.5312626 L2.50713681,12.7086237 L2.53183864,12.9105641 L2.5751479,13.118273 L2.62732172,13.2926584 C2.82027084,13.8637788 3.20138183,14.3308119 3.70458221,14.6204068 L3.764,14.651 L3.86610484,14.7971232 C4.22891907,15.2473356 4.74970185,15.5002142 5.30596666,15.5 L6.55563558,15.5 L6.73893188,15.489404 L6.94135007,15.4549018 L7.1228795,15.4042528 L7.28047854,15.3427822 C7.48453144,15.2534495 7.66408393,15.1349219 7.81693136,14.9907054 L7.868,14.936 L9.599,14.939 L9.64918289,14.9820796 C10.4419432,15.6321354 11.4416793,16 12.4999999,16 C14.9851597,16 16.9999999,13.9851598 16.9999999,11.5 L16.9940746,11.2655534 C16.9190566,9.79133487 16.1324146,8.51908494 14.6739094,7.47031051 L14.588,7.411 L14.3987886,6.77546893 L14.337761,6.59789988 L14.2541573,6.40619567 L14.19,6.291 L14.1486393,6.109415 L14.0898674,5.94252819 C13.9808011,5.67156079 13.8169715,5.43722433 13.610418,5.25068616 L13.527,5.182 L13.527473,5.07844315 L13.522252,4.850624 L13.5058508,4.61279265 C13.2665107,2.07340227 11.2180698,0.114714585 8.72106664,0.00486254584 L8.48791502,0.000136870037 Z" id="Path" fill="#000000" fill-rule="nonzero"></path>
        <g id="Brand_Mascot-Copy-8" transform="translate(3.500000, 1.000000)" fill="#E93B76" fill-rule="nonzero">
            <g id="Brand_Mascot" transform="translate(-0.000000, 0.000000)">
                <g id="Pia_Logo_Vertical" transform="translate(-0.000000, 0.000000)">
                    <g id="Lock" transform="translate(-0.000000, 0.000000)">
                        <path d="M2.36069403,5.79905236 L2.36069403,4.07807406 C2.36069403,2.60490918 3.54446272,1.40622454 4.99961347,1.40622454 C6.45476422,1.40622454 7.63857062,2.60492826 7.63857062,4.09594009 L7.63857062,5.79905236 L9.02747361,5.79905236 L9.02747361,4.07807406 C9.02747361,1.82584719 7.22189219,0 4.99961347,0 C2.77733476,0 0.971772188,1.82584719 0.971772188,4.07807406 L0.971772188,5.79905236 L2.36069403,5.79905236 Z" id="Path_30"></path>
                        <path d="M2.9166926,4.78133888 C3.15337569,4.78119378 3.37881172,4.88358039 3.5360922,5.06265265 L3.5360922,5.06265265 L6.46264457,5.06265265 C6.6203169,4.88330292 6.84631025,4.7809178 7.08345812,4.78133888 L7.08345812,4.78133888 L8.88903954,4.78133888 C9.34908017,4.78180673 9.72191562,5.15929197 9.72232101,5.62506994 C9.82037357,5.75739592 9.89391979,5.90529853 9.9406055,6.06162433 C9.64564903,6.00027474 9.34213106,5.96875 9.03125009,5.96875 C6.54596871,5.96875 4.53125009,7.98346863 4.53125009,10.46875 C4.53125009,11.3807994 4.80258143,12.2294759 5.26892743,12.9384629 L3.84037191,12.9375062 C3.72274774,13.2742705 3.40843689,13.4995664 3.05563569,13.4999999 L3.05563569,13.4999999 L1.80558152,13.4999999 C1.43095921,13.5001443 1.10239387,13.246901 1.00280344,12.881255 C0.408782207,12.7077496 -0.000163686396,12.1572191 4.9149727e-08,11.5312626 L4.9149727e-08,11.5312626 L4.9149727e-08,6.46868632 C4.9149727e-08,6.1644289 0.09740096,5.86836818 0.277773155,5.62501267 C0.277733142,5.40124409 0.365512194,5.18662886 0.521791457,5.02840058 C0.67807072,4.8701723 0.89004237,4.78133888 1.11105462,4.78133888 L1.11105462,4.78133888 Z" id="Combined-Shape"></path>
                    </g>
                </g>
            </g>
        </g>
        <g id="Group" transform="translate(9.000000, 8.000000)" fill="#E93B76" fill-rule="nonzero">
            <path d="M3.5,0 C5.432875,0 7,1.567125 7,3.5 C7,5.432875 5.432875,7 3.5,7 C1.567125,7 0,5.432875 0,3.5 C0,1.567125 1.567125,0 3.5,0 Z M4.95016611,2 L2.14950166,2 L2.14950166,2.55462185 L3.90863787,2.55462185 L2,4.4789916 L2,5 L5,5 L5,4.44537815 L3.04152824,4.44537815 L4.95016611,2.5210084 L4.95016611,2 Z" id="Combined-Shape"></path>
        </g>
    </g>
</svg>