<?xml version="1.0" encoding="UTF-8"?>
<svg width="16px" height="16px" viewBox="0 0 16 16" version="1.1" xmlns="http://www.w3.org/2000/svg" xmlns:xlink="http://www.w3.org/1999/xlink">
    <!-- Generator: Sketch 54 (76480) - https://sketchapp.com -->
    <title>connected</title>
    <desc>Created with Sketch.</desc>
    <g id="Page-1" stroke="none" stroke-width="1" fill="none" fill-rule="evenodd">
        <g id="connected" fill-rule="nonzero">
            <path d="M15.125,8.83315931 C15.6749823,9.57949229 16,10.5017902 16,11.5 C16,13.7855491 14.2960989,15.6731308 12.0892776,15.9617641 L12.0608072,16 L11.5070994,15.9999945 C11.5047333,15.9999982 11.5023669,16 11.5,16 C11.4976027,16 11.4952059,15.9999981 11.4928096,15.9999944 L3.22075,15.9999125 C2.49405033,15.9999125 1.883,15.4205058 1.883,14.6787875 L1.883,14.208384 C1.01113031,14.0073053 0.344051469,13.2553103 0.316744934,12.3372393 C0.113966873,12.028222 0,11.6648852 0,11.2820375 L0,7.2920375 C0,6.24248929 0.843654513,5.39793504 1.883,5.33194036 L1.883,5.1404125 C1.883,3.73630576 2.51216502,2.42523134 3.59425952,1.46709217 C4.65175075,0.531829024 6.06576909,-8.75e-05 7.56075,-8.75e-05 C10.6599897,-8.75e-05 13.237625,2.28220067 13.237625,5.1404125 L13.237625,5.33160876 C14.2799946,5.3950474 15.125,6.24067186 15.125,7.2920375 L15.125,8.83315931 Z" id="dark" fill-opacity="0.50196081" fill="#000000"></path>
            <path d="M8.6712247,14.9999125 L3.22075,14.9999125 C3.03525,14.9999125 2.883,14.8564125 2.883,14.6787875 L2.883,13.2612875 L2.34925,13.2612875 C1.781375,13.2612875 1.315875,12.8185375 1.315875,12.2786625 C1.315875,12.1867875 1.329,12.0966625 1.354375,12.0126625 C1.13825,11.8341625 1,11.5734125 1,11.2820375 L1,7.2920375 C1,6.7626625 1.45675,6.3277875 2.014125,6.3277875 L2.883,6.3277875 L2.883,5.1404125 C2.883,4.0011625 3.408875,2.9669125 4.25675,2.2161625 C5.104625,1.4662875 6.273625,0.9999125 7.56075,0.9999125 C10.13325,0.9999125 12.237625,2.8636625 12.237625,5.1404125 L12.237625,6.3277875 L13.11175,6.3277875 C13.67,6.3277875 14.125,6.7626625 14.125,7.2920375 L14.125,7.84453553 C13.3861611,7.31303568 12.4796372,7 11.5,7 C9.01471863,7 7,9.01471863 7,11.5 C7,12.9135831 7.65178738,14.1749331 8.6712247,14.9999125 Z M4.53675,5.5079125 L4.53675,6.3277875 L10.557625,6.3277875 L10.557625,5.5079125 C10.557625,3.9337875 9.203125,2.6457875 7.54675,2.6457875 C6.719,2.6457875 5.9665,2.9686625 5.421375,3.4866625 C4.875375,4.0055375 4.53675,4.7212875 4.53675,5.5079125 Z" id="white" fill="#D74035"></path>
            <path d="M11.5,15 C13.4329966,15 15,13.4329966 15,11.5 C15,9.56700338 13.4329966,8 11.5,8 C9.56700338,8 8,9.56700338 8,11.5 C8,13.4329966 9.56700338,15 11.5,15 Z" id="green" fill="#D74035"></path>
            <polygon id="Z" fill="#FFFFFF" points="9.995 12.665 11.91 10.375 10.145 10.375 10.145 9.715 12.955 9.715 12.955 10.335 11.04 12.625 13.005 12.625 13.005 13.285 9.995 13.285"></polygon>
        </g>
    </g>
</svg>