<?xml version="1.0" encoding="UTF-8"?>
<svg width="100px" height="100px" viewBox="0 0 100 100" version="1.1" xmlns="http://www.w3.org/2000/svg" xmlns:xlink="http://www.w3.org/1999/xlink">
    <!-- Generator: Sketch 51.3 (57544) - http://www.bohemiancoding.com/sketch -->
    <title>icon-dark-color-notifications</title>
    <desc>Created with Sketch.</desc>
    <defs></defs>
    <g id="Page-1" stroke="none" stroke-width="1" fill="none" fill-rule="evenodd">
        <g id="Icons---Dark" transform="translate(-237.000000, -534.000000)">
            <g id="icon-dark-color-notifications" transform="translate(237.000000, 534.000000)">
                <circle id="Oval-Copy-17" fill="#4CB649" cx="50" cy="50" r="50"></circle>
                <g id="Group-9" transform="translate(32.000000, 26.000000)" fill="#FFFFFF">
                    <path d="M34.6205453,33.7051135 C32.9295315,32.3853595 31.724447,21.4683548 31.724447,21.4683548 C29.7781538,5.93190071 19.0013179,7.01627267 19.0013179,7.01627267 C19.0013179,7.01627267 8.22467046,5.9318386 6.27567557,21.4683548 C6.27567557,21.4683548 5.00681833,32.4021282 3.32070528,33.7200189 C1.42354536,34.1348689 0,35.8088323 0,37.8126846 C0,40.1271294 1.89715992,42 4.23614227,42 L33.7638546,42 C36.1003866,42 37.9999969,40.1247073 37.9999969,37.8126846 C38.0024536,35.7893931 36.5494973,34.0984312 34.6204196,33.705424 L34.6205453,33.7051135 Z" id="Fill-1"></path>
                    <path d="M18,3.69999739 C18,3.69999739 19.2653833,3.58775372 21,4 L21,2.58164625 C21,1.15712756 19.6564212,0 18,0 C16.3435788,0 15,1.15712756 15,2.58164625 L15,3.99796244 C16.7322508,3.58775372 18,3.69795982 18,3.70000261 L18,3.69999739 Z" id="Fill-2"></path>
                    <path d="M15.4087396,44 C15.1439595,44.460819 15,44.9817742 15,45.5338406 C15,47.4483773 16.7918099,49 19,49 C21.2082559,49 23,47.4483203 23,45.5338406 C23,44.9817457 22.8534674,44.4652699 22.5912604,44.0044453 L15.4087396,44 Z" id="Fill-3"></path>
                </g>
            </g>
        </g>
    </g>
</svg>