<?xml version="1.0" encoding="UTF-8" standalone="no"?>
<svg
   xmlns:dc="http://purl.org/dc/elements/1.1/"
   xmlns:cc="http://creativecommons.org/ns#"
   xmlns:rdf="http://www.w3.org/1999/02/22-rdf-syntax-ns#"
   xmlns:svg="http://www.w3.org/2000/svg"
   xmlns="http://www.w3.org/2000/svg"
   xmlns:sodipodi="http://sodipodi.sourceforge.net/DTD/sodipodi-0.dtd"
   xmlns:inkscape="http://www.inkscape.org/namespaces/inkscape"
   width="100px"
   height="100px"
   viewBox="0 0 100 100"
   version="1.1"
   id="svg11"
   sodipodi:docname="icon-dark-active-automation.svg"
   inkscape:version="0.92.2 5c3e80d, 2017-08-06">
  <metadata
     id="metadata17">
    <rdf:RDF>
      <cc:Work
         rdf:about="">
        <dc:format>image/svg+xml</dc:format>
        <dc:type
           rdf:resource="http://purl.org/dc/dcmitype/StillImage" />
      </cc:Work>
    </rdf:RDF>
  </metadata>
  <defs
     id="defs15" />
  <sodipodi:namedview
     pagecolor="#ffffff"
     bordercolor="#666666"
     borderopacity="1"
     objecttolerance="10"
     gridtolerance="10"
     guidetolerance="10"
     inkscape:pageopacity="0"
     inkscape:pageshadow="2"
     inkscape:window-width="1839"
     inkscape:window-height="1333"
     id="namedview13"
     showgrid="false"
     inkscape:zoom="4.72"
     inkscape:cx="29.763021"
     inkscape:cy="47.290306"
     inkscape:window-x="0"
     inkscape:window-y="0"
     inkscape:window-maximized="0"
     inkscape:current-layer="Page-1" />
  <!-- Generator: Sketch 54 (76480) - https://sketchapp.com -->
  <title
     id="title2">icon-dark-active-automation</title>
  <desc
     id="desc4">Created with Sketch.</desc>
  <g
     id="Page-1"
     inkscape:label="Page-1"
     stroke-width="1"
     stroke="none"
     fill-rule="evenodd"
     fill="none">
    <g
       id="icon-dark-active-automation"
       style="fill-rule:nonzero"
       transform="matrix(1.2645026,0,0,1.2645026,-13.204154,-12.146215)">
      <g
         id="icon-automate"
         transform="matrix(0.68358325,0,0,0.68358325,30.492782,26.492868)"
         style="fill:#323642">
        <path
           d="m 53.9922,37.20816 h -4.6581 v -3.779048 c 0,-0.43953 -0.35117,-0.879048 -0.87904,-0.879048 H 29.2994 v -3.427916 h 0.87904 c 0.35118,0 0.70233,-0.262815 0.79072,-0.61625 l 0.61625,-2.109286 c 1.05351,-0.26281 2.02095,-0.702322 2.9,-1.230238 l 1.93256,1.053512 c 0.35117,0.17672 0.79071,0.08836 1.05351,-0.17672 l 2.46048,-2.460476 c 0.26281,-0.26281 0.35117,-0.702322 0.17672,-1.053512 l -1.05352,-1.93256 c 0.5279,-0.879048 0.96744,-1.93256 1.23024,-2.9 l 2.10929,-0.61625 c 0.35117,-0.08836 0.61625,-0.43953 0.61625,-0.790714 v -3.427916 c 0,-0.351173 -0.26281,-0.702322 -0.61625,-0.790714 l -2.10929,-0.61625 c -0.26281,-1.053512 -0.70232,-2.020952 -1.23024,-2.9 l 1.05352,-1.93256 c 0.08835,-0.172191 0,-0.611726 -0.26508,-0.874524 L 37.38312,3.287214 C 37.12031,3.024404 36.6808,2.936041 36.32961,3.110494 L 34.39705,4.164006 C 33.518,3.636113 32.46449,3.196566 31.49705,2.933768 L 30.8808,0.824482 c 0,-0.26281 -0.35117,-0.525625 -0.70232,-0.525625 h -3.51625 c -0.35117,0 -0.70232,0.262809 -0.79072,0.61625 l -0.61625,2.109286 c -1.05351,0.262809 -2.02095,0.702322 -2.9,1.230238 L 20.4227,3.201119 C 20.07153,3.024398 19.63199,3.112761 19.36919,3.377839 L 16.99711,5.747661 C 16.73429,6.01047 16.64594,6.449983 16.82039,6.801173 l 1.05351,1.93256 c -0.52789,0.879048 -0.96744,1.93256 -1.23024,2.9 l -2.10928,0.61625 c -0.35118,0.08836 -0.61625,0.43953 -0.61625,0.790714 v 3.427916 c 0,0.351172 0.26281,0.702322 0.61625,0.790714 l 2.10928,0.61625 c 0.26282,1.053512 0.70232,2.020952 1.23024,2.9 l -1.05351,1.93256 c -0.17672,0.351172 -0.08836,0.790714 0.17672,1.053512 l 2.46047,2.460476 c 0.26281,0.262809 0.70233,0.351172 1.05352,0.17672 l 1.93256,-1.053512 c 0.87904,0.527893 1.93256,0.96744 2.9,1.230238 l 0.61625,2.109286 c 0.08835,0.351173 0.43953,0.61625 0.79071,0.61625 h 0.87905 v 3.427916 l -19.24672,-0.0023 c -0.43953,0 -0.87905,0.351173 -0.87905,0.879048 v 3.602322 H 2.84807 c -1.40697,0 -2.54881,1.141904 -2.54881,2.54881 v 14.237263 c 0,1.404702 1.1419,2.546548 2.54881,2.546548 h 10.98404 c 1.40696,0 2.54881,-1.141904 2.54881,-2.54881 V 39.756993 c 0,-1.406964 -1.14191,-2.548804 -2.54881,-2.548804 h -4.6581 v -2.9 h 18.36744 v 2.9 h -4.6581 c -1.40696,0 -2.54881,1.141904 -2.54881,2.548804 v 14.237264 c 0,1.406964 1.14191,2.54881 2.54881,2.54881 h 10.98404 c 1.40697,0 2.54881,-1.141904 2.54881,-2.54881 l 0.0023,-14.237264 c 0,-1.406964 -1.14191,-2.548804 -2.54881,-2.548804 h -4.56977 v -2.9 h 18.36744 v 2.9 h -4.65809 c -1.40697,0 -2.54881,1.141904 -2.54881,2.548804 v 14.237264 c 0,1.406964 1.1419,2.54881 2.54881,2.54881 h 10.98404 c 1.40696,0 2.54881,-1.141904 2.54881,-2.54881 V 39.756993 c 0,-1.406964 -1.14191,-2.548804 -2.54881,-2.548804 z M 11.28274,52.32238 H 5.3969 c -0.43953,0 -0.87905,-0.351173 -0.87905,-0.879048 0,-0.527893 0.35117,-0.879048 0.87905,-0.879048 h 5.88816 c 0.43953,0 0.87905,0.351173 0.87905,0.879048 -0.0023,0.527893 -0.35344,0.879048 -0.88131,0.879048 z m 0,-4.655834 H 5.3969 c -0.43953,0 -0.87905,-0.351173 -0.87905,-0.879048 0,-0.527893 0.35117,-0.879048 0.87905,-0.879048 h 5.88816 c 0.43953,0 0.87905,0.351173 0.87905,0.879048 -0.0023,0.525625 -0.35344,0.879048 -0.88131,0.879048 z m 0,-6.23964 c 0.43953,0 0.87905,0.351173 0.87905,0.879048 0,0.527875 -0.35117,0.879048 -0.87905,0.879048 l -5.88584,-0.0023 c -0.43953,0 -0.87905,-0.351172 -0.87905,-0.879048 0,-0.527875 0.35117,-0.879048 0.87905,-0.879048 z m 20.12542,10.8953 H 25.52 c -0.43953,0 -0.87905,-0.351173 -0.87905,-0.879048 0,-0.527893 0.35117,-0.879048 0.87905,-0.879048 h 5.88816 c 0.43953,0 0.87905,0.351173 0.87905,0.879048 0,0.527893 -0.43953,0.879048 -0.87905,0.879048 z m 0,-4.655834 H 25.52 c -0.43953,0 -0.87905,-0.351173 -0.87905,-0.879048 0,-0.527893 0.35117,-0.879048 0.87905,-0.879048 h 5.88816 c 0.43953,0 0.87905,0.351173 0.87905,0.879048 0,0.525625 -0.43953,0.879048 -0.87905,0.879048 z m 0,-6.23964 c 0.43953,0 0.87905,0.351173 0.87905,0.879048 0,0.527875 -0.35117,0.879048 -0.87905,0.879048 H 25.52 c -0.43953,0 -0.87905,-0.351173 -0.87905,-0.879048 0,-0.527875 0.35117,-0.879048 0.87905,-0.879048 z m -8.52542,-27.94672 c 0.43953,-2.109286 2.10929,-3.779048 4.21857,-4.306964 4.13024,-0.96744 7.82072,2.637202 6.85328,6.85328 -0.43953,2.109286 -2.10928,3.779048 -4.21857,4.218572 -4.12798,0.96744 -7.73256,-2.63494 -6.85328,-6.76512 z M 51.4431,52.322034 h -5.88816 c -0.43953,0 -0.87905,-0.351173 -0.87905,-0.87905 0,-0.527893 0.35117,-0.879048 0.87905,-0.879048 h 5.88816 c 0.43953,0 0.87905,0.351173 0.87905,0.879048 0,0.527895 -0.43953,0.87905 -0.87905,0.87905 z m 0,-4.655836 h -5.88816 c -0.43953,0 -0.87905,-0.351173 -0.87905,-0.879048 0,-0.527893 0.35117,-0.879048 0.87905,-0.879048 h 5.88816 c 0.43953,0 0.87905,0.351173 0.87905,0.879048 0,0.525625 -0.43953,0.879048 -0.87905,0.879048 z m 0,-4.569762 h -5.88816 c -0.43953,0 -0.87905,-0.351173 -0.87905,-0.879048 0,-0.527893 0.35117,-0.879048 0.87905,-0.879048 h 5.88816 c 0.43953,0 0.87905,0.351173 0.87905,0.879048 0,0.525625 -0.43953,0.879048 -0.87905,0.879048 z"
           id="Fill-1-Copy-2"
           inkscape:connector-curvature="0" />
      </g>
    </g>
  </g>
</svg>
