<?xml version="1.0" encoding="UTF-8"?>
<svg width="100px" height="100px" viewBox="0 0 100 100" version="1.1" xmlns="http://www.w3.org/2000/svg" xmlns:xlink="http://www.w3.org/1999/xlink">
    <!-- Generator: Sketch 51.3 (57544) - http://www.bohemiancoding.com/sketch -->
    <title>icon-dark-color-lan</title>
    <desc>Created with Sketch.</desc>
    <defs></defs>
    <g id="Page-1" stroke="none" stroke-width="1" fill="none" fill-rule="evenodd">
        <g id="Icons---Dark" transform="translate(-567.000000, -534.000000)">
            <g id="icon-dark-color-lan" transform="translate(567.000000, 534.000000)">
                <circle id="Oval-Copy-27" fill="#4CB649" cx="50" cy="50" r="50"></circle>
                <g id="Group-6" transform="translate(24.000000, 28.000000)" fill="#FFFFFF">
                    <polygon id="Fill-1" points="26 11 36 11 36 9 26 9"></polygon>
                    <path d="M14,35.9997585 C14,34.8779184 13.1219756,34 12,34 C10.8780244,34 10,34.8779184 10,35.9997585 C10,37.1215987 10.8780244,37.9995171 12,37.9995171 C13.0975617,38.023903 14,37.1215987 14,35.9997585 Z" id="Fill-2"></path>
                    <polygon id="Fill-3" points="16 37 26 37 26 35 16 35"></polygon>
                    <polygon id="Fill-4" points="11 32 13 32 13 22 11 22"></polygon>
                    <path d="M50.0256821,26 L29.9979118,26 C28.901496,26 28,26.9013296 28,27.9975429 L28,40.0073713 C28,41.1035846 28.901496,42.0049142 29.9979118,42.0049142 L37.0150228,42.0049142 C38.1114386,42.0049142 39.0129346,42.9062438 39.0129346,44.0024571 L33.9937355,44.0024571 L33.9937355,46 L46.005782,46 L46.005782,44.0024571 L40.9865829,44.0024571 C40.9865829,42.9062438 41.8880789,42.0049142 42.9844947,42.0049142 L50.0016056,42.0049142 C51.0980214,42.0049142 51.9995175,41.1035846 51.9995175,40.0073713 L51.9995175,27.9975429 C52.0238809,26.9013296 51.1224098,26 50.0259316,26 L50.0256821,26 Z" id="Fill-5"></path>
                    <polygon id="Fill-6" points="39 15.9805837 39 24 41 24 41 14 39 14"></polygon>
                    <path d="M5.98753879,20 L17.9877871,20 L17.9877871,18.0073036 L12.9978822,18.0073036 C12.9978822,16.91375 13.8984928,16.0146073 14.9938317,16.0146073 L22.0040505,16.0146073 C23.0993894,16.0146073 24,15.1154645 24,14.0219109 L24,1.99269637 C24,0.899142726 23.0993894,0 22.0040505,0 L1.99595136,0 C0.900610598,0 0,0.899142726 0,1.99269637 L0,13.9976484 C0,15.0912021 0.900610598,15.9903448 1.99595136,15.9903448 L9.00617016,15.9903448 C10.1015091,15.9903448 11.0021197,16.8894875 11.0021197,17.9830411 L5.98785036,17.9830411 L5.98753879,20 Z" id="Fill-7"></path>
                    <path d="M42,9.99975854 C42,8.87791841 41.1219756,8 40,8 C38.8780244,8 38,8.87791841 38,9.99975854 C38,11.1215987 38.8780244,11.9995171 40,11.9995171 C41.1219756,12.023903 42,11.1215987 42,9.99975854 Z" id="Fill-8"></path>
                </g>
            </g>
        </g>
    </g>
</svg>