<?xml version="1.0" encoding="UTF-8"?>
<svg width="102px" height="102px" viewBox="0 0 102 102" version="1.1" xmlns="http://www.w3.org/2000/svg" xmlns:xlink="http://www.w3.org/1999/xlink">
    <!-- Generator: Sketch 51.3 (57544) - http://www.bohemiancoding.com/sketch -->
    <title>icon-dark-disabled-debug</title>
    <desc>Created with Sketch.</desc>
    <defs></defs>
    <g id="Page-1" stroke="none" stroke-width="1" fill="none" fill-rule="evenodd">
        <g id="Icons---Dark" transform="translate(-676.000000, -110.000000)">
            <g id="icon-dark-disabled-debug" transform="translate(677.000000, 111.000000)">
                <circle id="Oval-Copy-28" stroke="#5C6370" fill="#323642" cx="50" cy="50" r="50"></circle>
                <path d="M46.6546018,24.002287 C46.2183185,24.016593 45.8225484,24.2645367 45.6175408,24.6507553 C45.4125089,25.0369738 45.4315815,25.5018508 45.662839,25.8714015 L47.1505015,28.3889842 C43.9915913,29.6406348 41.7028798,32.663626 41.4668678,36.2279738 C40.0650167,36.9742159 38.7656999,37.8753579 37.5951003,38.9362825 L33.1702579,34.5114402 C32.6910566,34.0322389 31.9138468,34.0322389 31.4346211,34.5114402 C30.9553954,34.9906415 30.9554199,35.7678513 31.4346211,36.247077 L35.8976087,40.6909614 C33.1940605,43.835529 31.4561045,47.8671402 31.1866469,52.2871 L24.7971739,52.2871 C24.1224617,52.2871 23.5765277,52.8330523 23.5765277,53.5077461 C23.5765277,54.18244 24.12248,54.7283923 24.7971739,54.7283923 L31.1866469,54.7283923 C31.4560496,59.1484741 33.1940605,63.1801463 35.8976087,66.3245309 L31.4346211,70.7684153 C30.9554199,71.2476166 30.9554199,72.0248264 31.4346211,72.5040521 C31.9138224,72.9832778 32.6910322,72.9832533 33.1702579,72.5040521 L37.5951003,68.0601676 C40.7921557,70.9520615 44.9501037,72.785411 49.5153204,73 L49.5153204,45.6691226 L51.3462896,45.6691226 L51.3462896,73 C55.9094312,72.7782824 60.057431,70.9377799 63.2475897,68.0411256 L67.6914742,72.5041131 C68.1706754,72.9833138 68.9478853,72.9833138 69.427111,72.5041131 C69.9063366,72.0249118 69.9063122,71.247702 69.427111,70.7684763 L64.9450203,66.3054888 C67.6390474,63.1633014 69.3674824,59.1390751 69.636879,54.7282702 L76.0641914,54.7282702 C76.7389036,54.7282702 77.2848375,54.1823179 77.2848375,53.5076241 C77.2848375,52.8329302 76.7388852,52.2869779 76.0641914,52.2869779 L69.636879,52.2869779 C69.3674763,47.8764171 67.6390474,43.8523129 64.9450203,40.7097593 L69.427111,36.2467718 C69.9063122,35.7675705 69.9063122,34.9903607 69.427111,34.511135 C68.9479097,34.0319093 68.1706999,34.0319337 67.6914742,34.511135 L63.2475897,38.9741226 C62.0698493,37.9036769 60.7681522,36.9810515 59.3567801,36.2276687 C59.120756,32.6777855 56.8344369,29.6502168 53.6922495,28.388679 L55.1990151,25.8710963 C55.4350393,25.4967974 55.4469589,25.022381 55.234774,24.6337883 C55.0202088,24.2451834 54.6125496,24.0044232 54.1690888,24.0019819 C53.7280327,23.9972152 53.3203735,24.230853 53.1010234,24.6123049 L51.2128059,27.797459 C50.9481759,27.7736198 50.6835398,27.7593139 50.4117568,27.7593139 C50.1542737,27.7593139 49.8991831,27.7760001 49.648853,27.797459 L47.7797385,24.6123049 C47.5508674,24.2117804 47.1146084,23.975738 46.6544248,24.0019819 L46.6546018,24.002287 Z M50.4118728,30.2007282 C53.4182022,30.2007282 55.9262639,32.236705 56.6866044,35.0451677 C54.7173359,34.356174 52.6122096,33.9961444 50.4118728,33.9961444 C48.211536,33.9961444 46.0871845,34.3728297 44.1182212,35.0642098 C44.8787448,32.2557471 47.4129893,30.2006672 50.4118728,30.2006672 L50.4118728,30.2007282 Z" id="Fill-1" fill="#5C6370"></path>
            </g>
        </g>
    </g>
</svg>