<?xml version="1.0" encoding="UTF-8"?>
<svg width="50px" height="50px" viewBox="0 0 50 50" version="1.1" xmlns="http://www.w3.org/2000/svg" xmlns:xlink="http://www.w3.org/1999/xlink">
    <title>icon-dark-active-general</title>
    <g id="icon-dark-active-general" stroke="none" stroke-width="1" fill="none" fill-rule="evenodd">
        <g transform="translate(5.846154, 4.250000)" fill="#FFFFFF" fill-rule="nonzero" id="Fill-1-Copy">
            <path d="M35.1338052,24.4367905 C35.4243077,23.1942755 35.5919816,21.9517605 35.5919816,20.7092455 C35.5919816,19.507485 35.4262592,18.2649701 35.1338052,17.0224551 L37.5046213,14.6209221 C38.337152,13.7511617 38.5437873,12.4678922 37.9199033,11.3903832 L36.7130333,9.31886227 C36.0891343,8.28409581 34.8822641,7.74434731 33.6773905,8.07634731 L30.4331159,8.9053533 C28.5614193,7.16583233 26.315383,5.88256287 23.9036392,5.17780838 L22.9892528,1.94726946 C22.6558562,0.829005988 21.5757475,0 20.3688773,0 L17.9571335,0 C16.7502634,0 15.6701695,0.786263474 15.3367579,1.94726946 L14.4632994,5.13705389 C12.0086314,5.84180838 9.72166741,7.12507785 7.84997056,8.86459881 L4.60569604,8.03559281 C3.44175017,7.74632043 2.19395226,8.24332642 1.61098109,9.27810779 L0.404110964,11.3496287 C-0.219787984,12.3843952 -0.0540654495,13.7104072 0.778450333,14.5801677 L3.10833857,16.9817006 C2.77494195,18.2649701 2.65016215,19.507485 2.65016215,20.75 C2.65016215,21.9517605 2.81588468,23.1942755 3.10833857,24.4367905 L0.778450333,26.7975688 C-0.0540804231,27.6265749 -0.260715755,28.9505988 0.36316822,30.0281077 L1.57003834,32.0996287 C2.15300952,33.1343951 3.40080741,33.6741437 4.5647533,33.3828982 L7.80902782,32.5538923 C9.63979689,34.2934132 11.9267609,35.5766826 14.3385046,36.3221917 L15.252891,39.5527306 C15.5862876,40.7117486 16.6663964,41.5 17.8732665,41.5 L20.3688623,41.5 C21.5757323,41.5 22.6558263,40.6709939 22.9892379,39.5119761 L23.8626965,36.3221917 C26.3173644,35.617437 28.6043284,34.3341676 30.4760253,32.5946468 L33.7612275,33.4236526 C34.9251735,33.7129251 36.1729714,33.2159192 36.7559424,32.1811376 L37.9628127,30.1096168 C38.5457839,29.0748502 38.3780949,27.7488383 37.5475305,26.8790779 L35.1338052,24.4367905 Z M19.1748033,28.7307691 C14.7884263,28.7307691 11.1730769,25.1701183 11.1730769,20.75 C11.1730769,16.3701538 14.746512,12.7692308 19.1748033,12.7692308 C23.5611803,12.7692308 27.1346154,16.3298817 27.1346154,20.75 C27.1346154,25.1298461 23.5611803,28.7307691 19.1748033,28.7307691 Z"></path>
        </g>
    </g>
</svg>