<?xml version="1.0" encoding="UTF-8"?>
<svg width="100px" height="100px" viewBox="0 0 100 100" version="1.1" xmlns="http://www.w3.org/2000/svg" xmlns:xlink="http://www.w3.org/1999/xlink">
    <!-- Generator: Sketch 51.3 (57544) - http://www.bohemiancoding.com/sketch -->
    <title>icon-dark-active-general</title>
    <desc>Created with Sketch.</desc>
    <defs></defs>
    <g id="Page-1" stroke="none" stroke-width="1" fill="none" fill-rule="evenodd">
        <g id="Icons---Dark" transform="translate(-937.000000, -394.000000)">
            <g id="icon-dark-active-general" transform="translate(937.000000, 394.000000)">
                <circle id="Oval-Copy-42" fill="#D7D8D9" cx="50" cy="50" r="50"></circle>
                <path d="M71.0758989,53.6707313 L69.6965251,52.1817892 C69.8581693,50.7395619 69.8581693,49.2865295 69.6965251,47.8443022 L71.0758989,46.3643261 C71.8985115,45.4860328 73.3748553,44.3222091 72.915064,43.2140202 L71.0255978,38.6161074 C70.5658065,37.5079185 68.6907317,37.7378141 67.4891592,37.6965249 L65.4524218,37.6228847 L65.4542195,37.6246825 C64.5508216,36.4949753 63.5270504,35.4676177 62.4009296,34.5623806 L62.3362737,32.5256432 C62.3003503,31.3294503 62.5338415,29.4489959 61.4166912,28.9892046 L56.8187785,27.0818065 C55.7160151,26.6219922 54.5431795,28.1163369 53.6684726,28.9209716 L52.1831168,30.3003454 C50.7408896,30.1387012 49.286064,30.1387012 47.8438367,30.3003454 L46.3674929,28.9209716 C45.4946251,28.1019914 44.3253759,26.6219922 43.217187,27.0818065 L38.6192742,28.9712728 C37.5110853,29.431064 37.7464065,31.3115184 37.6996917,32.5077114 L37.6260515,34.5408578 L37.6260515,34.5390646 C36.4963444,35.4424625 35.4671936,36.468027 34.5601633,37.5959409 L32.5270123,37.6606014 C31.3308174,37.6965203 29.4503631,37.4630337 28.9905718,38.5801839 L27.0831736,43.1780967 C26.6233823,44.2808601 28.1177041,45.4501093 28.9223388,46.322977 L30.3017126,47.8083328 C30.1418616,49.25056 30.1418616,50.7071788 30.3017126,52.1494061 L28.9223388,53.6293822 C28.1033586,54.50225 26.6233823,55.6661197 27.0831736,56.7742626 L28.97264,61.3721754 C29.4324312,62.4803643 31.3128851,62.2504686 32.5126668,62.2917579 L34.5404383,62.3600093 L34.5422314,62.3600093 C35.4474685,63.4933029 36.4747802,64.5224537 37.6045333,65.4312771 L37.663805,67.4590486 C37.6997285,68.6552406 37.4662373,70.5392814 38.5833875,70.9990726 L43.1813003,72.9064709 C44.2840637,73.3662621 45.4533129,71.8719404 46.3261806,71.0673057 L47.8151227,69.6879318 L47.8151227,69.6897278 C49.2555568,69.8495788 50.7085892,69.8495788 52.1472301,69.6897278 L53.6272063,71.0691016 C54.5054996,71.8917142 55.6639437,73.3680581 56.7720867,72.9082668 L61.3699994,71.0188004 C62.4781883,70.5590092 62.2482927,68.6839344 62.2895819,67.4787736 L62.3578334,65.4456226 L62.3596311,65.4456226 C63.4911315,64.5422247 64.5202823,63.5166603 65.4308989,62.3887463 L67.46405,62.3240858 C68.6602429,62.2881669 70.5442837,62.5216535 71.0040749,61.4045033 L72.9114731,56.8065905 C73.3892468,55.721759 71.8912882,54.554349 71.0758943,53.6706761 L71.0758989,53.6707313 Z M50.0459656,60.8889945 C44.2250081,60.8889945 39.5121475,56.0110689 39.5121475,49.9924011 C39.5121475,43.9737333 44.2250081,39.0958077 50.0459656,39.0958077 C55.8669232,39.0958077 60.5797837,43.9737333 60.5797837,49.9924011 C60.5797837,56.0110689 55.8669232,60.8889945 50.0459656,60.8889945 Z" id="Fill-1" fill="#323642"></path>
            </g>
        </g>
    </g>
</svg>