<?xml version="1.0" encoding="UTF-8"?>
<svg width="50px" height="50px" viewBox="0 0 50 50" version="1.1" xmlns="http://www.w3.org/2000/svg" xmlns:xlink="http://www.w3.org/1999/xlink">
    <title>icon-dark-active-dedicated-ip</title>
    <g id="icon-dark-active-dedicated-ip" stroke="none" stroke-width="1" fill="none" fill-rule="evenodd">
        <g transform="translate(4.930554, 3.750000)" fill="#FFFFFF" fill-rule="nonzero" id="Fill-1">
            <path d="M9.33204644,0.145750177 C6.72418964,0.576586192 4.35510131,1.92144615 2.64617178,3.93956664 C0.937242686,5.95768713 -0.0017320394,8.51834915 2.39854377e-06,11.1645228 C2.39854377e-06,19.442858 6.76258703,24.9843726 9.75544355,27.0268293 C10.5951023,27.6024592 11.7030524,27.6024592 12.5427112,27.0268293 C15.3021062,25.1465099 21.2492435,20.3011007 22.1764002,13.0725722 C23.1397689,5.58281997 16.7971965,-1.0772679 9.33222482,0.14579483 L9.33204644,0.145750177 Z M11.1489882,16.7462704 C8.66831996,16.7462704 6.43337728,15.2495702 5.48392242,12.9558476 C4.53446756,10.6621249 5.05886634,8.02117571 6.81311461,6.26494871 C8.56736291,4.50872172 11.2048227,3.9834165 13.4954216,4.93404747 C15.7860204,5.88467847 17.2808878,8.12258409 17.2808878,10.6063972 C17.2808878,13.997304 14.5354515,16.7462704 11.148899,16.7462704 L11.1489882,16.7462704 Z M40.0580823,25.1973257 C40.5110022,20.3010559 39.047709,15.4190754 35.9782359,11.581543 C32.9070238,7.74235848 28.468222,5.24787314 23.597416,4.62361549 C23.3883711,4.58000677 23.1740992,4.65849891 23.0434411,4.82769594 C22.9127829,4.99688852 22.8901413,5.22364854 22.9842127,5.41551623 C23.4946172,6.59812279 23.9179696,7.81564848 24.2489187,9.06108267 C24.3534435,9.51806784 24.5415818,9.95067214 24.8063722,10.3379084 C25.464881,11.2920223 26.0118544,12.3176714 26.433423,13.397396 L24.9631282,13.397396 C24.6356265,13.397396 24.3551471,13.6328724 24.2994017,13.9555663 C24.1896547,14.6061696 24.0450647,15.2515484 23.8638922,15.8864783 C23.8029201,16.0923047 23.8447292,16.3155728 23.9771266,16.4865336 C24.1077803,16.6574722 24.3133425,16.7534105 24.5276232,16.7464311 L27.459472,16.7464311 C27.9350468,18.9477208 28.1667244,21.1925924 28.151071,23.4444745 C28.1615244,25.6963569 27.922863,27.9428805 27.4438186,30.142518 L7.08472382,30.142518 C6.65618031,29.247704 6.3147244,28.3127465 6.06560958,27.3516665 C6.0081205,27.1074649 5.87747123,26.8876707 5.69107216,26.7202197 C4.65978312,25.8096878 3.02573074,24.2415863 2.44740614,23.6781915 C2.40908011,23.6433037 2.35507847,23.6328414 2.30629906,23.6537706 C2.25926336,23.6747041 2.22790726,23.7217959 2.22951438,23.7741256 C2.31674797,30.3203465 5.76773762,36.3610887 11.3598439,39.7534249 C16.9535556,43.1460732 23.8971966,43.4129232 29.7330663,40.4581037 C35.5689358,37.5050252 39.4728943,31.7470746 40.0579975,25.2254129 L40.0580823,25.1973257 Z M9.23625363,33.4912897 L12.3858661,33.4912897 C12.8248585,34.8500993 13.4049803,36.1600582 14.113972,37.3984817 C12.2447634,36.4356602 10.5863169,35.1065006 9.23603065,33.4912897 L9.23625363,33.4912897 Z M21.1831517,39.072992 C19.3052469,39.072992 17.280977,36.9850785 15.9328314,33.4912897 L26.433918,33.4912897 C25.085594,36.9850785 23.061324,39.072992 21.1835978,39.072992 L21.1831517,39.072992 Z M33.1300498,13.3971593 L29.9734803,13.3971593 C29.5362272,12.0471017 28.9578892,10.747592 28.2523313,9.51787584 C30.1198007,10.4719898 31.7782028,11.7906559 33.1302729,13.3971593 L33.1300498,13.3971593 Z M28.2521085,37.3984817 C28.9593609,36.1600582 29.5377301,34.8500993 29.9732573,33.4912897 L33.1298268,33.4912897 C31.7797635,35.1065006 30.121317,36.4338742 28.2518855,37.3984817 L28.2521085,37.3984817 Z M35.2813745,30.1422679 L30.8548366,30.1422679 C31.2868631,27.9357539 31.501126,25.6926237 31.4959082,23.4442246 C31.5011349,21.1958252 31.2868631,18.9525166 30.8548366,16.7461811 L35.2813745,16.7461811 C37.2951642,20.9830508 37.2951642,25.9055321 35.2813745,30.1422679 Z"></path>
        </g>
    </g>
</svg>