<?xml version="1.0" encoding="UTF-8"?>
<svg width="100px" height="100px" viewBox="0 0 100 100" version="1.1" xmlns="http://www.w3.org/2000/svg" xmlns:xlink="http://www.w3.org/1999/xlink">
    <!-- Generator: Sketch 51.3 (57544) - http://www.bohemiancoding.com/sketch -->
    <title>icon-light-active-connection</title>
    <desc>Created with Sketch.</desc>
    <defs></defs>
    <g id="Page-1" stroke="none" stroke-width="1" fill="none" fill-rule="evenodd">
        <g id="Icons---Light" transform="translate(-1157.000000, -392.000000)">
            <g id="icon-light-active-connection" transform="translate(1157.000000, 392.000000)">
                <circle id="Oval-Copy-44" fill="#FFFFFF" cx="50" cy="50" r="50"></circle>
                <g id="Group-3" transform="translate(29.000000, 27.000000)" fill="#5C6370">
                    <polygon id="Fill-1" points="17.0238947 10 21 10 21 0 18.6889731 0 18.6889731 3.53956356 16.6134607 3.53956356 16.6134607 0 14.0389203 0 14.0389203 3.53956356 11.9634079 3.53956356 11.9634079 0 9.38653926 0 9.38653926 3.53956356 7.31102687 3.53956356 7.31102687 0 5 0 5 10"></polygon>
                    <polygon id="Fill-2" points="11 23 15 23 15 12 11 12"></polygon>
                    <path d="M37.0784842,6 C33.8140549,6 31.1570045,8.66544492 31.1570045,11.9401877 L31.1570045,37.0655202 C31.1570045,41.9400238 27.2031277,45.906573 22.3437957,45.906573 C17.4844637,45.906573 13.5305869,41.9402045 13.5305869,37.0655202 L13.5516894,31.6546514 L19.7545554,31.6546514 L24.9771621,24.526402 L24.9771621,11.8791194 L16.5349726,11.8791194 L16.5349726,24.5806047 L8.44218953,24.5806047 L8.44218953,11.8791194 L0,11.8791194 L0,24.528811 L5.22260668,31.6570604 L11.4464851,31.6570604 L11.4464851,37.0679292 C11.4441438,43.0952628 16.3337336,48 22.3465273,48 C28.3572798,48 33.2465695,43.0949616 33.2465695,37.0655202 L33.2465695,11.9401877 C33.2465695,9.82056339 34.9655655,8.09613653 37.0785143,8.09613653 C39.1914631,8.09613653 40.910459,9.82056339 40.910459,11.9401877 L40.9128064,32.7016055 L43,32.7016055 L43,11.9401877 C43,8.66544492 40.3429496,6 37.0785203,6 L37.0784842,6 Z" id="Fill-3"></path>
                </g>
            </g>
        </g>
    </g>
</svg>