<?xml version="1.0" encoding="UTF-8"?>
<svg width="50px" height="50px" viewBox="0 0 50 50" version="1.1" xmlns="http://www.w3.org/2000/svg" xmlns:xlink="http://www.w3.org/1999/xlink">
    <title>icon-dark-active-multihop</title>
    <g id="icon-dark-active-multihop" stroke="none" stroke-width="1" fill="none" fill-rule="evenodd">
        <g transform="translate(5.071429, 5.500000)" fill="#FFFFFF" fill-rule="nonzero">
            <path d="M19.3812062,0.000472968914 C18.5361422,0.000472968914 17.7110933,0.070710807 16.8937821,0.17301281 L26.4241444,5.90179992 C25.9599632,4.95664385 25.4526325,4.09396419 24.900534,3.35038671 C27.3709826,4.18101394 29.5932731,5.54300804 31.4175473,7.3112082 L28.7188768,7.3112082 C29.5577825,7.88224975 30.0990641,8.75259074 30.2609629,9.74813167 L33.5024546,9.74813167 C35.2357719,12.201824 36.3229541,15.1212149 36.5512152,18.2787709 L29.1968755,18.2787709 C29.1444448,16.5732295 28.9701854,14.9348808 28.7110998,13.3759205 C28.6370786,13.4278337 28.5800213,13.4950188 28.5013733,13.5423508 L26.4257038,14.7867672 C26.5768292,15.9075081 26.6940312,17.0648748 26.734125,18.2802875 L20.5964942,18.2802875 L16.5298747,20.717211 L26.734125,20.717211 C26.6261765,23.9206179 26.1080448,26.8294548 25.3246451,29.2478504 L13.4319247,29.2478504 C12.839756,27.4155845 12.4002484,25.3054004 12.1751059,22.9968431 C11.892902,23.0426508 11.6276657,23.0670808 11.4086818,23.0670808 C10.9583967,23.0670808 10.3168807,22.9907375 9.68460249,22.7036806 C9.88044845,25.0550786 10.2813901,27.2645081 10.8612416,29.2509775 L5.2601157,29.2509775 C3.9092211,27.3393231 2.95776399,25.1388842 2.49204307,22.7677855 C2.07874883,22.9708611 1.62846379,23.10828 1.14422775,23.1098084 C0.740210815,23.1098084 0.360828099,23.0075063 1.0658141e-14,22.8655062 C1.61302793,32.028204 9.66577152,39 19.3812852,39 C30.2594234,39 39.0756302,30.2692286 39.0756302,19.5 C39.0756302,8.72920809 30.2578442,3.55271368e-15 19.3812852,3.55271368e-15 L19.3812062,0.000472968914 Z M7.3436019,31.6878266 L11.7015684,31.6878266 C12.3184107,33.2101221 13.0447253,34.5522593 13.862076,35.648649 C11.3916273,34.818021 9.1693368,33.4560268 7.34348345,31.6878266 L7.3436019,31.6878266 Z M19.3812062,36.5633156 C17.6370722,36.5633156 15.7896244,34.7356226 14.3785655,31.6878266 L24.3854262,31.6878266 C22.9728671,34.7355055 21.1254192,36.5633156 19.3812062,36.5633156 Z M24.9017972,35.6487272 C25.7191084,34.5524156 26.4454625,33.2102785 27.0623049,31.6879048 L31.4202713,31.6879048 C29.5928783,33.4560268 27.3706272,34.818021 24.9016788,35.6487272 L24.9017972,35.6487272 Z M33.5036391,29.2511377 L27.9013288,29.2511377 C28.6446189,26.7119201 29.1026416,23.8170768 29.1982571,20.7204985 L36.552597,20.7204985 C36.3243672,23.8765692 35.2356535,26.7975626 33.5038364,29.2511377 L33.5036391,29.2511377 Z" id="Fill-1" transform="translate(19.537815, 19.500000) rotate(180.000000) translate(-19.537815, -19.500000) "></path>
            <path d="M13.2643579,38.235293 C13.4806835,38.2337032 13.6970247,38.1112656 13.7875171,37.9224412 C14.9519782,35.4264084 17.1950427,33.4952629 19.9366009,32.6546165 C20.4720534,32.489395 20.7436092,32.5823306 21.196189,32.8994991 C21.6487688,33.2181403 21.6073716,33.7256061 21.6073716,34.2640579 L21.6073716,36.9592251 C21.6073716,37.4062102 22.3054279,37.8177721 22.7089515,38.0376015 C23.1124362,38.2559316 23.8979604,38.2470795 24.2953572,38.0139984 L39.2097132,29.3310943 C39.593269,29.1068653 39.8571423,28.7041217 39.8571423,28.2733753 C39.8571423,27.8411562 39.6454199,27.4413771 39.2634038,27.217129 L24.3922515,18.5342251 C23.9948941,18.3011438 23.1173064,18.2922956 22.7138219,18.510622 C22.3072346,18.7304249 21.6076466,19.1434861 21.6076466,19.5904713 L21.6076466,22.5172505 C21.6076466,23.4141666 21.2471027,24.1753558 20.3281062,24.3199198 C15.481422,25.0781634 11.7226885,29.0775409 11.7226885,33.8967188 C11.7226885,35.3350325 12.1354029,36.6995913 12.7214825,37.9254776 C12.8120024,38.114302 13.0467367,38.2367433 13.264594,38.235293 L13.2643579,38.235293 Z" id="Fill-2" transform="translate(25.789915, 28.294110) rotate(180.000000) translate(-25.789915, -28.294110) "></path>
        </g>
    </g>
</svg>