<?xml version="1.0" encoding="UTF-8"?>
<svg width="100px" height="100px" viewBox="0 0 100 100" version="1.1" xmlns="http://www.w3.org/2000/svg" xmlns:xlink="http://www.w3.org/1999/xlink">
    <!-- Generator: Sketch 51.3 (57544) - http://www.bohemiancoding.com/sketch -->
    <title>icon-dark-inactive-privacy</title>
    <desc>Created with Sketch.</desc>
    <defs></defs>
    <g id="Page-1" stroke="none" stroke-width="1" fill="none" fill-rule="evenodd">
        <g id="Icons---Dark" transform="translate(-1047.000000, -250.000000)">
            <g id="icon-dark-inactive-privacy" transform="translate(1047.000000, 250.000000)">
                <circle id="Oval-Copy-43" fill="#5C6370" cx="50" cy="50" r="50"></circle>
                <g id="Group-8" transform="translate(35.000000, 26.000000)" fill="#323642">
                    <rect id="Rectangle" x="0" y="20" width="30" height="23"></rect>
                    <path d="M15.9077342,4.929165e-05 C17.0155381,0.192592335 18.1497765,0.306194801 19.2372342,0.58731001 C22.3187805,1.36325916 24.950836,3.26369873 26.5587622,5.87088197 C28.3800378,8.69553998 28.9573301,11.8243275 29,15.0785622 L29,16.9963031 L23.026216,16.9963031 L23.026216,16.3705456 C23.1217497,14.6222201 22.9469436,12.8700498 22.5058515,11.1697836 C21.8147555,8.87269417 20.5646319,6.90102817 18.0095903,6.155837 C15.0642234,5.27396009 12.2023229,5.39718922 9.75088592,7.43820857 C8.27924318,8.66473269 7.58606568,10.3360154 7.27915472,12.1209153 C7.08198342,13.2684742 7.05555931,14.4468897 6.97222294,15.6155947 C6.94173479,16.0642276 6.97222294,16.5128506 6.97222294,17 L1,17 L1,15.2998324 C1,12.4848356 1.41059878,9.73529804 2.72167786,7.16671016 C4.74011958,3.22337816 8.02887502,0.862801042 12.6086027,0.196377934 L14.0761866,0 L15.9077342,4.929165e-05 Z" id="Fill-2"></path>
                </g>
            </g>
        </g>
    </g>
</svg>