<?xml version="1.0" encoding="UTF-8"?>
<svg width="50px" height="50px" viewBox="0 0 50 50" version="1.1" xmlns="http://www.w3.org/2000/svg" xmlns:xlink="http://www.w3.org/1999/xlink">
    <title>icon-dark-active-privacy</title>
    <g id="icon-dark-active-privacy" stroke="none" stroke-width="1" fill="none" fill-rule="evenodd">
        <g transform="translate(12.000000, 6.000000)" fill="#FFFFFF" fill-rule="nonzero">
            <rect id="Rectangle" x="0" y="17.6744186" width="26" height="20.3255814"></rect>
            <path d="M13.786703,0 C14.7467997,0.170197877 15.7298063,0.270590754 16.6722696,0.519018148 C19.3429431,1.20474066 21.6240578,2.88419888 23.0175938,5.18822128 C24.5960328,7.68443068 25.0963528,10.4494057 25.1333334,13.325241 L25.1333334,15.0199888 L19.9560538,15.0199888 L19.9560538,14.4669938 C20.0388498,12.9219619 19.8873512,11.3735324 19.5050713,9.87097158 C18.9061214,7.84098554 17.822681,6.09858304 15.6083116,5.440042 C13.0556603,4.66070892 10.5753465,4.76960908 8.4507678,6.5733006 C7.1753441,7.65720564 6.57459026,9.13415312 6.30860076,10.7115066 C6.13771896,11.7256284 6.11481808,12.7670188 6.04259322,13.7998279 C6.01617016,14.1962942 6.04259322,14.5927517 6.04259322,15.0232558 L0.866666666,15.0232558 L0.866666666,13.5207821 C0.866666666,11.0331105 1.22251895,8.60328664 2.35878748,6.33337176 C4.10810364,2.84856674 6.95835836,0.76247534 10.9274556,0.17354329 L12.1993617,0 L13.786703,0 Z" id="Fill-2"></path>
        </g>
    </g>
</svg>