<?xml version="1.0" encoding="UTF-8"?>
<svg width="50px" height="50px" viewBox="0 0 50 50" version="1.1" xmlns="http://www.w3.org/2000/svg" xmlns:xlink="http://www.w3.org/1999/xlink">
    <title>icon-dark-active-account</title>
    <g id="icon-dark-active-account" stroke="none" stroke-width="1" fill="none" fill-rule="evenodd">
        <g transform="translate(5.166667, 4.000000)" fill="#FFFFFF" fill-rule="nonzero">
            <path d="M13.4093331,21.2898986 C16.2702406,23.2356279 19.8462104,23.7810547 23.1507152,22.7768021 C26.4526983,21.7725494 29.1380745,19.3246661 30.4614114,16.1041315 C31.7869412,12.8857577 31.6156309,9.23642799 29.9924492,6.15912061 C28.3671677,3.08358626 25.4655844,0.904094663 22.0820302,0.224471825 C18.6986405,-0.457311887 15.1912495,0.43224825 12.5248409,2.64420837 C9.86095385,4.85832937 8.31702429,8.16324892 8.3212825,11.6500698 C8.32558158,15.5177587 10.2335604,19.1300211 13.4091851,21.2897878 L13.4093331,21.2898986 Z" id="Fill-1"></path>
            <path d="M29.0585867,22.3414689 C26.5060924,24.60324 23.2274622,25.8498987 19.8336019,25.8498987 C16.4397417,25.8498987 13.1610019,24.60324 10.6086173,22.3414689 C4.30440262,25.2611987 0,31.2066519 0,38.6084792 L0,42 L39.6666667,42 L39.6666667,38.6106401 C39.6666667,31.1910825 35.3624777,25.2630826 29.0580439,22.3414689 L29.0585867,22.3414689 Z" id="Fill-2"></path>
        </g>
    </g>
</svg>