<?xml version="1.0" encoding="UTF-8"?>
<svg width="50px" height="50px" viewBox="0 0 50 50" version="1.1" xmlns="http://www.w3.org/2000/svg" xmlns:xlink="http://www.w3.org/1999/xlink">
    <title>icon-dark-active-protocol</title>
    <g id="icon-dark-active-protocol" stroke="none" stroke-width="1" fill="none" fill-rule="evenodd">
        <g transform="translate(7.357143, 5.500000)" fill="#FFFFFF" fill-rule="nonzero">
            <polygon id="Fill-1" points="13.9697741 8.125 17.2325581 8.125 17.2325581 0 15.3361341 0 15.3361341 2.8758954 13.6329728 2.8758954 13.6329728 0 11.52031 0 11.52031 2.8758954 9.81714871 2.8758954 9.81714871 0 7.7025754 0 7.7025754 2.8758954 5.99941407 2.8758954 5.99941407 0 4.10299004 0 4.10299004 8.125"></polygon>
            <polygon id="Fill-2" points="9.02657808 18.6875 12.3089701 18.6875 12.3089701 9.75 9.02657808 9.75"></polygon>
            <path d="M30.4265303,4.875 C27.747746,4.875 25.5673758,7.04067399 25.5673758,9.70140253 L25.5673758,30.1157352 C25.5673758,34.0762693 22.3228323,37.2990906 18.3352742,37.2990906 C14.3477161,37.2990906 11.1031726,34.0764162 11.1031726,30.1157352 L11.1204893,25.7194043 L16.2105488,25.7194043 L20.4962095,19.9277017 L20.4962095,9.65178454 L13.5685655,9.65178454 L13.5685655,19.9717412 L6.9276439,19.9717412 L6.9276439,9.65178454 L0,9.65178454 L0,19.9296589 L4.28566064,25.7213615 L9.39296289,25.7213615 L9.39296289,30.1176924 C9.39104155,35.0149011 13.4034292,39 18.3375158,39 C23.2699272,39 27.2820687,35.0146563 27.2820687,30.1157352 L27.2820687,9.70140253 C27.2820687,7.97920777 28.6926733,6.57811093 30.426555,6.57811093 C32.1604365,6.57811093 33.5710412,7.97920777 33.5710412,9.70140253 L33.5729674,26.5700545 L35.2857143,26.5700545 L35.2857143,9.70140253 C35.2857143,7.04067399 33.1053441,4.875 30.4265598,4.875 L30.4265303,4.875 Z" id="Fill-3"></path>
        </g>
    </g>
</svg>