<?xml version="1.0" encoding="UTF-8"?>
<svg width="50px" height="50px" viewBox="0 0 50 50" version="1.1" xmlns="http://www.w3.org/2000/svg" xmlns:xlink="http://www.w3.org/1999/xlink">
    <title>icon-dark-active-split-tunnel</title>
    <g id="icon-dark-active-split-tunnel" stroke="none" stroke-width="1" fill="none" fill-rule="evenodd">
        <g transform="translate(7.055556, 6.000000)" fill="#FFFFFF" fill-rule="nonzero" id="Fill-1">
            <path d="M34.7716737,0.946428242 C34.7298857,0.266513893 33.9905546,-0.174278035 33.3315571,0.0664449352 L21.2769585,4.22867954 C20.4540348,4.50846398 20.2901084,5.62916226 21.0712276,6.10900764 L24.6104581,8.30976617 L17.9435413,18.3524276 L11.3181822,8.30976617 L14.8574127,6.10900764 C15.5983732,5.62916226 15.4746055,4.54910998 14.6516817,4.22867954 L2.55552548,0.0664449352 C1.89652814,-0.172701492 1.19737295,0.266513893 1.11540974,0.946428242 L0.00479184325,13.3507037 C-0.0771795918,14.230687 0.909678802,14.7918404 1.65063853,14.3103944 L5.189869,12.1096359 L14.3239112,25.9552082 L14.3239112,36.9590012 C14.3239112,37.5185541 14.7771776,38 15.3943704,38 L20.579613,38 C21.1550013,38 21.6500723,37.559208 21.6500723,36.9590012 L21.6468588,25.9552082 L30.6990199,12.1112365 L34.2382504,14.311995 C34.9792109,14.7918404 35.9660612,14.1916415 35.8840979,13.3523042 L34.7716737,0.946428242 Z"></path>
        </g>
    </g>
</svg>