<?xml version="1.0" encoding="UTF-8" standalone="no"?>
<svg
   xmlns:dc="http://purl.org/dc/elements/1.1/"
   xmlns:cc="http://creativecommons.org/ns#"
   xmlns:rdf="http://www.w3.org/1999/02/22-rdf-syntax-ns#"
   xmlns:svg="http://www.w3.org/2000/svg"
   xmlns="http://www.w3.org/2000/svg"
   xmlns:sodipodi="http://sodipodi.sourceforge.net/DTD/sodipodi-0.dtd"
   xmlns:inkscape="http://www.inkscape.org/namespaces/inkscape"
   width="100"
   height="100"
   viewBox="0 0 100 100"
   version="1.1"
   id="svg2"
   inkscape:version="0.91 r13725"
   sodipodi:docname="socks5-proxy-solid-2-plain copy.svg">
  <sodipodi:namedview
     pagecolor="#ffffff"
     bordercolor="#666666"
     borderopacity="1"
     objecttolerance="10"
     gridtolerance="10"
     guidetolerance="10"
     inkscape:pageopacity="0"
     inkscape:pageshadow="2"
     inkscape:window-width="2038"
     inkscape:window-height="1170"
     id="namedview13"
     showgrid="false"
     inkscape:snap-bbox="true"
     inkscape:bbox-nodes="true"
     inkscape:snap-page="true"
     inkscape:zoom="2.36"
     inkscape:cx="-95.762712"
     inkscape:cy="50"
     inkscape:window-x="0"
     inkscape:window-y="0"
     inkscape:window-maximized="0"
     inkscape:current-layer="svg2" />
  <metadata
     id="metadata33">
    <rdf:RDF>
      <cc:Work
         rdf:about="">
        <dc:format>image/svg+xml</dc:format>
        <dc:type
           rdf:resource="http://purl.org/dc/dcmitype/StillImage" />
        <dc:title>setting/socks5-proxy</dc:title>
      </cc:Work>
    </rdf:RDF>
  </metadata>
  <!-- Generator: Sketch 51.2 (57519) - http://www.bohemiancoding.com/sketch -->
  <title
     id="title4">setting/socks5-proxy</title>
  <desc
     id="desc6">Created with Sketch.</desc>
  <defs
     id="defs8" />
  <circle style="fill:#5C6370" id="Oval" cx="50" cy="50" r="50"></circle>
  <g
     transform="matrix(1.4285714,0,0,1.4285714,0,6)"
     fill="#323642"
     id="g4140">
    <path
       id="path4183"
       d="m 33.992188,37.371094 0,7.988281 -1.869141,0 c -0.557,0 -1.00586,0.449859 -1.005859,1.005859 l 0,1.871094 -8.990235,0 c -0.557,0 -1.007812,0.44986 -1.007812,1.00586 0,0.557 0.451812,1.005859 1.007812,1.005859 l 8.990235,0 0,1.869141 c 0,0.557 0.449859,1.005859 1.005859,1.005859 l 5.75,0 c 0.557,0 1.007812,-0.449861 1.007812,-1.005859 l 0,-1.869141 8.990235,0 c 0.557,0 1.005859,-0.449861 1.005859,-1.005859 0,-0.557001 -0.449859,-1.00586 -1.005859,-1.00586 l -8.990235,0 0,-1.871094 c 0,-0.557 -0.451812,-1.005859 -1.007812,-1.005859 l -1.869141,0 0,-7.988281 z m -0.861329,10.001953 3.738282,0 0,3.740234 -3.738282,0 z" />
    <path
       id="path4229"
       d="m 19.892578,15.886719 c -1.0942,0 -2.005859,0.910428 -2.005859,2.005859 l 0,7.085938 c 0,1.0942 0.910428,2.005859 2.005859,2.005859 l 30.214844,0 c 1.0942,0 2.005859,-0.910428 2.005859,-2.005859 -4.53e-4,-0.03788 -0.0031,-0.0757 -0.0078,-0.113282 l 0,-6.972656 c 0,-1.094201 -0.910429,-2.005859 -2.00586,-2.005859 l -30.207031,0 z m 2.841797,3.177734 c 0.556,0 1.005859,0.44886 1.005859,1.005859 l 0,2.740235 c 0,0.556 -0.449859,1.005859 -1.005859,1.005859 -0.556,0 -1.005859,-0.448859 -1.005859,-1.005859 l 0,-2.740235 c 0,-0.556 0.448859,-1.005859 1.005859,-1.005859 z m 4.351563,0 c 0.549999,0 1.006859,0.44886 1.005859,1.005859 l 0,2.740235 c 0,0.556 -0.449859,1.005859 -1.005859,1.005859 -0.556001,0 -1.00586,-0.448859 -1.00586,-1.005859 l 0,-2.740235 c 0,-0.556 0.44886,-1.005859 1.00586,-1.005859 z m 13.958984,1.369141 0.8125,0 c 0.556,0 1.005859,0.448859 1.005859,1.005859 0,0.556 -0.448859,1.005859 -1.005859,1.005859 l -0.8125,0 c -0.556,10e-7 -1.00586,-0.448859 -1.00586,-1.005859 0,-0.556 0.44886,-1.005859 1.00586,-1.005859 z m 5.058594,0 0.814453,0 c 0.556,0 1.005859,0.448859 1.005859,1.005859 0,0.556 -0.448859,1.005859 -1.005859,1.005859 l -0.814453,0 c -0.556,10e-7 -1.00586,-0.448859 -1.00586,-1.005859 0,-0.556 0.44886,-1.005859 1.00586,-1.005859 z" />
    <path
       id="rect4224"
       d="m 19.892578,28.998047 c -1.0942,0 -2.005859,0.910428 -2.005859,2.005859 l 0,7.085938 c 0,1.0942 0.910428,2.005859 2.005859,2.005859 l 30.214844,0 c 1.0942,0 2.005859,-0.910428 2.005859,-2.005859 -4.53e-4,-0.03788 -0.0031,-0.0757 -0.0078,-0.113282 l 0,-6.972656 c 0,-1.094201 -0.910429,-2.005859 -2.00586,-2.005859 l -30.207031,0 z m 2.841797,3.175781 c 0.556,0 1.005859,0.44986 1.005859,1.00586 l 0,2.740234 c 0,0.556 -0.449859,1.005859 -1.005859,1.005859 -0.556,0 -1.005859,-0.448859 -1.005859,-1.005859 l 0,-2.740234 c 0,-0.556 0.448859,-1.00586 1.005859,-1.00586 z m 4.351563,0 c 0.549999,0 1.006859,0.44986 1.005859,1.00586 l 0,2.740234 c 0,0.556 -0.449859,1.005859 -1.005859,1.005859 -0.556001,0 -1.00586,-0.448859 -1.00586,-1.005859 l 0,-2.740234 c 0,-0.556 0.44886,-1.00586 1.00586,-1.00586 z m 13.958984,1.371094 0.8125,0 c 0.556,0 1.005859,0.449859 1.005859,1.005859 0,0.556 -0.448859,1.00586 -1.005859,1.00586 l -0.8125,0 c -0.556,0 -1.00586,-0.44986 -1.00586,-1.00586 0,-0.556 0.44886,-1.005859 1.00586,-1.005859 z m 5.058594,0 0.814453,0 c 0.556,0 1.005859,0.449859 1.005859,1.005859 0,0.556 -0.448859,1.00586 -1.005859,1.00586 l -0.814453,0 c -0.556,0 -1.00586,-0.44986 -1.00586,-1.00586 0,-0.556 0.44886,-1.005859 1.00586,-1.005859 z" />
  </g>
</svg>
