<?xml version="1.0" encoding="UTF-8"?>
<svg width="50px" height="50px" viewBox="0 0 50 50" version="1.1" xmlns="http://www.w3.org/2000/svg" xmlns:xlink="http://www.w3.org/1999/xlink">
    <title>icon-dark-active-help</title>
    <g id="icon-dark-active-help" stroke="none" stroke-width="1" fill="none" fill-rule="evenodd">
        <g transform="translate(10.522727, 2.250000)" fill="#FFFFFF" fill-rule="nonzero">
            <path d="M10.7267177,12.686975 C11.3034105,11.1669184 12.7949637,9.64882212 15.0547994,9.79624057 C17.4592893,9.99151118 19.3340219,12.1490545 19.2870862,14.599494 C19.2382463,16.9025151 17.7485975,18.7652412 15.6314923,19.1577036 C12.5056555,19.6956731 10.3416146,22.3911566 10.3416146,25.7738903 L10.3416146,31.85 L19.959574,31.85 L19.959574,28.0767152 C25.153753,26.0187382 28.8071348,20.8229242 28.9518852,14.844342 C29.0965297,7.15045203 23.3258598,0.63179288 15.8228896,0.0441774891 C9.76261346,-0.445910409 4.13658814,3.17995591 1.827797,9.01327613 L0,13.5714857 L8.89853599,17.2452336 L10.7267177,12.686975 Z" id="Fill-1"></path>
            <polygon id="Fill-2" points="10.8579545 45.5 20.8110795 45.5 20.8110795 35.49 10.8579545 35.49"></polygon>
        </g>
    </g>
</svg>