<?xml version="1.0" encoding="UTF-8"?>
<svg width="50px" height="50px" viewBox="0 0 50 50" version="1.1" xmlns="http://www.w3.org/2000/svg" xmlns:xlink="http://www.w3.org/1999/xlink">
    <title>icon-dark-active-automation</title>
    <g id="icon-dark-active-automation" stroke="none" stroke-width="1" fill="none" fill-rule="evenodd">
        <g transform="translate(4.653846, 2.000000)" fill="#FFFFFF" fill-rule="nonzero" id="Fill-1">
            <path d="M19.9472096,0 C19.5061769,0 19.1493212,0.406834265 19.1493212,0.90960452 L19.1493212,4.5480226 C19.1493212,5.05080649 19.5061889,5.45762711 19.9472096,5.45762711 C20.3882306,5.45762711 20.745098,5.05079285 20.745098,4.5480226 L20.745098,0.90960452 C20.745098,0.406820621 20.3882306,0 19.9472096,0 Z M6.57447523,5.45762711 C6.32036508,5.45762711 6.07014813,5.55610871 5.8761838,5.74550345 C5.48823033,6.12428809 5.48823033,6.73031927 5.8761838,7.10912815 L8.6849421,9.85150474 C9.07289558,10.2302894 9.69359631,10.2302894 10.0815746,9.85150474 C10.4695529,9.47272009 10.4695281,8.8666889 10.0815746,8.48788002 L7.27281631,5.74550345 C7.07884206,5.55611356 6.82861019,5.45762711 6.57452488,5.45762711 L6.57447523,5.45762711 Z M34.1177809,5.45762711 C33.8636703,5.45762711 33.6134528,5.55610851 33.4194881,5.74550288 L30.6107244,8.48787414 C30.2227701,8.86665805 30.2227701,9.47268805 30.6107244,9.8514962 C30.9986785,10.2303044 31.6193806,10.2302801 32.0073596,9.8514962 L34.8161233,7.10912495 C35.2040776,6.73034105 35.2040776,6.12431104 34.8161233,5.74550288 C34.6221488,5.55611336 34.3719164,5.45762711 34.1178306,5.45762711 L34.1177809,5.45762711 Z M20.3461538,8.57627119 C14.4674618,8.57627119 8.77677224,13.054736 8.77677224,19.3898354 C8.77677224,27.6088826 15.0435206,29.3305133 15.0435206,35.0847458 L25.648787,35.0847458 C25.648787,29.3305133 31.9155355,27.6088826 31.9155355,19.3898354 C31.9155355,13.0547833 26.2248459,8.57627119 20.3461538,8.57627119 Z M17.2900769,11.696266 L17.3052976,11.696266 C17.3300308,11.694465 17.3566684,11.694465 17.3814015,11.696266 C17.851341,11.698067 18.2528092,12.0183404 18.3364869,12.4573477 C18.4182992,12.894577 18.1576416,13.3263986 17.7162585,13.4811667 C15.3418177,14.3268181 13.5590632,16.3150363 13.1043395,18.7349932 C13.0073064,19.2351799 12.4993076,19.5680697 11.9704039,19.4763142 C11.4415003,19.3845589 11.0894986,18.9041328 11.1865219,18.4039459 C11.7630118,15.3397666 14.0061886,12.8424256 17.0162003,11.7682609 C17.103721,11.7322726 17.1950456,11.707086 17.2901743,11.6962891 L17.2900769,11.696266 Z M0.930869628,19.4915255 C0.416331441,19.4915255 0,19.8402405 0,20.2711864 C0,20.7021325 0.416345404,21.0508475 0.930869628,21.0508475 L4.65434907,21.0508475 C5.16888725,21.0508475 5.58521871,20.7021325 5.58521871,20.2711864 C5.58521871,19.8402405 5.1688733,19.4915255 4.65434907,19.4915255 L0.930869628,19.4915255 Z M36.0379587,19.4915255 C35.5234206,19.4915255 35.1070891,19.8402405 35.1070891,20.2711864 C35.1070891,20.7021325 35.5234345,21.0508475 36.0379587,21.0508475 L39.7614379,21.0508475 C40.2759762,21.0508475 40.6923077,20.7021325 40.6923077,20.2711864 C40.6923077,19.8402405 40.2759622,19.4915255 39.7614379,19.4915255 L36.0379587,19.4915255 Z M15.1598793,37.4237289 L15.1598793,38.9830508 L25.5324283,38.9830508 L25.5324283,37.4237289 L15.1598793,37.4237289 Z M15.1598793,41.3220339 C15.1598793,42.2174356 16.0512585,42.8813559 17.0457973,42.8813559 L23.6465104,42.8813559 C24.6410493,42.8813559 25.5324283,42.2174356 25.5324283,41.3220339 L15.1598793,41.3220339 Z M18.3514328,44.440678 C18.3514328,45.3040741 19.2416769,46 20.3461538,46 C21.4506308,46 22.3408748,45.3040745 22.3408748,44.440678 L18.3514328,44.440678 Z"></path>
        </g>
    </g>
</svg>