<?xml version="1.0" encoding="UTF-8"?>
<svg width="100px" height="100px" viewBox="0 0 100 100" version="1.1" xmlns="http://www.w3.org/2000/svg" xmlns:xlink="http://www.w3.org/1999/xlink">
    <!-- Generator: Sketch 51.3 (57544) - http://www.bohemiancoding.com/sketch -->
    <title>icon-light-color-port-forwarding</title>
    <desc>Created with Sketch.</desc>
    <defs></defs>
    <g id="Page-1" stroke="none" stroke-width="1" fill="none" fill-rule="evenodd">
        <g id="Icons---Light" transform="translate(-457.000000, -534.000000)">
            <g id="icon-light-color-port-forwarding" transform="translate(457.000000, 534.000000)">
                <circle id="Oval-Copy-25" fill="#4CB649" cx="50" cy="50" r="50"></circle>
                <g id="Group" transform="translate(26.000000, 25.000000)" fill="#FFFFFF">
                    <path d="M24.799608,0.000618497811 C23.7182894,0.000618497811 22.6625817,0.0924679785 21.6167749,0.226247521 L33.8115396,7.71773836 C33.2175872,6.48176505 32.5684222,5.35364549 31.8619735,4.38127492 C35.0230852,5.46747975 37.8666613,7.24854899 40.2009477,9.56081072 L36.7478102,9.56081072 C37.8212485,10.3075574 38.5138562,11.4456956 38.7210172,12.7475568 L42.8687324,12.7475568 C45.0866328,15.9562314 46.4777584,19.7738964 46.7698346,23.9030082 L37.3594427,23.9030082 C37.2923541,21.6726847 37.069377,19.5302287 36.7378588,17.4915883 C36.6431436,17.5594749 36.5701347,17.6473322 36.4694992,17.709228 L33.8135349,19.3365418 C34.0069104,20.802126 34.1568786,22.3156055 34.2081814,23.9049915 L26.3546539,23.9049915 L21.15113,27.0917376 L34.2081814,27.0917376 C34.0700538,31.2808079 33.407068,35.0846717 32.4046534,38.247189 L17.1870864,38.247189 C16.4293652,35.8511489 15.8669846,33.0916775 15.578899,30.0727948 C15.2177994,30.1326971 14.878411,30.1646443 14.5982057,30.1646443 C14.0220345,30.1646443 13.2011699,30.0648105 12.3921258,29.6894284 C12.6427244,32.7643337 13.1557572,35.6535874 13.8977177,38.2512782 L6.73068569,38.2512782 C5.00212162,35.7514225 3.78466574,32.8739254 3.18874329,29.7732578 C2.65990443,30.0388183 2.08373324,30.21852 1.46411938,30.2205186 C0.947151474,30.2205186 0.461704772,30.0867391 0,29.9010466 C2.06398198,41.883036 12.3680302,51 24.799709,51 C38.7190471,51 50,39.5828376 50,25.5000002 C50,11.4151183 38.7170265,0 24.799709,0 L24.799608,0.000618497811 Z M9.39665188,41.4379272 L14.9729746,41.4379272 C15.7622675,43.4286212 16.6916378,45.1837237 17.7374951,46.617464 C14.5763833,45.5312582 11.7328073,43.7501889 9.39650034,41.4379272 L9.39665188,41.4379272 Z M24.799608,47.8135667 C22.5678666,47.8135667 20.203928,45.4235066 18.3983795,41.4379272 L31.2028571,41.4379272 C29.395389,45.4233533 27.0314505,47.8135667 24.799608,47.8135667 Z M31.86359,46.6175662 C32.9093968,45.1839282 33.8388176,43.4288256 34.6281104,41.4380294 L40.2044332,41.4380294 C37.8661561,43.7501889 35.0226306,45.5312582 31.8634384,46.6175662 L31.86359,46.6175662 Z M42.8702478,38.2514878 L35.7017003,38.2514878 C36.6527919,34.9309724 37.238864,31.145408 37.3612107,27.0960364 L46.7716026,27.0960364 C46.4795668,31.2232058 45.0864812,35.0429665 42.8705004,38.2514878 L42.8702478,38.2514878 Z" id="Fill-1" transform="translate(25.000000, 25.500000) rotate(180.000000) translate(-25.000000, -25.500000) "></path>
                    <path d="M16.9726738,49.9998691 C17.2494775,49.9979382 17.5263012,49.8378275 17.6420925,49.5909032 C19.1321019,46.3268604 22.0022597,43.8015162 25.510275,42.7022093 C26.195424,42.4861505 26.5428986,42.6076817 27.1220061,43.0224404 C27.7011135,43.4391252 27.648143,44.1027342 27.648143,44.8068636 L27.648143,48.3313128 C27.648143,48.915832 28.5413546,49.4540282 29.0576915,49.7414974 C29.5739782,50.0270061 30.5791114,50.0154303 31.0876082,49.7106319 L50.1715692,38.3560651 C50.6623557,38.0628425 51,37.5361777 51,36.972894 C51,36.4076843 50.7290865,35.8848961 50.2402701,35.5916489 L31.2115914,24.2370821 C30.7031448,23.9322836 29.58021,23.9207128 29.0639234,24.2062165 C28.5436664,24.4936512 27.6484948,25.033808 27.6484948,25.6183272 L27.6484948,29.4456538 C27.6484948,30.6185442 27.1871538,31.6139454 26.0112334,31.8029906 C19.8095622,32.7945398 15,38.0244952 15,44.326497 C15,46.2073688 15.5280969,47.9917919 16.2780268,49.5948738 C16.3938533,49.8417981 16.6942122,50.0019137 16.9729759,49.9999827 L16.9726738,49.9998691 Z" id="Fill-2" transform="translate(33.000000, 37.000000) rotate(180.000000) translate(-33.000000, -37.000000) "></path>
                </g>
                <g id="Group-7" transform="translate(58.000000, 58.000000)"></g>
            </g>
        </g>
    </g>
</svg>