<?xml version="1.0" encoding="UTF-8"?>
<svg width="100px" height="100px" viewBox="0 0 100 100" version="1.1" xmlns="http://www.w3.org/2000/svg" xmlns:xlink="http://www.w3.org/1999/xlink">
    <!-- Generator: Sketch 51.3 (57544) - http://www.bohemiancoding.com/sketch -->
    <title>icon-light-active-connection@1.5x</title>
    <desc>Created with Sketch.</desc>
    <defs></defs>
    <g id="Page-1" stroke="none" stroke-width="1" fill="none" fill-rule="evenodd">
        <g id="Icons---Light" transform="translate(-1157.000000, -392.000000)">
            <g id="icon-light-active-connection" transform="translate(1157.000000, 392.000000)">
                <circle id="Oval-Copy-32" fill="#FFFFFF" cx="50" cy="50" r="50"></circle>
                <path d="M36.5772597,44.7760528 C32.6056201,44.7760528 29.387579,48.0055775 29.387579,51.9913897 L29.387579,61.1302152 C26.663349,61.6751234 24.7816903,64.1882554 25.0203872,66.9644765 C25.2591085,69.7430426 27.5386327,71.8968201 30.3166655,71.9672899 C33.0923615,72.0354027 35.4772385,69.9990668 35.8540377,67.2369156 C36.2308369,64.4747644 34.4778729,61.8700277 31.7840793,61.1910645 L31.7840793,51.9909087 C31.7840793,49.3344621 33.930199,47.1806841 36.5771998,47.1806841 L49.3394822,47.1806841 L49.3394822,61.1910645 C46.6293321,61.8017225 44.8108222,64.3618443 45.1174021,67.1333755 C45.4263307,69.9025617 47.7597296,72 50.5377623,72 C53.3157951,72 55.649146,69.9025617 55.9557859,67.1333755 C56.2623779,64.3618443 54.4462525,61.8017225 51.7360425,61.1910645 L51.7360425,47.1806841 L64.5564415,47.1806841 C65.8272775,47.1806841 67.0465874,47.6880124 67.9452975,48.5899596 C68.8440076,49.4919068 69.349562,50.7155979 69.349562,51.9909087 L69.349562,61.1910645 C66.6394118,61.8017225 64.8209019,64.3618443 65.1298185,67.1333755 C65.4364105,69.9025617 67.7697494,71.9999994 70.5478421,71.9999994 C73.3259347,71.9999994 75.6592258,69.9025617 75.9658657,67.1333755 C76.2747942,64.3618443 74.4563323,61.8017225 71.7461222,61.1910645 L71.7461222,51.9909087 C71.7461222,48.0050964 68.528081,44.7755718 64.5564415,44.7755718 L51.7360425,44.7755718 L51.7360425,32.8089355 C54.4461926,32.1982775 56.2623659,29.6381557 55.9557859,26.8666245 C55.649194,24.0974383 53.315855,22 50.5377623,22 C47.7597296,22 45.4263786,24.0974383 45.1174021,26.8666245 C44.8108102,29.6381557 46.6292721,32.1982775 49.3394822,32.8089355 L49.3394822,44.7755718 L36.5772597,44.7760528 Z M33.4622107,66.4220635 C33.4622107,67.6621996 32.7179589,68.780216 31.5758781,69.2546244 C30.4337973,69.7290689 29.1184453,69.4660098 28.2454982,68.5899115 C27.3702145,67.7138494 27.1104273,66.3938636 27.5831488,65.2476472 C28.0559063,64.1014909 29.1699114,63.3545833 30.4056378,63.3545833 C31.2271187,63.3545833 32.01349,63.6857552 32.5868671,64.2752603 C33.1626047,64.8624444 33.4762306,65.6586809 33.4621508,66.4807483 L33.4622107,66.4220635 Z M53.594515,66.4220635 L53.5921784,66.4220635 C53.5921784,67.6621996 52.8479266,68.780216 51.7058458,69.2546244 C50.563765,69.7290689 49.2507496,69.4660098 48.3754659,68.5899115 C47.5025188,67.7138494 47.240395,66.3938636 47.7131165,65.2476472 C48.185874,64.1014909 49.3022157,63.3545833 50.5379421,63.3545833 C51.3570864,63.3545833 52.1434577,63.6857552 52.7191714,64.2752603 C53.294909,64.8624444 53.6085349,65.6586809 53.5921185,66.4807483 L53.594515,66.4220635 Z M73.5464782,66.4220635 L73.5441355,66.4220635 C73.5441355,67.6621996 72.7998838,68.780216 71.657803,69.2546244 C70.5157222,69.7290689 69.2027067,69.4660098 68.327423,68.5899115 C67.454476,67.7138494 67.1923522,66.3938636 67.6650737,65.2476472 C68.1377952,64.1014308 69.2518362,63.3545833 70.4875626,63.3545833 C71.3090435,63.3545833 72.0954149,63.6857552 72.6711286,64.2752603 C73.2445236,64.8624444 73.5604921,65.6586809 73.5440756,66.4807483 L73.5464782,66.4220635 Z M47.5426013,27.5199733 C47.5426013,26.2798372 48.286853,25.1594758 49.4289338,24.6850674 C50.568678,24.2106229 51.8840301,24.4736821 52.7569771,25.3497803 C53.6322608,26.2281874 53.892048,27.5458282 53.4193265,28.6920446 C52.946569,29.8382009 51.8325639,30.5851085 50.5968375,30.5851085 C49.7870398,30.5851085 49.010075,30.2633285 48.4366381,29.6878814 C47.8632011,29.1124342 47.5426013,28.3326607 47.5426013,27.5199733 Z" id="Fill-1" fill="#5C6370"></path>
            </g>
        </g>
    </g>
</svg>