<?xml version="1.0" encoding="UTF-8"?>
<svg width="100px" height="100px" viewBox="0 0 100 100" version="1.1" xmlns="http://www.w3.org/2000/svg" xmlns:xlink="http://www.w3.org/1999/xlink">
    <!-- Generator: Sketch 51.3 (57544) - http://www.bohemiancoding.com/sketch -->
    <title>icon-light-inactive-advanced-settings</title>
    <desc>Created with Sketch.</desc>
    <defs></defs>
    <g id="Page-1" stroke="none" stroke-width="1" fill="none" fill-rule="evenodd">
        <g id="Icons---Light" transform="translate(-1377.000000, -250.000000)">
            <g id="icon-light-inactive-advanced-settings" transform="translate(1377.000000, 250.000000)">
                <circle id="Oval-Copy-45" fill="#D7D8D9" cx="50" cy="50" r="50"></circle>
                <g id="Group-16" transform="translate(29.000000, 27.000000)" fill="#889099">
                    <path d="M25,16.7062452 L27.2937586,19 L36.1610012,10.132772 L36.1648535,10.1366243 C36.5227749,10.1096778 36.8806962,10.1443191 37.2270507,10.2328337 L37.5233939,10.3021163 L43,3.95574268 L40.0442525,1 L33.6593452,6.51896273 L33.74786,6.82300028 C33.8556265,7.14243724 33.890258,7.47726377 33.859469,7.80824784 L25,16.7062452 Z" id="Fill-1"></path>
                    <path d="M2.89986806,35.7766919 C2.32333181,36.3489498 2,37.1314468 2,37.9450571 C2,38.7586774 2.32333181,39.5372977 2.89986806,40.1134224 L4.89438911,42.1065883 C6.09419325,43.2978039 8.03416415,43.2978039 9.23406802,42.1065883 L22,29.3493297 L15.6463535,23 L2.89986806,35.7766919 Z" id="Fill-2"></path>
                    <path d="M10.1327408,20.2620563 C11.4155077,20.2503585 12.686497,19.9813384 13.8639636,19.474489 L36.1926119,41.799176 C36.9256016,42.5672502 37.9392989,43 38.9958948,43 C40.0563833,43 41.0700606,42.5672302 41.8030703,41.799176 C42.5672408,41.0700879 43,40.0563792 43,38.9958892 C43,37.9353992 42.5672309,36.9217205 41.8030703,36.1926024 L19.474422,13.863923 C19.9812706,12.6825621 20.2502904,11.4154637 20.2619882,10.1288024 C20.1918113,4.56514745 15.6964479,0.0698675766 10.1331999,0 C8.73355468,0.0155904507 7.34938011,0.331401878 6.07839085,0.92012604 L5.3999876,1.20863921 L11.3886287,7.19728863 C11.9656542,7.74313406 12.293163,8.49952044 12.293163,9.29102028 C12.293163,10.0863928 11.9656642,10.8427792 11.3886287,11.3886445 C10.842784,11.9617783 10.0863987,12.2853849 9.29489995,12.2853849 C8.50343117,12.2853849 7.74314324,11.9617783 7.1972786,11.3886445 L1.20863752,5.39999513 L0.920124759,6.07839931 C0.331401416,7.34939034 0.0194930267,8.72957441 0,10.1293214 C0.0701768924,15.696869 4.56554034,20.1922486 10.1327807,20.2621162 L10.1327408,20.2620563 Z" id="Fill-3"></path>
                </g>
            </g>
        </g>
    </g>
</svg>