<?xml version="1.0" encoding="UTF-8"?>
<svg width="50px" height="50px" viewBox="0 0 50 50" version="1.1" xmlns="http://www.w3.org/2000/svg" xmlns:xlink="http://www.w3.org/1999/xlink">
    <title>icon-dark-active-network</title>
    <g id="icon-dark-active-network" stroke="none" stroke-width="1" fill="none" fill-rule="evenodd">
        <g transform="translate(4.571429, 5.500000)" fill="#FFFFFF" fill-rule="nonzero" id="Fill-1">
            <path d="M20.428809,0 C16.2421395,0 12.8274801,3.41845554 12.8274801,7.6097793 C12.8274801,9.84848124 13.8073389,11.8624093 15.3513588,13.2576624 L9.91735881,24.1520127 C9.18615847,23.9160668 8.40859004,23.7804415 7.60132891,23.7804415 C3.41465947,23.7804415 0,27.198897 0,31.3902206 C0,35.5815445 3.41465947,39 7.60132891,39 C11.46879,39 14.660588,36.0905911 15.1285448,32.3414431 L25.7285981,32.3414431 C26.1962603,36.0905911 29.3882102,39 33.2558139,39 C37.4424834,39 40.8571429,35.5815445 40.8571429,31.3902206 C40.8571429,27.198897 37.4424834,23.7804415 33.2558139,23.7804415 C32.4485529,23.7804415 31.6709844,23.9160668 30.939784,24.1520127 L25.505784,13.2576624 C27.049804,11.8624093 28.0296627,9.84848124 28.0296627,7.6097793 C28.0296627,3.41845554 24.6150034,0 20.4283339,0 L20.428809,0 Z M16.9250714,14.3577511 C17.9735797,14.9057979 19.1668934,15.2197964 20.428809,15.2197964 C21.6907245,15.2197964 22.8840382,14.9058169 23.9325465,14.3577511 L29.2325731,24.9548444 C27.3452107,26.1420176 26.020204,28.1280747 25.7288356,30.4391172 L15.1287824,30.4391172 C14.8374235,28.1279321 13.5124073,26.1418748 11.6250448,24.9548444 L16.9250714,14.3577511 Z"></path>
        </g>
    </g>
</svg>