<?xml version="1.0" encoding="UTF-8"?>
<svg width="100px" height="100px" viewBox="0 0 100 100" version="1.1" xmlns="http://www.w3.org/2000/svg" xmlns:xlink="http://www.w3.org/1999/xlink">
    <!-- Generator: Sketch 51.3 (57544) - http://www.bohemiancoding.com/sketch -->
    <title>icon-light-color-theme</title>
    <desc>Created with Sketch.</desc>
    <defs></defs>
    <g id="Page-1" stroke="none" stroke-width="1" fill="none" fill-rule="evenodd">
        <g id="Icons---Light" transform="translate(-787.000000, -534.000000)">
            <g id="icon-light-color-theme" transform="translate(787.000000, 534.000000)">
                <circle id="Oval-Copy-29" fill="#4CB649" cx="50" cy="50" r="50"></circle>
                <path d="M50,19 C49.44725,19 49,19.5218092 49,20.1666667 L49,24.8333333 C49,25.4782083 49.447265,26 50,26 C50.552735,26 51,25.4781908 51,24.8333333 L51,20.1666667 C51,19.5217917 50.552735,19 50,19 Z M33.2398432,26 C32.9213649,26 32.607766,26.1263133 32.3646689,26.3692327 C31.8784437,26.8550652 31.8784437,27.632366 32.3646689,28.1182296 L35.8849085,31.6356256 C36.3711338,32.1214581 37.149063,32.1214581 37.6353194,31.6356256 C38.1215758,31.1497932 38.1215446,30.3724923 37.6353194,29.8866287 L34.1150798,26.3692327 C33.8719703,26.1263196 33.5583527,26 33.2399055,26 L33.2398432,26 Z M67.7600921,26 C67.4416132,26 67.1280136,26.1263131 66.8849161,26.369232 L63.3646696,29.8866212 C62.8784435,30.3724527 62.8784435,31.1497521 63.3646696,31.6356147 C63.8508958,32.1214773 64.6288266,32.1214462 65.1150839,31.6356147 L68.6353304,28.1182255 C69.1215565,27.632394 69.1215565,26.8550946 68.6353304,26.369232 C68.3922204,26.1263193 68.0786022,26 67.7601543,26 L67.7600921,26 Z M50.5,30 C43.1321875,30 36,35.7441179 36,43.8695714 C36,54.4113929 43.8541667,56.6195714 43.8541667,64 L57.1458333,64 C57.1458333,56.6195714 65,54.4113929 65,43.8695714 C65,35.7441786 57.8678125,30 50.5,30 Z M46.6697939,34.0017325 L46.6888702,34.0017325 C46.7198684,33.9994225 46.7532535,33.9994225 46.7842518,34.0017325 C47.3732309,34.0040425 47.876394,34.4148279 47.981268,34.9779025 C48.083804,35.5386965 47.7571197,36.0925547 47.2039308,36.2910617 C44.2280248,37.3757015 41.9936841,39.9258074 41.4237752,43.0296652 C41.3021629,43.671209 40.6654838,44.0981763 40.0026046,43.98049 C39.3397253,43.8628037 38.8985587,43.2466049 39.0201588,42.6050611 C39.7426783,38.674918 42.5540701,35.4718068 46.3265422,34.0940737 C46.4362326,34.0479149 46.5506905,34.0156103 46.669916,34.001762 L46.6697939,34.0017325 Z M26.1666665,44 C25.5217916,44 25,44.447265 25,45 C25,45.552735 25.5218091,46 26.1666665,46 L30.8333335,46 C31.4782084,46 32,45.552735 32,45 C32,44.447265 31.4781909,44 30.8333335,44 L26.1666665,44 Z M70.1666667,44 C69.5217917,44 69,44.447265 69,45 C69,45.552735 69.5218092,46 70.1666667,46 L74.8333333,46 C75.4782083,46 76,45.552735 76,45 C76,44.447265 75.4781908,44 74.8333333,44 L70.1666667,44 Z M44,67 L44,69 L57,69 L57,67 L44,67 Z M44,72 C44,73.14845 45.1171727,74 46.3636364,74 L54.6363636,74 C55.8828273,74 57,73.14845 57,72 L44,72 Z M48,76 C48,77.1073995 49.11575,78 50.5,78 C51.88425,78 53,77.1074 53,76 L48,76 Z" id="Fill-1" fill="#FFFFFF"></path>
            </g>
        </g>
    </g>
</svg>