<?xml version="1.0" encoding="UTF-8"?>
<svg width="34px" height="30px" viewBox="0 0 34 30" version="1.1" xmlns="http://www.w3.org/2000/svg" xmlns:xlink="http://www.w3.org/1999/xlink">
    <title>Alert</title>
    <g id="Alert" stroke="none" stroke-width="1" fill="none" fill-rule="evenodd">
        <g id="Brand_Mascot-Copy-8" transform="translate(7.000000, 2.000000)" fill="#141515" fill-rule="nonzero">
            <g id="Brand_Mascot" transform="translate(-0.000000, 0.000000)">
                <g id="Pia_Logo_Vertical" transform="translate(-0.000000, 0.000000)">
                    <g id="Lock" transform="translate(-0.000000, 0.000000)">
                        <path d="M4.72138805,9.59810472 L4.72138805,8.15614812 C4.72138805,5.20981835 7.08892545,2.81244907 9.99922694,2.81244907 C12.9095284,2.81244907 15.2771412,5.20985653 15.2771412,8.19188018 L15.2771412,9.59810472 L18.0549472,9.59810472 L18.0549472,8.15614812 C18.0549472,3.65169438 14.4437844,0 9.99922694,0 C5.55466952,0 1.94354438,3.65169438 1.94354438,8.15614812 L1.94354438,9.59810472 L4.72138805,9.59810472 Z" id="Path_30"></path>
                        <path d="M5.8333852,9.56267776 C6.30675139,9.56238756 6.75762344,9.76716078 7.07218441,10.1253053 L7.07218441,10.1253053 L12.9252891,10.1253053 C13.2406338,9.76660583 13.6926205,9.5618356 14.1669162,9.56267776 L14.1669162,9.56267776 L17.7780791,9.56267776 C18.6981603,9.56361346 19.4438312,10.3185839 19.444642,11.2501399 C19.8053428,11.7369205 20.0002282,12.3290959 20.0000001,12.9376399 L20.0000001,12.9376399 L20.0007642,16.0222795 C19.3895757,15.9208424 18.7463198,16.1680185 18.3561281,16.7180686 L12.3272178,25.2170803 C12.187269,25.4143096 12.0897796,25.6384067 12.0394919,25.8744264 L7.68074381,25.8750125 C7.44549547,26.5485409 6.81687379,26.9991327 6.11127137,26.9999999 L6.11127137,26.9999999 L3.61116304,26.9999999 C2.86191843,27.0002886 2.20478773,26.4938021 2.00560688,25.7625099 C0.817564413,25.4154992 -0.000327372791,24.3144382 9.82998802e-08,23.0625252 L9.82998802e-08,23.0625252 L9.82998802e-08,12.9373726 C9.82998802e-08,12.3288578 0.19480192,11.7367364 0.555546309,11.2500253 C0.555466283,10.8024882 0.731024389,10.3732577 1.04358291,10.0568012 C1.35614144,9.7403446 1.78008474,9.56267776 2.22210924,9.56267776 L2.22210924,9.56267776 Z M10.0105852,13.7811327 C8.99254131,13.7761691 8.09703927,14.4613881 7.82391403,15.4543537 C7.5507888,16.4473194 7.96756196,17.5025523 8.8416067,18.0310618 C8.94462133,18.0903343 9.00093712,18.2077245 8.98326454,18.3263476 L8.98326454,18.3263476 L8.36113132,21.8897425 C8.3466866,21.9713159 8.36871314,22.0551748 8.42127161,22.1187072 C8.47383007,22.1822396 8.55150864,22.2189038 8.63336174,22.2188136 L8.63336174,22.2188136 L11.363961,22.2188136 C11.4458141,22.2189038 11.5234927,22.1822396 11.5760511,22.1187072 C11.6286096,22.0551748 11.6506361,21.9713159 11.6361914,21.8897425 L11.6361914,21.8897425 L11.0166975,18.3263476 C10.9947022,18.2150887 11.0434821,18.1017335 11.1389373,18.0422853 C12.0179204,17.5224081 12.4447665,16.4713109 12.181151,15.475714 C11.9175355,14.4801171 11.0286291,13.7861505 10.0105852,13.7811327 Z" id="Combined-Shape"></path>
                        <path d="M8.74923289,6.44673553 C8.75025096,6.07656572 8.53066381,5.74231748 8.19307857,5.60018139 C7.85549333,5.45804531 7.46656696,5.53608646 7.20804053,5.79783707 C6.94951411,6.05958768 6.87243425,6.4533645 7.01281953,6.7951599 C7.15320482,7.13695529 7.48333586,7.35928101 7.84894601,7.35825024 C8.34550573,7.35665398 8.7476563,6.94948804 8.74923289,6.44673553 L8.74923289,6.44673553 Z M12.1545226,5.53014351 C11.7893689,5.529114 11.4595564,5.75089084 11.3188783,6.0920621 C11.1782002,6.43323337 11.2543609,6.82661013 11.5118465,7.08875905 C11.7693321,7.35090798 12.1574343,7.43020249 12.4951793,7.2896672 C12.8329243,7.14913192 13.053798,6.8164433 13.0548067,6.44673553 C13.0554132,5.94224367 12.652796,5.5323346 12.1545226,5.53014351 L12.1545226,5.53014351 Z M11.1925916,7.95675865 C11.1878407,7.96126333 10.7011817,8.4373854 9.99949088,8.4373854 C9.30360659,8.4373854 8.81932301,7.96939467 8.80642789,7.95702588 C8.69737017,7.85007922 8.52370234,7.85161816 8.41651018,7.9604811 C8.30931801,8.06934403 8.30833157,8.24518163 8.41429544,8.35527037 C8.44008569,8.38142044 9.06176644,8.99989812 9.99960399,8.99989812 C10.9374415,8.99989812 11.558783,8.38145861 11.5849126,8.35527037 C11.6901707,8.24505158 11.6888764,8.06979324 11.5820022,7.96118038 C11.475128,7.85256752 11.3020345,7.8506011 11.1927801,7.95675865 L11.1925916,7.95675865 Z" id="Path_32"></path>
                    </g>
                </g>
            </g>
        </g>
        <path d="M26.968713,20.0005456 C27.2176217,19.9912587 27.4520161,20.1011148 27.5759118,20.2851916 L27.5759118,20.2851916 L32.9112625,28.1484868 C33.0301349,28.3242641 33.0295763,28.5410515 32.9095881,28.7168164 C32.7901485,28.8920962 32.5691567,29 32.330849,29 L32.330849,29 L21.6691513,29 C21.4308436,29 21.2098428,28.8920937 21.0904118,28.7168164 C20.9704237,28.5410391 20.9698651,28.3242516 21.0887375,28.1484868 L21.0887375,28.1484868 L26.4195152,20.2851916 C26.5333685,20.1167501 26.7404162,20.0088464 26.9686801,20 Z M27.0605575,26.6461538 C26.6265109,26.6461538 26.2747253,26.9986861 26.2747253,27.4336538 C26.2747253,27.8686216 26.6265109,28.2211538 27.0605575,28.2211538 C27.4946041,28.2211538 27.8463897,27.8686216 27.8463897,27.4336538 C27.8463897,26.9986861 27.4946041,26.6461538 27.0605575,26.6461538 Z M27.0352592,22.246154 C26.6877799,22.246154 26.4065934,22.5214002 26.4065934,22.8615386 L26.4065934,22.8615386 L26.5637599,25.6307695 C26.5637599,25.8855695 26.7749601,26.092308 27.0352592,26.092308 C27.2955582,26.092308 27.5067585,25.8855695 27.5067585,25.6307695 L27.5067585,25.6307695 L27.663925,22.8615386 C27.663925,22.5214002 27.3827385,22.246154 27.0352592,22.246154 Z" id="Combined-Shape" fill="#111112"></path>
    </g>
</svg>