<?xml version="1.0" encoding="UTF-8" standalone="no"?>
<!-- Generator: Adobe Illustrator 22.0.1, SVG Export Plug-In . SVG Version: 6.00 Build 0)  -->

<svg
   xmlns:dc="http://purl.org/dc/elements/1.1/"
   xmlns:cc="http://creativecommons.org/ns#"
   xmlns:rdf="http://www.w3.org/1999/02/22-rdf-syntax-ns#"
   xmlns:svg="http://www.w3.org/2000/svg"
   xmlns="http://www.w3.org/2000/svg"
   xmlns:sodipodi="http://sodipodi.sourceforge.net/DTD/sodipodi-0.dtd"
   xmlns:inkscape="http://www.inkscape.org/namespaces/inkscape"
   version="1.1"
   id="Layer_1"
   x="0px"
   y="0px"
   viewBox="0 0 40 30"
   xml:space="preserve"
   sodipodi:docname="alert.svg"
   width="40"
   height="30"
   inkscape:version="0.91 r13725"><metadata
     id="metadata49"><rdf:RDF><cc:Work
         rdf:about=""><dc:format>image/svg+xml</dc:format><dc:type
           rdf:resource="http://purl.org/dc/dcmitype/StillImage" /><dc:title /></cc:Work></rdf:RDF></metadata><defs
     id="defs47" /><sodipodi:namedview
     pagecolor="#ffffff"
     bordercolor="#666666"
     borderopacity="1"
     objecttolerance="10"
     gridtolerance="10"
     guidetolerance="10"
     inkscape:pageopacity="0"
     inkscape:pageshadow="2"
     inkscape:window-width="2560"
     inkscape:window-height="1315"
     id="namedview45"
     showgrid="true"
     inkscape:pagecheckerboard="true"
     inkscape:snap-bbox="true"
     inkscape:bbox-nodes="true"
     inkscape:snap-bbox-edge-midpoints="false"
     inkscape:snap-nodes="false"
     inkscape:snap-others="false"
     inkscape:zoom="17.800235"
     inkscape:cx="-5.7777796"
     inkscape:cy="18.201119"
     inkscape:window-x="0"
     inkscape:window-y="1"
     inkscape:window-maximized="1"
     inkscape:current-layer="g957"><inkscape:grid
       type="xygrid"
       id="grid856" /></sodipodi:namedview><style
     type="text/css"
     id="style2">
	.st0{fill:#FFFFFF;}
	.st1{fill:none;}
	.st2{fill:#ED3324;}
	.st3{fill:url(#SVGID_1_);}
</style><g
     id="Layer_2_1_"
     transform="translate(0,-270)" /><g
     id="g957"><g
       id="g931"><path
         class="st1"
         d="m 24.549349,8.6807891 c 0,-3.0187769 -2.484352,-5.4597976 -5.503129,-5.4597976 -3.018777,0 -5.503129,2.4410207 -5.503129,5.4597976 V 10.370726 H 24.534906 V 8.6807891 Z"
         id="path7"
         inkscape:connector-curvature="0"
         style="fill:none;stroke-width:0.14443909" /><path
         style="fill:#000000;stroke-width:0.14443909;fill-opacity:0.60000002"
         d="M 19.046875 0 C 14.15039 0 10.177734 3.9585746 10.177734 8.8261719 L 10.177734 9.8066406 L 9.0507812 9.8066406 C 7.8952685 9.8066406 7 10.731978 7 11.873047 L 7 19.990234 C 7 20.524659 7.0138102 20.928691 7.2304688 21.203125 C 7.3315762 21.347564 7.4762917 21.450037 7.6640625 21.507812 L 7.6640625 22.011719 C 7.6640625 22.965017 8.4146615 23.730469 9.3535156 23.730469 L 10.25 23.730469 L 10.378906 25.882812 L 10.378906 25.912109 C 10.378906 26.02766 10.39462 26.273212 10.539062 26.533203 C 10.683502 26.778749 10.97257 27.010538 11.449219 26.996094 L 15.941406 26.996094 L 18.265625 24.525391 L 20.013672 24.525391 L 20.488281 25.078125 L 27.859375 14.988281 C 28.089971 14.67259 28.531964 14.603385 28.847656 14.833984 C 28.913786 14.882284 28.971777 14.941876 29.017578 15.009766 L 31.064453 18.042969 L 31.064453 11.886719 C 31.064453 10.74565 30.1239 9.8066406 29.011719 9.8066406 L 27.914062 9.8066406 L 27.914062 8.8261719 C 27.914062 3.9441307 23.957804 1.1842379e-15 19.046875 0 z M 19.060547 3.2207031 C 22.079324 3.2207031 24.564453 5.6628637 24.564453 8.6816406 L 24.564453 10.371094 L 13.556641 10.371094 L 13.556641 8.6816406 C 13.556641 5.6628637 16.04177 3.2207031 19.060547 3.2207031 z M 18.931641 14.732422 C 19.769388 14.732422 20.477064 15.310691 20.650391 16.148438 L 20.216797 16.148438 C 20.057914 15.585126 19.538285 15.152344 18.931641 15.152344 C 18.324997 15.152344 17.817858 15.585126 17.644531 16.148438 L 17.210938 16.148438 C 17.384265 15.31069 18.07945 14.732422 18.931641 14.732422 z M 17.082031 16.4375 L 20.722656 16.4375 L 20.722656 19.138672 L 17.082031 19.138672 L 17.082031 16.4375 z "
         id="path9" /><g
         id="g40"
         transform="matrix(0.14443909,0,0,0.14443909,-2.6196434,-7.5974963)"><radialGradient
           id="SVGID_1_"
           cx="149.79649"
           cy="-7101.584"
           r="15.7853"
           gradientTransform="matrix(1,0,0,-1,0,-6987)"
           gradientUnits="userSpaceOnUse"><stop
             offset="0"
             style="stop-color:#000000"
             id="stop11" /><stop
             offset="0.1901"
             style="stop-color:#030303"
             id="stop13" /><stop
             offset="0.3236"
             style="stop-color:#0C0C0C"
             id="stop15" /><stop
             offset="0.4397"
             style="stop-color:#1C1C1C"
             id="stop17" /><stop
             offset="0.5461"
             style="stop-color:#323232"
             id="stop19" /><stop
             offset="0.6456"
             style="stop-color:#4E4E4E"
             id="stop21" /><stop
             offset="0.7402"
             style="stop-color:#717171"
             id="stop23" /><stop
             offset="0.8309"
             style="stop-color:#9A9A9A"
             id="stop25" /><stop
             offset="0.9161"
             style="stop-color:#C9C9C9"
             id="stop27" /><stop
             offset="0.9985"
             style="stop-color:#FEFEFE"
             id="stop29" /><stop
             offset="1"
             style="stop-color:#FFFFFF"
             id="stop31" /></radialGradient><rect
           x="132.60001"
           y="112.4"
           class="st3"
           width="33.700001"
           height="3.9000001"
           id="rect34"
           style="fill:#000000;fill-opacity:0.60000002" /><circle
           cx="137.2"
           cy="95.800003"
           r="7"
           id="circle36"
           style="fill:#000000;fill-opacity:0.60000002" /><circle
           cx="162.10001"
           cy="95.800003"
           r="7"
           id="circle38"
           style="fill:#000000;fill-opacity:0.60000002" /></g></g><g
       id="g901"
       transform="matrix(0.87500044,0,0,0.87500044,3.499985,2.6249881)"><path
         style="fill:#000000;fill-opacity:0.60000002;stroke-width:1.42204857"
         d="M 28.193359 17.796875 C 28.08548 17.81368 27.983552 17.871666 27.914062 17.966797 L 21.082031 27.322266 C 21.028656 27.395317 21 27.483748 21 27.574219 C 21 27.809831 21.190168 28 21.425781 28 L 34.574219 28 C 34.659274 28 34.741992 27.975317 34.8125 27.927734 C 35.00779 27.795921 35.059544 27.529276 34.927734 27.333984 L 28.613281 17.980469 C 28.585678 17.939555 28.551575 17.904111 28.511719 17.875 C 28.416588 17.805511 28.301238 17.78007 28.193359 17.796875 z M 27.554688 20.179688 L 28.833984 20.179688 C 29.069597 20.179688 29.261719 20.369857 29.261719 20.605469 L 29.261719 24.017578 L 29.261719 24.019531 C 29.261502 24.255143 29.069597 24.44553 28.833984 24.445312 L 27.554688 24.443359 C 27.319227 24.443143 27.128906 24.251085 27.128906 24.015625 L 27.128906 20.605469 C 27.128906 20.369857 27.319074 20.179687 27.554688 20.179688 z M 27.554688 25.15625 L 28.833984 25.15625 C 29.069597 25.15625 29.261719 25.346419 29.261719 25.582031 L 29.261719 26.720703 C 29.261719 26.956315 29.069597 27.146484 28.833984 27.146484 L 27.554688 27.146484 C 27.319075 27.146484 27.128906 26.956315 27.128906 26.720703 L 27.128906 25.582031 C 27.128906 25.346419 27.319075 25.15625 27.554688 25.15625 z "
         transform="matrix(1.1428566,0,0,1.1428566,-3.9999808,-2.9999849)"
         id="Fill-4-9" /></g></g></svg>