<?xml version="1.0" encoding="UTF-8"?>
<svg width="34px" height="30px" viewBox="0 0 34 30" version="1.1" xmlns="http://www.w3.org/2000/svg" xmlns:xlink="http://www.w3.org/1999/xlink">
    <title>Disconnecting</title>
    <g id="Disconnecting" stroke="none" stroke-width="1" fill="none" fill-rule="evenodd" fill-opacity="0.5">
        <path d="M16.9992269,2 C21.3614777,2 24.9209146,5.51769874 25.0512496,9.90679579 L25.0549472,10.1561481 L25.0543048,11.58601 C25.8428985,11.7198928 26.4439141,12.4138606 26.444642,13.2501399 C26.7652648,13.6828337 26.9548731,14.1988025 26.9928898,14.7355202 L27,14.9376399 L27,15 C23.1340067,15 20,18.1340068 20,22 C20,23.9070492 20.7626083,25.6359816 21.999502,26.8984745 L22,23.1519537 L26.7756874,23.1519537 L25.1982634,24.7293777 C25.5890014,25.1201158 26.0520984,25.4095514 26.5586107,25.5832127 C26.9204052,25.7134588 27.3111433,25.7858177 27.7018813,25.7858177 C27.9913169,25.7858177 28.2662808,25.7424023 28.5412446,25.6700434 C29.7134588,25.3806078 30.6396527,24.4399421 30.9869754,23.2387844 L30.9869754,23.1374819 L33.2156295,23.1374819 L33.2156295,23.1519537 L33.2011577,23.3256151 C33.1287988,23.7597685 33.0419682,24.0926194 32.9261939,24.3675832 C32.130246,26.3212735 30.683068,27.5224313 28.6280753,27.9276411 C28.4978292,27.9710564 28.3531114,27.9710564 28.2228654,27.9855282 L28.0202605,28 L27.1664255,27.9855282 C27.0940666,27.9855282 27.0361795,27.9710564 26.9493488,27.9710564 C25.6903039,27.7684515 24.5759768,27.2040521 23.6642547,26.3212735 L22.5673688,27.4179994 C23.1478516,27.8934727 23.8061334,28.2774956 24.5202114,28.5480654 C24.2586653,28.7962031 23.919041,28.9561122 23.5490998,28.9922123 L23.3888367,28.9999999 L20.8889923,28.9999999 C20.2335367,28.9999999 19.6443122,28.6111922 19.3756699,28.0159561 L19.3194822,27.8750125 L14.6807438,27.8750125 C14.4622989,28.5004318 13.9046698,28.933625 13.2611783,28.9930132 L13.1112713,28.9999999 L10.611163,28.9999999 C9.86191837,29.0002886 9.20478768,28.4938021 9.00560682,27.7625099 C7.87696648,27.4328498 7.08238713,26.4226592 7.00603156,25.2491054 L7.00000004,25.0625252 L7.00000004,14.9373726 C7.00000004,14.3288578 7.19480186,13.7367364 7.55554625,13.2500253 C7.55546623,12.8024882 7.73102433,12.3732577 8.04358286,12.0568012 C8.28957799,11.8077381 8.6045679,11.6446452 8.94306594,11.5864756 L8.94354432,10.1561481 C8.94354432,5.65169438 12.5546695,2 16.9992269,2 Z M17.0105851,15.7811327 C15.9925413,15.7761691 15.0970392,16.4613881 14.823914,17.4543537 C14.5507887,18.4473194 14.9675619,19.5025523 15.8416066,20.0310618 C15.9240183,20.0784798 15.9765428,20.1630931 15.9852077,20.2557768 L15.9832645,20.3263476 L15.3611313,23.8897425 C15.3466865,23.9713159 15.3687131,24.0551748 15.4212715,24.1187072 C15.4606904,24.1663565 15.5142393,24.1988925 15.5730819,24.2121443 L15.6333617,24.2188136 L18.3639609,24.2188136 C18.445814,24.2189038 18.5234926,24.1822396 18.5760511,24.1187072 C18.6154699,24.0710579 18.6377146,24.0119749 18.6402793,23.9509978 L18.6361914,23.8897425 L18.0166975,20.3263476 C17.9947022,20.2150887 18.043482,20.1017335 18.1389372,20.0422853 C19.0179204,19.5224081 19.4447665,18.4713109 19.181151,17.475714 C18.9175355,16.4801171 18.028629,15.7861505 17.0105851,15.7811327 Z M33.2879884,16.552822 L33.2879884,21.3719247 L28.512301,21.3719247 L30.089725,19.7945007 C29.4674385,19.1287988 28.5701881,18.7380608 27.6295224,18.7380608 C27.3111433,18.7380608 27.0361795,18.7814761 26.7756874,18.853835 C25.6034732,19.1722142 24.6628075,20.0839363 24.3299566,21.2850941 L24.3154848,21.4008683 L22.0868307,21.4008683 L22.1013025,21.1837916 C22.1013025,21.1259045 22.1157742,21.1114327 22.1157742,21.0535456 C22.5788712,18.8248915 24.4457308,17.0014472 26.6743849,16.6541245 C26.804631,16.6107091 26.934877,16.6107091 27.065123,16.5962373 L27.2821997,16.5817656 L27.9623734,16.5817656 L28.1360347,16.5962373 C28.2083936,16.5962373 28.3096961,16.6107091 28.3965268,16.6107091 C29.4819103,16.7843705 30.4659913,17.2329957 31.3053546,17.9276411 C31.4356006,18.0289436 31.5658466,18.1447178 31.6816208,18.260492 L33.2879884,16.552822 Z M16.9992269,4.81244907 C14.1616829,4.81244907 11.8401041,7.09144824 11.7257986,9.93623157 L11.721388,10.1561481 L11.7209999,11.562 L12.8333851,11.5626778 C13.2541551,11.5624198 13.6571519,11.7241873 13.9624383,12.0116751 L14.0721844,12.1253053 L19.9252891,12.1253053 C20.2055954,11.8064613 20.5938659,11.6092405 21.0098007,11.5699414 L21.1669162,11.5626778 L22.2769999,11.562 L22.2771412,10.1918802 C22.2771412,7.28440712 20.0264293,4.93268483 17.2164534,4.81691589 L16.9992269,4.81244907 Z M15.8064278,9.95702588 C15.819323,9.96939467 16.3036065,10.4373854 16.9994908,10.4373854 C17.7011817,10.4373854 18.1878407,9.96126333 18.1925915,9.95675865 C18.3020344,9.8506011 18.4751279,9.85256752 18.5820021,9.96118038 C18.6888763,10.0697932 18.6901706,10.2450516 18.5849125,10.3552704 C18.5587829,10.3814586 17.9374415,10.9998981 16.9996039,10.9998981 C16.0617664,10.9998981 15.4400856,10.3814204 15.4142954,10.3552704 C15.3083315,10.2451816 15.309318,10.069344 15.4165101,9.9604811 C15.5237023,9.85161816 15.6973701,9.85007922 15.8064278,9.95702588 Z M15.1930785,7.60018139 C15.5306638,7.74231748 15.7502509,8.07656572 15.7492328,8.44673553 C15.7476562,8.94948804 15.3455057,9.35665398 14.848946,9.35825024 C14.4833358,9.35928101 14.1532048,9.13695529 14.0128195,8.7951599 C13.8724342,8.4533645 13.9495141,8.05958768 14.2080405,7.79783707 C14.4665669,7.53608646 14.8554933,7.45804531 15.1930785,7.60018139 Z M19.1545226,7.53014351 C19.6527959,7.5323346 20.0554132,7.94224367 20.0548066,8.44673553 C20.053798,8.8164433 19.8329243,9.14913192 19.4951793,9.2896672 C19.1574342,9.43020249 18.7693321,9.35090798 18.5118465,9.08875905 C18.2543609,8.82661013 18.1782001,8.43323337 18.3188782,8.0920621 C18.4595564,7.75089084 18.7893688,7.529114 19.1545226,7.53014351 Z" id="Combined-Shape" fill="#141515" fill-rule="nonzero"></path>
    </g>
</svg>