<?xml version="1.0" encoding="UTF-8" standalone="no"?>
<!-- Generator: Adobe Illustrator 22.0.1, SVG Export Plug-In . SVG Version: 6.00 Build 0)  -->

<svg
   xmlns:dc="http://purl.org/dc/elements/1.1/"
   xmlns:cc="http://creativecommons.org/ns#"
   xmlns:rdf="http://www.w3.org/1999/02/22-rdf-syntax-ns#"
   xmlns:svg="http://www.w3.org/2000/svg"
   xmlns="http://www.w3.org/2000/svg"
   xmlns:sodipodi="http://sodipodi.sourceforge.net/DTD/sodipodi-0.dtd"
   xmlns:inkscape="http://www.inkscape.org/namespaces/inkscape"
   version="1.1"
   id="Layer_1"
   x="0px"
   y="0px"
   viewBox="0 0 40 30"
   xml:space="preserve"
   sodipodi:docname="down.svg"
   width="40"
   height="30"
   inkscape:version="0.91 r13725"><metadata
     id="metadata26"><rdf:RDF><cc:Work
         rdf:about=""><dc:format>image/svg+xml</dc:format><dc:type
           rdf:resource="http://purl.org/dc/dcmitype/StillImage" /><dc:title /></cc:Work></rdf:RDF></metadata><defs
     id="defs24" /><sodipodi:namedview
     pagecolor="#ffffff"
     bordercolor="#666666"
     borderopacity="1"
     objecttolerance="10"
     gridtolerance="10"
     guidetolerance="10"
     inkscape:pageopacity="0"
     inkscape:pageshadow="2"
     inkscape:window-width="1268"
     inkscape:window-height="1006"
     id="namedview22"
     showgrid="true"
     inkscape:snap-page="true"
     inkscape:snap-others="false"
     inkscape:snap-nodes="false"
     inkscape:snap-bbox="true"
     inkscape:bbox-nodes="true"
     inkscape:snap-bbox-edge-midpoints="true"
     inkscape:pagecheckerboard="true"
     inkscape:zoom="8.9001175"
     inkscape:cx="16.396312"
     inkscape:cy="4.1130186"
     inkscape:window-x="0"
     inkscape:window-y="1"
     inkscape:window-maximized="0"
     inkscape:current-layer="g19"><inkscape:grid
       type="xygrid"
       id="grid833"
       spacingx="0.5"
       spacingy="0.5"
       empspacing="2" /></sodipodi:namedview><style
     type="text/css"
     id="style2">
	.st0{fill:none;}
	.st1{fill:#ADADAD;}
</style><g
     id="Layer_2_1_"
     transform="translate(0,-270)" /><g
     id="g19"
     transform="matrix(0.14443909,0,0,0.14443909,-1.1752525,-7.6119403)"><path
       class="st0"
       d="m 178.1,112.7 c 0,-20.9 -17.2,-37.8 -38.1,-37.8 -20.9,0 -38.1,16.9 -38.1,37.8 v 11.7 H 178 v -11.7 z"
       id="path5"
       inkscape:connector-curvature="0"
       style="fill:none" /><path
       class="st1"
       d="m 209,120.5 h -7.6 v -6.8 C 201.4,79.9 174,52.6 140,52.6 106.1,52.6 78.6,80 78.6,113.7 v 6.8 h -7.8 c -8,0 -14.2,6.4 -14.2,14.3 V 191 c 0,3.7 0.1,6.5 1.6,8.4 0.7,1 1.7,1.7 3,2.1 v 3.5 c 0,6.6 5.2,11.9 11.7,11.9 h 6.2 l 0.9,14.9 c 0,0.1 0,0.1 0,0.2 0,0.8 0.1,2.5 1.1,4.3 1,1.7 3,3.3 6.3,3.2 h 31.1 l 16.1,-17.1 h 12.1 l 13.6,15.8 17.1,-17.2 -20.1,-20.1 27.6,-27.6 20.1,20.1 18.2,-18.2 v -40.3 c 0,-7.9 -6.5,-14.4 -14.2,-14.4 z m -57.4,64.6 h -25.2 v -18.7 h 25.2 z m -24.3,-20.7 c 1.2,-5.8 6,-9.8 11.9,-9.8 5.8,0 10.7,4 11.9,9.8 h -3 c -1.1,-3.9 -4.7,-6.9 -8.9,-6.9 -4.2,0 -7.7,3 -8.9,6.9 z m 50.9,-40 H 102 v -11.7 c 0,-20.9 17.2,-37.8 38.1,-37.8 20.9,0 38.1,16.9 38.1,37.8 z"
       id="path7"
       inkscape:connector-curvature="0"
       style="fill:#000000;fill-opacity:0.42352942" /><g
       id="g15"><rect
         x="122.6"
         y="112.4"
         class="st1"
         width="33.700001"
         height="3.9000001"
         id="rect9"
         style="fill:#000000;fill-opacity:0.42352942" /><circle
         class="st1"
         cx="127.2"
         cy="95.800003"
         r="7"
         id="circle11"
         style="fill:#000000;fill-opacity:0.42352942" /><circle
         class="st1"
         cx="152.10001"
         cy="95.800003"
         r="7"
         id="circle13"
         style="fill:#000000;fill-opacity:0.42352942" /></g><polygon
       class="st1"
       points="170.1,241.1 190.1,221 170.1,200.9 184.9,186.1 205,206.1 225.1,186.1 239.9,200.9 219.9,221 239.9,241.1 225.1,255.9 205,235.9 184.9,255.9 "
       id="polygon17"
       style="fill:#000000;fill-opacity:0.42352942" /></g></svg>