<?xml version="1.0" encoding="UTF-8"?>
<svg width="34px" height="30px" viewBox="0 0 34 30" version="1.1" xmlns="http://www.w3.org/2000/svg" xmlns:xlink="http://www.w3.org/1999/xlink">
    <title>Snoozed</title>
    <g id="Snoozed" stroke="none" stroke-width="1" fill="none" fill-rule="evenodd" opacity="0.5">
        <g id="Brand_Mascot-Copy-7" transform="translate(7.000000, 1.000000)" fill="#000000" fill-rule="nonzero">
            <g id="Brand_Mascot" transform="translate(-0.000000, 0.000000)">
                <g id="Pia_Logo_Vertical" transform="translate(-0.000000, 0.000000)">
                    <g id="Lock" transform="translate(-0.000000, 0.000000)">
                        <path d="M4.72138796,9.59810472 L4.72138796,8.15614812 C4.72138796,5.20981835 7.08892535,2.81244907 9.99922685,2.81244907 C12.9095283,2.81244907 15.2771411,5.20985653 15.2771411,8.19188018 L15.2771411,9.59810472 L18.0549471,9.59810472 L18.0549471,8.15614812 C18.0549471,3.65169438 14.4437843,0 9.99922685,0 C5.55466942,0 1.94354428,3.65169438 1.94354428,8.15614812 L1.94354428,9.59810472 L4.72138796,9.59810472 Z" id="Path_30"></path>
                        <path d="M26.4999999,15.7229162 L26.4999999,28.4999992 L13.7229169,28.4999992 L13.7229169,15.7229162 L26.4999999,15.7229162 Z M25.4999999,16.722 L14.7219999,16.722 L14.7219999,27.499 L25.4999999,27.499 L25.4999999,16.722 Z M5.8333851,9.56267776 C6.25415504,9.5624198 6.65715185,9.72418727 6.96243822,10.0116751 L7.07218431,10.1253053 L12.9252891,10.1253053 C13.2055954,9.80646133 13.5938658,9.60924046 14.0098007,9.56994142 L14.1669161,9.56267776 L17.778079,9.56267776 C18.6981602,9.56361346 19.4438311,10.3185839 19.4446419,11.2501399 C19.7652648,11.6828337 19.9548731,12.1988025 19.9928898,12.7355202 L20,12.9376399 L19.9999999,15.7226752 L13.7229169,15.7229162 L13.7218649,26.9915246 C13.134325,26.9317007 12.6204889,26.5595531 12.3751189,26.0147338 L12.3194821,25.8750125 L7.68074371,25.8750125 C7.46229883,26.5004318 6.90466978,26.933625 6.26117821,26.9930132 L6.11127127,26.9999999 L3.61116295,26.9999999 C2.86191833,27.0002886 2.20478763,26.4938021 2.00560678,25.7625099 C0.876966438,25.4328498 0.0823870842,24.4226592 0.00603151519,23.2491054 L-8.8817842e-14,23.0625252 L-8.8817842e-14,12.9373726 C-8.8817842e-14,12.3288578 0.194801822,11.7367364 0.555546211,11.2500253 C0.555466185,10.8024882 0.731024291,10.3732577 1.04358282,10.0568012 C1.31707153,9.77990167 1.6758392,9.60926306 2.05737974,9.57092996 L2.22210914,9.56267776 L5.8333851,9.56267776 Z M10.0105851,13.7811327 C8.99254121,13.7761691 8.09703917,14.4613881 7.82391394,15.4543537 C7.5507887,16.4473194 7.96756186,17.5025523 8.8416066,18.0310618 C8.9240183,18.0784798 8.97654275,18.1630931 8.9852077,18.2557768 L8.98326445,18.3263476 L8.36113123,21.8897425 C8.3466865,21.9713159 8.36871304,22.0551748 8.42127151,22.1187072 C8.46069036,22.1663565 8.51423927,22.1988925 8.57308182,22.2121443 L8.63336164,22.2188136 L11.3639609,22.2188136 C11.445814,22.2189038 11.5234926,22.1822396 11.576051,22.1187072 C11.6154699,22.0710579 11.6377145,22.0119749 11.6402793,21.9509978 L11.6361913,21.8897425 L11.0166974,18.3263476 C10.9947022,18.2150887 11.043482,18.1017335 11.1389372,18.0422853 C12.0179203,17.5224081 12.4447664,16.4713109 12.1811509,15.475714 C11.9175354,14.4801171 11.028629,13.7861505 10.0105851,13.7811327 Z" id="Combined-Shape"></path>
                        <path d="M8.74923279,6.44673553 C8.75025087,6.07656572 8.53066371,5.74231748 8.19307847,5.60018139 C7.85549323,5.45804531 7.46656686,5.53608646 7.20804043,5.79783707 C6.94951401,6.05958768 6.87243415,6.4533645 7.01281944,6.7951599 C7.15320472,7.13695529 7.48333577,7.35928101 7.84894591,7.35825024 C8.34550563,7.35665398 8.7476562,6.94948804 8.74923279,6.44673553 L8.74923279,6.44673553 Z M12.1545225,5.53014351 C11.7893688,5.529114 11.4595563,5.75089084 11.3188782,6.0920621 C11.1782001,6.43323337 11.2543608,6.82661013 11.5118464,7.08875905 C11.769332,7.35090798 12.1574342,7.43020249 12.4951792,7.2896672 C12.8329242,7.14913192 13.0537979,6.8164433 13.0548066,6.44673553 C13.0554131,5.94224367 12.6527959,5.5323346 12.1545225,5.53014351 L12.1545225,5.53014351 Z M11.1925915,7.95675865 C11.1878406,7.96126333 10.7011816,8.4373854 9.99949078,8.4373854 C9.3036065,8.4373854 8.81932292,7.96939467 8.80642779,7.95702588 C8.69737007,7.85007922 8.52370225,7.85161816 8.41651008,7.9604811 C8.30931791,8.06934403 8.30833148,8.24518163 8.41429534,8.35527037 C8.44008559,8.38142044 9.06176635,8.99989812 9.9996039,8.99989812 C10.9374414,8.99989812 11.5587829,8.38145861 11.5849125,8.35527037 C11.6901706,8.24505158 11.6888763,8.06979324 11.5820021,7.96118038 C11.4751279,7.85256752 11.3020344,7.8506011 11.19278,7.95675865 L11.1925915,7.95675865 Z" id="Path_32"></path>
                    </g>
                </g>
            </g>
        </g>
        <polygon id="Z-Copy" fill="#111112" fill-rule="nonzero" points="24.2226768 25.345456 27.8984358 20.949901 24.5105948 20.949901 24.5105948 19.68306 29.9042678 19.68306 29.9042678 20.873123 26.2285088 25.268678 30.0002398 25.268678 30.0002398 26.535519 24.2226768 26.535519"></polygon>
    </g>
</svg>