<?xml version="1.0" encoding="UTF-8" standalone="no"?>
<svg
   xmlns:dc="http://purl.org/dc/elements/1.1/"
   xmlns:cc="http://creativecommons.org/ns#"
   xmlns:rdf="http://www.w3.org/1999/02/22-rdf-syntax-ns#"
   xmlns:svg="http://www.w3.org/2000/svg"
   xmlns="http://www.w3.org/2000/svg"
   xmlns:sodipodi="http://sodipodi.sourceforge.net/DTD/sodipodi-0.dtd"
   xmlns:inkscape="http://www.inkscape.org/namespaces/inkscape"
   width="64px"
   height="64px"
   viewBox="0 0 64 64"
   version="1.1"
   id="svg2"
   inkscape:version="0.91 r13725"
   sodipodi:docname="icon04.svg">
  <metadata
     id="metadata18">
    <rdf:RDF>
      <cc:Work
         rdf:about="">
        <dc:format>image/svg+xml</dc:format>
        <dc:type
           rdf:resource="http://purl.org/dc/dcmitype/StillImage" />
      </cc:Work>
    </rdf:RDF>
  </metadata>
  <defs
     id="defs16" />
  <sodipodi:namedview
     pagecolor="#ffffff"
     bordercolor="#666666"
     borderopacity="1"
     objecttolerance="10"
     gridtolerance="10"
     guidetolerance="10"
     inkscape:pageopacity="0"
     inkscape:pageshadow="2"
     inkscape:window-width="1967"
     inkscape:window-height="1219"
     id="namedview14"
     showgrid="false"
     inkscape:zoom="3.6875"
     inkscape:cx="0.81355932"
     inkscape:cy="32"
     inkscape:window-x="139"
     inkscape:window-y="88"
     inkscape:window-maximized="0"
     inkscape:current-layer="svg2" />
  <title
     id="title4">icon04</title>
  <g
     id="&quot;Geo&quot;-locations"
     stroke="none"
     stroke-width="1"
     fill="none"
     fill-rule="evenodd">
    <g
       id="Icon-Options"
       transform="translate(-469.000000, -61.000000)"
       fill="#676E7C"
       style="fill:#4cb649;fill-opacity:1">
      <g
         id="icon04"
         transform="translate(469.000000, 61.000000)"
         style="fill:#4cb649;fill-opacity:1">
        <path
           d="M49.2643623,32.7902148 C49.1022735,37.3645269 47.9044678,41.7932565 45.7670788,45.8892565 C47.7505865,46.7546631 49.6627095,47.8068653 51.4813645,49.0376345 L53.2753337,50.2326763 C57.3550172,45.5073664 59.9154392,39.4412917 60.1984458,32.7902148 L49.2643623,32.7902148 Z"
           id="Fill-1"
           style="fill:#4cb649;fill-opacity:1" />
        <path
           d="M50.1244941,51.0570807 C48.355281,49.8592961 46.4925996,48.8455642 44.5585337,48.0213708 C42.6189821,51.1477356 40.1162304,54.0488345 37.0775667,56.6283159 C36.8495438,56.8233682 36.5693223,56.91678 36.2891007,56.91678 C35.945695,56.91678 35.6022893,56.7711765 35.3605381,56.4882051 C34.9264704,55.974468 34.9896616,55.2079941 35.5006489,54.7739194 C38.2122093,52.471748 40.4676818,49.9002842 42.2396379,47.1340073 C39.2314269,46.1120469 36.0775632,45.5268337 32.8632862,45.4087502 L32.8632862,55.4968381 C32.8632862,56.1699141 32.3165856,56.713893 31.6462313,56.713893 C30.9731552,56.713893 30.4291763,56.1699352 30.4291763,55.4968381 L30.4291763,45.4284425 C27.2533697,45.5465752 24.1242621,46.1097611 21.1322972,47.1152293 C22.871339,49.8020337 25.0691412,52.310271 27.6982049,54.557515 C28.2091922,54.9943255 28.2696335,55.7635282 27.8328229,56.2745436 C27.5910647,56.5547651 27.2504089,56.7003686 26.9070032,56.7003686 C26.6267816,56.7003686 26.3465601,56.6042139 26.1185372,56.4091616 C23.159768,53.8816539 20.7064581,51.0492671 18.8000317,47.9942165 C17.470379,48.5574025 16.1736405,49.2085286 14.9236713,49.9447396 C14.3440001,50.2854025 13.5967614,50.093093 13.2560845,49.5161647 C12.9154216,48.9392433 13.1077311,48.1892548 13.6846594,47.8485778 C14.9456704,47.104068 16.2505671,46.4529559 17.5857759,45.8732987 C15.4319297,41.7826438 14.2121319,37.3598921 14.0280792,32.7905735 L12.8522374,32.7905735 C12.1791614,32.7905735 11.6351825,32.2438728 11.6351825,31.5735185 C11.6351825,30.9004425 12.1791403,30.3564636 12.8522374,30.3564636 L14.0225935,30.3564636 C14.0445715,29.7712996 14.0802849,29.1861075 14.1379763,28.6064504 C14.2039104,27.9388671 14.8000669,27.4498789 15.4676291,27.513035 C16.1379552,27.5789691 16.6242005,28.1751255 16.5610445,28.8454306 C16.5115886,29.3454324 16.4786251,29.8509339 16.4566471,30.3563932 L30.4234163,30.3563932 L30.4289091,20.1670306 C29.0470717,20.1203247 27.665164,19.9939563 26.3052695,19.7879115 C25.6404361,19.686264 25.1843552,19.0654148 25.2833091,18.4005181 C25.3849566,17.7356847 26.0030629,17.282417 26.6707025,17.3813005 C27.9097003,17.57086 29.1707113,17.6862429 30.4317223,17.7329488 L30.4317223,12.9280258 C30.4317223,12.2549497 30.9756801,11.7109708 31.6487772,11.7109708 C32.3191104,11.7109708 32.8658322,12.2549286 32.8658322,12.9280258 L32.8658322,17.7329488 C36.0251816,17.617566 39.1240475,17.0488803 42.0853486,16.0598763 C40.6293135,13.8236038 38.8545443,11.7164565 36.7831245,9.78513345 C36.2913654,9.32634488 36.2638946,8.55710708 36.7226832,8.06536202 C37.1814717,7.5736029 37.9507095,7.54887499 38.4424546,8.0049207 C40.8023667,10.2027229 42.7941029,12.6175625 44.4095051,15.1862833 C46.3957557,14.3511185 48.3078788,13.3209295 50.1183051,12.0929031 L51.579826,11.1176416 C48.9260062,8.52697785 45.7721425,6.44184378 42.2752106,5.03250752 C49.505804,1.88138664 55.6491007,1.4418262 58.7506392,4.5407484 C61.742393,7.53250224 61.5143843,13.6174956 58.2423948,21.1146385 C57.0528388,18.0953858 55.3550102,15.3316407 53.2698761,12.9170121 L51.4759069,14.1120539 C49.6242673,15.3675792 47.6709311,16.4334956 45.6462102,17.3098737 C47.8192563,21.3977858 49.0555816,25.8183572 49.2615772,30.3567308 L60.1929179,30.3567308 C60.1077557,28.3457242 59.8247843,26.3842297 59.3440388,24.4996055 C64.1764607,14.8377154 64.599564,6.9502429 60.4731816,2.82118796 C56.2231596,-1.42883402 48.1050058,-0.720051605 38.8439948,3.89259015 C36.5363377,3.29094092 34.1186849,2.96951323 31.626764,2.96951323 C23.7449179,2.96951323 16.401797,6.10684949 10.9533574,11.8022165 C10.4890691,12.2884829 10.5055544,13.0577418 10.9918207,13.521988 C11.4780871,13.9862763 12.247346,13.969791 12.7115922,13.4835247 C17.6978251,8.27195543 24.4151526,5.40405213 31.626757,5.40405213 C32.9481812,5.40405213 34.2449196,5.5056996 35.5140889,5.69525916 C30.0443394,8.87655147 24.3028361,13.3105559 18.807979,18.8082262 C17.5744669,20.0444811 16.3656405,21.3192135 15.2200405,22.6021603 C1.4642603,37.9727097 -3.74716785,53.9016838 2.82162364,60.4676583 C4.71173282,62.3577682 7.38482293,63.2973022 10.6542383,63.2973022 C14.5553548,63.2973022 19.3111174,61.951122 24.5907658,59.2945559 C26.8545372,59.8714807 29.2116361,60.1764231 31.6237328,60.1764231 C39.3846119,60.1764231 46.4288317,57.0665119 51.5854032,52.0336504 L50.1244941,51.0570807 Z M4.5445381,58.7441137 C1.46761362,55.6699335 1.88241801,49.4943554 5.06376799,42.1948389 C8.02802293,49.5984433 13.9513284,55.3485972 21.2065372,58.2004653 C13.6678999,61.5108808 7.54992184,61.7526742 4.54473502,58.7444231 L4.5445381,58.7441137 Z"
           id="Fill-2"
           style="fill:#4cb649;fill-opacity:1" />
        <path
           d="M32.8634832,42.9712785 C36.5145777,43.094904 40.0884502,43.7789444 43.4867799,44.9877708 C45.5197293,41.1690807 46.6625865,37.0454411 46.8274392,32.7869796 L32.8634832,32.7897295 L32.8634832,42.9712785 Z"
           id="Fill-3"
           style="fill:#4cb649;fill-opacity:1" />
        <path
           d="M30.4293733,42.9909708 L30.4293733,32.7903554 L16.4675271,32.7903554 C16.6543368,37.0431203 17.819193,41.163806 19.8685996,44.9742675 C23.2559579,43.7792258 26.8163974,43.1171422 30.4293733,42.9907598 L30.4293733,42.9909708 Z"
           id="Fill-4"
           style="fill:#4cb649;fill-opacity:1" />
        <path
           d="M32.8634832,20.1668829 L32.8634832,30.3534324 L46.8225161,30.3534324 C46.6137214,26.1281664 45.4241513,22.0102236 43.3527315,18.199762 C39.9983579,19.3810895 36.4680897,20.0459159 32.8637645,20.1668126 L32.8634832,20.1668829 Z"
           id="Fill-5"
           style="fill:#4cb649;fill-opacity:1" />
      </g>
    </g>
  </g>
</svg>
