<?xml version="1.0" encoding="UTF-8"?>
<svg width="40px" height="30px" viewBox="0 0 40 30" version="1.1" xmlns="http://www.w3.org/2000/svg" xmlns:xlink="http://www.w3.org/1999/xlink">
    <!-- Generator: Sketch 52.6 (67491) - http://www.bohemiancoding.com/sketch -->
    <title>icon/mac-dark/connected</title>
    <desc>Created with Sketch.</desc>
    <g id="icon/mac-dark/connected" stroke="none" stroke-width="1" fill="none" fill-rule="evenodd">
        <path d="M22.375605,30 L17.5208168,30 L14.966967,27.1564329 L13.021021,27.1564329 L10.4673634,30 L4.73657658,30 C4.34018018,30 4.01585586,29.6904181 4.01585586,29.3120402 L4.01585586,26.2740098 L2.87817417,26.2740098 C1.66496096,26.2740098 0.672288288,25.3264599 0.672288288,24.1683942 C0.672288288,23.9702618 0.701021021,23.7785503 0.755411411,23.596562 C0.29366967,23.2171751 0,22.6563503 0,22.0325084 L0,13.4825442 C0,12.3474105 0.972972973,11.4149957 2.16216216,11.4149957 L4.01585586,11.4149957 L4.01585586,8.87101213 C4.01585586,6.431415 5.13835435,4.21343264 6.94678679,2.60589994 C8.75541141,0.99800033 11.2500661,0 13.993994,0 C19.4821381,0 23.9717477,3.99190959 23.9717477,8.87101213 L23.9717477,9.83808916 C20.3894719,12.0361897 18,15.9890493 18,20.5 C18,24.3019147 19.6973465,27.7073929 22.375605,30 Z M7.54354354,9.65849676 L7.54354354,11.4149957 L20.3887087,11.4149957 L20.3887087,9.65849676 C20.3887087,6.2864848 17.4987147,3.52785778 13.9661261,3.52785778 C12.199976,3.52785778 10.5942102,4.2175604 9.43048649,5.32884478 C8.26628228,6.43976224 7.54354354,7.97253665 7.54354354,9.65849676 Z" id="Icon" fill="#383E43"></path>
        <path d="M30.5,30 C35.7467051,30 40,25.7467051 40,20.5 C40,15.2532949 35.7467051,11 30.5,11 C25.2532949,11 21,15.2532949 21,20.5 C21,25.7467051 25.2532949,30 30.5,30 Z" id="Indicator-Green" fill="#56E153"></path>
    </g>
</svg>