<?xml version="1.0" encoding="UTF-8"?>
<svg width="34px" height="30px" viewBox="0 0 34 30" version="1.1" xmlns="http://www.w3.org/2000/svg" xmlns:xlink="http://www.w3.org/1999/xlink">
    <title>Disconnecting</title>
    <g id="Disconnecting" stroke="none" stroke-width="1" fill="none" fill-rule="evenodd" opacity="0.5">
        <g id="Brand_Mascot-Copy-8" transform="translate(6.562500, 1.875000)" fill="#2A2E31" fill-rule="nonzero">
            <g id="Brand_Mascot" transform="translate(-0.000000, 0.000000)">
                <g id="Pia_Logo_Vertical" transform="translate(-0.000000, 0.000000)">
                    <g id="Lock" transform="translate(-0.000000, 0.000000)">
                        <path d="M4.4263013,8.99822318 L4.4263013,7.64638887 C4.4263013,4.8842047 6.64586761,2.63667101 9.37427526,2.63667101 C12.1026829,2.63667101 14.3223199,4.88424049 14.3223199,7.67988767 L14.3223199,8.99822318 L16.926513,8.99822318 L16.926513,7.64638887 C16.926513,3.42346348 13.5410478,0 9.37427526,0 C5.20750267,0 1.82207285,3.42346348 1.82207285,7.64638887 L1.82207285,8.99822318 L4.4263013,8.99822318 Z" id="Path_30"></path>
                        <path d="M5.46879863,8.9650104 C5.91257942,8.96473834 6.33527198,9.15671323 6.63017288,9.49247373 L6.63017288,9.49247373 L12.1174586,9.49247373 C12.4130942,9.15619297 12.8368317,8.96422088 13.281484,8.9650104 L13.281484,8.9650104 L16.6669491,8.9650104 C17.5295253,8.96588762 18.2285918,9.67367243 18.2293519,10.5470061 C18.5675088,11.0033629 18.7502139,11.5585274 18.7499998,12.1290374 L18.7499998,12.1290374 L18.7496559,12.6639667 C17.929491,12.3559623 17.0410595,12.1875 16.1132815,12.1875 C11.9711459,12.1875 8.61328155,15.5453644 8.61328155,19.6875 C8.61328155,21.4076863 9.19239745,22.9926128 10.1663004,24.2579507 L7.20069732,24.2578242 C6.980152,24.8892571 6.39081917,25.3116869 5.72931691,25.3124999 L5.72931691,25.3124999 L3.38546535,25.3124999 C2.68304853,25.3127706 2.0669885,24.8379395 1.88025645,24.1523531 C0.766466637,23.8270305 -0.000306911992,22.7947858 9.21557053e-08,21.6211174 L9.21557053e-08,21.6211174 L9.21557053e-08,12.1287868 C9.21557053e-08,11.5583042 0.1826268,11.0031903 0.520824665,10.5468988 C0.52074964,10.1273327 0.685335365,9.72492912 0.978358982,9.42825109 C1.2713826,9.13157306 1.66882944,8.9650104 2.08322741,8.9650104 L2.08322741,8.9650104 Z" id="Combined-Shape"></path>
                    </g>
                </g>
            </g>
        </g>
        <g id="Group" transform="translate(17.812500, 15.937500)" fill="#2A2E31" fill-rule="nonzero">
            <g id="Group-2" transform="translate(0.000000, -0.000000)">
                <path d="M10.3125,0.720096291 L10.2738281,3.43725982 L10.2609375,4.3125 L6.909375,4.27331014 C7.2703125,3.88141155 7.54101562,3.59401926 7.70859375,3.41113325 C7.85039063,3.24131053 7.92773438,3.14986753 7.92773438,3.13680424 C7.12851562,2.11786792 6.11015625,1.64758961 4.92421875,1.73903262 C3.69960938,1.83047562 2.77148438,2.35300707 2.17851562,3.33275353 C2.03671875,3.54176611 1.93359375,3.76384198 1.83046875,4.01204442 C1.81757812,4.03817099 1.76601562,4.20799371 1.76601562,4.20799371 L0,4.18056081 C0,4.18056081 0.038671875,4.0251077 0.0515625,3.98591784 C0.116015625,3.75077869 0.193359375,3.51563954 0.28359375,3.30532063 C0.837890625,1.84353891 1.88203125,0.837665867 3.36445312,0.328197705 C5.54296875,-0.416409609 7.50234375,0.106121839 9.178125,1.89448572 C9.20390625,1.89448572 9.57773438,1.50389346 10.3125,0.720096291" id="Fill-4"></path>
                <path d="M10.3125,6.88192162 C10.3125,6.88192162 10.2737797,7.03735403 10.2737797,7.07653867 C10.2092459,7.31164652 10.1318054,7.54806052 10.0414581,7.75704527 C9.4735607,9.21863237 8.42811327,10.2256776 6.9567428,10.7337718 C4.77550063,11.4795861 2.80076658,10.9558181 1.12288798,9.16769234 C1.10998123,9.16769234 0.722778473,9.55953875 0,10.3419254 L0.0258135169,7.62512365 L0.0387202753,6.75 L3.40738423,6.7904908 C3.04599499,7.18103105 2.77495307,7.46838508 2.60716521,7.65255289 C2.45228411,7.822353 2.37484355,7.91247768 2.37484355,7.92684538 C3.17506258,8.94433989 4.20760325,9.41455558 5.39502503,9.32312475 C6.60826033,9.23300007 7.53754693,8.70923204 8.13125782,7.72961602 C8.27323217,7.52063127 8.37648623,7.29858497 8.4797403,7.05172173 C8.49264706,7.02429249 8.54427409,6.85449238 8.54427409,6.85449238 L10.3125,6.88192162 Z" id="Fill-6"></path>
            </g>
        </g>
    </g>
</svg>