<?xml version="1.0" encoding="UTF-8" standalone="no"?>
<svg
   xmlns:dc="http://purl.org/dc/elements/1.1/"
   xmlns:cc="http://creativecommons.org/ns#"
   xmlns:rdf="http://www.w3.org/1999/02/22-rdf-syntax-ns#"
   xmlns:svg="http://www.w3.org/2000/svg"
   xmlns="http://www.w3.org/2000/svg"
   xmlns:sodipodi="http://sodipodi.sourceforge.net/DTD/sodipodi-0.dtd"
   xmlns:inkscape="http://www.inkscape.org/namespaces/inkscape"
   width="19"
   height="13"
   viewBox="0 0 19 13"
   version="1.1"
   id="svg6"
   sodipodi:docname="wifi_types_master.svg"
   inkscape:version="1.0.2 (e86c870879, 2021-01-15)">
  <metadata
     id="metadata12">
    <rdf:RDF>
      <cc:Work
         rdf:about="">
        <dc:format>image/svg+xml</dc:format>
        <dc:type
           rdf:resource="http://purl.org/dc/dcmitype/StillImage" />
        <dc:title>icon-02</dc:title>
      </cc:Work>
    </rdf:RDF>
  </metadata>
  <defs
     id="defs10" />
  <sodipodi:namedview
     pagecolor="#ffffff"
     bordercolor="#666666"
     borderopacity="1"
     objecttolerance="10"
     gridtolerance="10"
     guidetolerance="10"
     inkscape:pageopacity="0"
     inkscape:pageshadow="2"
     inkscape:window-width="2560"
     inkscape:window-height="1021"
     id="namedview8"
     showgrid="true"
     showguides="true"
     inkscape:guide-bbox="true"
     inkscape:object-nodes="true"
     inkscape:snap-bbox="true"
     inkscape:snap-bbox-midpoints="true"
     inkscape:bbox-nodes="true"
     inkscape:snap-grids="false"
     inkscape:snap-to-guides="true"
     inkscape:snap-bbox-edge-midpoints="true"
     fit-margin-top="0"
     fit-margin-left="0"
     fit-margin-right="0"
     fit-margin-bottom="0"
     inkscape:zoom="50"
     inkscape:cx="12.792267"
     inkscape:cy="6.5490855"
     inkscape:window-x="0"
     inkscape:window-y="0"
     inkscape:window-maximized="1"
     inkscape:current-layer="layer4">
    <sodipodi:guide
       position="31.626966,9.2033717"
       orientation="1,0"
       id="guide871" />
    <inkscape:grid
       type="xygrid"
       id="grid873"
       originx="-12.607415"
       originy="-10.87701" />
    <sodipodi:guide
       position="-5.999992,23.877062"
       orientation="0,-1"
       id="guide875" />
    <sodipodi:guide
       position="7.9450364e-06,23.877062"
       orientation="1,0"
       id="guide877" />
    <sodipodi:guide
       position="9.0606016,10.877114"
       orientation="0,-1"
       id="guide979" />
    <sodipodi:guide
       position="12.607431,15.315593"
       orientation="1,0"
       id="guide981" />
    <sodipodi:guide
       position="15.324029,14.938583"
       orientation="0,-1"
       id="guide983" />
    <sodipodi:guide
       position="15.322822,4.7880512"
       orientation="0,-1"
       id="guide1412" />
  </sodipodi:namedview>
  <title
     id="title2">icon-02</title>
  <g
     inkscape:groupmode="layer"
     id="layer5"
     inkscape:label="old protected wifi"
     style="display:none">
    <path
       d="m 9.8601224,9.0786176 c -0.0723,0.348428 -0.110149,0.708609 -0.110149,1.0776304 0,0.683088 0.129686,1.335886 0.3657786,1.935116 l -0.7916856,0.798881 c -0.06947,0.07023 -0.164187,0.109753 -0.263014,0.109753 -0.07412,0 -0.145929,-0.02223 -0.206508,-0.06298 l -0.05651,-0.04678 -2.370297,-2.389631 c -0.07322,-0.0719 -0.113503,-0.170811 -0.111332,-0.273368 0.0022,-0.102556 0.0466,-0.199673 0.122802,-0.2684184 0.974026,-0.823139 2.239276,-1.116542 3.420912,-0.88021 z m 4.9204996,-2.578622 c 0.531922,0 1.032135,0.253637 1.352373,0.682064 0.158858,0.212556 0.262872,0.453062 0.319796,0.715994 0.04705,0.21747 0.05812,0.423667 0.06066,0.650206 l 7.4e-4,0.666861 c 0.0904,0.03179 0.172474,0.08177 0.243204,0.155094 0.09866,0.102248 0.15413,0.226791 0.17821,0.366545 0.0079,0.04585 0.0125,0.09285 0.01526,0.143996 l 0.0038,0.1452254 v 0 l -9.04e-4,2.178247 v 0 c -0.0018,0.08405 -0.0064,0.155485 -0.01816,0.224191 -0.02408,0.139754 -0.07955,0.264363 -0.17821,0.366546 -0.09859,0.102247 -0.218871,0.159644 -0.353712,0.18467 -0.04425,0.0081 -0.08963,0.01294 -0.138979,0.01579 l -0.140127,0.004 v 0 l -2.75073,-9.85e-4 c -0.08101,-0.0019 -0.149906,-0.0066 -0.216286,-0.01878 -0.134841,-0.02503 -0.255119,-0.08242 -0.353712,-0.18467 -0.09866,-0.102183 -0.154129,-0.226792 -0.17821,-0.366546 -0.0079,-0.0458 -0.01252,-0.09282 -0.01527,-0.143981 l -0.0038,-0.14524 v 0 l 9.47e-4,-2.1782464 c 0.0018,-0.08405 0.0063,-0.15542 0.01816,-0.224192 0.02408,-0.139754 0.07955,-0.264297 0.17821,-0.366545 0.04715,-0.04888 0.09935,-0.08739 0.155693,-0.117051 l 0.08751,-0.03804 v -0.492674 c 0,-0.298358 0.0026,-0.55258 0.06146,-0.824418 0.05686,-0.262932 0.160876,-0.503438 0.319733,-0.715994 0.320238,-0.428427 0.820451,-0.682064 1.352373,-0.682064 z m 0,0.611472 c -0.347092,0 -0.676911,0.165559 -0.886389,0.452997 -0.104204,0.143004 -0.173042,0.307654 -0.210424,0.497979 -0.02326,0.118602 -0.0332,0.236737 -0.03743,0.369721 l -0.0031,0.290307 v 0.442793 h 2.274694 v -0.442793 c 0,-0.265987 -0.0017,-0.462358 -0.04053,-0.660028 -0.03733,-0.190325 -0.106165,-0.354975 -0.210432,-0.497979 -0.209478,-0.287438 -0.539234,-0.452997 -0.886389,-0.452997 z m -1.973431,-1.746228 c -0.942555,0.437809 -1.733946,1.145715 -2.275288,2.024141 l -0.216478,-0.05315 c -0.4090736,-0.09016 -0.8294936,-0.136546 -1.2543726,-0.13652 -1.443636,5.98e-4 -2.83557,0.537042 -3.90567,1.505226 -0.126728,0.120311 -0.317245,0.133068 -0.457477,0.03976 l -0.05669,-0.04648 -1.369654,-1.383116 c -0.0723,-0.07244 -0.112473,-0.170853 -0.11154,-0.273155 10e-4,-0.102303 0.04303,-0.199936 0.116682,-0.271003 2.637536,-2.451368 6.445505,-2.919935 9.5304856,-1.405701 z m 5.199921,-1.773492 c 0.0724,0.07115 0.113429,0.168186 0.114036,0.269644 4.34e-4,0.07609 -0.0219,0.149967 -0.06328,0.212518 l -0.04759,0.05844 -1.083517,1.093019 c -0.481751,-0.185314 -0.997525,-0.302059 -1.535369,-0.338282 -1.797654,-1.411353 -4.025363,-2.187151 -6.3303396,-2.187252 -2.629488,-6e-6 -5.158468,1.0094 -7.06422,2.819583 -0.125478,0.122464 -0.316897,0.136422 -0.457404,0.04277 l -0.05676,-0.04672 -1.37202796,-1.383117 C 0.03913044,4.0603106 -6.8956091e-4,3.9627696 -3.8560905e-5,3.8613116 6.4643909e-4,3.7598526 0.04175144,3.6628436 0.11420044,3.5917496 c 5.00135096,-4.7889995 12.89155956,-4.7889995 17.89291156,0 z"
       id="icon-02-3"
       fill="#000000"
       fill-rule="nonzero"
       style="stroke:none;stroke-width:1" />
  </g>
  <g
     inkscape:groupmode="layer"
     id="layer1"
     inkscape:label="old cut wifi"
     style="display:none"
     transform="translate(7.9450364e-6,-3)">
    <path
       style="fill:#000000;fill-opacity:1;stroke:none"
       d="m 18.007159,6.5917497 c 0.0724,0.071147 0.113429,0.1681856 0.114036,0.2696435 4.34e-4,0.076093 -0.0219,0.1499672 -0.06328,0.2125181 l -0.04759,0.05844 -1.083517,1.0930195 C 16.445057,8.0400569 15.929283,7.9233113 15.391439,7.8870884 13.593785,6.4757358 11.366076,5.6999378 9.0610979,5.6998369 6.4316108,5.6998303 3.90263,6.7092369 1.9968782,8.5194194 1.8714006,8.6418837 1.6799819,8.6558411 1.5394741,8.5621896 L 1.4827141,8.5154676 0.11068677,7.1323508 C 0.03918127,7.0603108 -6.4382584e-4,6.9627692 7.8741568e-6,6.8613111 6.9227416e-4,6.759853 0.04179837,6.6628436 0.11424637,6.5917497 5.1155975,1.8027501 13.005807,1.8027501 18.007159,6.5917497 Z"
       id="path866" />
    <path
       style="fill:#000000;fill-opacity:1;stroke:none"
       d="M 12.807238,8.3652412 C 11.864683,8.8030503 11.073292,9.510957 10.53195,10.389383 l -0.216478,-0.05315 c -0.4090741,-0.09016 -0.8294941,-0.136546 -1.2543741,-0.13652 -1.4436359,5.97e-4 -2.835569,0.537042 -3.9056698,1.505226 -0.126728,0.120311 -0.317245,0.133068 -0.4574763,0.03976 L 4.6412638,11.698219 3.2716097,10.315102 C 3.1993087,10.242662 3.159136,10.14425 3.1600691,10.041947 3.1610691,9.939645 3.2030941,9.842011 3.2767513,9.770945 5.9142875,7.3195747 9.7222559,6.8510077 12.807238,8.3652412 Z"
       id="path864" />
    <path
       style="fill:#000000;fill-opacity:1;stroke:none"
       d="m 9.8601689,12.07862 c -0.0723,0.348427 -0.110149,0.708609 -0.110149,1.07763 0,0.683088 0.129685,1.335886 0.3657791,1.935116 L 9.3241129,15.890247 C 9.2546429,15.960477 9.1599259,16 9.0610979,16 c -0.07412,0 -0.145928,-0.02223 -0.206508,-0.06298 l -0.05651,-0.04678 -2.3702964,-2.389631 c -0.073222,-0.0719 -0.1135034,-0.170811 -0.1113323,-0.273368 0.00217,-0.102556 0.046602,-0.199673 0.1228022,-0.268419 0.974026,-0.823138 2.2392755,-1.116541 3.4209125,-0.880209 z"
       id="icon-02" />
  </g>
  <g
     inkscape:groupmode="layer"
     id="layer3"
     inkscape:label="new cut wifi"
     style="display:inline"
     transform="translate(7.9450364e-6,-3)">
    <path
       id="icon-03"
       style="fill:#000000;fill-opacity:1;stroke:none;stroke-width:1"
       d="M 9.0605469,3 C 5.8376565,3 2.6139568,4.1972971 0.11328125,6.5917969 0.04083125,6.6628889 6.76e-4,6.75987 0,6.8613281 -6.6e-4,6.9627862 0.03982712,7.0607722 0.11132812,7.1328125 L 1.4824219,8.515625 C 1.6236529,8.657772 1.8526907,8.6594423 1.9960938,8.519535 3.9018457,6.7093501 6.4310599,5.6992122 9.0605469,5.6992188 10.636846,5.6992878 12.175006,6.0693415 13.566406,6.75 a 5.4794302,5.4794302 0 0 1 1.757813,-0.2910156 5.4794302,5.4794302 0 0 1 2.666015,0.6933594 l 0.01953,-0.019531 c 0.07156,-0.071988 0.111917,-0.1700267 0.11133,-0.2714847 C 18.120493,6.7598702 18.080212,6.6629436 18.007812,6.5917969 15.507136,4.1972971 12.283437,3 9.0605469,3 Z M 9.0625,7.4980469 c -2.0776586,0 -4.1547422,0.758105 -5.7851562,2.2734375 -0.07366,0.07107 -0.1162046,0.1672293 -0.1171876,0.2695316 -9.5e-4,0.102303 0.039024,0.200994 0.1113282,0.273437 l 1.3691406,1.382813 c 0.141184,0.141235 0.370793,0.145328 0.515625,0.0078 1.070101,-0.968186 2.4606609,-1.505262 3.9042969,-1.505859 0.3499188,-2.2e-5 0.697087,0.03424 1.0371091,0.0957 A 5.4794302,5.4794302 0 0 1 11.621094,7.9003906 C 10.789084,7.6382207 9.9266948,7.4980469 9.0625,7.4980469 Z M 9.0605469,12 c -0.932544,0 -1.8643398,0.31946 -2.6210938,0.958984 -0.0762,0.06875 -0.1208758,0.165022 -0.1230469,0.267578 -0.0022,0.102557 0.038106,0.201534 0.1113282,0.273438 l 2.3710937,2.390625 C 8.8682981,15.960855 8.9617199,16 9.0605469,16 c 0.09883,0 0.1941998,-0.03914 0.2636719,-0.109375 L 10.560547,14.642578 A 5.4794302,5.4794302 0 0 1 9.8457031,12.082031 C 9.5863803,12.031057 9.3238254,12 9.0605469,12 Z" />
  </g>
  <g
     inkscape:groupmode="layer"
     id="g976"
     inkscape:label="new cut wifi copy"
     style="display:none"
     transform="translate(7.9450364e-6,-3)">
    <path
       d="m 9.0610901,5.6997851 c 2.6292289,1.151e-4 5.1579199,1.0095188 7.0634289,2.8195821 0.14349,0.139744 0.372843,0.137981 0.514164,-0.0039 l 1.371632,-1.3831164 c 0.07156,-0.071988 0.111453,-0.1694996 0.110866,-0.2709576 -6.01e-4,-0.1014579 -0.04163,-0.1984968 -0.11403,-0.2696435 -5.001352,-4.7889996 -12.8915619,-4.7889996 -17.89291293,0 C 0.04178807,6.6628417 6.8407344e-4,6.7598512 8.073439e-6,6.8613093 -6.5192656e-4,6.9627674 0.03917807,7.0603087 0.11067907,7.132349 L 1.4827061,8.5154662 c 0.141231,0.142147 0.370761,0.143911 0.514164,0.004 1.905752,-1.8101811 4.434733,-2.8195877 7.06422,-2.8195811 z m 0,4.4998719 c 1.4445909,-8.9e-5 2.8376299,0.536402 3.9084379,1.505226 0.144833,0.137498 0.372981,0.134517 0.514165,-0.0067 l 1.370049,-1.383117 c 0.07215,-0.07255 0.112183,-0.170966 0.111162,-0.273236 -0.0011,-0.1022689 -0.04309,-0.1998539 -0.116699,-0.2709209 -3.260827,-3.030665 -8.3106339,-3.030665 -11.5714619,0 -0.07366,0.07107 -0.115682,0.1687 -0.116665,0.2710019 -9.5e-4,0.102303 0.03922,0.200712 0.111524,0.273155 l 1.369654,1.383119 c 0.141184,0.141235 0.369332,0.144216 0.514164,0.0067 1.070101,-0.968186 2.462034,-1.504631 3.90567,-1.505228 z m 2.6329159,3.300907 c 0.07327,-0.07185 0.113624,-0.170726 0.111527,-0.273282 -0.0021,-0.102557 -0.04645,-0.199704 -0.122601,-0.268505 -1.513508,-1.279048 -3.7301759,-1.279048 -5.2436839,0 -0.0762,0.06875 -0.120631,0.165863 -0.122802,0.268419 -0.0022,0.102557 0.03811,0.201464 0.111332,0.273368 l 2.370297,2.389631 c 0.06947,0.07023 0.164188,0.109753 0.263015,0.109753 0.09883,0 0.193543,-0.03952 0.263015,-0.109753 z"
       id="path972"
       fill="#000000"
       fill-rule="nonzero"
       style="stroke:none;stroke-width:1" />
    <circle
       style="fill:none;fill-opacity:1;fill-rule:evenodd;stroke:#ff0000;stroke-width:0.1;stroke-miterlimit:4;stroke-dasharray:none;stroke-opacity:1"
       id="circle974"
       cx="15.657653"
       cy="12.458004"
       r="5.4794302" />
  </g>
  <g
     inkscape:groupmode="layer"
     id="layer2"
     inkscape:label="lock"
     transform="translate(7.9450364e-6,-3)"
     style="display:inline">
    <path
       id="path862"
       style="fill:#000000;fill-opacity:1;fill-rule:evenodd;stroke:none;stroke-width:1.24969"
       d="m 15.324219,4.8769531 c -0.664737,0 -1.291208,0.3161617 -1.691407,0.8515625 -0.19852,0.2656288 -0.32738,0.5679011 -0.398437,0.8964844 -0.07356,0.3397125 -0.07813,0.6564419 -0.07813,1.0292969 v 0.6152343 l -0.109375,0.048828 c -0.07041,0.03707 -0.134437,0.085407 -0.193359,0.1464844 -0.123294,0.127779 -0.194518,0.2823832 -0.22461,0.4570312 -0.01482,0.08595 -0.01923,0.1742639 -0.02148,0.2792969 v 2.7226563 l 0.0059,0.183594 c 0.0035,0.06394 0.0057,0.120498 0.01563,0.177734 0.03009,0.174649 0.101314,0.331289 0.22461,0.458985 0.123209,0.127782 0.272897,0.201142 0.441406,0.232421 0.08295,0.01522 0.168294,0.01912 0.269531,0.02149 l 3.439453,0.002 0.175782,-0.0059 c 0.06167,-0.0036 0.116576,-0.0094 0.171874,-0.01953 0.168511,-0.03128 0.320153,-0.10269 0.44336,-0.230468 0.123295,-0.127696 0.19061,-0.284335 0.220703,-0.458985 0.0147,-0.08586 0.02119,-0.174261 0.02344,-0.279297 l 0.002,-2.7226561 -0.0059,-0.1816406 C 18.03171,9.0376653 18.02551,8.9791848 18.01568,8.9218878 17.98559,8.7472398 17.91827,8.5926345 17.794977,8.4648566 17.706587,8.3732266 17.601307,8.3092661 17.488336,8.269544 V 7.4375 C 17.485169,7.154397 17.472862,6.8967696 17.414062,6.625 17.342928,6.2964167 17.212195,5.9941444 17.013672,5.7285156 16.613474,5.1931148 15.988956,4.8769531 15.324219,4.8769531 Z m 0,1.0019531 c 0.374063,0 0.729362,0.1876453 0.955078,0.5136719 0.112348,0.1622022 0.184389,0.3485765 0.224609,0.5644531 0.04183,0.2242073 0.04492,0.4483043 0.04492,0.75 v 0.5019532 h -2.45117 V 7.7070312 l 0.0039,-0.3300781 c 0.0046,-0.1508374 0.014,-0.2853968 0.03906,-0.4199219 0.04027,-0.2158766 0.116234,-0.4022509 0.228516,-0.5644531 0.225714,-0.3260266 0.581083,-0.5136718 0.955078,-0.5136719 z"
       transform="translate(-7.9450364e-6,3)" />
  </g>
  <g
     inkscape:groupmode="layer"
     id="layer4"
     inkscape:label="person"
     style="display:none">
    <path
       id="icon-05"
       style="display:inline;fill:#000000;fill-opacity:1;stroke:none;stroke-width:1.25412"
       d="m 15.436159,9.5845321 c 0.643188,0 1.2155,-0.048811 1.929561,0.3997617 0.683816,0.4295672 1.031516,1.0115402 1.077699,2.0359722 l 0.0053,0.244393 c 5.4e-5,0.406089 -0.329146,0.735289 -0.735235,0.735289 h -4.778782 c -0.36548,0 -0.668679,-0.266652 -0.725664,-0.61602 l -0.0097,-0.119267 c 0,-1.236331 0.403621,-1.913415 1.275379,-2.3893241 0.733925,-0.4006622 1.377724,-0.2908036 1.961398,-0.2908036 z M 15.308119,5.47521 c 1.012535,0 1.833358,0.8208221 1.833358,1.8333572 0,1.0125362 -0.820823,1.8333585 -1.833358,1.8333585 -1.012536,0 -1.833358,-0.8208223 -1.833358,-1.8333585 0,-1.0125351 0.820822,-1.8333572 1.833358,-1.8333572 z" />
  </g>
</svg>
