<?xml version="1.0" encoding="utf-8"?>
<!-- Generator: Adobe Illustrator 22.0.1, SVG Export Plug-In . SVG Version: 6.00 Build 0)  -->
<svg version="1.1" id="Layer_1" xmlns="http://www.w3.org/2000/svg" xmlns:xlink="http://www.w3.org/1999/xlink" x="0px" y="0px"
	 viewBox="0 0 300 300" style="enable-background:new 0 0 300 300;" xml:space="preserve">
<style type="text/css">
	.st0{fill:#FFFFFF;}
	.st1{fill:none;}
	.st2{fill:#4BB749;}
	.st3{fill:url(#SVGID_1_);}
</style>
<g id="Layer_2_1_">
</g>
<g>
	<path class="st0" d="M201.8,122.6h-7v-6.3c0-31.2-25.3-56.3-56.6-56.3s-56.6,25.3-56.6,56.3v6.3h-7.2c-7.4,0-13.1,5.9-13.1,13.2
		v51.7c0,3.4,0.1,6,1.5,7.7c0.6,0.9,1.6,1.6,2.8,1.9v3.2c0,6.1,4.8,11,10.8,11h5.8L83,225c0,0.1,0,0.1,0,0.2c0,0.7,0.1,2.3,1,4
		c0.9,1.6,2.8,3,5.8,3h28.7l14.8-15.8h11.2l2.4,2.8c-0.1-1.4-0.2-2.7-0.2-4.1c0-28,22.7-50.7,50.7-50.7c6.2,0,12.1,1.1,17.5,3.1
		v-31.7C214.9,128.6,208.9,122.6,201.8,122.6z"/>
	<path class="st1" d="M177.9,112.8c0-20.9-17.2-37.8-38.1-37.8s-38.1,16.9-38.1,37.8v11.7h76.1v-11.7H177.9z"/>
	<path class="st2" d="M208.9,120.6h-7.6v-6.8c0-33.8-27.4-61.1-61.4-61.1c-33.9,0-61.4,27.4-61.4,61.1v6.8h-7.8
		c-8,0-14.2,6.4-14.2,14.3V191c0,3.7,0.1,6.5,1.6,8.4c0.7,1,1.7,1.7,3,2.1v3.5c0,6.6,5.2,11.9,11.7,11.9H79l0.9,14.9
		c0,0.1,0,0.1,0,0.2c0,0.8,0.1,2.5,1.1,4.3c1,1.7,3,3.3,6.3,3.2h31.1l16.1-17.1h12.1l15,17.4v-54.1l25,25c1.7,1.6,3.4,3.3,5.1,5
		c7.5-7.5,17.1-16.9,22.7-22.5c2.5-2.5,4.2-4.2,4.4-4.3l0.2-0.2l0.2-0.2l3.3-3l0.6-0.5v-50C223.1,127.1,216.6,120.6,208.9,120.6z
		 M151.5,185.2h-25.2v-18.7h25.2V185.2z M127.2,164.5c1.2-5.8,6-9.8,11.9-9.8c5.8,0,10.7,4,11.9,9.8h-3c-1.1-3.9-4.7-6.9-8.9-6.9
		s-7.7,3-8.9,6.9H127.2z M178,124.5h-76.2v-11.7c0-20.9,17.2-37.8,38.1-37.8S178,91.9,178,112.8V124.5z"/>
	<path class="st1" d="M178.2,113.5c0-20.9-17.2-37.8-38.1-37.8S102,92.6,102,113.5v11.7h76.1L178.2,113.5L178.2,113.5z"/>
	<path class="st2" d="M191.7,227.9c-0.9-0.9-22.1-21.9-22.1-21.9v32.1l18.4,18.1l4.2,4.2l4.2-4.2l1.3-1.3
		c1.9-1.9,47.9-47.8,47.9-47.8v-32.2C245.7,174.8,199.3,220.4,191.7,227.9z"/>
	<g>
		
			<radialGradient id="SVGID_1_" cx="139.7965" cy="-6611.584" r="15.7853" gradientTransform="matrix(1 0 0 -1 0 -6497)" gradientUnits="userSpaceOnUse">
			<stop  offset="0" style="stop-color:#000000"/>
			<stop  offset="0.1901" style="stop-color:#030303"/>
			<stop  offset="0.3236" style="stop-color:#0C0C0C"/>
			<stop  offset="0.4397" style="stop-color:#1C1C1C"/>
			<stop  offset="0.5461" style="stop-color:#323232"/>
			<stop  offset="0.6456" style="stop-color:#4E4E4E"/>
			<stop  offset="0.7402" style="stop-color:#717171"/>
			<stop  offset="0.8309" style="stop-color:#9A9A9A"/>
			<stop  offset="0.9161" style="stop-color:#C9C9C9"/>
			<stop  offset="0.9985" style="stop-color:#FEFEFE"/>
			<stop  offset="1" style="stop-color:#FFFFFF"/>
		</radialGradient>
		<rect x="122.6" y="112.4" class="st3" width="33.7" height="3.9"/>
		<circle cx="127.3" cy="95.8" r="7"/>
		<circle cx="152.2" cy="95.8" r="7"/>
	</g>
</g>
</svg>
