<?xml version="1.0" encoding="UTF-8" standalone="no"?>
<!-- Generator: Adobe Illustrator 22.0.1, SVG Export Plug-In . SVG Version: 6.00 Build 0)  -->

<svg
   xmlns:dc="http://purl.org/dc/elements/1.1/"
   xmlns:cc="http://creativecommons.org/ns#"
   xmlns:rdf="http://www.w3.org/1999/02/22-rdf-syntax-ns#"
   xmlns:svg="http://www.w3.org/2000/svg"
   xmlns="http://www.w3.org/2000/svg"
   xmlns:sodipodi="http://sodipodi.sourceforge.net/DTD/sodipodi-0.dtd"
   xmlns:inkscape="http://www.inkscape.org/namespaces/inkscape"
   version="1.1"
   id="Layer_1"
   x="0px"
   y="0px"
   viewBox="0 0 30 30"
   xml:space="preserve"
   sodipodi:docname="alert.svg"
   width="30"
   height="30"
   inkscape:version="0.92.4 (5da689c313, 2019-01-14)"><metadata
   id="metadata49"><rdf:RDF><cc:Work
       rdf:about=""><dc:format>image/svg+xml</dc:format><dc:type
         rdf:resource="http://purl.org/dc/dcmitype/StillImage" /><dc:title></dc:title></cc:Work></rdf:RDF></metadata><defs
   id="defs47" /><sodipodi:namedview
   pagecolor="#ffffff"
   bordercolor="#666666"
   borderopacity="1"
   objecttolerance="10"
   gridtolerance="10"
   guidetolerance="10"
   inkscape:pageopacity="0"
   inkscape:pageshadow="2"
   inkscape:window-width="1920"
   inkscape:window-height="1017"
   id="namedview45"
   showgrid="true"
   inkscape:pagecheckerboard="true"
   inkscape:snap-bbox="true"
   inkscape:bbox-nodes="true"
   inkscape:snap-bbox-edge-midpoints="false"
   inkscape:snap-nodes="false"
   inkscape:snap-others="false"
   inkscape:zoom="17.800235"
   inkscape:cx="14.940606"
   inkscape:cy="18.206785"
   inkscape:window-x="-8"
   inkscape:window-y="111"
   inkscape:window-maximized="1"
   inkscape:current-layer="Layer_1"><inkscape:grid
     type="xygrid"
     id="grid856" /></sodipodi:namedview>
<style
   type="text/css"
   id="style2">
	.st0{fill:#FFFFFF;}
	.st1{fill:none;}
	.st2{fill:#ED3324;}
	.st3{fill:url(#SVGID_1_);}
</style>
<g
   id="Layer_2_1_"
   transform="translate(0,-270)">
</g>





<g
   id="g957"
   transform="translate(-5)"><g
     id="g931"><path
       style="fill:#ffffff;stroke-width:0.14443909"
       d="m 19.017578,1.0683594 c -4.520943,0 -8.175781,3.6552007 -8.175781,8.1328125 V 10.111328 H 9.8027344 c -1.0688492,0 -1.8925781,0.851845 -1.8925782,1.90625 v 7.466797 c 0,0.491093 0.014582,0.867735 0.2167969,1.113281 0.086663,0.129995 0.23097,0.230107 0.4042969,0.273438 v 0.46289 c 0,0.881079 0.6939119,1.587891 1.560547,1.587891 h 0.837891 l 0.115234,1.978516 v 0.0293 c 0,0.101106 0.01453,0.332578 0.144531,0.578124 0.129995,0.231104 0.404574,0.433594 0.837891,0.433594 h 4.144531 l 2.138672,-2.283203 h 1.617187 l 0.345704,0.40625 c -0.01444,-0.202214 -0.0293,-0.391535 -0.0293,-0.59375 0,-3.848933 2.973127,-6.997087 6.746093,-7.292969 l 0.869141,-1.189453 c 0.230596,-0.315691 0.672589,-0.384896 0.988281,-0.154297 0.06613,0.0483 0.124121,0.107892 0.169922,0.175782 l 1.06836,1.582031 c 0.0033,0.0012 0.0065,0.0027 0.0098,0.0039 v -4.578125 c 0,-1.039961 -0.86706,-1.90625 -1.892578,-1.90625 H 27.193359 V 9.2011719 c 0,-4.5064996 -3.654837,-8.1328125 -8.175781,-8.1328125 z"
       id="path5"
       inkscape:connector-curvature="0" /><path
       class="st1"
       d="m 24.549349,8.6807891 c 0,-3.0187769 -2.484352,-5.4597976 -5.503129,-5.4597976 -3.018777,0 -5.503129,2.4410207 -5.503129,5.4597976 V 10.370726 H 24.534906 V 8.6807891 Z"
       id="path7"
       inkscape:connector-curvature="0"
       style="fill:none;stroke-width:0.14443909" /><path
       style="fill:#e6b400;fill-opacity:1;stroke-width:0.14443909"
       d="M 19.046875,0 C 14.15039,0 10.177734,3.9585746 10.177734,8.8261719 V 9.8066406 H 9.0507812 C 7.8952685,9.8066406 7,10.731978 7,11.873047 v 8.117187 c 0,0.534425 0.01381,0.938457 0.2304688,1.212891 0.1011074,0.144439 0.2458229,0.246912 0.4335937,0.304687 v 0.503907 c 0,0.953298 0.750599,1.71875 1.6894531,1.71875 H 10.25 l 0.128906,2.152343 v 0.0293 c 0,0.115551 0.01571,0.361103 0.160156,0.621094 0.14444,0.245546 0.433508,0.477335 0.910157,0.462891 h 4.492187 l 2.324219,-2.470703 h 1.748047 l 0.474609,0.552734 7.371094,-10.089844 c 0.230596,-0.315691 0.672589,-0.384896 0.988281,-0.154297 0.06613,0.0483 0.124121,0.107892 0.169922,0.175782 l 2.046875,3.033203 v -6.15625 c 0,-1.141069 -0.940553,-2.0800784 -2.052734,-2.0800784 H 27.914062 V 8.8261719 C 27.914062,3.9441307 23.957804,0 19.046875,0 Z m 0.01367,3.2207031 c 3.018777,0 5.503906,2.4421606 5.503906,5.4609375 V 10.371094 H 13.556641 V 8.6816406 c 0,-3.0187769 2.485129,-5.4609375 5.503906,-5.4609375 z M 18.931641,14.732422 c 0.837747,0 1.545423,0.578269 1.71875,1.416016 h -0.433594 c -0.158883,-0.563312 -0.678512,-0.996094 -1.285156,-0.996094 -0.606644,0 -1.113783,0.432782 -1.28711,0.996094 h -0.433593 c 0.173327,-0.837748 0.868512,-1.416016 1.720703,-1.416016 z m -1.84961,1.705078 h 3.640625 v 2.701172 h -3.640625 z"
       id="path9"
       inkscape:connector-curvature="0" /><g
       id="g40"
       transform="matrix(0.14443909,0,0,0.14443909,-2.6196434,-7.5974963)">
	
		<radialGradient
   id="SVGID_1_"
   cx="149.79649"
   cy="-7101.584"
   r="15.7853"
   gradientTransform="matrix(1,0,0,-1,0,-6987)"
   gradientUnits="userSpaceOnUse">
		<stop
   offset="0"
   style="stop-color:#000000"
   id="stop11" />
		<stop
   offset="0.1901"
   style="stop-color:#030303"
   id="stop13" />
		<stop
   offset="0.3236"
   style="stop-color:#0C0C0C"
   id="stop15" />
		<stop
   offset="0.4397"
   style="stop-color:#1C1C1C"
   id="stop17" />
		<stop
   offset="0.5461"
   style="stop-color:#323232"
   id="stop19" />
		<stop
   offset="0.6456"
   style="stop-color:#4E4E4E"
   id="stop21" />
		<stop
   offset="0.7402"
   style="stop-color:#717171"
   id="stop23" />
		<stop
   offset="0.8309"
   style="stop-color:#9A9A9A"
   id="stop25" />
		<stop
   offset="0.9161"
   style="stop-color:#C9C9C9"
   id="stop27" />
		<stop
   offset="0.9985"
   style="stop-color:#FEFEFE"
   id="stop29" />
		<stop
   offset="1"
   style="stop-color:#FFFFFF"
   id="stop31" />
	</radialGradient>
	<rect
   x="132.60001"
   y="112.4"
   class="st3"
   width="33.700001"
   height="3.9000001"
   id="rect34"
   style="fill:url(#SVGID_1_)" />
	<circle
   cx="137.2"
   cy="95.800003"
   r="7"
   id="circle36" />
	<circle
   cx="162.10001"
   cy="95.800003"
   r="7"
   id="circle38" />
</g></g><g
     id="g901"
     transform="matrix(0.87500044,0,0,0.87500044,3.499985,2.6249881)"><path
       inkscape:connector-curvature="0"
       style="fill:#e6b400;stroke-width:1.62519753"
       d="m 28.700618,17.548927 7.215893,10.690746 c 0.150639,0.22319 0.09184,0.526242 -0.131349,0.676886 -0.08058,0.05438 -0.175563,0.08344 -0.272769,0.08344 H 20.48756 c -0.269272,0 -0.487561,-0.218287 -0.487561,-0.487558 0,-0.103395 0.03286,-0.204097 0.09386,-0.287584 L 27.902794,17.53411 c 0.15883,-0.217442 0.463855,-0.264958 0.681297,-0.106126 0.04555,0.03327 0.08498,0.07419 0.116527,0.120948 z"
       id="Fill-4-9" /><path
       inkscape:connector-curvature="0"
       style="fill:#000000;stroke-width:1.62519753"
       d="m 27.49112,28.02488 h 1.462677 c 0.269271,0 0.48756,-0.218288 0.48756,-0.487559 v -1.300158 c 0,-0.269271 -0.218289,-0.487559 -0.48756,-0.487559 H 27.49112 c -0.269271,0 -0.48756,0.218288 -0.48756,0.487559 v 1.300158 c 0,0.269271 0.218289,0.487559 0.48756,0.487559 z"
       id="Path" /><path
       inkscape:connector-curvature="0"
       style="fill:#000000;stroke-width:1.62519753"
       d="M 28.953797,20.061412 H 27.49112 c -0.269271,0 -0.48756,0.218289 -0.48756,0.48756 l 4.49e-4,3.898232 c 0,0.269097 0.218014,0.487313 0.487111,0.48756 l 1.462677,0.0023 c 0.269271,2.47e-4 0.48776,-0.21784 0.488008,-0.487111 0,-1.49e-4 0,-2.99e-4 0,-4.48e-4 l -4.48e-4,-3.900474 c 0,-0.269271 -0.218289,-0.48756 -0.48756,-0.487561 z"
       id="path9-6" /></g></g></svg>