<?xml version="1.0" encoding="UTF-8" standalone="no"?>
<!-- Generator: Adobe Illustrator 22.0.1, SVG Export Plug-In . SVG Version: 6.00 Build 0)  -->

<svg
   xmlns:dc="http://purl.org/dc/elements/1.1/"
   xmlns:cc="http://creativecommons.org/ns#"
   xmlns:rdf="http://www.w3.org/1999/02/22-rdf-syntax-ns#"
   xmlns:svg="http://www.w3.org/2000/svg"
   xmlns="http://www.w3.org/2000/svg"
   xmlns:sodipodi="http://sodipodi.sourceforge.net/DTD/sodipodi-0.dtd"
   xmlns:inkscape="http://www.inkscape.org/namespaces/inkscape"
   version="1.1"
   id="Layer_1"
   x="0px"
   y="0px"
   viewBox="0 0 30 30"
   xml:space="preserve"
   sodipodi:docname="connecting.svg"
   width="30"
   height="30"
   inkscape:version="0.92.4 (5da689c313, 2019-01-14)"><metadata
   id="metadata55"><rdf:RDF><cc:Work
       rdf:about=""><dc:format>image/svg+xml</dc:format><dc:type
         rdf:resource="http://purl.org/dc/dcmitype/StillImage" /><dc:title></dc:title></cc:Work></rdf:RDF></metadata><defs
   id="defs53" /><sodipodi:namedview
   pagecolor="#ffffff"
   bordercolor="#666666"
   borderopacity="1"
   objecttolerance="10"
   gridtolerance="10"
   guidetolerance="10"
   inkscape:pageopacity="0"
   inkscape:pageshadow="2"
   inkscape:window-width="1920"
   inkscape:window-height="1017"
   id="namedview51"
   showgrid="true"
   inkscape:pagecheckerboard="true"
   inkscape:zoom="17.800235"
   inkscape:cx="8.1381348"
   inkscape:cy="18.354076"
   inkscape:window-x="-8"
   inkscape:window-y="111"
   inkscape:window-maximized="1"
   inkscape:current-layer="Layer_1"
   inkscape:snap-nodes="false"
   inkscape:snap-bbox="true"
   inkscape:snap-bbox-edge-midpoints="true"
   inkscape:bbox-nodes="true"><inkscape:grid
     type="xygrid"
     id="grid862" /></sodipodi:namedview>
<style
   type="text/css"
   id="style2">
	.st0{fill:#FFFFFF;}
	.st1{fill:none;}
	.st2{fill:#FF9100;}
	.st3{fill:url(#SVGID_1_);}
</style>
<g
   id="Layer_2_1_"
   transform="translate(0,-270)">
</g>
<g
   id="g48"
   transform="matrix(0.14443909,0,0,0.14443909,-6.2041403,-7.6119403)">
	<path
   class="st0"
   d="m 203.8,122.6 h -7 v -6.3 C 196.8,85.1 171.5,60 140.2,60 108.9,60 83.6,85.3 83.6,116.3 v 6.3 h -7.2 c -7.4,0 -13.1,5.9 -13.1,13.2 v 51.7 c 0,3.4 0.1,6 1.5,7.7 0.6,0.9 1.6,1.6 2.8,1.9 v 3.2 c 0,6.1 4.8,11 10.8,11 h 5.8 L 85,225 c 0,0.1 0,0.1 0,0.2 0,0.7 0.1,2.3 1,4 0.9,1.6 2.8,3 5.8,3 h 28.7 l 14.8,-15.8 h 11.2 l 2.4,2.8 c -0.1,-1.4 -0.2,-2.7 -0.2,-4.1 0,-28 22.7,-50.7 50.7,-50.7 6.2,0 12.1,1.1 17.5,3.1 v -31.7 c 0,-7.2 -6,-13.2 -13.1,-13.2 z"
   id="path5"
   inkscape:connector-curvature="0"
   style="fill:#ffffff" />
	<path
   class="st1"
   d="M 178.3,112.8 C 178.3,91.9 161.1,75 140.2,75 119.3,75 102,91.9 102,112.8 v 11.7 h 76.1 v -11.7 z"
   id="path7"
   inkscape:connector-curvature="0"
   style="fill:none" />
	<path
   class="st2"
   d="m 209.2,120.6 h -7.6 v -6.8 c 0,-33.8 -27.4,-61.1 -61.4,-61.1 -33.9,0 -61.4,27.4 -61.4,61.1 v 6.8 H 71 c -8,0 -14.2,6.4 -14.2,14.3 V 191 c 0,3.7 0.1,6.5 1.6,8.4 0.7,1 1.7,1.7 3,2.1 v 3.5 c 0,6.6 5.2,11.9 11.7,11.9 h 6.3 l 0.9,14.9 c 0,0.1 0,0.1 0,0.2 0,0.8 0.1,2.5 1.1,4.3 1,1.7 3,3.3 6.3,3.2 h 31.1 l 16.1,-17.1 H 147 l 2.6,3 c -0.1,-1.5 -0.2,-2.9 -0.2,-4.4 0,-30.4 24.6,-55 55,-55 6.7,0 13.1,1.2 19,3.4 V 135 c 0,-7.9 -6.5,-14.4 -14.2,-14.4 z m -57.4,64.6 h -25.2 v -18.7 h 25.2 z m -24.3,-20.7 c 1.2,-5.8 6,-9.8 11.9,-9.8 5.8,0 10.7,4 11.9,9.8 h -3 c -1.1,-3.9 -4.7,-6.9 -8.9,-6.9 -4.2,0 -7.7,3 -8.9,6.9 z m 50.9,-40 h -76.2 v -11.7 c 0,-20.9 17.2,-37.8 38.1,-37.8 20.9,0 38.1,16.9 38.1,37.8 z"
   id="path9"
   inkscape:connector-curvature="0"
   style="fill:#ff9100" />
	<g
   id="g15">
		<path
   class="st2"
   d="m 242.8,226.5 -0.1,1.2 c -0.5,3 -1.1,5.3 -1.9,7.2 -5.5,13.5 -15.5,21.8 -29.7,24.6 -0.9,0.3 -1.9,0.3 -2.8,0.4 l -1.4,0.1 -5.9,-0.1 c -0.5,0 -0.9,-0.1 -1.5,-0.1 -8.7,-1.4 -16.4,-5.3 -22.7,-11.4 l -11.5,11.5 v -33.4 h 33 l -10.9,10.9 c 2.7,2.7 5.9,4.7 9.4,5.9 2.5,0.9 5.2,1.4 7.9,1.4 2,0 3.9,-0.3 5.8,-0.8 8.1,-2 14.5,-8.5 16.9,-16.8 v -0.7 h 15.4 z"
   id="path11"
   inkscape:connector-curvature="0"
   style="fill:#ff9100" />
		<path
   class="st2"
   d="m 243.3,180.9 v 33.3 h -33 l 10.9,-10.9 c -4.3,-4.6 -10.5,-7.3 -17,-7.3 -2.2,0 -4.1,0.3 -5.9,0.8 -8.1,2.2 -14.6,8.5 -16.9,16.8 l -0.1,0.8 h -15.4 l 0.1,-1.5 c 0,-0.4 0.1,-0.5 0.1,-0.9 3.2,-15.4 16.1,-28 31.5,-30.4 0.9,-0.3 1.8,-0.3 2.7,-0.4 l 1.5,-0.1 h 4.7 l 1.2,0.1 c 0.5,0 1.2,0.1 1.8,0.1 7.5,1.2 14.3,4.3 20.1,9.1 0.9,0.7 1.8,1.5 2.6,2.3 z"
   id="path13"
   inkscape:connector-curvature="0"
   style="fill:#ff9100" />
	</g>
	<g
   id="g46">
		
			<radialGradient
   id="SVGID_1_"
   cx="140.1465"
   cy="7403.584"
   r="15.7853"
   gradientTransform="translate(0,-7289)"
   gradientUnits="userSpaceOnUse">
			<stop
   offset="0"
   style="stop-color:#000000"
   id="stop17" />
			<stop
   offset="0.1901"
   style="stop-color:#030303"
   id="stop19" />
			<stop
   offset="0.3236"
   style="stop-color:#0C0C0C"
   id="stop21" />
			<stop
   offset="0.4397"
   style="stop-color:#1C1C1C"
   id="stop23" />
			<stop
   offset="0.5461"
   style="stop-color:#323232"
   id="stop25" />
			<stop
   offset="0.6456"
   style="stop-color:#4E4E4E"
   id="stop27" />
			<stop
   offset="0.7402"
   style="stop-color:#717171"
   id="stop29" />
			<stop
   offset="0.8309"
   style="stop-color:#9A9A9A"
   id="stop31" />
			<stop
   offset="0.9161"
   style="stop-color:#C9C9C9"
   id="stop33" />
			<stop
   offset="0.9985"
   style="stop-color:#FEFEFE"
   id="stop35" />
			<stop
   offset="1"
   style="stop-color:#FFFFFF"
   id="stop37" />
		</radialGradient>
		<rect
   x="123"
   y="112.4"
   class="st3"
   width="33.700001"
   height="3.9000001"
   id="rect40"
   style="fill:url(#SVGID_1_)" />
		<circle
   cx="127.6"
   cy="95.800003"
   r="7"
   id="circle42" />
		<circle
   cx="152.5"
   cy="95.800003"
   r="7"
   id="circle44" />
	</g>
</g>
</svg>