<?xml version="1.0" encoding="UTF-8" standalone="no"?>
<!-- Generator: Adobe Illustrator 22.0.1, SVG Export Plug-In . SVG Version: 6.00 Build 0)  -->

<svg
   xmlns:dc="http://purl.org/dc/elements/1.1/"
   xmlns:cc="http://creativecommons.org/ns#"
   xmlns:rdf="http://www.w3.org/1999/02/22-rdf-syntax-ns#"
   xmlns:svg="http://www.w3.org/2000/svg"
   xmlns="http://www.w3.org/2000/svg"
   xmlns:sodipodi="http://sodipodi.sourceforge.net/DTD/sodipodi-0.dtd"
   xmlns:inkscape="http://www.inkscape.org/namespaces/inkscape"
   version="1.1"
   id="Layer_1"
   x="0px"
   y="0px"
   viewBox="0 0 30 30"
   xml:space="preserve"
   sodipodi:docname="connected.svg"
   width="30"
   height="30"
   inkscape:version="0.92.4 (5da689c313, 2019-01-14)"><metadata
   id="metadata53"><rdf:RDF><cc:Work
       rdf:about=""><dc:format>image/svg+xml</dc:format><dc:type
         rdf:resource="http://purl.org/dc/dcmitype/StillImage" /><dc:title></dc:title></cc:Work></rdf:RDF></metadata><defs
   id="defs51" /><sodipodi:namedview
   pagecolor="#ffffff"
   bordercolor="#666666"
   borderopacity="1"
   objecttolerance="10"
   gridtolerance="10"
   guidetolerance="10"
   inkscape:pageopacity="0"
   inkscape:pageshadow="2"
   inkscape:window-width="1920"
   inkscape:window-height="1017"
   id="namedview49"
   showgrid="true"
   inkscape:pagecheckerboard="true"
   inkscape:zoom="17.800235"
   inkscape:cx="4.8729578"
   inkscape:cy="16.678447"
   inkscape:window-x="-8"
   inkscape:window-y="111"
   inkscape:window-maximized="1"
   inkscape:current-layer="Layer_1"
   inkscape:snap-bbox="true"
   inkscape:snap-nodes="false"
   inkscape:bbox-nodes="true"
   inkscape:snap-bbox-edge-midpoints="true"><inkscape:grid
     type="xygrid"
     id="grid860" /></sodipodi:namedview>
<style
   type="text/css"
   id="style2">
	.st0{fill:#FFFFFF;}
	.st1{fill:none;}
	.st2{fill:#4BB749;}
	.st3{fill:url(#SVGID_1_);}
</style>
<g
   id="Layer_2_1_"
   transform="translate(0,-270)">
</g>
<g
   id="g46"
   transform="matrix(0.14443909,0,0,0.14443909,-6.1608086,-7.6119403)">
	<path
   class="st0"
   d="m 201.8,122.6 h -7 v -6.3 C 194.8,85.1 169.5,60 138.2,60 106.9,60 81.6,85.3 81.6,116.3 v 6.3 h -7.2 c -7.4,0 -13.1,5.9 -13.1,13.2 v 51.7 c 0,3.4 0.1,6 1.5,7.7 0.6,0.9 1.6,1.6 2.8,1.9 v 3.2 c 0,6.1 4.8,11 10.8,11 h 5.8 L 83,225 c 0,0.1 0,0.1 0,0.2 0,0.7 0.1,2.3 1,4 0.9,1.6 2.8,3 5.8,3 h 28.7 l 14.8,-15.8 h 11.2 l 2.4,2.8 c -0.1,-1.4 -0.2,-2.7 -0.2,-4.1 0,-28 22.7,-50.7 50.7,-50.7 6.2,0 12.1,1.1 17.5,3.1 v -31.7 c 0,-7.2 -6,-13.2 -13.1,-13.2 z"
   id="path5"
   inkscape:connector-curvature="0"
   style="fill:#ffffff" />
	<path
   class="st1"
   d="M 177.9,112.8 C 177.9,91.9 160.7,75 139.8,75 c -20.9,0 -38.1,16.9 -38.1,37.8 v 11.7 h 76.1 v -11.7 z"
   id="path7"
   inkscape:connector-curvature="0"
   style="fill:none" />
	<path
   class="st2"
   d="m 208.9,120.6 h -7.6 v -6.8 C 201.3,80 173.9,52.7 139.9,52.7 106,52.7 78.5,80.1 78.5,113.8 v 6.8 h -7.8 c -8,0 -14.2,6.4 -14.2,14.3 V 191 c 0,3.7 0.1,6.5 1.6,8.4 0.7,1 1.7,1.7 3,2.1 v 3.5 c 0,6.6 5.2,11.9 11.7,11.9 H 79 l 0.9,14.9 c 0,0.1 0,0.1 0,0.2 0,0.8 0.1,2.5 1.1,4.3 1,1.7 3,3.3 6.3,3.2 h 31.1 l 16.1,-17.1 h 12.1 l 15,17.4 v -54.1 l 25,25 c 1.7,1.6 3.4,3.3 5.1,5 7.5,-7.5 17.1,-16.9 22.7,-22.5 2.5,-2.5 4.2,-4.2 4.4,-4.3 l 0.2,-0.2 0.2,-0.2 3.3,-3 0.6,-0.5 v -50 c 0,-7.9 -6.5,-14.4 -14.2,-14.4 z m -57.4,64.6 h -25.2 v -18.7 h 25.2 z m -24.3,-20.7 c 1.2,-5.8 6,-9.8 11.9,-9.8 5.8,0 10.7,4 11.9,9.8 h -3 c -1.1,-3.9 -4.7,-6.9 -8.9,-6.9 -4.2,0 -7.7,3 -8.9,6.9 z m 50.8,-40 H 101.8 V 112.8 C 101.8,91.9 119,75 139.9,75 160.8,75 178,91.9 178,112.8 Z"
   id="path9"
   inkscape:connector-curvature="0"
   style="fill:#4bb749" />
	<path
   class="st1"
   d="M 178.2,113.5 C 178.2,92.6 161,75.7 140.1,75.7 119.2,75.7 102,92.6 102,113.5 v 11.7 h 76.1 z"
   id="path11"
   inkscape:connector-curvature="0"
   style="fill:none" />
	<path
   class="st2"
   d="M 191.7,227.9 C 190.8,227 169.6,206 169.6,206 v 32.1 l 18.4,18.1 4.2,4.2 4.2,-4.2 1.3,-1.3 c 1.9,-1.9 47.9,-47.8 47.9,-47.8 v -32.2 c 0.1,-0.1 -46.3,45.5 -53.9,53 z"
   id="path13"
   inkscape:connector-curvature="0"
   style="fill:#4bb749" />
	<g
   id="g44">
		
			<radialGradient
   id="SVGID_1_"
   cx="139.79649"
   cy="-6611.584"
   r="15.7853"
   gradientTransform="matrix(1,0,0,-1,0,-6497)"
   gradientUnits="userSpaceOnUse">
			<stop
   offset="0"
   style="stop-color:#000000"
   id="stop15" />
			<stop
   offset="0.1901"
   style="stop-color:#030303"
   id="stop17" />
			<stop
   offset="0.3236"
   style="stop-color:#0C0C0C"
   id="stop19" />
			<stop
   offset="0.4397"
   style="stop-color:#1C1C1C"
   id="stop21" />
			<stop
   offset="0.5461"
   style="stop-color:#323232"
   id="stop23" />
			<stop
   offset="0.6456"
   style="stop-color:#4E4E4E"
   id="stop25" />
			<stop
   offset="0.7402"
   style="stop-color:#717171"
   id="stop27" />
			<stop
   offset="0.8309"
   style="stop-color:#9A9A9A"
   id="stop29" />
			<stop
   offset="0.9161"
   style="stop-color:#C9C9C9"
   id="stop31" />
			<stop
   offset="0.9985"
   style="stop-color:#FEFEFE"
   id="stop33" />
			<stop
   offset="1"
   style="stop-color:#FFFFFF"
   id="stop35" />
		</radialGradient>
		<rect
   x="122.6"
   y="112.4"
   class="st3"
   width="33.700001"
   height="3.9000001"
   id="rect38"
   style="fill:url(#SVGID_1_)" />
		<circle
   cx="127.3"
   cy="95.800003"
   r="7"
   id="circle40" />
		<circle
   cx="152.2"
   cy="95.800003"
   r="7"
   id="circle42" />
	</g>
</g>
</svg>