<?xml version="1.0" encoding="UTF-8"?>
<svg width="34px" height="30px" viewBox="0 0 34 30" version="1.1" xmlns="http://www.w3.org/2000/svg" xmlns:xlink="http://www.w3.org/1999/xlink">
    <title>Connecting</title>
    <defs>
        <linearGradient x1="50%" y1="99.9%" x2="50%" y2="1.2%" id="linearGradient-1">
            <stop stop-color="#FFAA68" offset="0.0109265734%"></stop>
            <stop stop-color="#FF5E00" offset="99.9808785%"></stop>
        </linearGradient>
    </defs>
    <g id="Connecting" stroke="none" stroke-width="1" fill="none" fill-rule="evenodd" transform="translate(0.000000, 0.000000)">
        <g id="Brand_Mascot-Copy-8" transform="translate(7.000000, 2.000000)" fill-rule="nonzero">
            <g id="Lock" transform="translate(-0.000000, 0.000000)">
                <path d="M4.72138805,9.59810472 L4.72138805,8.15614812 C4.72138805,5.20981835 7.08892545,2.81244907 9.99922694,2.81244907 C12.9095284,2.81244907 15.2771412,5.20985653 15.2771412,8.19188018 L15.2771412,9.59810472 L18.0549472,9.59810472 L18.0549472,8.15614812 C18.0549472,3.65169438 14.4437844,0 9.99922694,0 C5.55466952,0 1.94354438,3.65169438 1.94354438,8.15614812 L1.94354438,9.59810472 L4.72138805,9.59810472 Z" id="Path_30" fill="#FF9100"></path>
                <path d="M5.8333852,9.56267776 C6.30675139,9.56238756 6.75762344,9.76716078 7.07218441,10.1253053 L7.07218441,10.1253053 L12.9252891,10.1253053 C13.2406338,9.76660583 13.6926205,9.5618356 14.1669162,9.56267776 L14.1669162,9.56267776 L17.7780791,9.56267776 C18.6981603,9.56361346 19.4438312,10.3185839 19.444642,11.2501399 C19.8053428,11.7369205 20.0002282,12.3290959 20.0000001,12.9376399 L20.0000001,12.9376399 L20,13 L20,13 C16.1340068,13 13,16.1340068 13,20 C13,22.9928328 14.8782035,25.5469876 17.5202115,26.5480654 C17.2213016,26.8316514 16.8204121,26.9999999 16.3888368,26.9999999 L16.3888368,26.9999999 L13.8889924,26.9999999 C13.1831171,26.9999999 12.5540543,26.549075 12.3194822,25.8750125 L12.3194822,25.8750125 L7.68074381,25.8750125 C7.44549547,26.5485409 6.81687379,26.9991327 6.11127137,26.9999999 L6.11127137,26.9999999 L3.61116304,26.9999999 C2.86191843,27.0002886 2.20478773,26.4938021 2.00560688,25.7625099 C0.817564413,25.4154992 -0.000327372796,24.3144382 9.82945725e-08,23.0625252 L9.82945725e-08,23.0625252 L9.82945725e-08,12.9373726 C9.82945725e-08,12.3288578 0.19480192,11.7367364 0.555546309,11.2500253 C0.555466283,10.8024882 0.731024389,10.3732577 1.04358291,10.0568012 C1.35614144,9.7403446 1.78008474,9.56267776 2.22210924,9.56267776 L2.22210924,9.56267776 Z M10.0105852,13.7811327 C8.99254131,13.7761691 8.09703927,14.4613881 7.82391403,15.4543537 C7.5507888,16.4473194 7.96756196,17.5025523 8.8416067,18.0310618 C8.94462133,18.0903343 9.00093712,18.2077245 8.98326454,18.3263476 L8.98326454,18.3263476 L8.36113132,21.8897425 C8.3466866,21.9713159 8.36871314,22.0551748 8.42127161,22.1187072 C8.47383007,22.1822396 8.55150864,22.2189038 8.63336174,22.2188136 L8.63336174,22.2188136 L11.363961,22.2188136 C11.4458141,22.2189038 11.5234927,22.1822396 11.5760511,22.1187072 C11.6286096,22.0551748 11.6506361,21.9713159 11.6361914,21.8897425 L11.6361914,21.8897425 L11.0166975,18.3263476 C10.9947022,18.2150887 11.0434821,18.1017335 11.1389373,18.0422853 C12.0179204,17.5224081 12.4447665,16.4713109 12.181151,15.475714 C11.9175355,14.4801171 11.0286291,13.7861505 10.0105852,13.7811327 Z" id="Combined-Shape" fill="#FF9100"></path>
                <path d="M8.74923289,6.44673553 C8.75025096,6.07656572 8.53066381,5.74231748 8.19307857,5.60018139 C7.85549333,5.45804531 7.46656696,5.53608646 7.20804053,5.79783707 C6.94951411,6.05958768 6.87243425,6.4533645 7.01281953,6.7951599 C7.15320482,7.13695529 7.48333586,7.35928101 7.84894601,7.35825024 C8.34550573,7.35665398 8.7476563,6.94948804 8.74923289,6.44673553 L8.74923289,6.44673553 Z M12.1545226,5.53014351 C11.7893689,5.529114 11.4595564,5.75089084 11.3188783,6.0920621 C11.1782002,6.43323337 11.2543609,6.82661013 11.5118465,7.08875905 C11.7693321,7.35090798 12.1574343,7.43020249 12.4951793,7.2896672 C12.8329243,7.14913192 13.053798,6.8164433 13.0548067,6.44673553 C13.0554132,5.94224367 12.652796,5.5323346 12.1545226,5.53014351 L12.1545226,5.53014351 Z M11.1925916,7.95675865 C11.1878407,7.96126333 10.7011817,8.4373854 9.99949088,8.4373854 C9.30360659,8.4373854 8.81932301,7.96939467 8.80642789,7.95702588 C8.69737017,7.85007922 8.52370234,7.85161816 8.41651018,7.9604811 C8.30931801,8.06934403 8.30833157,8.24518163 8.41429544,8.35527037 C8.44008569,8.38142044 9.06176644,8.99989812 9.99960399,8.99989812 C10.9374415,8.99989812 11.558783,8.38145861 11.5849126,8.35527037 C11.6901707,8.24505158 11.6888764,8.06979324 11.5820022,7.96118038 C11.475128,7.85256752 11.3020345,7.8506011 11.1927801,7.95675865 L11.1925916,7.95675865 Z" id="Path_32" fill="#FF9100"></path>
                <path d="M11.9084218,18.5429159 C12.9493843,17.7185954 13.3590009,16.3162916 12.928328,15.0513135 C12.4976552,13.7863355 11.3215973,12.937438 10.0000565,12.9375661 C9.87652661,12.936729 9.7530767,12.9442539 9.63054703,12.9601633 C8.3845301,13.1093534 7.35069551,14.0052991 7.01284459,15.2287264 C6.67499367,16.4521537 7.09995613,17.7610587 8.0888632,18.5429159 L7.5333548,21.7294445 C7.47509155,22.0598518 7.56440745,22.3994154 7.77725782,22.6567215 C7.9901082,22.9140276 8.30461652,23.0626306 8.63611421,23.0625254 L11.3612085,23.0625254 C11.6927338,23.0627117 12.0072936,22.9141311 12.2201617,22.6568036 C12.4330298,22.3994761 12.5223148,22.0598651 12.4639679,21.7294445 L11.9084218,18.5429159 Z M11.3639987,22.2188136 L8.63339944,22.2188136 C8.55154635,22.2189038 8.47386778,22.1822396 8.42130931,22.1187072 C8.36875085,22.0551748 8.34672431,21.9713159 8.36116903,21.8897425 L8.98330225,18.3263476 C9.00098437,18.2077031 8.94465015,18.0902905 8.8416067,18.0310236 C7.96756196,17.5025141 7.5507888,16.4472812 7.82391403,15.4543156 C8.09703927,14.4613499 8.99254131,13.7761309 10.0105852,13.7810945 C11.0286291,13.7861123 11.9175355,14.4800789 12.181151,15.4756758 C12.4447665,16.4712727 12.0179204,17.52237 11.1388619,18.0422853 C11.0434211,18.1017442 10.9946572,18.2150971 11.0166598,18.3263476 L11.636116,21.8897425 C11.6505584,21.9713027 11.6285413,22.0551484 11.5759999,22.1186779 C11.5234585,22.1822073 11.4458009,22.2188136 11.363961,22.2188136 L11.3639987,22.2188136 Z" id="Path_33" fill="url(#linearGradient-1)"></path>
            </g>
        </g>
        <g id="Group" transform="translate(22.000000, 16.552822)" fill="#FF9100" fill-rule="nonzero">
            <path d="M11.2156295,6.59913169 L11.2011577,6.77279305 C11.1287988,7.20694645 11.0419682,7.5397974 10.9261939,7.81476122 C10.130246,9.76845152 8.68306802,10.9696093 6.62807525,11.3748191 C6.49782923,11.4182344 6.35311143,11.4182344 6.22286541,11.4327062 L6.02026049,11.447178 L5.16642547,11.4327062 C5.09406657,11.4327062 5.03617945,11.4182344 4.94934877,11.4182344 C3.69030391,11.2156295 2.57597685,10.6512301 1.6642547,9.76845152 L-4.35207426e-14,11.4327062 L-4.35207426e-14,6.59913169 L4.77568741,6.59913169 L3.19826339,8.17655572 C3.58900145,8.56729378 4.05209841,8.85672938 4.55861071,9.03039074 C4.92040521,9.16063676 5.31114327,9.23299566 5.70188133,9.23299566 C5.99131693,9.23299566 6.26628075,9.18958032 6.54124457,9.11722142 C7.71345876,8.82778582 8.63965268,7.88712012 8.9869754,6.68596237 L8.9869754,6.58465991 L11.2156295,6.58465991 L11.2156295,6.59913169 Z" id="path11-copy"></path>
            <path d="M11.2879884,-3.90798505e-14 L11.2879884,4.81910275 L6.51230101,4.81910275 L8.08972504,3.24167873 C7.46743849,2.57597685 6.57018813,2.18523878 5.62952243,2.18523878 C5.31114327,2.18523878 5.03617945,2.22865412 4.77568741,2.30101302 C3.60347323,2.61939219 2.66280753,3.53111433 2.32995658,4.73227207 L2.3154848,4.84804631 L0.0868306802,4.84804631 L0.10130246,4.63096961 C0.10130246,4.57308249 0.11577424,4.55861071 0.11577424,4.50072359 C0.578871201,2.27206946 2.44573082,0.448625181 4.67438495,0.10130246 C4.80463097,0.0578871201 4.93487699,0.0578871201 5.06512301,0.0434153401 L5.28219971,0.0289435601 L5.96237337,0.0289435601 L6.13603473,0.0434153401 C6.20839363,0.0434153401 6.30969609,0.0578871201 6.39652677,0.0578871201 C7.48191027,0.23154848 8.46599132,0.680173661 9.30535456,1.3748191 C9.43560058,1.47612156 9.5658466,1.5918958 9.68162084,1.70767004 L11.2879884,-3.90798505e-14 Z" id="path13-copy-3"></path>
        </g>
    </g>
</svg>