<?xml version="1.0" encoding="UTF-8" standalone="no"?>
<!-- Generator: Adobe Illustrator 22.0.1, SVG Export Plug-In . SVG Version: 6.00 Build 0)  -->

<svg
   xmlns:dc="http://purl.org/dc/elements/1.1/"
   xmlns:cc="http://creativecommons.org/ns#"
   xmlns:rdf="http://www.w3.org/1999/02/22-rdf-syntax-ns#"
   xmlns:svg="http://www.w3.org/2000/svg"
   xmlns="http://www.w3.org/2000/svg"
   xmlns:sodipodi="http://sodipodi.sourceforge.net/DTD/sodipodi-0.dtd"
   xmlns:inkscape="http://www.inkscape.org/namespaces/inkscape"
   version="1.1"
   id="Layer_1"
   x="0px"
   y="0px"
   viewBox="0 0 30 30"
   xml:space="preserve"
   sodipodi:docname="down.svg"
   width="30"
   height="30"
   inkscape:version="0.92.4 (5da689c313, 2019-01-14)"><metadata
   id="metadata49"><rdf:RDF><cc:Work
       rdf:about=""><dc:format>image/svg+xml</dc:format><dc:type
         rdf:resource="http://purl.org/dc/dcmitype/StillImage" /><dc:title></dc:title></cc:Work></rdf:RDF></metadata><defs
   id="defs47" /><sodipodi:namedview
   pagecolor="#ffffff"
   bordercolor="#666666"
   borderopacity="1"
   objecttolerance="10"
   gridtolerance="10"
   guidetolerance="10"
   inkscape:pageopacity="0"
   inkscape:pageshadow="2"
   inkscape:window-width="1920"
   inkscape:window-height="1017"
   id="namedview45"
   showgrid="true"
   inkscape:pagecheckerboard="true"
   inkscape:snap-bbox="true"
   inkscape:bbox-nodes="true"
   inkscape:snap-bbox-edge-midpoints="true"
   inkscape:snap-nodes="false"
   inkscape:snap-others="false"
   inkscape:zoom="17.800235"
   inkscape:cx="4.1046568"
   inkscape:cy="20.171315"
   inkscape:window-x="-8"
   inkscape:window-y="111"
   inkscape:window-maximized="1"
   inkscape:current-layer="Layer_1"><inkscape:grid
     type="xygrid"
     id="grid856" /></sodipodi:namedview>
<style
   type="text/css"
   id="style2">
	.st0{fill:#FFFFFF;}
	.st1{fill:none;}
	.st2{fill:#ED3324;}
	.st3{fill:url(#SVGID_1_);}
</style>
<g
   id="Layer_2_1_"
   transform="translate(0,-270)">
</g>




<g
   id="g878"
   transform="matrix(0.14443909,0,0,0.14443909,-7.6196434,31.401058)"><path
     style="fill:#ffffff"
     inkscape:connector-curvature="0"
     id="path5"
     d="m 213.4,-147.4 h -7 v -6.3 c 0,-31.2 -25.3,-56.3 -56.6,-56.3 -31.3,0 -56.6,25.3 -56.6,56.3 v 6.3 H 86 c -7.4,0 -13.1,5.9 -13.1,13.2 v 51.7 c 0,3.4 0.1,6 1.5,7.7 0.6,0.9 1.6,1.6 2.8,1.9 v 3.2 c 0,6.1 4.8,11 10.8,11 h 5.8 l 0.8,13.7 c 0,0.1 0,0.1 0,0.2 0,0.7 0.1,2.3 1,4 0.9,1.6 2.8,3 5.8,3 h 28.7 l 14.8,-15.8 h 11.2 l 2.4,2.8 c -0.1,-1.4 -0.2,-2.7 -0.2,-4.1 0,-28 22.7,-50.7 50.7,-50.7 6.2,0 12.1,1.1 17.5,3.1 v -31.7 c 0,-7.2 -6,-13.2 -13.1,-13.2 z"
     class="st0" /><path
     style="fill:none"
     inkscape:connector-curvature="0"
     id="path7"
     d="m 188.1,-157.3 c 0,-20.9 -17.2,-37.8 -38.1,-37.8 -20.9,0 -38.1,16.9 -38.1,37.8 v 11.7 H 188 v -11.7 z"
     class="st1" /><path
     style="fill:#ed3324"
     inkscape:connector-curvature="0"
     id="path9"
     d="m 219,-149.5 h -7.6 v -6.8 c 0,-33.8 -27.4,-61.1 -61.4,-61.1 -33.9,0 -61.4,27.4 -61.4,61.1 v 6.8 h -7.8 c -8,0 -14.2,6.4 -14.2,14.3 V -79 c 0,3.7 0.1,6.5 1.6,8.4 0.7,1 1.7,1.7 3,2.1 v 3.5 c 0,6.6 5.2,11.9 11.7,11.9 h 6.2 l 0.9,14.9 c 0,0.1 0,0.1 0,0.2 0,0.8 0.1,2.5 1.1,4.3 1,1.7 3,3.3 6.3,3.2 h 31.1 l 16.1,-17.1 h 12.1 l 13.6,15.8 17.1,-17.2 -20.1,-20.1 27.6,-27.6 20.1,20.1 18.2,-18.2 v -40.3 c 0,-7.9 -6.5,-14.4 -14.2,-14.4 z m -57.4,64.6 h -25.2 v -18.7 h 25.2 z m -24.3,-20.7 c 1.2,-5.8 6,-9.8 11.9,-9.8 5.8,0 10.7,4 11.9,9.8 h -3 c -1.1,-3.9 -4.7,-6.9 -8.9,-6.9 -4.2,0 -7.7,3 -8.9,6.9 z m 50.9,-40 H 112 v -11.7 c 0,-20.9 17.2,-37.8 38.1,-37.8 20.9,0 38.1,16.9 38.1,37.8 z"
     class="st2" /><g
     transform="translate(0,-270)"
     id="g40">
	
		<radialGradient
   gradientUnits="userSpaceOnUse"
   gradientTransform="matrix(1,0,0,-1,0,-6987)"
   r="15.7853"
   cy="-7101.584"
   cx="149.79649"
   id="SVGID_1_">
		<stop
   id="stop11"
   style="stop-color:#000000"
   offset="0" />
		<stop
   id="stop13"
   style="stop-color:#030303"
   offset="0.1901" />
		<stop
   id="stop15"
   style="stop-color:#0C0C0C"
   offset="0.3236" />
		<stop
   id="stop17"
   style="stop-color:#1C1C1C"
   offset="0.4397" />
		<stop
   id="stop19"
   style="stop-color:#323232"
   offset="0.5461" />
		<stop
   id="stop21"
   style="stop-color:#4E4E4E"
   offset="0.6456" />
		<stop
   id="stop23"
   style="stop-color:#717171"
   offset="0.7402" />
		<stop
   id="stop25"
   style="stop-color:#9A9A9A"
   offset="0.8309" />
		<stop
   id="stop27"
   style="stop-color:#C9C9C9"
   offset="0.9161" />
		<stop
   id="stop29"
   style="stop-color:#FEFEFE"
   offset="0.9985" />
		<stop
   id="stop31"
   style="stop-color:#FFFFFF"
   offset="1" />
	</radialGradient>
	<rect
   style="fill:url(#SVGID_1_)"
   id="rect34"
   height="3.9000001"
   width="33.700001"
   class="st3"
   y="112.4"
   x="132.60001" />
	<circle
   id="circle36"
   r="7"
   cy="95.800003"
   cx="137.2" />
	<circle
   id="circle38"
   r="7"
   cy="95.800003"
   cx="162.10001" />
</g><polygon
     transform="translate(0,-270)"
     style="fill:#ed3324"
     id="polygon42"
     points="235.1,255.9 215,235.9 194.9,255.9 180.1,241.1 200.1,221 180.1,200.9 194.9,186.1 215,206.1 235.1,186.1 249.9,200.9 229.9,221 249.9,241.1 "
     class="st2" /></g>
</svg>