<?xml version="1.0" encoding="UTF-8" standalone="no"?>
<svg
   xmlns:dc="http://purl.org/dc/elements/1.1/"
   xmlns:cc="http://creativecommons.org/ns#"
   xmlns:rdf="http://www.w3.org/1999/02/22-rdf-syntax-ns#"
   xmlns:svg="http://www.w3.org/2000/svg"
   xmlns="http://www.w3.org/2000/svg"
   xmlns:sodipodi="http://sodipodi.sourceforge.net/DTD/sodipodi-0.dtd"
   xmlns:inkscape="http://www.inkscape.org/namespaces/inkscape"
   width="16px"
   height="16px"
   viewBox="0 0 16 16"
   version="1.1"
   id="svg9"
   sodipodi:docname="connected.svg"
   inkscape:version="0.92.4 (5da689c313, 2019-01-14)">
  <metadata
     id="metadata15">
    <rdf:RDF>
      <cc:Work
         rdf:about="">
        <dc:format>image/svg+xml</dc:format>
        <dc:type
           rdf:resource="http://purl.org/dc/dcmitype/StillImage" />
        <dc:title>icon/windows-white/connected@2x</dc:title>
      </cc:Work>
    </rdf:RDF>
  </metadata>
  <defs
     id="defs13" />
  <sodipodi:namedview
     pagecolor="#ffffff"
     bordercolor="#666666"
     borderopacity="1"
     objecttolerance="10"
     gridtolerance="10"
     guidetolerance="10"
     inkscape:pageopacity="0"
     inkscape:pageshadow="2"
     inkscape:window-width="1920"
     inkscape:window-height="1017"
     id="namedview11"
     showgrid="true"
     inkscape:pagecheckerboard="true"
     inkscape:zoom="41.7193"
     inkscape:cx="4.0992858"
     inkscape:cy="7.2069325"
     inkscape:window-x="-8"
     inkscape:window-y="111"
     inkscape:window-maximized="1"
     inkscape:current-layer="icon/windows-white/connected">
    <inkscape:grid
       type="xygrid"
       id="grid825"
       spacingx="0.5"
       spacingy="0.5"
       empspacing="2" />
  </sodipodi:namedview>
  <!-- Generator: Sketch 52.6 (67491) - http://www.bohemiancoding.com/sketch -->
  <title
     id="title2">icon/windows-white/connected@2x</title>
  <desc
     id="desc4">Created with Sketch.</desc>
  <g
     id="icon/windows-white/connected"
     stroke="none"
     stroke-width="1"
     fill="none"
     fill-rule="evenodd">
    <path
       d="M4.0413,6.0884 L4.0413,5.1514 C4.0413,4.2524 4.4283,3.4354 5.0523,2.8424 C5.6753,2.2494 6.5353,1.8814 7.4813,1.8814 C9.3743,1.8814 10.9223,3.3534 10.9223,5.1514 L10.9223,6.0884 L4.0413,6.0884 Z M6.3003,11.9504 C6.3003,9.1104 8.6103,6.8004 11.4503,6.8004 C12.8283,6.8004 14.0753,7.3514 14.9993,8.2354 L14.9993,7.1914 C14.9993,6.5854 14.4793,6.0884 13.8413,6.0884 L12.8423,6.0884 L12.8423,4.7324 C12.8423,2.1294 10.4373,-0.0006 7.4973,-0.0006 C6.0263,-0.0006 4.6903,0.5324 3.7213,1.3904 C2.7523,2.2474 2.1513,3.4304 2.1513,4.7324 L2.1513,6.0884 L1.1583,6.0884 C0.5213,6.0884 -0.0007,6.5854 -0.0007,7.1914 L-0.0007,11.7504 C-0.0007,12.0834 0.1573,12.3824 0.4043,12.5854 C0.3753,12.6824 0.3603,12.7844 0.3603,12.8904 C0.3603,13.5074 0.8923,14.0134 1.5413,14.0134 L2.1513,14.0134 L2.1513,15.6334 C2.1513,15.8354 2.3253,15.9994 2.5373,15.9994 L5.6073,15.9994 L6.9753,14.4844 L6.9943,14.4844 C6.5643,13.7324 6.3003,12.8754 6.3003,11.9504 Z"
       id="Fill-1"
       fill="#56E153" />
    <path
       d="M15.4998,12.0005 C15.4998,9.7915 13.7088,8.0005 11.4998,8.0005 C9.2908,8.0005 7.4998,9.7915 7.4998,12.0005 C7.4998,14.2095 9.2908,16.0005 11.4998,16.0005 C13.7088,16.0005 15.4998,14.2095 15.4998,12.0005"
       id="Fill-4"
       fill="#56E153" />
  </g>
</svg>
