<?xml version="1.0" encoding="UTF-8"?>
<svg width="16px" height="16px" viewBox="0 0 16 16" version="1.1" xmlns="http://www.w3.org/2000/svg" xmlns:xlink="http://www.w3.org/1999/xlink">
    <!-- Generator: Sketch 54 (76480) - https://sketchapp.com -->
    <title>connected</title>
    <desc>Created with Sketch.</desc>
    <g id="Page-1" stroke="none" stroke-width="1" fill="none" fill-rule="evenodd">
        <g id="connected" transform="translate(-1.000000, -1.000000)" fill-rule="nonzero">
            <path d="M5.0413,7.0884 L5.0413,6.1514 C5.0413,5.2524 5.4283,4.4354 6.0523,3.8424 C6.6753,3.2494 7.5353,2.8814 8.4813,2.8814 C10.3743,2.8814 11.9223,4.3534 11.9223,6.1514 L11.9223,7.0884 L5.0413,7.0884 Z M7.3003,12.9504 C7.3003,10.1104 9.6103,7.8004 12.4503,7.8004 C13.8283,7.8004 15.0753,8.3514 15.9993,9.2354 L15.9993,8.1914 C15.9993,7.5854 15.4793,7.0884 14.8413,7.0884 L13.8423,7.0884 L13.8423,5.7324 C13.8423,3.1294 11.4373,0.9994 8.4973,0.9994 C7.0263,0.9994 5.6903,1.5324 4.7213,2.3904 C3.7523,3.2474 3.1513,4.4304 3.1513,5.7324 L3.1513,7.0884 L2.1583,7.0884 C1.5213,7.0884 0.9993,7.5854 0.9993,8.1914 L0.9993,12.7504 C0.9993,13.0834 1.1573,13.3824 1.4043,13.5854 C1.3753,13.6824 1.3603,13.7844 1.3603,13.8904 C1.3603,14.5074 1.8923,15.0134 2.5413,15.0134 L3.1513,15.0134 L3.1513,16.6334 C3.1513,16.8354 3.3253,16.9994 3.5373,16.9994 L6.6073,16.9994 L7.9753,15.4844 L7.9943,15.4844 C7.5643,14.7324 7.3003,13.8754 7.3003,12.9504 Z" id="Fill-1" fill="#D74035"></path>
            <path d="M16.4998,13.0005 C16.4998,10.7915 14.7088,9.0005 12.4998,9.0005 C10.2908,9.0005 8.4998,10.7915 8.4998,13.0005 C8.4998,15.2095 10.2908,17.0005 12.4998,17.0005 C14.7088,17.0005 16.4998,15.2095 16.4998,13.0005" id="Fill-4" fill="#D74035"></path>
            <polygon id="Z" fill="#FFFFFF" points="10.9948 14.1655 12.9098 11.8755 11.1448 11.8755 11.1448 11.2155 13.9548 11.2155 13.9548 11.8355 12.0398 14.1255 14.0048 14.1255 14.0048 14.7855 10.9948 14.7855"></polygon>
        </g>
    </g>
</svg>