<?xml version="1.0" encoding="UTF-8"?>
<svg width="40px" height="30px" viewBox="0 0 40 30" version="1.1" xmlns="http://www.w3.org/2000/svg" xmlns:xlink="http://www.w3.org/1999/xlink">
    <title>auto</title>
    <g id="Page-1" stroke="none" stroke-width="1" fill="none" fill-rule="evenodd">
        <g id="auto" transform="translate(0.000000, -0.766077)">
            <rect id="Rectangle" fill="#ECECEC" x="0" y="0.766076723" width="40" height="30"></rect>
            <path d="M23.417969,6.75826422 L20.369141,10.0414673 C20.377483,10.1686201 20.388672,10.2952094 20.388672,10.4242798 L20.388672,12.1801387 L18.382812,12.1801387 L4.015625,27.6469357 L4.015625,30.0785767 C4.015625,30.4569547 4.3399317,30.7660767 4.7363281,30.7660767 L10.466797,30.7660767 L13.021484,27.9223267 L14.966797,27.9223267 L17.521484,30.7660767 L22.375,30.7660767 C19.696742,28.4734697 18,25.0679917 18,21.2660767 C18,16.7551257 20.39038,12.8020677 23.972656,10.6039673 L23.972656,9.63717052 C23.972656,8.62938542 23.770289,7.66298852 23.417969,6.75826422 Z" id="Icon" fill="#383E43" fill-rule="nonzero"></path>
            <polyline id="Path" stroke="#383E43" fill="#383E43" points="0 0 0 15.7134915 0 31.426983 29.1500185 0"></polyline>
            <path d="M4.01585586,27.749489 L4.01585586,27.0400865 L2.87817417,27.0400865 C1.66496096,27.0400865 0.672288288,26.0925366 0.672288288,24.9344709 C0.672288288,24.7363385 0.701021021,24.544627 0.755411411,24.3626387 C0.29366967,23.9832518 0,23.422427 0,22.7985851 L0,14.2486209 C0,13.1134872 0.972972973,12.1810724 2.16216216,12.1810724 L4.01585586,12.1810724 L4.01585586,9.63708885 C4.01585586,7.19749172 5.13835435,4.97950936 6.94678679,3.37197666 C8.75541141,1.76407705 11.2500661,0.766076723 13.993994,0.766076723 C18.3165719,0.766076723 22.019712,3.24244563 23.3976809,6.67822412 C22.4548597,7.66569644 21.4361533,8.7438649 20.3640921,9.88738169 C20.076707,6.76445133 17.3091577,4.2939345 13.9661261,4.2939345 C12.199976,4.2939345 10.5942102,4.98363712 9.43048649,6.0949215 C8.26628228,7.20583896 7.54354354,8.73861337 7.54354354,10.4245735 L7.54354354,12.1810724 L18.2233197,12.1810724 C13.6239498,17.1291194 8.38391905,22.8858487 4.01585586,27.749489 Z" id="Icon-Copy" fill="#FFFFFF" fill-rule="nonzero"></path>
            <path d="M30.5,30.7660767 C35.7467051,30.7660767 40,26.5127818 40,21.2660767 C40,16.0193716 35.7467051,11.7660767 30.5,11.7660767 C25.2532949,11.7660767 21,16.0193716 21,21.2660767 C21,26.5127818 25.2532949,30.7660767 30.5,30.7660767 Z" id="Indicator-Green" fill="#383E43" fill-rule="nonzero"></path>
            <polygon id="Path-2" fill="#383E43" points="20.388672 9.87573271 18.2233197 12.1810724 20.388672 12.1810724"></polygon>
        </g>
    </g>
</svg>