<?xml version="1.0" encoding="UTF-8" standalone="no"?>
<svg
   xmlns:dc="http://purl.org/dc/elements/1.1/"
   xmlns:cc="http://creativecommons.org/ns#"
   xmlns:rdf="http://www.w3.org/1999/02/22-rdf-syntax-ns#"
   xmlns:svg="http://www.w3.org/2000/svg"
   xmlns="http://www.w3.org/2000/svg"
   xmlns:sodipodi="http://sodipodi.sourceforge.net/DTD/sodipodi-0.dtd"
   xmlns:inkscape="http://www.inkscape.org/namespaces/inkscape"
   width="40px"
   height="30px"
   viewBox="0 0 40 30"
   version="1.1"
   id="svg11"
   sodipodi:docname="auto.svg"
   inkscape:version="0.92.4 (5da689c313, 2019-01-14)">
  <metadata
     id="metadata17">
    <rdf:RDF>
      <cc:Work
         rdf:about="">
        <dc:format>image/svg+xml</dc:format>
        <dc:type
           rdf:resource="http://purl.org/dc/dcmitype/StillImage" />
      </cc:Work>
    </rdf:RDF>
  </metadata>
  <defs
     id="defs15" />
  <sodipodi:namedview
     pagecolor="#ffffff"
     bordercolor="#666666"
     borderopacity="1"
     objecttolerance="10"
     gridtolerance="10"
     guidetolerance="10"
     inkscape:pageopacity="0"
     inkscape:pageshadow="2"
     inkscape:window-width="1920"
     inkscape:window-height="1017"
     id="namedview13"
     showgrid="false"
     inkscape:zoom="56.8"
     inkscape:cx="3.2987832"
     inkscape:cy="2.5178796"
     inkscape:window-x="-8"
     inkscape:window-y="111"
     inkscape:window-maximized="1"
     inkscape:current-layer="svg11" />
  <!-- Generator: Sketch 52.6 (67491) - http://www.bohemiancoding.com/sketch -->
  <title
     id="title2">icon/mac-dark/connected copy</title>
  <desc
     id="desc4">Created with Sketch.</desc>
  <g
     id="icon/mac-dark/connected-copy"
     stroke-width="1"
     stroke="none"
     fill-rule="evenodd"
     fill="none">
    <path
       d="M 23.417969 5.9921875 L 20.369141 9.2753906 C 20.377483 9.4025434 20.388672 9.5291327 20.388672 9.6582031 L 20.388672 11.414062 L 18.382812 11.414062 L 4.015625 26.880859 L 4.015625 29.3125 C 4.015625 29.690878 4.3399317 30 4.7363281 30 L 10.466797 30 L 13.021484 27.15625 L 14.966797 27.15625 L 17.521484 30 L 22.375 30 C 19.696742 27.707393 18 24.301915 18 20.5 C 18 15.989049 20.39038 12.035991 23.972656 9.8378906 L 23.972656 8.8710938 C 23.972656 7.8633087 23.770289 6.8969118 23.417969 5.9921875 z "
       id="Icon"
       style="fill:#383e43;fill-opacity:1" />
    <path
       d="M4.01585586,26.9834123 L4.01585586,26.2740098 L2.87817417,26.2740098 C1.66496096,26.2740098 0.672288288,25.3264599 0.672288288,24.1683942 C0.672288288,23.9702618 0.701021021,23.7785503 0.755411411,23.596562 C0.29366967,23.2171751 0,22.6563503 0,22.0325084 L0,13.4825442 C0,12.3474105 0.972972973,11.4149957 2.16216216,11.4149957 L4.01585586,11.4149957 L4.01585586,8.87101213 C4.01585586,6.431415 5.13835435,4.21343264 6.94678679,2.60589994 C8.75541141,0.99800033 11.2500661,0 13.993994,0 C18.3165719,0 22.019712,2.47636891 23.3976809,5.9121474 C22.4548597,6.89961972 21.4361533,7.97778818 20.3640921,9.12130497 C20.076707,5.99837461 17.3091577,3.52785778 13.9661261,3.52785778 C12.199976,3.52785778 10.5942102,4.2175604 9.43048649,5.32884478 C8.26628228,6.43976224 7.54354354,7.97253665 7.54354354,9.65849676 L7.54354354,11.4149957 L18.2233197,11.4149957 C13.6239498,16.3630427 8.38391905,22.119772 4.01585586,26.9834123 Z"
       id="Icon-Copy"
       fill="#FFFFFF" />
    <path
       d="M30.5,30 C35.7467051,30 40,25.7467051 40,20.5 C40,15.2532949 35.7467051,11 30.5,11 C25.2532949,11 21,15.2532949 21,20.5 C21,25.7467051 25.2532949,30 30.5,30 Z"
       id="Indicator-Green"
       fill="#56E153" />
    <path
       d="M 27.673422,1.0630617 1.4845084,29.266514"
       id="Line-2"
       inkscape:connector-curvature="0"
       style="stroke:#979797;stroke-width:1.00726604;stroke-linecap:square" />
  </g>
</svg>
