<?xml version="1.0" encoding="UTF-8"?>
<svg width="88px" height="88px" viewBox="0 0 88 88" version="1.1" xmlns="http://www.w3.org/2000/svg" xmlns:xlink="http://www.w3.org/1999/xlink">
    <title>Artboard</title>
    <g id="Artboard" stroke="none" stroke-width="1" fill="none" fill-rule="evenodd">
        <g id="Group-2" transform="translate(18.788342, 11.650000)" fill-rule="nonzero">
            <g id="square-auto">
                <g id="Brand_Mascot-Copy-8" transform="translate(-0.000000, 0.000000)" fill="#383E43">
                    <g id="Pia_Logo_Vertical" transform="translate(-0.000000, 0.000000)">
                        <g id="Lock" transform="translate(-0.000000, 0.000000)">
                            <path d="M10.8254683,22.007083 L10.8254683,18.7008825 C10.8254683,11.9453692 16.2538933,6.44854396 22.9267989,6.44854396 C29.5997045,6.44854396 35.0283024,11.9454567 35.0283024,18.782811 L35.0283024,22.007083 L41.3974147,22.007083 L41.3974147,18.7008825 C41.3974147,8.37281354 33.1175342,0 22.9267989,0 C12.7360637,0 4.4562696,8.37281354 4.4562696,18.7008825 L4.4562696,22.007083 L10.8254683,22.007083 Z" id="Path_30"></path>
                            <path d="M13.3751189,21.9258481 C14.4604799,21.9251886 15.4942652,22.3947044 16.2155085,23.2158786 L16.2155085,23.2158786 L29.6358415,23.2158786 C30.3588818,22.393432 31.3952227,21.9239231 32.4827151,21.9258481 L32.4827151,21.9258481 L40.7625956,21.9258481 C42.8722105,21.9279994 44.5819273,23.6590389 44.5837863,25.7949636 C45.0334274,26.4017727 45.3706893,27.0800118 45.5847767,27.7968773 C44.2321905,27.5155456 42.8403438,27.3709821 41.4147326,27.3709821 C30.0179422,27.3709821 20.7790183,36.6099061 20.7790183,48.0066964 C20.7790183,52.1890944 22.0232663,56.0808823 24.1617958,59.3320942 L17.6108483,59.327707 C17.0714575,60.8720119 15.6301177,61.9051545 14.0122722,61.9071427 L14.0122722,61.9071427 L8.27988097,61.9071427 C6.56197009,61.9078046 5.05526332,60.7465032 4.59857006,59.0697551 C1.87455841,58.2741089 -0.000750619045,55.7495333 -1.17300455e-12,52.8790756 L-1.17300455e-12,52.8790756 L-1.17300455e-12,29.6635473 C-1.17300455e-12,28.2683097 0.446652974,26.9106598 1.27378833,25.794701 C1.27360484,24.7685622 1.67613449,23.7843981 2.39278654,23.0588084 C3.10943859,22.3332187 4.08148001,21.9258481 5.09497904,21.9258481 L5.09497904,21.9258481 L13.3751189,21.9258481 Z" id="Combined-Shape"></path>
                        </g>
                    </g>
                </g>
                <g id="Group" transform="translate(25.221429, 32.100000)" fill="#2FE567">
                    <path d="M32.1,16.05 C32.1,7.1863875 24.9136125,0 16.05,0 C7.1863875,0 0,7.1863875 0,16.05 C0,24.9136125 7.1863875,32.1 16.05,32.1 C24.9136125,32.1 32.1,24.9136125 32.1,16.05" id="Fill-4"></path>
                </g>
            </g>
            <g id="connected" transform="translate(0.000002, 0.000000)" fill="#FFFFFF">
                <path d="M22.9267987,0 C32.889229,0 41.0254639,8.00186038 41.385019,18.0097535 L0,50.344 L1.87698106e-08,29.6635473 C1.87698106e-08,28.2683097 0.446652767,26.9106598 1.27378812,25.794701 C1.27360463,24.7685622 1.67613428,23.7843981 2.39278633,23.0588084 C2.95650796,22.4880563 3.67825084,22.1142049 4.45389256,21.9806391 L4.45626939,18.7008825 C4.45626939,8.37281354 12.7360635,0 22.9267987,0 Z M22.9267987,6.44854396 C16.2538931,6.44854396 10.8254681,11.9453692 10.8254681,18.7008825 L10.8222857,21.9243 L13.3751187,21.925854 C14.2795862,21.9252995 15.1482372,22.2512597 15.8300497,22.8351451 L16.2155083,23.2158786 L29.6358414,23.2158786 C30.2383749,22.5305064 31.0584783,22.0902299 31.944445,21.9636266 L32.4827149,21.925854 L35.0256857,21.9243 L35.0283022,18.782811 C35.0283022,12.2084319 30.0092583,6.87336628 23.6909892,6.47270206 L22.9267987,6.44854396 Z" id="Combined-Shape"></path>
            </g>
        </g>
    </g>
</svg>