<?xml version="1.0" encoding="UTF-8" standalone="no"?>
<svg
   xmlns:dc="http://purl.org/dc/elements/1.1/"
   xmlns:cc="http://creativecommons.org/ns#"
   xmlns:rdf="http://www.w3.org/1999/02/22-rdf-syntax-ns#"
   xmlns:svg="http://www.w3.org/2000/svg"
   xmlns="http://www.w3.org/2000/svg"
   width="100px"
   height="100px"
   viewBox="0 0 100 100"
   version="1.1"
   id="svg2">
  <metadata
     id="metadata17">
    <rdf:RDF>
      <cc:Work
         rdf:about="">
        <dc:format>image/svg+xml</dc:format>
        <dc:type
           rdf:resource="http://purl.org/dc/dcmitype/StillImage" />
        <dc:title>icon-dark-active-general</dc:title>
      </cc:Work>
    </rdf:RDF>
  </metadata>
  <!-- Generator: Sketch 51.3 (57544) - http://www.bohemiancoding.com/sketch -->
  <title
     id="title4">icon-dark-active-general</title>
  <desc
     id="desc6">Created with Sketch.</desc>
  <defs
     id="defs8" />
  <g
     id="Page-1"
     stroke-width="1"
     stroke="none"
     fill-rule="evenodd"
     fill="none">
    <g
       id="Icons---Dark"
       transform="translate(-937.000000, -394.000000)">
      <g
         id="icon-dark-active-general"
         transform="translate(937.000000, 394.000000)">
        <circle           id="Oval-Copy-42"           cx="50"           cy="50"           r="50"           fill="#D7D8D9"></circle>
      </g>
    </g>
  </g>
  <g
     id="Page-1-9"
     style="fill:none;fill-rule:evenodd;stroke:none;stroke-width:1"
     transform="matrix(0.87750306,0,0,0.87750306,25.412109,13.711771)">
    <g
       transform="translate(-169,-1065)"
       id="-"
       style="fill:#323642;fill-opacity:1">
      <g
         transform="matrix(0.84888604,0,0,0.84888604,172.37808,1071.8567)"
         id="Group"
         style="fill:#323642;fill-opacity:1">
        <path
           id="Fill-1-2"
           d="M 60.166666,14.352649 C 60.166666,6.4395055 53.68522,0 45.713161,0 37.744572,0 31.259946,6.4360593 31.259946,14.352649 c 0,0.0473 0.0073,0.09459 0.0073,0.141887 -0.729076,-0.05821 -1.45817,-0.09096 -2.187209,-0.09096 -13.6513,0 -25.304849,9.244745 -28.34274393,22.480849 -1.72556936,7.523825 -0.39934391,15.266338 3.73701413,21.800007 4.1363768,6.530595 10.5880818,11.075103 18.1682818,12.787921 2.132247,0.483883 4.315893,0.727645 6.484813,0.727645 13.6513,0 25.304849,-9.241113 28.342744,-22.477124 1.714596,-7.469245 0.417661,-15.15364 -3.652696,-21.65471 3.242359,-4.784247 6.349191,-9.844744 6.349191,-13.716513 l 0,9.97e-4 z M 45.713161,3.8782888 c 5.8143,0 10.547751,4.6969765 10.547751,10.4743602 0,3.321693 -4.044743,9.190166 -7.294418,13.905584 -1.318891,1.91735 -2.414371,3.518122 -3.249675,4.882508 -0.83899,-1.364293 -1.930785,-2.968791 -3.249676,-4.882508 -3.249675,-4.715139 -7.29442,-10.583332 -7.29442,-13.905584 -0.0037,-5.7738444 4.726231,-10.4743602 10.54025,-10.4743602 l 1.88e-4,0 z M 53.66346,48.857684 c -2.626902,11.456971 -12.71714,19.457572 -24.535761,19.457572 -1.879481,0 -3.769935,-0.211015 -5.620153,-0.629412 -2.897959,-0.654876 -5.601863,-1.790029 -8.030866,-3.336222 1.322642,-0.949548 2.963987,-3.16522 3.333993,-3.776489 0.443314,-0.742202 0.05129,-3.034267 0.142882,-3.449013 0.09525,-0.411123 -1.732979,-3.860127 -2.260554,-4.413183 -0.527575,-0.553057 0.615504,-2.677733 0.948885,-4.136655 0.337066,-1.458923 -2.802761,-3.001576 -3.857911,-4.107596 -1.058808,-1.10602 -2.183552,1.89183 -3.495221,0.945915 C 8.9771791,44.466686 9.6585905,42.451075 9.830791,40.755674 9.9663473,39.373125 6.0095524,38.165305 4.540408,37.765088 c 0,-0.0073 0.00366,-0.01091 0.00366,-0.01819 2.3264871,-10.139992 10.49335,-17.564997 20.524313,-19.144626 -0.714426,0.764024 -1.351906,1.873668 -1.560779,3.758326 -0.403011,3.630913 -1.3263,5.151679 1.135717,6.239537 2.45836,1.087858 3.550182,0.669433 5.286725,1.193291 1.732979,0.523904 0.619172,4.897038 1.007505,5.06804 0,0 0.864641,6.847173 7.228483,10.187494 1.351905,0.713087 -2.253145,2.98332 -4.488094,3.409057 -2.238513,0.425671 -4.161982,0.123697 -4.924035,2.208408 -0.76572,2.088352 2.641534,1.528031 3.366915,2.091984 0.72538,0.563954 3.931162,2.681366 5.821616,1.033279 1.886796,-1.648086 7.613214,0.352912 7.558252,-1.8773 -0.09525,-3.841965 5.645758,-4.824297 8.767314,-7.563874 -0.06228,1.502604 -0.26012,3.008841 -0.604512,4.507719 l -2.8e-5,-5.49e-4 z"
           style="fill:#323642;fill-opacity:1" />
        <path
           id="Fill-2"
           d="m 52.732605,14.352648 c 0,3.878118 -3.141326,7.019444 -7.019445,7.019444 -3.874384,0 -7.019444,-3.141326 -7.019444,-7.019444 0,-3.878119 3.145155,-7.0194444 7.019444,-7.0194444 3.878119,0 7.019445,3.1413254 7.019445,7.0194444"
           style="fill:#323642;fill-opacity:1" />
      </g>
    </g>
  </g>
</svg>
