<?xml version="1.0" encoding="UTF-8"?>
<svg width="19px" height="13px" viewBox="0 0 19 13" version="1.1" xmlns="http://www.w3.org/2000/svg" xmlns:xlink="http://www.w3.org/1999/xlink">
    <title>icon-03</title>
    <g id="Page-1" stroke="none" stroke-width="1" fill="none" fill-rule="evenodd">
        <path d="M9.06109005,2.6998369 C11.6903193,2.699952 14.2190097,3.70935569 16.1245188,5.51941936 C16.2680086,5.65916306 16.4973616,5.6574003 16.6386829,5.51546759 L18.0103146,4.13235076 C18.0818721,4.06036289 18.1217681,3.96285116 18.1211808,3.86139322 C18.1205804,3.75993528 18.0795458,3.66289642 18.0071505,3.59174967 C13.0057994,-1.19724989 5.11558964,-1.19724989 0.114238534,3.59174967 C0.0417905159,3.66284362 0.00068439277,3.75985301 8.06910793e-06,3.86131109 C-0.000651712435,3.96276917 0.0391733876,4.06031055 0.110678936,4.13235076 L1.48270616,5.51546759 C1.62393728,5.65761448 1.8534673,5.6593786 1.9968703,5.51941936 C3.9026221,3.70923687 6.43160294,2.69983027 9.06109005,2.6998369 L9.06109005,2.6998369 Z M9.06109005,7.19970872 C10.5056808,7.19962028 11.8987199,7.73611049 12.9695285,8.70493501 C13.1143605,8.8424333 13.3425087,8.83945235 13.4836927,8.69821701 L14.8537423,7.31510018 C14.9258924,7.24255177 14.9659253,7.14413354 14.9649045,7.04186419 C14.963844,6.93959483 14.9218167,6.8420102 14.8482052,6.7709425 C11.5873777,3.74027785 6.53757101,3.74027785 3.2767435,6.7709425 C3.20308621,6.84200934 3.16106147,6.93964286 3.16007779,7.04194527 C3.1591282,7.14424767 3.19930057,7.24265654 3.27160185,7.31510018 L4.64125602,8.69821701 C4.78243996,8.83945235 5.01058814,8.8424333 5.15542015,8.70493501 C6.22552101,7.73675065 7.61745414,7.20030636 9.06109005,7.19970872 L9.06109005,7.19970872 Z M11.694006,10.5006158 C11.7672782,10.4287657 11.8076297,10.3298901 11.8055334,10.2273337 C11.8034372,10.1247774 11.7590789,10.0276304 11.6829316,9.95882921 C10.1694243,8.67978143 7.95275583,8.67978143 6.43924846,9.95882921 C6.36304839,10.0275751 6.31861749,10.1246915 6.31644632,10.2272484 C6.31427516,10.3298052 6.35455618,10.428712 6.42777864,10.5006158 L8.79807532,12.8902465 C8.86754697,12.9604761 8.96226265,13 9.06109005,13 C9.15991745,13 9.25463313,12.9604761 9.32410478,12.8902465 L11.694006,10.5006158 Z" id="icon-03" fill="#000000" fill-rule="nonzero"></path>
    </g>
</svg>