<?xml version="1.0" encoding="UTF-8"?>
<svg width="19px" height="13px" viewBox="0 0 17 17" version="1.1" xmlns="http://www.w3.org/2000/svg" xmlns:xlink="http://www.w3.org/1999/xlink">
    <title>icon-01</title>
    <g id="Page-1" stroke="none" stroke-width="1" fill="none" fill-rule="evenodd">
        <g id="icon-01" fill="#000000">
            <path d="M6.375,2.83356 L6.375,0.70856 C6.375,0.28356 6.09144,0 5.66644,0 L1.41644,0 C0.99144,0 0.708543,0.28356 0.708543,0.70856 L0.708543,2.83356 C0.283543,2.83356 -1.7104142e-05,3.116457 -1.7104142e-05,3.541457 L-1.7104142e-05,4.957897 L-1.7104142e-05,5.170397 L1.20392283,9.208577 L5.878923,9.208577 L7.083526,5.171077 L7.083526,4.958577 L7.083526,3.541474 C7.083526,3.116474 6.799966,2.833577 6.374966,2.833577 L6.375,2.83356 Z M4.95856,2.83356 L2.125,2.83356 L2.125,1.416457 L4.95856,1.416457 L4.95856,2.83356 Z" id="Fill-1"></path>
            <path d="M16.29144,2.83356 L16.29144,0.70856 C16.29144,0.28356 16.00788,0 15.58288,0 L11.33288,0 C10.90788,0 10.62432,0.28356 10.62432,0.70856 L10.62432,2.83356 C10.19932,2.83356 9.91576,3.11712 9.91576,3.54212 L9.91576,4.95856 L9.91576,5.17106 L11.04932,9.20856 L15.72432,9.20856 L16.999983,5.17106 L16.999983,4.95856 L16.999983,3.541457 C16.999983,3.116457 16.716423,2.83356 16.291423,2.83356 L16.29144,2.83356 Z M14.875,2.83356 L12.04144,2.83356 L12.04144,1.416457 L14.875,1.416457 L14.875,2.83356 Z" id="Fill-2"></path>
            <path d="M11.33356,12.75 C11.33356,13.175 11.61712,13.45856 12.04212,13.45856 L12.67962,13.45856 C12.39606,14.6625 11.26318,15.58356 9.91712,15.58356 L7.08356,15.58356 C5.7375,15.58356 4.675,14.6625 4.32106,13.45856 L4.95856,13.45856 C5.38356,13.45856 5.66712,13.175 5.66712,12.75 L5.66712,10.625 L1.41644017,10.625 L1.41644017,12.75 C1.41644017,13.175 1.7,13.45856 2.125,13.45856 L2.90394,13.45856 C3.25788,15.44212 4.95788,17 7.08288,17 L9.91644017,17 C12.04144,17 13.74144,15.4414402 14.09538,13.45856 L14.874983,13.45856 C15.299983,13.45856 15.583543,13.175 15.583543,12.75 L15.583543,10.625 L11.333543,10.625 L11.33356,12.75 Z" id="Fill-3"></path>
        </g>
    </g>
</svg>