<?xml version="1.0" encoding="UTF-8"?>
<svg width="34px" height="30px" viewBox="0 0 34 30" version="1.1" xmlns="http://www.w3.org/2000/svg" xmlns:xlink="http://www.w3.org/1999/xlink">
    <title>Disconnecting</title>
    <g id="Disconnecting" stroke="none" stroke-width="1" fill="none" fill-rule="evenodd" opacity="0.5">
        <g id="Brand_Mascot-Copy-8" transform="translate(6.562500, 1.875000)" fill="#000000" fill-rule="nonzero">
            <g id="Brand_Mascot" transform="translate(0.000000, 0.000000)">
                <g id="Pia_Logo_Vertical" transform="translate(0.000000, 0.000000)">
                    <g id="Lock" transform="translate(0.000000, 0.000000)">
                        <path d="M9.37427517,0 C13.5410478,0 16.9265129,3.42346348 16.9265129,7.64638887 L16.9265129,7.64638887 L16.9268495,8.98704404 C17.6656943,9.11295039 18.2286697,9.76332626 18.2293518,10.5470061 C18.5252391,10.9463183 18.7021086,11.4212802 18.7415593,11.9159785 L18.7499997,12.1290374 L18.7496558,12.6639667 C17.9294909,12.3559623 17.0410594,12.1875 16.1132815,12.1875 C11.9711458,12.1875 8.61328145,15.5453644 8.61328145,19.6875 C8.61328145,21.4076863 9.19239736,22.9926128 10.1663003,24.2579507 L7.20069723,24.2578242 C6.99590515,24.8441548 6.47312792,25.2502735 5.86985457,25.3059498 L5.72931682,25.3124999 L3.38546526,25.3124999 C2.68304844,25.3127706 2.06698841,24.8379395 1.88025635,24.1523531 C0.825087061,23.8441528 0.0813672649,22.9014849 0.00626491351,21.8051758 L2.62900812e-13,21.6211174 L2.62900812e-13,12.1287868 C2.62900812e-13,11.5583042 0.182626708,11.0031903 0.520824573,10.5468988 C0.520749548,10.1273327 0.685335272,9.72492912 0.97835889,9.42825109 C1.20921138,9.19451955 1.50487669,9.04154729 1.82258227,8.98715651 L1.82207276,7.64638887 C1.82207276,3.42346348 5.20750258,0 9.37427517,0 Z M9.37427517,2.63667101 C6.64586751,2.63667101 4.42630121,4.8842047 4.42630121,7.64638887 L4.42630121,7.64638887 L4.426,8.965 L5.46879853,8.9650104 C5.86327035,8.96476857 6.24107986,9.11642556 6.52728583,9.38594543 L6.63017279,9.49247373 L12.1174585,9.49247373 C12.3802457,9.1935575 12.7442492,9.00866293 13.1341881,8.97182008 L13.2814839,8.9650104 L14.322,8.965 L14.3223198,7.67988767 C14.3223198,4.95781016 12.2179687,2.75534369 9.58858759,2.6413095 Z" id="Combined-Shape"></path>
                    </g>
                </g>
            </g>
        </g>
        <g id="Group" transform="translate(17.812500, 15.937500)" fill="#000000" fill-rule="nonzero">
            <g id="Group-2" transform="translate(0.000000, -0.000000)">
                <path d="M10.3125,0.720096291 L10.2738281,3.43725982 L10.2609375,4.3125 L6.909375,4.27331014 C7.2703125,3.88141155 7.54101562,3.59401926 7.70859375,3.41113325 C7.85039063,3.24131053 7.92773438,3.14986753 7.92773438,3.13680424 C7.12851562,2.11786792 6.11015625,1.64758961 4.92421875,1.73903262 C3.69960938,1.83047562 2.77148438,2.35300707 2.17851562,3.33275353 C2.03671875,3.54176611 1.93359375,3.76384198 1.83046875,4.01204442 C1.81757812,4.03817099 1.76601562,4.20799371 1.76601562,4.20799371 L0,4.18056081 C0,4.18056081 0.038671875,4.0251077 0.0515625,3.98591784 C0.116015625,3.75077869 0.193359375,3.51563954 0.28359375,3.30532063 C0.837890625,1.84353891 1.88203125,0.837665867 3.36445312,0.328197705 C5.54296875,-0.416409609 7.50234375,0.106121839 9.178125,1.89448572 C9.20390625,1.89448572 9.57773438,1.50389346 10.3125,0.720096291" id="Fill-4"></path>
                <path d="M10.3125,6.88192162 C10.3125,6.88192162 10.2737797,7.03735403 10.2737797,7.07653867 C10.2092459,7.31164652 10.1318054,7.54806052 10.0414581,7.75704527 C9.4735607,9.21863237 8.42811327,10.2256776 6.9567428,10.7337718 C4.77550063,11.4795861 2.80076658,10.9558181 1.12288798,9.16769234 C1.10998123,9.16769234 0.722778473,9.55953875 0,10.3419254 L0.0258135169,7.62512365 L0.0387202753,6.75 L3.40738423,6.7904908 C3.04599499,7.18103105 2.77495307,7.46838508 2.60716521,7.65255289 C2.45228411,7.822353 2.37484355,7.91247768 2.37484355,7.92684538 C3.17506258,8.94433989 4.20760325,9.41455558 5.39502503,9.32312475 C6.60826033,9.23300007 7.53754693,8.70923204 8.13125782,7.72961602 C8.27323217,7.52063127 8.37648623,7.29858497 8.4797403,7.05172173 C8.49264706,7.02429249 8.54427409,6.85449238 8.54427409,6.85449238 L10.3125,6.88192162 Z" id="Fill-6"></path>
            </g>
        </g>
    </g>
</svg>