<?xml version="1.0" encoding="UTF-8" standalone="no"?>
<svg
   xmlns:dc="http://purl.org/dc/elements/1.1/"
   xmlns:cc="http://creativecommons.org/ns#"
   xmlns:rdf="http://www.w3.org/1999/02/22-rdf-syntax-ns#"
   xmlns:svg="http://www.w3.org/2000/svg"
   xmlns="http://www.w3.org/2000/svg"
   xmlns:sodipodi="http://sodipodi.sourceforge.net/DTD/sodipodi-0.dtd"
   xmlns:inkscape="http://www.inkscape.org/namespaces/inkscape"
   width="16px"
   height="16px"
   viewBox="0 0 16 16"
   version="1.1"
   id="svg13"
   sodipodi:docname="alert.svg"
   inkscape:version="0.92.4 (5da689c313, 2019-01-14)">
  <metadata
     id="metadata19">
    <rdf:RDF>
      <cc:Work
         rdf:about="">
        <dc:format>image/svg+xml</dc:format>
        <dc:type
           rdf:resource="http://purl.org/dc/dcmitype/StillImage" />
        <dc:title>icon/windows-white/alert</dc:title>
      </cc:Work>
    </rdf:RDF>
  </metadata>
  <defs
     id="defs17" />
  <sodipodi:namedview
     pagecolor="#ffffff"
     bordercolor="#666666"
     borderopacity="1"
     objecttolerance="10"
     gridtolerance="10"
     guidetolerance="10"
     inkscape:pageopacity="0"
     inkscape:pageshadow="2"
     inkscape:window-width="1920"
     inkscape:window-height="1017"
     id="namedview15"
     showgrid="true"
     inkscape:pagecheckerboard="true"
     inkscape:zoom="29.5"
     inkscape:cx="0.32025094"
     inkscape:cy="8.4826216"
     inkscape:window-x="-8"
     inkscape:window-y="111"
     inkscape:window-maximized="1"
     inkscape:current-layer="Group">
    <inkscape:grid
       type="xygrid"
       id="grid826"
       spacingx="0.5"
       spacingy="0.5"
       empspacing="2" />
  </sodipodi:namedview>
  <!-- Generator: Sketch 52.6 (67491) - http://www.bohemiancoding.com/sketch -->
  <title
     id="title2">icon/windows-white/alert</title>
  <desc
     id="desc4">Created with Sketch.</desc>
  <g
     id="icon/windows-white/alert"
     stroke="none"
     stroke-width="1"
     fill="none"
     fill-rule="evenodd">
    <g
       id="Group"
       transform="translate(-1.000000, 0.000000)">
      <path
         d="M5.0413,5.1519 C5.0413,4.2529 5.4283,3.4349 6.0523,2.8419 C6.6753,2.2499 7.5353,1.8809 8.4813,1.8809 C10.3743,1.8809 11.9223,3.3529 11.9223,5.1519 L11.9223,6.0889 L5.0413,6.0889 L5.0413,5.1519 Z M11.8103,6.5839 L15.7203,12.4599 C15.8923,12.2669 15.9993,12.0209 15.9993,11.7509 L15.9993,7.1909 C15.9993,6.5859 15.4793,6.0889 14.8413,6.0889 L13.8423,6.0889 L13.8423,4.7319 C13.8423,2.1299 11.4373,-0.0001 8.4973,-0.0001 C7.0263,-0.0001 5.6903,0.5329 4.7213,1.3899 C3.7523,2.2479 3.1513,3.4299 3.1513,4.7319 L3.1513,6.0889 L2.1583,6.0889 C1.5213,6.0889 0.9993,6.5859 0.9993,7.1909 L0.9993,11.7509 C0.9993,12.0839 1.1573,12.3819 1.4043,12.5859 C1.3753,12.6819 1.3603,12.7849 1.3603,12.8899 C1.3603,13.5069 1.8923,14.0129 2.5413,14.0129 L3.1513,14.0129 L3.1513,15.6329 C3.1513,15.8359 3.3253,15.9999 3.5373,15.9999 L5.0303,15.9999 L11.8103,6.5839 Z"
         id="Fill-1"
         fill="#FFFFFF"
         style="fill:#383e43;fill-opacity:1" />
      <path
         d="M12.0442164,8.95404284 L16.4842262,15.5321644 C16.5769195,15.6694947 16.5407341,15.8559657 16.4034038,15.948659 C16.3538274,15.9821213 16.2953802,16.0000005 16.2355677,16.0000005 L6.99064054,16.0000005 C6.82495512,16.0000005 6.69064054,15.8656859 6.69064054,15.7000005 C6.69064054,15.6363857 6.71086241,15.5744177 6.74838512,15.5230476 L11.5533025,8.94492608 C11.6510309,8.8111321 11.8387168,8.78189514 11.9725108,8.8796235 C12.0005375,8.90009534 12.0247993,8.92527531 12.0442164,8.95404284 Z"
         id="Fill-4"
         fill="#E6B400" />
      <path
         d="M11.3,15.4 L12.2,15.4 C12.3656854,15.4 12.5,15.2656854 12.5,15.1 L12.5,14.3 C12.5,14.1343146 12.3656854,14 12.2,14 L11.3,14 C11.1343146,14 11,14.1343146 11,14.3 L11,15.1 C11,15.2656854 11.1343146,15.4 11.3,15.4 Z"
         id="Path"
         fill="#000000" />
      <path
         d="M12.2,10.5 L11.3,10.5 C11.1343146,10.5 11,10.6343146 11,10.8 L11.0002759,13.1986213 C11.0002759,13.3641991 11.1344224,13.498469 11.3000001,13.4986212 L12.1999999,13.4999999 C12.3656852,13.5001522 12.5001232,13.3659611 12.5002755,13.2002757 C12.5002756,13.2001838 12.5002756,13.2000919 12.5002756,13.2 L12.5,10.8 C12.5,10.6343146 12.3656854,10.5 12.2,10.5 Z"
         id="path9"
         fill="#000000" />
    </g>
  </g>
</svg>
