<?xml version="1.0" encoding="UTF-8" standalone="no"?>
<svg
   xmlns:dc="http://purl.org/dc/elements/1.1/"
   xmlns:cc="http://creativecommons.org/ns#"
   xmlns:rdf="http://www.w3.org/1999/02/22-rdf-syntax-ns#"
   xmlns:svg="http://www.w3.org/2000/svg"
   xmlns="http://www.w3.org/2000/svg"
   xmlns:sodipodi="http://sodipodi.sourceforge.net/DTD/sodipodi-0.dtd"
   xmlns:inkscape="http://www.inkscape.org/namespaces/inkscape"
   width="16px"
   height="16px"
   viewBox="0 0 16 16"
   version="1.1"
   id="svg10"
   sodipodi:docname="disconnecting.svg"
   inkscape:version="0.92.4 (5da689c313, 2019-01-14)">
  <metadata
     id="metadata16">
    <rdf:RDF>
      <cc:Work
         rdf:about="">
        <dc:format>image/svg+xml</dc:format>
        <dc:type
           rdf:resource="http://purl.org/dc/dcmitype/StillImage" />
        <dc:title>icon/windows-white/disconnecting@2x</dc:title>
      </cc:Work>
    </rdf:RDF>
  </metadata>
  <defs
     id="defs14" />
  <sodipodi:namedview
     pagecolor="#ffffff"
     bordercolor="#666666"
     borderopacity="1"
     objecttolerance="10"
     gridtolerance="10"
     guidetolerance="10"
     inkscape:pageopacity="0"
     inkscape:pageshadow="2"
     inkscape:window-width="1920"
     inkscape:window-height="1017"
     id="namedview12"
     showgrid="true"
     inkscape:pagecheckerboard="true"
     inkscape:zoom="41.7193"
     inkscape:cx="1.8193295"
     inkscape:cy="6.8594321"
     inkscape:window-x="-8"
     inkscape:window-y="111"
     inkscape:window-maximized="1"
     inkscape:current-layer="icon/windows-white/disconnecting">
    <inkscape:grid
       type="xygrid"
       id="grid823"
       spacingx="0.5"
       spacingy="0.5"
       empspacing="2" />
  </sodipodi:namedview>
  <!-- Generator: Sketch 52.6 (67491) - http://www.bohemiancoding.com/sketch -->
  <title
     id="title2">icon/windows-white/disconnecting@2x</title>
  <desc
     id="desc4">Created with Sketch.</desc>
  <g
     id="icon/windows-white/disconnecting"
     stroke="none"
     stroke-width="1"
     fill="none"
     fill-rule="evenodd">
    <path
       d="M4.0413,5.1519 C4.0413,4.2529 4.4283,3.4349 5.0523,2.8419 C5.6753,2.2499 6.5353,1.8809 7.4813,1.8809 C9.3743,1.8809 10.9223,3.3529 10.9223,5.1519 L10.9223,6.0889 L4.0413,6.0889 L4.0413,5.1519 Z M6.2013,13.1269 C6.2123,12.1059 6.2023,11.0029 6.6393,10.0469 C7.0183,9.2169 7.5943,8.4869 8.3343,7.9519 C8.7923,7.6199 9.3043,7.3659 9.8403,7.1859 C10.4903,6.9569 11.1503,6.8459 11.7913,6.8459 C12.8313,6.8459 13.8313,7.1459 14.7403,7.7359 L14.9993,7.8809 L14.9993,7.1909 C14.9993,6.5859 14.4793,6.0889 13.8413,6.0889 L12.8423,6.0889 L12.8423,4.7319 C12.8423,2.1299 10.4373,-0.0001 7.4973,-0.0001 C6.0263,-0.0001 4.6903,0.5329 3.7213,1.3899 C2.7523,2.2479 2.1513,3.4299 2.1513,4.7319 L2.1513,6.0889 L1.1583,6.0889 C0.5213,6.0889 -0.0007,6.5859 -0.0007,7.1909 L-0.0007,11.7509 C-0.0007,12.0839 0.1573,12.3819 0.4043,12.5859 C0.3753,12.6819 0.3603,12.7849 0.3603,12.8899 C0.3603,13.5069 0.8923,14.0129 1.5413,14.0129 L2.1513,14.0129 L2.1513,15.6329 C2.1513,15.8359 2.3253,15.9999 2.5373,15.9999 L5.6073,15.9999 L6.1743,15.3719 C6.1883,14.1619 6.2013,13.1269 6.2013,13.1269 Z"
       id="Fill-1"
       fill="#FFFFFF"
       opacity="0.400000006"
       style="opacity:1;fill:#383e43;fill-opacity:0.50196081" />
    <path
       d="M15.4998,8.8228 L15.4698,10.9028 L15.4598,11.5728 L12.8598,11.5428 C13.1398,11.2428 13.3498,11.0228 13.4798,10.8828 C13.5898,10.7528 13.6498,10.6828 13.6498,10.6728 C13.0298,9.8928 12.2398,9.5328 11.3198,9.6028 C10.3698,9.6728 9.6498,10.0728 9.1898,10.8228 C9.0798,10.9828 8.9998,11.1528 8.9198,11.3428 C8.9098,11.3628 8.8698,11.4928 8.8698,11.4928 L7.4998,11.4718 C7.4998,11.4718 7.5298,11.3528 7.5398,11.3228 C7.5898,11.1428 7.6498,10.9628 7.7198,10.8018 C8.1498,9.6828 8.9598,8.9128 10.1098,8.5228 C11.7998,7.9528 13.3198,8.3528 14.6198,9.7218 C14.6398,9.7218 14.9298,9.4228 15.4998,8.8228"
       id="Fill-4"
       fill="#FFFFFF"
       style="fill:#383e43;fill-opacity:1" />
    <path
       d="M15.4901,12.5464 C15.4901,12.5464 15.4601,12.6654 15.4601,12.6954 C15.4101,12.8754 15.3501,13.0564 15.2801,13.2164 C14.8401,14.3354 14.0301,15.1064 12.8901,15.4954 C11.2001,16.0664 9.6701,15.6654 8.3701,14.2964 C8.3601,14.2964 8.0601,14.5964 7.5001,15.1954 L7.5201,13.1154 L7.5301,12.4454 L10.1401,12.4764 C9.8601,12.7754 9.6501,12.9954 9.5201,13.1364 C9.4001,13.2664 9.3401,13.3354 9.3401,13.3464 C9.9601,14.1254 10.7601,14.4854 11.6801,14.4154 C12.6201,14.3464 13.3401,13.9454 13.8001,13.1954 C13.9101,13.0354 13.9901,12.8654 14.0701,12.6764 C14.0801,12.6554 14.1201,12.5254 14.1201,12.5254 L15.4901,12.5464 Z"
       id="Fill-6"
       fill="#FFFFFF"
       style="fill:#383e43;fill-opacity:1" />
  </g>
</svg>
