<?xml version="1.0" encoding="UTF-8"?>
<svg width="18px" height="16px" viewBox="0 0 18 16" version="1.1" xmlns="http://www.w3.org/2000/svg" xmlns:xlink="http://www.w3.org/1999/xlink">
    <title>Down</title>
    <g id="Down" stroke="none" stroke-width="1" fill="none" fill-rule="evenodd" opacity="0.5">
        <g id="Brand_Mascot-Copy-8" transform="translate(2.812500, 1.000000)" fill="#383E43" fill-rule="nonzero">
            <g id="Brand_Mascot" transform="translate(-0.000000, -0.000000)">
                <g id="Pia_Logo_Vertical" transform="translate(-0.000000, -0.000000)">
                    <g id="Lock" transform="translate(-0.000000, -0.000000)">
                        <path d="M5.68711338,-1.64313008e-14 C7.90939209,-1.64313008e-14 9.71497352,1.82584719 9.71497352,4.07807406 L9.71497352,4.07807406 L9.714,4.181 L11.2876254,2.74953678 L12.2727273,3.72272017 L0.985101857,13.9995368 L-7.63833441e-14,13.0263534 L0.872469552,12.2324367 C0.777419798,12.065377 0.715781451,11.8776493 0.695159371,11.6794915 L0.687499955,11.5312626 L0.687499955,6.46868632 C0.687499955,6.1644289 0.784900866,5.86836818 0.965273061,5.62501267 C0.965233047,5.40124409 1.0530121,5.18662886 1.20929136,5.02840058 C1.33222131,4.90393752 1.48961073,4.82241229 1.65875378,4.79328579 L1.65927209,4.07807406 C1.65927209,1.82584719 3.46483466,-1.64313008e-14 5.68711338,-1.64313008e-14 Z M10.6489997,6.13961607 C10.6659783,6.21106367 10.6774486,6.28397557 10.6831965,6.35770159 L10.6875,6.46881993 L10.6875,11.5312626 C10.687076,12.1574686 10.2776412,12.7079018 9.68332013,12.881255 C9.59425381,13.2101904 9.31955542,13.4482255 8.99264076,13.4925431 L8.88191828,13.4999999 L7.63199609,13.4999999 C7.31827376,13.4999999 7.03489706,13.3218568 6.89342385,13.0455616 L6.84724101,12.9375062 L4.52787181,12.9375062 C4.42331699,13.2368522 4.16335542,13.4481245 3.85909342,13.4916827 L3.74313559,13.4999999 L2.56349991,13.4993376 L10.6489997,6.13961607 Z M5.68711338,1.40622454 C4.23196263,1.40622454 3.04819393,2.60490918 3.04819393,4.07807406 L3.04819393,4.07807406 L3.048,4.781 L3.60419251,4.78133888 C3.80142842,4.78121796 3.99085387,4.85229962 4.1395357,4.97962665 L4.22359211,5.06265265 L7.15014448,5.06265265 C7.28153808,4.91319454 7.46037684,4.81718408 7.65357829,4.78957589 L7.77095802,4.78133888 L8.326,4.781 L8.32607053,4.09594009 C8.32607053,2.66227487 7.23157496,1.49886492 5.85375928,1.41149266 Z" id="Combined-Shape"></path>
                    </g>
                </g>
            </g>
        </g>
    </g>
</svg>