<?xml version="1.0" encoding="UTF-8"?>
<svg width="18px" height="16px" viewBox="0 0 18 16" version="1.1" xmlns="http://www.w3.org/2000/svg" xmlns:xlink="http://www.w3.org/1999/xlink">
    <title>Alert</title>
    <g id="Alert" stroke="none" stroke-width="1" fill="none" fill-rule="evenodd">
        <g id="Brand_Mascot-Copy-8" transform="translate(3.500000, 1.000000)" fill="#FFFFFF" fill-rule="nonzero">
            <g id="Brand_Mascot" transform="translate(-0.000000, 0.000000)">
                <g id="Pia_Logo_Vertical" transform="translate(-0.000000, 0.000000)">
                    <g id="Lock" transform="translate(-0.000000, 0.000000)">
                        <path d="M4.99961342,0 C7.15455036,0 8.91766174,1.71686641 9.02253815,3.87453971 L9.02747356,4.07807406 L9.02786513,4.79312632 C9.42181133,4.86036466 9.72195726,5.20718231 9.72232096,5.62506994 C9.87261294,5.82789518 9.96533015,6.06731586 9.99199511,6.31757204 L9.996,6.41 L9.6024174,5.82986717 C9.48626517,5.65729512 9.26652034,5.55430499 9.03316846,5.56301151 L9.03313766,5.5625 C8.81914024,5.57079348 8.62503305,5.67195326 8.51829553,5.82986717 L3.52069143,13.2017063 C3.47869847,13.2637972 3.4526033,13.3313486 3.44240585,13.4002461 C3.3610595,13.4468743 3.26857698,13.4777985 3.17159347,13.4916827 L3.05563564,13.4999999 L1.80558147,13.4999999 C1.43095917,13.5001443 1.10239382,13.246901 1.00280339,12.881255 C0.451212245,12.7201429 0.0592013682,12.2339427 0.00614515071,11.6641318 L-1.68665082e-11,11.5312626 L-1.68665082e-11,6.46868632 C-1.68665082e-11,6.1644289 0.0974009108,5.86836818 0.277773106,5.62501267 C0.277733092,5.40124409 0.365512145,5.18662886 0.521791408,5.02840058 C0.644721357,4.90393752 0.802110772,4.82241229 0.971253825,4.79328579 L0.971772138,4.07807406 C0.971772138,1.82584719 2.77733471,0 4.99961342,0 Z M4.99961342,1.40622454 C3.60043001,1.40622454 2.45215456,2.51447587 2.36589548,3.90936419 L2.36069398,4.07807406 L2.35999995,4.781 L2.91669255,4.78133888 C3.11392846,4.78121796 3.30335391,4.85229962 3.45203575,4.97962665 L3.53609215,5.06265265 L6.46264453,5.06265265 C6.59403813,4.91319454 6.77287689,4.81718408 6.96607834,4.78957589 L7.08345807,4.78133888 L7.63799995,4.781 L7.63857057,4.09594009 C7.63857057,2.66227487 6.54407501,1.49886492 5.16625933,1.41149266 L4.99961342,1.40622454 Z" id="Combined-Shape"></path>
                    </g>
                </g>
            </g>
        </g>
        <path d="M12.6342513,8.43789784 C12.8092652,8.4311261 12.9740738,8.51122954 13.061188,8.64545224 L13.061188,8.64545224 L16.8126065,14.3791049 C16.8961886,14.5072759 16.8957958,14.6653501 16.8114291,14.7935119 C16.7274482,14.9213202 16.5720633,15 16.4045032,15 L16.4045032,15 L8.90799701,15 C8.74043691,15 8.58504571,14.9213184 8.50107078,14.7935119 C8.41670417,14.665341 8.41631139,14.5072668 8.49989354,14.3791049 L8.49989354,14.3791049 L12.2480966,8.64545224 C12.3281498,8.52263031 12.4737301,8.44395049 12.6342282,8.4375 Z M12.6988295,13.2836538 C12.3936405,13.2836538 12.1462912,13.5407086 12.1462912,13.8578726 C12.1462912,14.1750366 12.3936405,14.4320913 12.6988295,14.4320913 C13.0040185,14.4320913 13.2513678,14.1750366 13.2513678,13.8578726 C13.2513678,13.5407086 13.0040185,13.2836538 12.6988295,13.2836538 Z M12.6810416,10.0753206 C12.4367202,10.0753206 12.239011,10.276021 12.239011,10.5240386 L12.239011,10.5240386 L12.3495186,12.5432694 C12.3495186,12.7290611 12.4980188,12.8798079 12.6810416,12.8798079 C12.8640644,12.8798079 13.0125646,12.7290611 13.0125646,12.5432694 L13.0125646,12.5432694 L13.1230722,10.5240386 C13.1230722,10.276021 12.925363,10.0753206 12.6810416,10.0753206 Z" id="Combined-Shape" fill="#E6B400"></path>
    </g>
</svg>