<?xml version="1.0" encoding="UTF-8"?>
<svg width="18px" height="16px" viewBox="0 0 18 16" version="1.1" xmlns="http://www.w3.org/2000/svg" xmlns:xlink="http://www.w3.org/1999/xlink">
    <title>Connecting</title>
    <g id="Connecting" stroke="none" stroke-width="1" fill="none" fill-rule="evenodd">
        <g id="Brand_Mascot-Copy-8" transform="translate(3.500000, 1.000000)" fill="#FFFFFF" fill-rule="nonzero">
            <g id="Brand_Mascot" transform="translate(0.000000, 0.000000)">
                <g id="Pia_Logo_Vertical" transform="translate(0.000000, 0.000000)">
                    <g id="Lock" transform="translate(0.000000, 0.000000)">
                        <path d="M4.99961342,0 C7.22189214,0 9.02747356,1.82584719 9.02747356,4.07807406 L9.02747356,4.07807406 L9.02786513,4.79312632 C9.42181133,4.86036466 9.72195726,5.20718231 9.72232096,5.62506994 C9.87261294,5.82789518 9.96533015,6.06731586 9.99199511,6.31757204 L10,6.46881993 L10.0005198,6.75437978 C9.56290305,6.58994287 9.08883022,6.5 8.59375011,6.5 C6.38461111,6.5 4.59375011,8.290861 4.59375011,10.5 C4.59375011,11.4178912 4.90292071,12.2635717 5.42280572,12.9385854 L3.84037186,12.9375062 C3.73581704,13.2368522 3.47585547,13.4481245 3.17159347,13.4916827 L3.05563564,13.4999999 L1.80558147,13.4999999 C1.43095917,13.5001443 1.10239382,13.246901 1.00280339,12.881255 C0.451212245,12.7201429 0.0592013682,12.2339427 0.00614515073,11.6641318 L1.58095759e-13,11.5312626 L1.58095759e-13,6.46868632 C1.58095759e-13,6.1644289 0.0974009108,5.86836818 0.277773106,5.62501267 C0.277733092,5.40124409 0.365512145,5.18662886 0.521791408,5.02840058 C0.644721357,4.90393752 0.802110772,4.82241229 0.971253825,4.79328579 L0.971772138,4.07807406 C0.971772138,1.82584719 2.77733471,0 4.99961342,0 Z M4.99961342,1.40622454 C3.54446267,1.40622454 2.36069398,2.60490918 2.36069398,4.07807406 L2.36069398,4.07807406 L2.36,4.781 L2.91669255,4.78133888 C3.11392846,4.78121796 3.30335391,4.85229962 3.45203575,4.97962665 L3.53609215,5.06265265 L6.46264453,5.06265265 C6.59403813,4.91319454 6.77287689,4.81718408 6.96607834,4.78957589 L7.08345807,4.78133888 L7.638,4.781 L7.63857057,4.09594009 C7.63857057,2.66227487 6.54407501,1.49886492 5.16625933,1.41149266 Z" id="Combined-Shape"></path>
                    </g>
                </g>
            </g>
        </g>
        <g id="Group" transform="translate(9.500000, 8.500000)" fill="#FFFFFF" fill-rule="nonzero">
            <g id="Group-2" transform="translate(0.000000, -0.000000)">
                <path d="M5.5,0.384051355 L5.479375,1.83320524 L5.4725,2.3 L3.685,2.27909874 C3.8775,2.07008616 4.021875,1.91681027 4.11125,1.81927107 C4.186875,1.72869895 4.228125,1.67992935 4.228125,1.67296226 C3.801875,1.12952956 3.25875,0.87871446 2.62625,0.927484062 C1.973125,0.976253664 1.478125,1.2549371 1.161875,1.77746855 C1.08625,1.88894193 1.03125,2.00738239 0.97625,2.13975702 C0.969375,2.15369119 0.941875,2.24426331 0.941875,2.24426331 L0,2.22963243 C0,2.22963243 0.020625,2.14672411 0.0275,2.12582285 C0.061875,2.0004153 0.103125,1.87500776 0.15125,1.76283767 C0.446875,0.98322075 1.00375,0.446755129 1.794375,0.175038776 C2.95625,-0.222085125 4.00125,0.0565983144 4.895,1.01039239 C4.90875,1.01039239 5.108125,0.802076514 5.5,0.384051355" id="Fill-4"></path>
                <path d="M5.5,3.6703582 C5.5,3.6703582 5.47934919,3.75325548 5.47934919,3.77415396 C5.44493116,3.89954481 5.40362954,4.02563228 5.35544431,4.13709081 C5.05256571,4.91660393 4.49499374,5.45369474 3.71026283,5.7246783 C2.54693367,6.12244595 1.49374218,5.843103 0.598873592,4.88943591 C0.591989987,4.88943591 0.385481852,5.09842067 0,5.51569355 L0.013767209,4.06673261 L0.0206508135,3.6 L1.81727159,3.62159509 C1.62453066,3.82988323 1.47997497,3.98313871 1.39048811,4.08136154 C1.30788486,4.1719216 1.26658323,4.2199881 1.26658323,4.22765087 C1.69336671,4.77031461 2.24405507,5.02109631 2.87734668,4.9723332 C3.52440551,4.92426671 4.02002503,4.64492376 4.33667084,4.12246188 C4.41239049,4.01100334 4.46745932,3.89257865 4.52252816,3.76091826 C4.52941176,3.74628933 4.55694618,3.65572927 4.55694618,3.65572927 L5.5,3.6703582 Z" id="Fill-6"></path>
            </g>
        </g>
    </g>
</svg>