<?xml version="1.0" encoding="UTF-8"?>
<svg width="18px" height="16px" viewBox="0 0 18 16" version="1.1" xmlns="http://www.w3.org/2000/svg" xmlns:xlink="http://www.w3.org/1999/xlink">
    <title>Connected</title>
    <g id="Connected" stroke="none" stroke-width="1" fill="none" fill-rule="evenodd" transform="translate(0.000000, -0.000000)">
        <g id="Brand_Mascot-Copy-8" transform="translate(3.500000, 1.000000)" fill="#FFFFFF" fill-rule="nonzero">
            <g id="Brand_Mascot" transform="translate(0.000000, 0.000000)">
                <g id="Pia_Logo_Vertical" transform="translate(0.000000, 0.000000)">
                    <g id="Lock" transform="translate(0.000000, 0.000000)">
                        <path d="M4.99961342,0 C7.22189214,0 9.02747356,1.82584719 9.02747356,4.07807406 L9.02747356,4.07807406 L9.02786513,4.79312632 C9.42181133,4.86036466 9.72195726,5.20718231 9.72232096,5.62506994 C9.82037352,5.75739592 9.89391974,5.90529853 9.94060545,6.06162433 C9.64564897,6.00027474 9.342131,5.96875 9.03125004,5.96875 C6.54596866,5.96875 4.53125004,7.98346863 4.53125004,10.46875 C4.53125004,11.3807994 4.80258138,12.2294759 5.26892738,12.9384629 L3.84037186,12.9375062 C3.73581704,13.2368522 3.47585547,13.4481245 3.17159347,13.4916827 L3.05563564,13.4999999 L1.80558147,13.4999999 C1.43095917,13.5001443 1.10239382,13.246901 1.00280339,12.881255 C0.451212245,12.7201429 0.0592013682,12.2339427 0.00614515073,11.6641318 L1.58095759e-13,11.5312626 L1.58095759e-13,6.46868632 C1.58095759e-13,6.1644289 0.0974009108,5.86836818 0.277773106,5.62501267 C0.277733092,5.40124409 0.365512145,5.18662886 0.521791408,5.02840058 C0.644721357,4.90393752 0.802110772,4.82241229 0.971253825,4.79328579 L0.971772138,4.07807406 C0.971772138,1.82584719 2.77733471,0 4.99961342,0 Z M4.99961342,1.40622454 C3.54446267,1.40622454 2.36069398,2.60490918 2.36069398,4.07807406 L2.36069398,4.07807406 L2.36,4.781 L2.91669255,4.78133888 C3.11392846,4.78121796 3.30335391,4.85229962 3.45203575,4.97962665 L3.53609215,5.06265265 L6.46264453,5.06265265 C6.59403813,4.91319454 6.77287689,4.81718408 6.96607834,4.78957589 L7.08345807,4.78133888 L7.638,4.781 L7.63857057,4.09594009 C7.63857057,2.66227487 6.54407501,1.49886492 5.16625933,1.41149266 Z" id="Combined-Shape"></path>
                    </g>
                </g>
            </g>
        </g>
        <g id="Group" transform="translate(9.000000, 8.000000)" fill="#2FE567" fill-rule="nonzero">
            <path d="M7,3.5 C7,1.567125 5.432875,0 3.5,0 C1.567125,0 0,1.567125 0,3.5 C0,5.432875 1.567125,7 3.5,7 C5.432875,7 7,5.432875 7,3.5" id="Fill-4"></path>
        </g>
    </g>
</svg>