<?xml version="1.0" encoding="UTF-8"?>
<svg width="16px" height="16px" viewBox="0 0 16 16" version="1.1" xmlns="http://www.w3.org/2000/svg" xmlns:xlink="http://www.w3.org/1999/xlink">
    <!-- Generator: Sketch 54 (76480) - https://sketchapp.com -->
    <title>snoozed</title>
    <desc>Created with Sketch.</desc>
    <g id="Page-1" stroke="none" stroke-width="1" fill="none" fill-rule="evenodd">
        <g id="snoozed" transform="translate(0.000000, -1.000000)" fill="#FFFFFF" fill-rule="nonzero">
            <path d="M4.5413,7.0884 L4.5413,6.1514 C4.5413,5.2524 4.9283,4.4354 5.5523,3.8424 C6.1753,3.2494 7.0353,2.8814 7.9813,2.8814 C9.8743,2.8814 11.4223,4.3534 11.4223,6.1514 L11.4223,7.0884 L4.5413,7.0884 Z M6.8003,12.9504 C6.8003,10.1104 9.1103,7.8004 11.9503,7.8004 C13.3283,7.8004 14.5753,8.3514 15.4993,9.2354 L15.4993,8.1914 C15.4993,7.5854 14.9793,7.0884 14.3413,7.0884 L13.3423,7.0884 L13.3423,5.7324 C13.3423,3.1294 10.9373,0.9994 7.9973,0.9994 C6.5263,0.9994 5.1903,1.5324 4.2213,2.3904 C3.2523,3.2474 2.6513,4.4304 2.6513,5.7324 L2.6513,7.0884 L1.6583,7.0884 C1.0213,7.0884 0.4993,7.5854 0.4993,8.1914 L0.4993,12.7504 C0.4993,13.0834 0.6573,13.3824 0.9043,13.5854 C0.8753,13.6824 0.8603,13.7844 0.8603,13.8904 C0.8603,14.5074 1.3923,15.0134 2.0413,15.0134 L2.6513,15.0134 L2.6513,16.6334 C2.6513,16.8354 2.8253,16.9994 3.0373,16.9994 L6.1073,16.9994 L7.4753,15.4844 L7.4943,15.4844 C7.0643,14.7324 6.8003,13.8754 6.8003,12.9504 Z" id="Fill-1" fill-opacity="0.5"></path>
            <path d="M15.9998,13.0005 C15.9998,10.7915 14.2088,9.0005 11.9998,9.0005 C9.7908,9.0005 7.9998,10.7915 7.9998,13.0005 C7.9998,15.2095 9.7908,17.0005 11.9998,17.0005 C14.2088,17.0005 15.9998,15.2095 15.9998,13.0005" id="Fill-4" fill-opacity="0.5"></path>
            <polygon id="Z" points="10.4948 14.1655 12.4098 11.8755 10.6448 11.8755 10.6448 11.2155 13.4548 11.2155 13.4548 11.8355 11.5398 14.1255 13.5048 14.1255 13.5048 14.7855 10.4948 14.7855"></polygon>
        </g>
    </g>
</svg>