<?xml version="1.0" encoding="UTF-8"?>
<svg width="140px" height="140px" viewBox="0 0 140 140" version="1.1" xmlns="http://www.w3.org/2000/svg" xmlns:xlink="http://www.w3.org/1999/xlink">
    <title>ill-automation</title>
    <defs>
        <linearGradient x1="92.7370437%" y1="91.2259689%" x2="18.9087448%" y2="0%" id="linearGradient-1">
            <stop stop-color="#3EA8FC" offset="0%"></stop>
            <stop stop-color="#70E076" offset="100%"></stop>
        </linearGradient>
        <path d="M69.9997642,0 C31.401781,0 0,31.4022527 0,70.0002358 L0,70.0002358 C0,108.598219 31.401781,140 69.9997642,140 L69.9997642,140 C108.597747,140 140,108.598219 140,70.0002358 L140,70.0002358 C140,31.4022527 108.597747,0 69.9997642,0 Z M2,70.0004651 C2,32.5046512 32.504186,2 69.9995349,2 L69.9995349,2 C107.495349,2 138,32.5046512 138,70.0004651 L138,70.0004651 C138,107.495814 107.495349,138 69.9995349,138 L69.9995349,138 C32.504186,138 2,107.495814 2,70.0004651 L2,70.0004651 Z M32.2401872,39 C30.4540143,39 29,40.4566332 29,42.2460234 L29,42.2460234 L29,98.911334 C29,100.701111 30.4540143,102.157744 32.2401872,102.157744 L32.2401872,102.157744 L62.4076074,102.157744 L62.4076074,105.277389 C62.4076074,107.330743 60.7394839,109.001098 58.6898215,109.001098 L58.6898215,109.001098 L54.0376703,109.001098 C52.6662135,109.001098 51.5505305,110.119177 51.5505305,111.493491 L51.5505305,111.493491 L51.5505305,112.507994 C51.5505305,113.881921 52.6662135,115 54.0376703,115 L54.0376703,115 L85.9627155,115 C87.3341723,115 88.4498553,113.881921 88.4498553,112.507994 L88.4498553,112.507994 L88.4498553,111.493491 C88.4498553,110.119177 87.3341723,109.001098 85.9627155,109.001098 L85.9627155,109.001098 L81.3101785,109.001098 C79.2605161,109.001098 77.5931641,107.330743 77.5931641,105.277389 L77.5931641,105.277389 C77.5931641,105.042411 77.4029733,104.851877 77.1684176,104.851877 L77.1684176,104.851877 C76.9342476,104.851877 76.7444426,105.042411 76.7444426,105.277389 L76.7444426,105.277389 C76.7444426,107.79954 78.7929477,109.851735 81.3101785,109.851735 L81.3101785,109.851735 L85.9627155,109.851735 C86.8662182,109.851735 87.6015196,110.587974 87.6015196,111.493491 L87.6015196,111.493491 L87.6015196,112.507994 C87.6015196,113.413124 86.8662182,114.149363 85.9627155,114.149363 L85.9627155,114.149363 L54.0376703,114.149363 C53.1345534,114.149363 52.399252,113.413124 52.399252,112.507994 L52.399252,112.507994 L52.399252,111.493491 C52.399252,110.587974 53.1345534,109.851735 54.0376703,109.851735 L54.0376703,109.851735 L58.6898215,109.851735 C61.2074381,109.851735 63.256329,107.79954 63.256329,105.277389 L63.256329,105.277389 L63.256329,102.157744 L107.759813,102.157744 C109.546372,102.157744 111,100.701111 111,98.911334 L111,98.911334 L111,42.2460234 C111,40.4566332 109.546372,39 107.759813,39 L107.759813,39 L32.2401872,39 Z M30,98.6220215 L30,42.3775948 C30,41.0668105 31.0688189,40 32.3824554,40 L32.3824554,40 L107.617545,40 C108.931181,40 110,41.0668105 110,42.3775948 L110,42.3775948 L110,98.6220215 C110,99.9331895 108.931181,101 107.617545,101 L107.617545,101 L32.3824554,101 C31.0688189,101 30,99.9331895 30,98.6220215 L30,98.6220215 Z M34.4235877,44 C34.1900566,44 34,44.188883 34,44.4218259 L34,44.4218259 L34,92.5781741 C34,92.811117 34.1900566,93 34.4235877,93 L34.4235877,93 L104.576797,93 C104.810328,93 105,92.811117 105,92.5781741 L105,92.5781741 L105,44.4218259 C105,44.188883 104.810328,44 104.576797,44 L104.576797,44 L34.4235877,44 Z M36,92 L105,92 L105,45 L36,45 L36,92 Z M84.3835761,47.0324404 C84.226125,47.0980936 84.1230731,47.2533441 84.1230731,47.4248148 L84.1230731,47.4248148 L84.1230731,49.6875329 L49.4210187,49.6875329 C49.1884815,49.6875329 49,49.877541 49,50.1123477 L49,50.1123477 C49,50.3467682 49.1884815,50.5371625 49.4210187,50.5371625 L49.4210187,50.5371625 L84.5444749,50.5371625 C84.7773952,50.5371625 84.9658767,50.3467682 84.9658767,50.1123477 L84.9658767,50.1123477 L84.9658767,48.4505495 L88.982602,52.5005793 L84.9658767,56.5498367 L84.9658767,54.8880385 C84.9658767,54.6532318 84.7773952,54.4628375 84.5444749,54.4628375 L84.5444749,54.4628375 L78.9704785,54.4628375 C78.7375583,54.4628375 78.5490767,54.6532318 78.5490767,54.8876523 L78.5490767,54.8876523 C78.5490767,55.122459 78.7375583,55.3128533 78.9704785,55.3128533 L78.9704785,55.3128533 L84.1230731,55.3128533 L84.1230731,57.5755714 C84.1230731,57.7470421 84.226125,57.9022926 84.3835761,57.9679458 L84.3835761,57.9679458 C84.4352936,57.9899589 84.4900758,58 84.5444749,58 L84.5444749,58 C84.6540394,58 84.7620715,57.9571323 84.8425209,57.8756451 L84.8425209,57.8756451 L89.87674,52.8010392 C90.0410867,52.6349752 90.0410867,52.3661833 89.87674,52.2001194 L89.87674,52.2001194 L84.8425209,47.1247411 C84.7616884,47.0432539 84.6536563,47 84.5444749,47 L84.5444749,47 C84.4900758,47 84.4352936,47.0104273 84.3835761,47.0324404 L84.3835761,47.0324404 Z M67.9230383,55.0011572 C67.7125276,55.0011572 67.533632,55.1562175 67.5031735,55.3648933 L67.5031735,55.3648933 L67.1318882,57.9434472 C66.3326415,58.1671661 65.5900708,58.4753583 64.9180559,58.8610806 L64.9180559,58.8610806 L62.8341543,57.2973623 C62.665283,57.1708453 62.4289405,57.1874314 62.2797323,57.3370917 L62.2797323,57.3370917 L59.335667,60.2820817 C59.1864589,60.4313563 59.1694946,60.6678041 59.2967264,60.8367504 L59.2967264,60.8367504 L60.8585924,62.9204225 C60.4649451,63.6012224 60.15689,64.3441237 59.9405961,65.1356259 L59.9405961,65.1356259 L57.3774549,65.496662 C57.1684864,65.5263626 57.0131094,65.7045664 57.0123383,65.9155565 L57.0123383,65.9155565 L57,70.0825149 C56.9996152,70.2938908 57.1546066,70.4736374 57.363575,70.5037237 L57.363575,70.5037237 L59.9405961,70.87556 C60.15689,71.6655194 60.4649451,72.4091921 60.8585924,73.0919206 L60.8585924,73.0919206 L59.3071362,75.1644067 C59.1806756,75.3337388 59.1976398,75.5698009 59.3464624,75.7190755 L59.3464624,75.7190755 L62.2912988,78.6644512 C62.440507,78.8141115 62.676464,78.8306976 62.8453352,78.7041806 L62.8453352,78.7041806 L64.9168993,77.1520339 C65.5989385,77.5454707 66.3415092,77.8536629 67.1315026,78.0704388 L67.1315026,78.0704388 L67.4904503,80.6339495 C67.5201378,80.843011 67.6994188,80.9992286 67.9107006,80.9992286 L67.9107006,80.9992286 L72.0885283,81 C72.3001956,81 72.4790912,80.8441682 72.5087786,80.6347209 L72.5087786,80.6347209 L72.8692685,78.0739103 C73.6318878,77.8717918 74.3748441,77.5624425 75.0838718,77.1516482 L75.0838718,77.1516482 L77.156207,78.7041806 C77.3246926,78.8306976 77.5610352,78.8141115 77.7102434,78.6644512 L77.7102434,78.6644512 L80.6543087,75.7190755 C80.8035168,75.5698009 80.820481,75.3337388 80.6940204,75.1647925 L80.6940204,75.1647925 L79.1417932,73.0915349 C79.5508625,72.3860487 79.8631586,71.6392903 80.0728982,70.8651455 L80.0728982,70.8651455 L82.6348828,70.5044951 C82.8442368,70.4747945 83.0003848,70.2950479 83,70.0829006 L83,70.0829006 L82.9876617,65.9140136 C82.9872761,65.7034092 82.8311281,65.524434 82.6221596,65.4955049 L82.6221596,65.4955049 L80.0644161,65.1363974 C79.8581464,64.3479809 79.5527903,63.6008367 79.1537453,62.9092366 L79.1537453,62.9092366 L80.7048158,60.8367504 C80.8312765,60.6674183 80.8143122,60.4313563 80.6651041,60.2820817 L80.6651041,60.2820817 L77.7214243,57.3367059 C77.5718307,57.1870457 77.3358736,57.1704596 77.1670024,57.2969765 L77.1670024,57.2969765 L75.0954384,58.8491232 C74.4029893,58.4495149 73.655792,58.1436371 72.8677263,57.9376613 L72.8677263,57.9376613 L72.497212,55.3637362 C72.4671391,55.1550604 72.2882435,55 72.0773473,55 L72.0773473,55 L67.9230383,55.0011572 Z M65.1742214,59.8346824 C65.9022672,59.3836777 66.7331228,59.0385678 67.645084,58.8084944 L67.645084,58.8084944 C67.8091989,58.7669746 67.9329515,58.6302257 67.9569405,58.4618608 L67.9569405,58.4618608 L68.3118247,56.0007618 L71.6885561,56 L72.0438211,58.4622417 C72.0681908,58.6336539 72.1961319,58.7723074 72.3648162,58.8107799 L72.3648162,58.8107799 C73.2520268,59.0138082 74.083644,59.3543472 74.8368211,59.822874 L74.8368211,59.822874 C74.9838011,59.913913 75.1707627,59.9062946 75.3093655,59.8023045 L75.3093655,59.8023045 L77.2897872,58.3186363 L79.6841137,60.7138368 L78.2009868,62.6949814 C78.0974155,62.833254 78.0890384,63.0206647 78.1804249,63.1676983 L78.1804249,63.1676983 C78.6487807,63.9211504 78.9891954,64.7530711 79.1921496,65.6406057 L79.1921496,65.6406057 C79.2306081,65.8104942 79.3703533,65.9381011 79.5420838,65.9620988 L79.5420838,65.9620988 L81.989719,66.3056852 L82,69.6943148 L79.5531263,70.038663 C79.3825382,70.0626607 79.2439353,70.1891248 79.2039537,70.3567279 L79.2039537,70.3567279 C78.9979533,71.2244548 78.6495423,72.0578992 78.1686208,72.8334444 L78.1686208,72.8334444 C78.0779958,72.9800971 78.0859922,73.1675079 78.1895635,73.3053995 L78.1895635,73.3053995 L79.6726903,75.287306 L77.2791255,77.6825064 L75.2975614,76.1984573 C75.1597201,76.0944672 74.971997,76.086468 74.8257786,76.1775069 L74.8257786,76.1775069 C74.0448048,76.6620322 73.2166146,77.0067613 72.3644354,77.2014094 L72.3644354,77.2014094 C72.1953704,77.2398819 72.0674293,77.3792972 72.0434403,77.5514713 L72.0434403,77.5514713 L71.6984563,80 L68.3007822,79.9992382 L67.9573212,77.5514713 C67.9337131,77.3812018 67.8084374,77.2433102 67.641657,77.2025521 L67.641657,77.2025521 C66.7468308,76.9839063 65.916356,76.6395581 65.1742214,76.1782687 L65.1742214,76.1782687 C65.0283838,76.0868489 64.8406606,76.0948481 64.7020578,76.1988382 L64.7020578,76.1988382 L62.7220168,77.6825064 L60.3276904,75.2869251 L61.8108172,73.3057804 C61.9143886,73.1678888 61.9220042,72.9800971 61.8313792,72.8334444 L61.8313792,72.8334444 C61.3694966,72.090658 61.0252741,71.2602609 60.8070888,70.365489 L60.8070888,70.365489 C60.7667264,70.1994096 60.6292659,70.0744691 60.4602009,70.0500905 L60.4602009,70.0500905 L58,69.6954576 L58.0095194,66.3072088 L60.4586778,65.9620988 C60.6285043,65.9381011 60.7663457,65.8131607 60.806708,65.6463194 L60.806708,65.6463194 C61.0252741,64.7488811 61.3694966,63.9192458 61.8313792,63.1798876 L61.8313792,63.1798876 C61.9231465,63.032854 61.9147694,62.8450624 61.811198,62.7064089 L61.811198,62.7064089 L60.3166479,60.7138368 L62.7105935,58.3193982 L64.7028193,59.813732 C64.7766901,59.8693458 64.8650304,59.8975336 64.9537514,59.8975336 L64.9537514,59.8975336 C65.0299069,59.8975336 65.1064431,59.8765832 65.1742214,59.8346824 L65.1742214,59.8346824 Z M88,60.5003702 C88,61.8784424 89.1214746,63 90.4998149,63 L90.4998149,63 C91.8785254,63 93,61.8784424 93,60.5003702 L93,60.5003702 C93,59.1215576 91.8785254,58 90.4998149,58 L90.4998149,58 C89.1214746,58 88,59.1215576 88,60.5003702 L88,60.5003702 Z M89,60.5001647 C89,59.672851 89.6729249,59 90.5,59 L90.5,59 C91.3270751,59 92,59.672851 92,60.5001647 L92,60.5001647 C92,61.327149 91.3270751,62 90.5,62 L90.5,62 C89.6729249,62 89,61.327149 89,60.5001647 L89,60.5001647 Z M47,60.5003702 C47,61.8784424 48.1214746,63 49.4998149,63 L49.4998149,63 C50.8785254,63 52,61.8784424 52,60.5003702 L52,60.5003702 C52,59.1215576 50.8785254,58 49.4998149,58 L49.4998149,58 C48.1214746,58 47,59.1215576 47,60.5003702 L47,60.5003702 Z M48,60.5001647 C48,59.672851 48.6729249,59 49.5,59 L49.5,59 C50.3270751,59 51,59.672851 51,60.5001647 L51,60.5001647 C51,61.327149 50.3270751,62 49.5,62 L49.5,62 C48.6729249,62 48,61.327149 48,60.5001647 L48,60.5001647 Z M67.1739249,65.171521 C66.4192377,65.9265182 66.0015325,66.9312774 66,67.9996193 L66,67.9996193 C65.9977248,69.0698648 66.4123838,70.074624 67.1678325,70.8300019 L67.1678325,70.8300019 C67.9225197,71.5842376 68.9247076,72 69.9904843,72 L69.9904843,72 C71.0612109,72 72.0683489,71.5823339 72.8272245,70.8235294 L72.8272245,70.8235294 C73.583054,70.0681515 73.9996169,69.065296 74,68 L74,68 C74.00114,66.9328003 73.584577,65.9284219 72.8272245,65.171521 L72.8272245,65.171521 C72.0717758,64.4161432 71.0680648,64 70.0007651,64 L70.0007651,64 C68.9334653,64 67.9297543,64.4161432 67.1739249,65.171521 L67.1739249,65.171521 Z M67.8751546,70.1226824 C67.30954,69.556706 66.9985603,68.8036359 67,68.0014447 L67,68.0014447 C67.0018109,67.1988924 67.3145965,66.4450999 67.8812947,65.8787623 L67.8812947,65.8787623 C68.4479929,65.3120636 69.200701,65 70.0007243,65 L70.0007243,65 C70.8007475,65 71.5530944,65.3120636 72.1197926,65.8787623 L72.1197926,65.8787623 C72.6879355,66.4465447 73.0007211,67.1996147 73,67.9992776 L73,67.9992776 C72.9992764,68.797857 72.686852,69.5498435 72.1197926,70.1169034 L72.1197926,70.1169034 C71.5505661,70.6864917 70.793885,71 69.9909723,71 L69.9909723,71 C69.1923938,71 68.4411304,70.6882976 67.8751546,70.1226824 L67.8751546,70.1226824 Z M88,76.4998149 C88,77.8785254 89.1214746,79 90.4998149,79 L90.4998149,79 C91.8785254,79 93,77.8785254 93,76.4998149 L93,76.4998149 C93,75.1214746 91.8785254,74 90.4998149,74 L90.4998149,74 C89.1214746,74 88,75.1214746 88,76.4998149 L88,76.4998149 Z M89,76.5001647 C89,75.672851 89.6729249,75 90.5,75 L90.5,75 C91.3270751,75 92,75.672851 92,76.5001647 L92,76.5001647 C92,77.327149 91.3270751,78 90.5,78 L90.5,78 C89.6729249,78 89,77.327149 89,76.5001647 L89,76.5001647 Z M47,76.4998149 C47,77.8785254 48.1214746,79 49.4998149,79 L49.4998149,79 C50.8785254,79 52,77.8785254 52,76.4998149 L52,76.4998149 C52,75.1214746 50.8785254,74 49.4998149,74 L49.4998149,74 C48.1214746,74 47,75.1214746 47,76.4998149 L47,76.4998149 Z M48,76.5001647 C48,75.672851 48.6729249,75 49.5,75 L49.5,75 C50.3270751,75 51,75.672851 51,76.5001647 L51,76.5001647 C51,77.327149 50.3270751,78 49.5,78 L49.5,78 C48.6729249,78 48,77.327149 48,76.5001647 L48,76.5001647 Z M55.1574309,79.1243461 L50.1232589,84.1993681 C49.9589137,84.3650342 49.9589137,84.6341934 50.1232589,84.7998596 L50.1232589,84.7998596 L55.1574309,89.8752677 C55.2382626,89.956363 55.3459106,90 55.4558572,90 L55.4558572,90 C55.5098727,90 55.5642713,89.9891873 55.6167545,89.9671757 L55.6167545,89.9671757 C55.7742041,89.9019133 55.8768719,89.7466737 55.8768719,89.5748289 L55.8768719,89.5748289 L55.8768719,87.3122696 L90.5786021,87.3122696 C90.8111371,87.3122696 91,87.1222749 91,86.8874846 L91,86.8874846 C91,86.6530806 90.8111371,86.4626997 90.5786021,86.4626997 L90.5786021,86.4626997 L55.4558572,86.4626997 C55.2229391,86.4626997 55.0340762,86.6530806 55.0340762,86.8874846 L55.0340762,86.8874846 L55.0340762,88.5491662 L51.0170054,84.4994207 L55.0340762,80.4504476 L55.0340762,82.1121292 C55.0340762,82.3469194 55.2229391,82.5369142 55.4558572,82.5369142 L55.4558572,82.5369142 L61.0294184,82.5373003 C61.2623365,82.5373003 61.4511994,82.3469194 61.4511994,82.1125154 L61.4511994,82.1125154 C61.4511994,81.8777251 61.2623365,81.6877304 61.0294184,81.6877304 L61.0294184,81.6877304 L55.8768719,81.6873442 L55.8768719,79.424785 C55.8768719,79.2529401 55.7742041,79.0977005 55.6167545,79.0324381 L55.6167545,79.0324381 C55.5642713,79.0104265 55.5094896,79 55.455091,79 L55.455091,79 C55.3455276,79 55.2378796,79.0428647 55.1574309,79.1243461 L55.1574309,79.1243461 Z" id="path-2"></path>
    </defs>
    <g id="Page-1" stroke="none" stroke-width="1" fill="none" fill-rule="evenodd">
        <g id="ill-automation">
            <circle id="Oval" opacity="0.496198382" cx="70" cy="70" r="70"></circle>
            <mask id="mask-3" fill="white">
                <use xlink:href="#path-2"></use>
            </mask>
            <use id="Clip-2-Copy" fill="url(#linearGradient-1)" xlink:href="#path-2"></use>
        </g>
    </g>
</svg>