<?xml version="1.0" encoding="UTF-8"?>
<svg width="910px" height="796px" viewBox="0 0 910 796" version="1.1" xmlns="http://www.w3.org/2000/svg" xmlns:xlink="http://www.w3.org/1999/xlink">
    <title>wireguard</title>
    <defs>
        <radialGradient cx="32.2103676%" cy="96.2208628%" fx="32.2103676%" fy="96.2208628%" r="100.207294%" id="radialGradient-1">
            <stop stop-color="#FFFFFF" offset="0%"></stop>
            <stop stop-color="#FFFFFF" stop-opacity="0" offset="100%"></stop>
        </radialGradient>
        <linearGradient x1="59.5005781%" y1="74.8445837%" x2="36.3553521%" y2="-5.69976792%" id="linearGradient-2">
            <stop stop-color="#0095D5" offset="0%"></stop>
            <stop stop-color="#00CA8B" offset="100%"></stop>
        </linearGradient>
        <linearGradient x1="87.7131092%" y1="48.0091655%" x2="-5.91418255%" y2="52.2926313%" id="linearGradient-3">
            <stop stop-color="#0095D5" offset="0%"></stop>
            <stop stop-color="#00CA8B" offset="100%"></stop>
        </linearGradient>
        <radialGradient cx="28.2232864%" cy="36.6988381%" fx="28.2232864%" fy="36.6988381%" r="66.3480225%" gradientTransform="translate(0.282233,0.366988),scale(1.000000,0.689778),rotate(-21.161260),translate(-0.282233,-0.366988)" id="radialGradient-4">
            <stop stop-color="#FAD900" offset="1%"></stop>
            <stop stop-color="#F7941D" offset="63%"></stop>
            <stop stop-color="#F7941D" stop-opacity="0" offset="100%"></stop>
        </radialGradient>
        <radialGradient cx="50.2785576%" cy="49.899999%" fx="50.2785576%" fy="49.899999%" r="70.5017554%" gradientTransform="translate(0.502786,0.499000),scale(1.000000,0.688537),rotate(-28.010000),translate(-0.502786,-0.499000)" id="radialGradient-5">
            <stop stop-color="#FAD900" offset="1%"></stop>
            <stop stop-color="#F7941D" offset="63%"></stop>
            <stop stop-color="#F7941D" stop-opacity="0" offset="100%"></stop>
        </radialGradient>
        <radialGradient cx="49.9236783%" cy="50.0710422%" fx="49.9236783%" fy="50.0710422%" r="72.8395172%" gradientTransform="translate(0.499237,0.500710),scale(1.000000,0.690019),rotate(31.570000),translate(-0.499237,-0.500710)" id="radialGradient-6">
            <stop stop-color="#FAD900" offset="1%"></stop>
            <stop stop-color="#F7941D" offset="63%"></stop>
            <stop stop-color="#F7941D" stop-opacity="0" offset="100%"></stop>
        </radialGradient>
        <radialGradient cx="49.6968402%" cy="50.4084122%" fx="49.6968402%" fy="50.4084122%" r="62.7483225%" gradientTransform="translate(0.496968,0.504084),scale(0.922623,1.000000),rotate(47.400000),translate(-0.496968,-0.504084)" id="radialGradient-7">
            <stop stop-color="#FAD900" offset="1%"></stop>
            <stop stop-color="#F7941D" offset="63%"></stop>
            <stop stop-color="#F7941D" stop-opacity="0" offset="100%"></stop>
        </radialGradient>
        <radialGradient cx="59.8436897%" cy="69.421482%" fx="59.8436897%" fy="69.421482%" r="63.1452678%" gradientTransform="translate(0.598437,0.694215),scale(1.000000,0.688020),rotate(8.615648),translate(-0.598437,-0.694215)" id="radialGradient-8">
            <stop stop-color="#FAD900" offset="1%"></stop>
            <stop stop-color="#F7941D" offset="63%"></stop>
            <stop stop-color="#F7941D" stop-opacity="0" offset="100%"></stop>
        </radialGradient>
        <radialGradient cx="49.7779075%" cy="50.409718%" fx="49.7779075%" fy="50.409718%" r="73.1851633%" gradientTransform="translate(0.497779,0.504097),scale(1.000000,0.690382),rotate(32.110000),translate(-0.497779,-0.504097)" id="radialGradient-9">
            <stop stop-color="#FAD900" offset="1%"></stop>
            <stop stop-color="#F7941D" offset="63%"></stop>
            <stop stop-color="#F7941D" stop-opacity="0" offset="100%"></stop>
        </radialGradient>
        <radialGradient cx="59.2945919%" cy="33.7245243%" fx="59.2945919%" fy="33.7245243%" r="72.5686254%" gradientTransform="translate(0.592946,0.337245),scale(1.000000,0.714286),rotate(-55.953149),translate(-0.592946,-0.337245)" id="radialGradient-10">
            <stop stop-color="#F7941D" offset="0%"></stop>
            <stop stop-color="#F7941D" stop-opacity="0" offset="100%"></stop>
        </radialGradient>
        <radialGradient cx="13.5879506%" cy="104.302559%" fx="13.5879506%" fy="104.302559%" r="172.09579%" gradientTransform="translate(0.135880,1.043026),scale(0.394737,1.000000),rotate(-29.066109),translate(-0.135880,-1.043026)" id="radialGradient-11">
            <stop stop-color="#FAD900" offset="1%"></stop>
            <stop stop-color="#F7941D" offset="63%"></stop>
            <stop stop-color="#F7941D" stop-opacity="0" offset="100%"></stop>
        </radialGradient>
        <radialGradient cx="50%" cy="49.6647632%" fx="50%" fy="49.6647632%" r="75.5994671%" gradientTransform="translate(0.500000,0.496648),scale(0.533333,1.000000),translate(-0.500000,-0.496648)" id="radialGradient-12">
            <stop stop-color="#FAD900" offset="1%"></stop>
            <stop stop-color="#F7941D" offset="63%"></stop>
            <stop stop-color="#F7941D" stop-opacity="0" offset="100%"></stop>
        </radialGradient>
        <radialGradient cx="49.9965516%" cy="50%" fx="49.9965516%" fy="50%" r="59.8293676%" gradientTransform="translate(0.499966,0.500000),scale(1.000000,0.733333),translate(-0.499966,-0.500000)" id="radialGradient-13">
            <stop stop-color="#FFFFFF" offset="0%"></stop>
            <stop stop-color="#FFFFFF" stop-opacity="0" offset="100%"></stop>
        </radialGradient>
        <radialGradient cx="49.9969514%" cy="50.0023619%" fx="49.9969514%" fy="50.0023619%" r="91.2825438%" gradientTransform="translate(0.499970,0.500024),scale(1.000000,0.421429),translate(-0.499970,-0.500024)" id="radialGradient-14">
            <stop stop-color="#FFFFFF" offset="0%"></stop>
            <stop stop-color="#FFFFFF" stop-opacity="0" offset="100%"></stop>
        </radialGradient>
        <radialGradient cx="49.9952996%" cy="50.0038358%" fx="49.9952996%" fy="50.0038358%" r="63.0238096%" gradientTransform="translate(0.499953,0.500038),scale(1.000000,0.676301),translate(-0.499953,-0.500038)" id="radialGradient-15">
            <stop stop-color="#FFFFFF" offset="0%"></stop>
            <stop stop-color="#FFFFFF" stop-opacity="0" offset="100%"></stop>
        </radialGradient>
        <radialGradient cx="11.6029539%" cy="87.469986%" fx="11.6029539%" fy="87.469986%" r="123.094059%" gradientTransform="translate(0.116030,0.874700),scale(0.997743,1.000000),rotate(-7.225893),translate(-0.116030,-0.874700)" id="radialGradient-16">
            <stop stop-color="#20AB78" offset="0%"></stop>
            <stop stop-color="#24AD7A" offset="0%"></stop>
            <stop stop-color="#4DBD92" offset="5%"></stop>
            <stop stop-color="#72CBA7" offset="10%"></stop>
            <stop stop-color="#92D8BA" offset="16%"></stop>
            <stop stop-color="#AEE3CA" offset="22%"></stop>
            <stop stop-color="#C4EBD6" offset="29%"></stop>
            <stop stop-color="#D5F2E0" offset="37%"></stop>
            <stop stop-color="#E0F7E7" offset="47%"></stop>
            <stop stop-color="#E7F9EB" offset="61%"></stop>
            <stop stop-color="#E9FAEC" offset="100%"></stop>
        </radialGradient>
        <radialGradient cx="49.4851735%" cy="45.3035152%" fx="49.4851735%" fy="45.3035152%" r="49.0750037%" gradientTransform="translate(0.494852,0.453035),scale(1.000000,0.975543),rotate(45.077356),translate(-0.494852,-0.453035)" id="radialGradient-17">
            <stop stop-color="#FFFFFF" offset="0%"></stop>
            <stop stop-color="#FFFFFF" stop-opacity="0" offset="100%"></stop>
        </radialGradient>
        <radialGradient cx="47.1249904%" cy="47.006427%" fx="47.1249904%" fy="47.006427%" r="50.4335575%" gradientTransform="translate(0.471250,0.470064),scale(0.986928,1.000000),rotate(44.904652),translate(-0.471250,-0.470064)" id="radialGradient-18">
            <stop stop-color="#FFFFFF" offset="0%"></stop>
            <stop stop-color="#FFFFFF" stop-opacity="0" offset="100%"></stop>
        </radialGradient>
        <radialGradient cx="16.4186383%" cy="0.88599442%" fx="16.4186383%" fy="0.88599442%" r="89.5381879%" gradientTransform="translate(0.164186,0.008860),scale(0.683824,1.000000),translate(-0.164186,-0.008860)" id="radialGradient-19">
            <stop stop-color="#FFFFFF" offset="0%"></stop>
            <stop stop-color="#FFFFFF" stop-opacity="0" offset="100%"></stop>
        </radialGradient>
        <radialGradient cx="63.6978759%" cy="51.3683564%" fx="63.6978759%" fy="51.3683564%" r="104.966149%" gradientTransform="translate(0.636979,0.513684),scale(1.000000,0.361446),rotate(-7.140078),translate(-0.636979,-0.513684)" id="radialGradient-20">
            <stop stop-color="#FFFFFF" offset="0%"></stop>
            <stop stop-color="#FFFFFF" stop-opacity="0" offset="100%"></stop>
        </radialGradient>
        <radialGradient cx="48.1177629%" cy="51.1385461%" fx="48.1177629%" fy="51.1385461%" r="76.1792532%" gradientTransform="translate(0.481178,0.511385),scale(1.000000,0.519417),rotate(-7.194910),translate(-0.481178,-0.511385)" id="radialGradient-21">
            <stop stop-color="#FFFFFF" offset="0%"></stop>
            <stop stop-color="#FFFFFF" stop-opacity="0" offset="100%"></stop>
        </radialGradient>
        <linearGradient x1="-41.6805957%" y1="106.091575%" x2="49.2174442%" y2="50.7874025%" id="linearGradient-22">
            <stop stop-color="#E9FAEC" offset="0%"></stop>
            <stop stop-color="#E9FAEC" stop-opacity="0" offset="100%"></stop>
        </linearGradient>
        <linearGradient x1="28.757824%" y1="8.77654438%" x2="58.5653374%" y2="67.2907387%" id="linearGradient-23">
            <stop stop-color="#E9FAEC" offset="0%"></stop>
            <stop stop-color="#E9FAEC" stop-opacity="0" offset="100%"></stop>
        </linearGradient>
        <radialGradient cx="49.8246535%" cy="49.9383984%" fx="49.8246535%" fy="49.9383984%" r="169.82425%" gradientTransform="translate(0.498247,0.499384),scale(1.000000,0.218750),translate(-0.498247,-0.499384)" id="radialGradient-24">
            <stop stop-color="#FAD900" offset="1%"></stop>
            <stop stop-color="#F7941D" offset="63%"></stop>
            <stop stop-color="#F7941D" stop-opacity="0" offset="100%"></stop>
        </radialGradient>
        <radialGradient cx="49.1456778%" cy="50.0697999%" fx="49.1456778%" fy="50.0697999%" r="201.003222%" gradientTransform="translate(0.491457,0.500698),scale(1.000000,0.178571),translate(-0.491457,-0.500698)" id="radialGradient-25">
            <stop stop-color="#FAD900" offset="1%"></stop>
            <stop stop-color="#F7941D" offset="63%"></stop>
            <stop stop-color="#F7941D" stop-opacity="0" offset="100%"></stop>
        </radialGradient>
        <radialGradient cx="50.0098754%" cy="49.9324958%" fx="50.0098754%" fy="49.9324958%" r="65.9409209%" gradientTransform="translate(0.500099,0.499325),scale(1.000000,0.640000),translate(-0.500099,-0.499325)" id="radialGradient-26">
            <stop stop-color="#FAD900" offset="1%"></stop>
            <stop stop-color="#F7941D" offset="63%"></stop>
            <stop stop-color="#F7941D" stop-opacity="0" offset="100%"></stop>
        </radialGradient>
        <radialGradient cx="49.9834601%" cy="50.0085176%" fx="49.9834601%" fy="50.0085176%" r="56.4009262%" gradientTransform="translate(0.499835,0.500085),scale(0.800000,1.000000),translate(-0.499835,-0.500085)" id="radialGradient-27">
            <stop stop-color="#FAD900" offset="1%"></stop>
            <stop stop-color="#F7941D" offset="63%"></stop>
            <stop stop-color="#F7941D" stop-opacity="0" offset="100%"></stop>
        </radialGradient>
        <radialGradient cx="50%" cy="49.9148475%" fx="50%" fy="49.9148475%" r="55.8500568%" gradientTransform="translate(0.500000,0.499148),scale(1.000000,0.823529),translate(-0.500000,-0.499148)" id="radialGradient-28">
            <stop stop-color="#FAD900" offset="1%"></stop>
            <stop stop-color="#F7941D" offset="63%"></stop>
            <stop stop-color="#F7941D" stop-opacity="0" offset="100%"></stop>
        </radialGradient>
        <radialGradient cx="50%" cy="50.0110497%" fx="50%" fy="50.0110497%" r="51.0953177%" gradientTransform="translate(0.500000,0.500110),scale(0.952381,1.000000),translate(-0.500000,-0.500110)" id="radialGradient-29">
            <stop stop-color="#FAD900" offset="1%"></stop>
            <stop stop-color="#F7941D" offset="63%"></stop>
            <stop stop-color="#F7941D" stop-opacity="0" offset="100%"></stop>
        </radialGradient>
        <radialGradient cx="50.0089718%" cy="50.0512821%" fx="50.0089718%" fy="50.0512821%" r="61.3866306%" gradientTransform="translate(0.500090,0.500513),scale(0.702703,1.000000),translate(-0.500090,-0.500513)" id="radialGradient-30">
            <stop stop-color="#FAD900" offset="1%"></stop>
            <stop stop-color="#F7941D" offset="63%"></stop>
            <stop stop-color="#F7941D" stop-opacity="0" offset="100%"></stop>
        </radialGradient>
        <radialGradient cx="79.5086067%" cy="56.6954882%" fx="79.5086067%" fy="56.6954882%" r="757.452726%" gradientTransform="translate(0.795086,0.566955),scale(1.000000,0.045455),rotate(10.053677),translate(-0.795086,-0.566955)" id="radialGradient-31">
            <stop stop-color="#FAD900" offset="1%"></stop>
            <stop stop-color="#F7941D" offset="63%"></stop>
            <stop stop-color="#F7941D" stop-opacity="0" offset="100%"></stop>
        </radialGradient>
        <radialGradient cx="49.7057173%" cy="50.0174642%" fx="49.7057173%" fy="50.0174642%" r="194.019143%" gradientTransform="translate(0.497057,0.500175),scale(1.000000,0.184211),translate(-0.497057,-0.500175)" id="radialGradient-32">
            <stop stop-color="#FAD900" offset="1%"></stop>
            <stop stop-color="#F7941D" offset="63%"></stop>
            <stop stop-color="#F7941D" stop-opacity="0" offset="100%"></stop>
        </radialGradient>
        <radialGradient cx="49.7339277%" cy="49.912332%" fx="49.7339277%" fy="49.912332%" r="124.632034%" gradientTransform="translate(0.497339,0.499123),scale(1.000000,0.304348),translate(-0.497339,-0.499123)" id="radialGradient-33">
            <stop stop-color="#FAD900" offset="1%"></stop>
            <stop stop-color="#F7941D" offset="63%"></stop>
            <stop stop-color="#F7941D" stop-opacity="0" offset="100%"></stop>
        </radialGradient>
        <radialGradient cx="50%" cy="50%" fx="50%" fy="50%" r="51.675485%" gradientTransform="translate(0.500000,0.500000),scale(1.000000,0.937500),translate(-0.500000,-0.500000)" id="radialGradient-34">
            <stop stop-color="#FAD900" offset="1%"></stop>
            <stop stop-color="#F7941D" offset="63%"></stop>
            <stop stop-color="#F7941D" stop-opacity="0" offset="100%"></stop>
        </radialGradient>
        <rect id="path-35" x="0" y="0" width="109" height="109" rx="54.5"></rect>
        <linearGradient x1="49.7%" y1="4.78390576%" x2="50.1%" y2="97.9329411%" id="linearGradient-37">
            <stop stop-color="#56B14E" offset="0%"></stop>
            <stop stop-color="#4A9E41" offset="53.9%"></stop>
            <stop stop-color="#357C2A" offset="100%"></stop>
        </linearGradient>
        <linearGradient x1="50%" y1="96.9%" x2="50%" y2="1.1%" id="linearGradient-38">
            <stop stop-color="#4A9E41" offset="0%"></stop>
            <stop stop-color="#56B14E" offset="100%"></stop>
        </linearGradient>
        <linearGradient x1="51.7054359%" y1="85.8%" x2="49.598721%" y2="17.9%" id="linearGradient-39">
            <stop stop-color="#56B14E" offset="0%"></stop>
            <stop stop-color="#4A9E41" offset="30%"></stop>
            <stop stop-color="#45973C" offset="35.5%"></stop>
            <stop stop-color="#3C8732" offset="52.3%"></stop>
            <stop stop-color="#367E2B" offset="71.7%"></stop>
            <stop stop-color="#357C2A" offset="100%"></stop>
        </linearGradient>
        <linearGradient x1="51.7054359%" y1="85.8%" x2="49.598721%" y2="17.9%" id="linearGradient-40">
            <stop stop-color="#56B14E" stop-opacity="0.153" offset="0%"></stop>
            <stop stop-color="#9BF893" stop-opacity="0.263" offset="100%"></stop>
        </linearGradient>
    </defs>
    <g id="Page-1" stroke="none" stroke-width="1" fill="none" fill-rule="evenodd">
        <g id="wireguard" transform="translate(0.610000, 0.000000)">
            <g id="01-DarkBG-Full" transform="translate(0.000000, 20.060000)" fill-rule="nonzero">
                <g id="Bk-circle" transform="translate(119.550000, 0.000000)">
                    <g id="Group" opacity="0.87" transform="translate(0.000000, 0.000000)" fill="#001B31">
                        <circle id="Oval" cx="344.92" cy="344.92" r="344.92"></circle>
                    </g>
                    <circle id="Oval" fill="url(#radialGradient-1)" opacity="0.1" cx="344.92" cy="344.94" r="344.92"></circle>
                </g>
                <g id="Earth-clouds" transform="translate(134.599409, 258.172005)" fill="#CAE5E8" opacity="0.5">
                    <path d="M63.6505906,2.0179948 C89.8305906,4.0179948 114.330591,15.1279948 138.200591,26.0679948 C139.600591,26.7079948 141.200591,27.6979948 141.200591,29.2379948 C141.120591,31.2379948 138.480591,31.8279948 136.490591,31.7679948 C115.880591,31.1779948 95.5705906,22.6979948 75.1605906,25.6679948 C64.4805906,27.2279948 53.0805906,32.2879948 41.8105906,30.8979948 C30.9905906,29.5679948 23.2705906,17.4179948 12.8105906,17.8279948 C3.81059061,18.1679948 -5.44940939,12.4579948 3.90059061,3.8279948 C11.2305906,-2.9320052 19.3105906,1.1479948 27.9005906,1.9779948 C39.7905906,3.1379948 51.6905906,1.0979948 63.6505906,2.0179948 Z" id="Path"></path>
                </g>
                <g id="clouds" transform="translate(119.519716, 319.955431)">
                    <path d="M188.810284,95.8345693 C165.461118,81.8684995 138.716552,74.6028347 111.510284,74.8345693 C99.7802841,121.554569 91.5102841,142.184569 64.1502841,166.184569 C86.6502841,132.064569 92.2802841,100.184569 92.6902841,76.3145693 C92.6953498,76.2780776 92.6953498,76.241061 92.6902841,76.2045693 L92.6902841,76.2045693 L92.6902841,76.2045693 C90.908563,53.8459431 80.1301877,33.1673643 62.8220527,18.9016307 C45.5139176,4.63589712 23.1577426,-1.99572636 0.870284112,0.52456929 C0.296950779,8.60456929 0.00695077854,16.751236 -5.68434189e-14,24.9645693 C-0.0586221601,70.7873749 9.0430339,116.159657 26.7702841,158.414569 C38.4771018,184.234261 52.6353667,208.870579 69.0502841,231.984569 C104.432244,279.066396 151.241942,316.342059 205.050284,340.284569 C243.390304,309.901489 264.351313,262.617463 261.118593,213.805187 C257.885873,164.992912 230.87227,120.886129 188.860284,95.8245693 L188.810284,95.8345693 Z" id="Path" fill="url(#linearGradient-2)" opacity="0.5"></path>
                    <path d="M629.120284,176.694569 C603.814702,176.426884 580.584317,190.652581 569.320284,213.314569 C571.790284,225.114569 572.890284,237.104569 569.260284,248.434569 C567.460284,237.264569 565.390284,225.554569 560.150284,215.744569 C543.925342,212.086632 527.007695,212.951366 511.240284,218.244569 C539.550284,281.554569 501.000284,318.694569 501.000284,318.694569 C523.310284,278.264569 503.310284,229.594569 500.250284,222.874569 L500.170284,222.754569 C462.466477,180.345874 401.249719,168.005463 350.060284,192.494569 C331.970929,185.138733 311.659493,185.505029 293.847124,193.508317 C276.034755,201.511605 262.272882,216.454811 255.760284,234.864569 C232.99743,236.309422 211.901409,247.293706 197.664795,265.11375 C183.428182,282.933793 177.373222,305.934534 180.990284,328.454569 C230.349451,355.179986 285.502467,369.41114 341.630284,369.904569 C477.160284,371.314569 595.270284,294.464569 652.990284,181.424569 C645.397431,178.375749 637.302019,176.77159 629.120284,176.694569 L629.120284,176.694569 Z" id="Path" fill="url(#linearGradient-3)"></path>
                    <circle id="Oval" fill="#CAE5E8" opacity="0.5" cx="612.850284" cy="197.254569" r="2.5"></circle>
                    <circle id="Oval" fill="#CAE5E8" cx="454.910284" cy="308.884569" r="2.5"></circle>
                    <circle id="Oval" fill="#CAE5E8" cx="439.480284" cy="246.284569" r="3.88"></circle>
                    <path d="M370.960284,257.634569 C375.704958,271.675695 371.612941,287.193294 360.561379,297.068926 C349.509818,306.944558 333.631477,309.272391 320.210284,302.984569 C325.616938,318.931207 341.108906,329.216152 357.903836,328.008897 C374.698767,326.801643 388.560458,314.406697 391.630756,297.850718 C394.701054,281.294739 386.205535,264.75366 370.960284,257.604569 L370.960284,257.634569 Z" id="Path" fill="#FFFFFF" opacity="0.5"></path>
                </g>
                <g id="stars-bk" transform="translate(0.000000, 8.440000)">
                    <circle id="Oval" fill="#CAE5E8" cx="205.18" cy="202.55" r="7.34"></circle>
                    <circle id="Oval" fill="#017E8B" opacity="0.2" cx="776.69" cy="616.39" r="14.47"></circle>
                    <circle id="Oval" fill="#017E8B" opacity="0.3" cx="846.14" cy="122.46" r="3.61"></circle>
                    <circle id="Oval" fill="#CAE5E8" cx="739.66" cy="430.22" r="1.59"></circle>
                    <circle id="Oval" fill="#017E8B" cx="193.27" cy="160.85" r="3.97"></circle>
                    <circle id="Oval" fill="#01C8DB" cx="688.86" cy="378.49" r="1.43"></circle>
                    <circle id="Oval" fill="#01C8DB" cx="757.11" cy="472.5" r="3.61"></circle>
                    <circle id="Oval" fill="#01C8DB" opacity="0.3" cx="391.48" cy="19.38" r="1.8"></circle>
                    <circle id="Oval" fill="#CAE5E8" cx="173.91" cy="93.84" r="2.23"></circle>
                    <circle id="Oval" fill="#CAE5E8" cx="658.12" cy="491.22" r="2.78"></circle>
                    <circle id="Oval" fill="#CAE5E8" cx="484.84" cy="527.01" r="2.78"></circle>
                    <circle id="Oval" fill="#CAE5E8" opacity="0.4" cx="838.03" cy="71.21" r="3.19"></circle>
                    <circle id="Oval" fill="#FFFFFF" cx="499.24" cy="72.76" r="1.97"></circle>
                    <circle id="Oval" fill="#FFFFFF" cx="269.52" cy="232.23" r="1"></circle>
                    <circle id="Oval" fill="#FFFFFF" cx="136.17" cy="133.78" r="1"></circle>
                    <circle id="Oval" fill="#FFFFFF" cx="416" cy="187.7" r="1"></circle>
                    <circle id="Oval" fill="#FFFFFF" cx="390.84" cy="139.5" r="1"></circle>
                    <circle id="Oval" fill="#FFFFFF" opacity="0.5" cx="103.25" cy="53.67" r="1"></circle>
                    <circle id="Oval" fill="#FFFFFF" opacity="0.3" cx="169.01" cy="0.87" r="1"></circle>
                    <circle id="Oval" fill="#FFFFFF" cx="365.97" cy="93.83" r="1"></circle>
                    <circle id="Oval" fill="#FFFFFF" opacity="0.5" cx="340.79" cy="122.97" r="1"></circle>
                    <circle id="Oval" fill="#FFFFFF" opacity="0.5" cx="274.08" cy="197.78" r="1"></circle>
                    <circle id="Oval" fill="#E9FAEC" opacity="0.5" cx="867.95" cy="453.94" r="3.06"></circle>
                    <circle id="Oval" fill="#01C8DB" cx="538.12" cy="73.12" r="3.47"></circle>
                    <circle id="Oval" fill="#017E8B" cx="858.07" cy="403.29" r="1"></circle>
                    <circle id="Oval" fill="#FFFFFF" opacity="0.5" cx="406.31" cy="217.75" r="1"></circle>
                    <circle id="Oval" fill="#FFFFFF" opacity="0.5" cx="866.35" cy="541.96" r="1"></circle>
                    <circle id="Oval" fill="#FFFFFF" opacity="0.5" cx="904.14" cy="510.18" r="1"></circle>
                    <circle id="Oval" fill="#FFFFFF" opacity="0.3" cx="908.04" cy="90.01" r="1"></circle>
                    <circle id="Oval" fill="#FFFFFF" opacity="0.5" cx="65.49" cy="152.87" r="1"></circle>
                    <circle id="Oval" fill="#FFFFFF" opacity="0.3" cx="0.87" cy="99.25" r="1"></circle>
                    <path d="M845.45,512.16 C845.35,511.91 844.88,511.83 844.11,511.89 C839.643418,512.286274 835.372215,509.975495 833.26,506.02 C831.65,502.9 830.26,501.02 829.67,501.28 C829.08,501.54 829.26,503.81 830.13,507.21 C831.182186,511.568266 829.524043,516.133082 825.92,518.8 C825.31,519.27 825.01,519.65 825.1,519.9 C825.19,520.15 825.67,520.23 826.44,520.17 C830.906582,519.773726 835.177785,522.084505 837.29,526.04 C838.9,529.16 840.29,531.04 840.88,530.78 C841.47,530.52 841.29,528.25 840.42,524.85 C839.36622,520.488726 841.024281,515.920197 844.63,513.25 C845.24,512.79 845.54,512.41 845.45,512.16 Z" id="Path" fill="url(#radialGradient-4)" opacity="0.2"></path>
                    <path d="M784.55,57.13 C784.45,56.94 784.06,56.92 783.45,57.05 C779.932326,57.8058694 776.302485,56.3940459 774.22,53.46 C772.62,51.14 771.35,49.79 770.88,50.05 C770.41,50.31 770.81,52.05 771.88,54.73 C773.146921,58.0982534 772.285621,61.897416 769.69,64.39 C769.25,64.82 769.05,65.15 769.15,65.34 C769.25,65.53 769.64,65.55 770.25,65.42 C773.767674,64.6641306 777.397515,66.0759541 779.48,69.01 C781.08,71.33 782.34,72.68 782.82,72.42 C783.3,72.16 782.89,70.37 781.82,67.74 C780.535669,64.377932 781.395123,60.5734698 784,58.09 C784.44,57.65 784.64,57.32 784.55,57.13 Z" id="Path" fill="url(#radialGradient-5)" opacity="0.3"></path>
                </g>
                <g id="planet" transform="translate(407.439103, 201.289337)">
                    <circle id="Oval" fill="#017E8B" cx="417.730897" cy="44.0006627" r="10.63"></circle>
                    <circle id="Oval" fill="#017E8B" cx="309.250897" cy="156.440663" r="103.25"></circle>
                    <path d="M407.810897,219.710663 C411.60402,211.494861 410.594655,201.86176 405.180897,194.610663 C422.611832,150.79134 408.146935,100.730038 370.030897,72.9606627 C373.51729,58.1669144 365.291885,43.1240581 350.95581,38.0756019 C336.619736,33.0271457 320.783513,39.5966865 314.230897,53.3106627 C272.854334,51.3106026 234.288953,74.2358951 216.276724,111.539779 C198.264496,148.843663 204.293814,193.301564 231.590897,224.460663 C232.884141,242.671574 244.139336,258.675275 260.840255,266.050169 C277.541174,273.425064 296.950804,270.962525 311.280897,259.650663 C336.172619,259.132603 360.045477,249.668657 378.530897,232.990663 C390.23201,236.41384 402.677894,230.768985 407.810897,219.710663 L407.810897,219.710663 Z" id="Path" fill="#016A75"></path>
                    <path d="M333.200897,229.460663 C318.790897,229.330663 304.080897,231.880663 290.120897,228.280663 C267.830897,222.520663 251.510897,200.650663 249.850897,177.650663 C248.190897,154.650663 259.960897,131.810663 278.060897,117.590663 C287.620897,110.070663 298.720897,104.780663 308.770897,97.9406627 C318.820897,91.1006627 328.180897,82.1106627 331.650897,70.4606627 C333.570897,64.0006627 336.990897,47.5706627 336.420897,36.7706627 C326.754585,38.30004 318.458043,44.4841226 314.230897,53.3106627 C272.854334,51.3106026 234.288953,74.2358951 216.276724,111.539779 C198.264496,148.843663 204.293814,193.301564 231.590897,224.460663 C232.884141,242.671574 244.139336,258.675275 260.840255,266.050169 C277.541174,273.425064 296.950804,270.962525 311.280897,259.650663 C331.521136,259.194532 351.18429,252.818609 367.840897,241.310663 C359.410897,232.580663 345.720897,229.580663 333.200897,229.460663 Z" id="Path" fill="#001B31" opacity="0.5"></path>
                    <path d="M241.160897,129.910663 C239.520897,135.260663 238.260897,140.910663 239.250897,146.420663 C240.240897,151.930663 243.930897,157.270663 249.340897,158.720663 C257.560897,160.920663 265.040897,153.960663 271.560897,148.480663 C278.217315,142.889131 285.681895,138.337558 293.700897,134.980663 C308.020897,128.980663 327.080897,124.720663 329.480897,106.470663 C331.330897,92.3506627 320.480897,75.7406627 306.570897,72.2606627 C276.380897,64.7406627 248.380897,106.430663 241.160897,129.910663 Z" id="Path" fill="#00383D" opacity="0.5"></path>
                    <path d="M354.950897,181.040663 C355.490897,190.680663 351.730897,200.900663 343.810897,206.420663 C335.890897,211.940663 323.760897,211.420663 317.540897,204.040663 C312.730897,198.350663 312.140897,190.190663 308.260897,183.830663 C304.510897,177.690663 298.080897,173.830663 292.890897,168.830663 C284.890897,161.130663 301.760897,157.120663 306.890897,157.730663 C312.020897,158.340663 316.250897,162.090663 321.450897,162.800663 C337.010897,164.950663 353.600897,157.310663 354.950897,181.040663 Z" id="Path" fill="#00383D" opacity="0.5"></path>
                    <path d="M215.520897,113.140663 C206.031418,133.607267 203.539969,156.6277 208.430897,178.650663 C259.890897,132.650663 292.690897,72.6506627 302.430897,53.4706627 C264.719189,55.9430088 231.376738,78.8350126 215.520897,113.140663 L215.520897,113.140663 Z" id="Path" fill="#000000" opacity="0.4"></path>
                    <path d="M132.610897,216.210663 C118.97926,216.533176 105.340111,216.132614 91.7508965,215.010663 C39.9808965,210.570663 8.15089655,195.010663 2.12089655,171.130663 C-3.90910345,147.250663 16.6908965,118.440663 60.1208965,89.9306627 C102.880897,61.8606627 162.880897,37.1906627 229.120897,20.4606627 C295.360897,3.73066272 359.810897,-3.07933728 410.780897,1.29066272 C462.540897,5.73066272 494.380897,21.2906627 500.410897,45.1706627 C506.440897,69.0506627 485.840897,97.8706627 442.410897,126.380663 C399.650897,154.440663 339.650897,179.110663 273.410897,195.850663 C223.880897,208.370663 175.290897,215.330663 132.610897,216.210663 Z M369.950897,4.73066272 C327.640897,5.61066272 279.410897,12.5206627 230.210897,24.9606627 C164.510897,41.5706627 105.020897,66.0206627 62.6808965,93.8106627 C42.2208965,107.240663 26.9308965,120.690663 17.2308965,133.810663 C7.53089655,146.930663 3.88089655,159.200663 6.62089655,170.030663 C9.36089655,180.860663 18.2908965,189.880663 33.1608965,196.850663 C48.0308965,203.820663 67.7708965,208.330663 92.1608965,210.420663 C105.594008,211.525853 119.076175,211.919737 132.550897,211.600663 C174.860897,210.730663 223.080897,203.810663 272.290897,191.380663 C337.980897,174.770663 397.480897,150.320663 439.820897,122.530663 C460.280897,109.100663 475.570897,95.6506627 485.270897,82.5306627 C494.970897,69.4106627 498.620897,57.1506627 495.880897,46.3206627 C493.140897,35.4906627 484.210897,26.4706627 469.340897,19.5006627 C454.470897,12.5306627 434.730897,8.02066272 410.340897,5.93066272 C396.908148,4.81863211 383.425971,4.41807227 369.950897,4.73066272 L369.950897,4.73066272 Z" id="Shape" fill="#017E8B"></path>
                    <path d="M402.620897,100.980663 C399.980897,100.180663 397.460897,99.3306627 394.720897,98.5606627 C395.540897,99.6206627 396.410897,101.240663 397.250897,102.560663 C399.110897,103.090663 399.930897,103.270663 401.740897,103.820663 C443.930897,116.630663 467.740897,132.320663 466.970897,146.820663 C466.200897,161.320663 440.970897,174.550663 397.710897,183.000663 C353.170897,191.700663 294.360897,194.750663 232.110897,191.580663 C169.860897,188.410663 111.680897,179.480663 68.2508965,166.300663 C26.0608965,153.490663 2.25089655,137.810663 3.03089655,123.300663 C3.81089655,108.790663 29.0308965,95.5706627 72.2908965,87.1106627 C100.900897,81.5206627 135.400897,78.2706627 172.920897,77.4906627 C193.800897,77.0606627 215.620897,77.4006627 237.920897,78.5406627 L243.190897,78.8206627 C243.308197,77.5745543 244.066026,76.4794914 245.190897,75.9306627 C242.810897,75.7906627 240.420897,75.6506627 238.030897,75.5306627 C175.550897,72.3506627 116.480897,75.4106627 71.7108965,84.1606627 C26.3108965,93.0306627 0.850896547,106.870663 0.0208965471,123.160663 C-0.809103453,139.450663 23.1108965,155.790663 67.3808965,169.230663 C111.030897,182.430663 169.480897,191.480663 231.950897,194.650663 C254.280897,195.790663 276.160897,196.130663 297.110897,195.650663 C334.810897,194.870663 369.500897,191.650663 398.270897,185.980663 C443.670897,177.110663 469.130897,163.260663 469.960897,146.980663 C470.790897,130.700663 446.880897,114.420663 402.620897,100.980663 Z" id="Path" fill="#017E8B"></path>
                    <circle id="Oval" fill="#017E8B" cx="492.170897" cy="122.000663" r="4.25"></circle>
                    <circle id="Oval" fill="#01C8DB" cx="244.920897" cy="43.0406627" r="3.83"></circle>
                    <circle id="Oval" fill="#01C8DB" cx="443.460897" cy="88.6006627" r="2.55"></circle>
                    <circle id="Oval" fill="#01C8DB" cx="149.950897" cy="229.830663" r="3.4"></circle>
                    <circle id="Oval" fill="#01C8DB" cx="174.690897" cy="149.030663" r="2.98"></circle>
                </g>
                <g id="moon" transform="translate(231.810000, 82.850000)">
                    <circle id="Oval" fill="#FFFFFF" cx="59.38" cy="59.38" r="59.38"></circle>
                    <path d="M0.06,57.01 C17.7886189,69.8150337 41.1221109,71.8348019 60.7873759,62.2666167 C80.4526409,52.6984316 93.2639939,33.0922962 94.13,11.24 C76.4013811,-1.56503368 53.0678891,-3.58480191 33.4026241,5.98338326 C13.7373591,15.5515684 0.926006064,35.1577038 0.06,57.01 L0.06,57.01 Z" id="Path" fill="#E9FAEC" opacity="0.5"></path>
                    <path d="M18.2,16.62 C1.43189413,32.7614797 -4.35572383,57.2132305 3.39735964,79.158764 C11.1504431,101.104297 31.0135396,116.493971 54.2,118.52 C70.9681059,102.37852 76.7557238,77.9267695 69.0026404,55.981236 C61.2495569,34.0357025 41.3864604,18.6460294 18.2,16.62 L18.2,16.62 Z" id="Path" fill="#CAE5E8" opacity="0.5"></path>
                    <path d="M38.63,68.81 C37.95,62.51 35.63,56.56 34.55,50.35 C33.19,42.68 35.5,35.45 35.18,27.87 C34.98,23.21 32.99,17.58 27.34,18.14 C24.25,18.44 23.88,20.54 22.72,23.08 C21.2,26.38 18.11,29.35 16.33,32.62 C14.2992549,36.3648383 12.6509328,40.30473 11.41,44.38 C9.04,52.19 7.58,61.55 10.41,69.38 C15.21,82.74 40.69,88.03 38.63,68.81 Z" id="Path" fill="#00383D" opacity="0.3"></path>
                    <path d="M57.42,105.25 C62.63,107.83 68.71,108.69 73.92,107.13 C76.75,106.29 79.66,104.51 80.39,101.64 C81.24,98.27 78.67,94.9 75.66,93.15 C72.1,91.07 68.08,90.22 64.59,87.97 C61.1,85.72 58.06,82.82 53.92,82.26 C48.61,81.54 44.79,85.03 45.57,90.42 C46.52,96.94 51.38,102.25 57.42,105.25 Z" id="Path" fill="#00383D" opacity="0.2"></path>
                    <path d="M67.25,62.14 C69.36,66.76 66.68,72.14 62.17,74.03 C60.3966924,74.6804585 58.4665144,74.7712083 56.64,74.29 C51.18,73.11 41.38,62.78 48.06,57.71 C53.29,53.74 64.47,56.09 67.25,62.14 Z" id="Path" fill="#00383D" opacity="0.1"></path>
                </g>
                <g id="stars-front" transform="translate(359.133168, 16.651995)">
                    <path d="M280.506832,464.798005 C280.786832,464.338005 280.326832,463.458005 279.276832,462.278005 C273.044285,455.503969 271.46901,445.658501 275.276832,437.278005 C278.276832,430.738005 279.656832,426.208005 278.476832,425.478005 C277.296832,424.748005 273.856832,427.998005 269.406832,433.668005 C263.63278,440.850182 254.118762,443.875758 245.256832,441.348005 C243.726832,440.948005 242.726832,440.928005 242.446832,441.348005 C242.166832,441.768005 242.626832,442.698005 243.676832,443.878005 C249.928833,450.639906 251.524241,460.4881 247.726832,468.878005 C244.676832,475.408005 243.346832,479.948005 244.526832,480.668005 C245.706832,481.388005 249.146832,478.158005 253.596832,472.478005 C259.370675,465.308388 268.871123,462.284624 277.726832,464.798005 C279.256832,465.288005 280.256832,465.288005 280.506832,464.798005 Z" id="Path" fill="url(#radialGradient-6)"></path>
                    <path d="M15.3168318,178.528005 C15.4768318,178.388005 15.3968318,178.008005 15.1268318,177.448005 C13.5052325,174.235098 13.9535922,170.365047 16.2668318,167.608005 C18.1168318,165.478005 19.0968318,163.918005 18.7368318,163.518005 C18.3768318,163.118005 16.7368318,163.968005 14.4468318,165.628005 C11.5075864,167.70434 7.61402951,167.830193 4.54683182,165.948005 C4.01683182,165.628005 3.64683182,165.518005 3.48683182,165.658005 C3.32683182,165.798005 3.40683182,166.188005 3.68683182,166.738005 C5.30568216,169.952861 4.85337026,173.823078 2.53683182,176.578005 C0.696831816,178.708005 -0.293168184,180.278005 0.0768318162,180.678005 C0.446831816,181.078005 2.07683182,180.218005 4.36683182,178.558005 C7.31393749,176.50156 11.2019163,176.395417 14.2568318,178.288005 C14.7968318,178.558005 15.1668318,178.668005 15.3168318,178.528005 Z" id="Path" fill="url(#radialGradient-7)"></path>
                    <path d="M106.806832,106.538005 C106.806832,106.428005 106.666832,106.298005 106.376832,106.168005 C104.680483,105.407008 103.602178,103.706907 103.636832,101.848005 C103.636832,100.388005 103.576832,99.4380053 103.296832,99.3980053 C103.016832,99.3580053 102.636832,100.238005 102.296832,101.638005 C101.789019,103.429611 100.263339,104.746887 98.4168318,104.988005 C98.1068318,104.988005 97.9168318,105.108005 97.8968318,105.218005 C97.8768318,105.328005 98.0368318,105.448005 98.3268318,105.588005 C100.02318,106.349003 101.101485,108.049104 101.066832,109.908005 C101.066832,111.358005 101.126832,112.308005 101.406832,112.348005 C101.686832,112.388005 102.066832,111.518005 102.406832,110.108005 C102.909608,108.318883 104.433422,107.003757 106.276832,106.768005 C106.596832,106.728005 106.786832,106.648005 106.806832,106.538005 Z" id="Path" fill="url(#radialGradient-8)"></path>
                    <path d="M154.486832,22.0580053 C154.646832,21.8080053 154.396832,21.3080053 153.806832,20.6380053 C150.352492,16.8212466 149.513903,11.3093913 151.676832,6.63800526 C153.416832,2.99800526 154.186832,0.468005257 153.526832,0.0580052571 C152.866832,-0.351994743 150.926832,1.43800526 148.416832,4.58800526 C145.148142,8.56753317 139.81802,10.2090846 134.876832,8.75800526 C134.016832,8.52800526 133.466832,8.50800526 133.306832,8.75800526 C133.146832,9.00800526 133.396832,9.50800526 133.976832,10.1780053 C137.439565,13.9902056 138.282609,19.505447 136.116832,24.1780053 C134.376832,27.8180053 133.606832,30.3480053 134.256832,30.7580053 C134.906832,31.1680053 136.856832,29.3780053 139.376832,26.2280053 C142.643976,22.2461745 147.975625,20.6041526 152.916832,22.0580053 C153.766832,22.2880053 154.326832,22.2880053 154.486832,22.0580053 Z" id="Path" fill="url(#radialGradient-9)" opacity="0.5"></path>
                </g>
            </g>
            <g id="05-Rocket" transform="translate(165.390000, 0.000000)">
                <path d="M682.952845,163.304932 C683.278447,162.80537 681.894638,161.319829 679.520456,159.439896 C677.566216,157.883877 677.061056,155.186024 678.326581,153.063902 C681.528335,147.713325 683.278447,143.598508 682.396608,143.059506 C681.514769,142.520505 678.326581,145.688782 674.582157,150.7107 C673.0881,152.686506 670.336071,153.321182 668.083681,152.209387 C665.370329,150.894749 663.389583,150.224284 663.050414,150.7107 C662.711245,151.197116 664.108621,152.695803 666.482803,154.575736 C668.437043,156.131755 668.942203,158.829608 667.676678,160.95173 C664.474924,166.302307 662.711245,170.417124 663.606651,170.942979 C664.502057,171.468834 667.676678,168.313703 671.421102,163.291786 C672.915159,161.31598 675.667188,160.681303 677.919578,161.793098 C680.660063,163.160322 682.613676,163.791348 682.952845,163.304932 Z" id="Path" fill="url(#radialGradient-10)" fill-rule="nonzero"></path>
                <path d="M62,273 C66.6387461,267.869583 72.6718937,264.092243 79.4183351,262.094421 C86.1326855,260.117875 93.0228324,258.747182 100,258" id="Path" fill="url(#radialGradient-11)" fill-rule="nonzero"></path>
                <path d="M235,153 C235.072116,156.432303 237.353501,159.454395 240.708944,160.562491 C244.064388,161.670588 247.777242,160.628024 250,157.953576" id="Path" fill="url(#radialGradient-12)" fill-rule="nonzero"></path>
                <path d="M221,629 C204.968334,648.444928 192.746896,670.850897 185,695" id="Path" fill="#F7941D" fill-rule="nonzero"></path>
                <path d="M198.59644,761.093174 C207.128427,754.84585 211.790638,744.570732 210.889642,734 C208.802944,743.320693 203.522892,751.607667 195.972648,757.412036 C188.76863,762.824894 179.994184,765.708029 171,765.617627 C180.39885,768.49722 190.595376,766.825493 198.59644,761.093174 L198.59644,761.093174 Z" id="Path" fill="#F7941D" fill-rule="nonzero"></path>
                <path d="M156.807896,793.354059 C173.350197,796.13452 190.721586,789.736759 203,778.048022 C189.114224,788.200724 171.737909,791.975285 155.031277,788.468005 C143.950436,786.078967 134.580414,780.369573 126,773 C132.44847,783.865396 144.753205,791.342948 156.807896,793.354059 Z" id="Path" fill="#F7941D" fill-rule="nonzero"></path>
                <path d="M45,584 C40.4742822,589.307544 40.7376838,597.661509 41.3123781,605" id="Path" fill="#FAD900" fill-rule="nonzero"></path>
                <path d="M0,633 C4.67277652,667.665223 18.4797455,700.456774 40,728" id="Path" fill="#F7941D" fill-rule="nonzero"></path>
                <path d="M32,470 C45.2957598,451.51052 63.2597695,437.001128 84,428" id="Path" fill="#F7941D" fill-rule="nonzero"></path>
                <path d="M221.036317,514 C221.036317,514 120.670474,588.675 110,720 C110,720 123.338092,687.053205 156.141876,654.634615 C194.320514,616.920769 253.087356,575.483077 258,518.199231 L221.036317,514 Z" id="Path" fill="#F7941D" fill-rule="nonzero"></path>
                <path d="M224.828947,518 C221.75,523.453348 216.934211,527.655324 212.5,532.068057 C190.481175,554.138256 176.561098,583.011646 173,614 C183.092105,602.316136 199.026316,597.587267 210.855263,587.655324 C217.710526,581.912184 223.026316,574.56202 227.960526,567.093304 C235.671053,555.448957 242.789474,543.119649 246,529.512623" id="Path" fill="#FAD900" fill-rule="nonzero"></path>
                <path d="M125,663 L182.942432,599.676091 C201.933642,578.921541 221.256633,557.676621 232.643396,531.965365 C234.870375,526.441502 235.536011,520.413086 234.567732,514.537374 L221.190277,513 C221.190277,513 164.800585,540.155858 125,663 Z" id="Path" fill="url(#radialGradient-13)" fill-rule="nonzero"></path>
                <path d="M161.492584,464 C161.492584,464 -33.564786,609.016204 125.319755,796 C125.319755,796 33.9525221,692.898515 200,497.878091 L161.492584,464 Z" id="Path" fill="#F7941D" fill-rule="nonzero"></path>
                <path d="M159.053326,472 C138.791987,490.959704 120.732107,512.542763 107.64199,537.080409 C94.5518735,561.618056 86.6556198,589.176535 87.0115444,617 C94.8418862,602.902778 109.039324,593.853527 121.285768,583.373355 C149.812468,558.941703 168.742385,525.328308 187,492.470121" id="Path" fill="#FAD900" fill-rule="nonzero"></path>
                <path d="M113.41382,563.114318 C126.254531,542.334876 142.597254,523.896594 159.908336,506.648732 C167.933781,498.646464 176.463303,490.432566 181,480.194955 L161.50016,463 C161.50016,463 1.74738956,581.751004 89.138509,743 C83.0497835,713.16014 79.6804234,682.777977 82.8375403,652.580991 C86.1974472,620.855364 96.6455935,590.283925 113.41382,563.114318 L113.41382,563.114318 Z" id="Path" fill="url(#radialGradient-14)" fill-rule="nonzero"></path>
                <path d="M134.948597,408 C134.948597,408 -38.5865688,480.242881 50.3731211,679 C50.3731211,679 33.620109,591.666325 82.2583146,535.70353 C110.45014,503.301931 126.73816,477.124293 154,443.070899 L134.948597,408 Z" id="Path" fill="#F7941D" fill-rule="nonzero"></path>
                <path d="M137.339543,414 C117.23805,427.48699 98.1197096,442.846074 83.2794138,461.883428 C68.4391179,480.920782 58.0362964,503.952816 57,528 C66.3671489,515.639173 78.1636806,505.292245 91.6760718,497.585058 C90.016633,499.560224 89.3039228,502.153415 89.7230516,504.691107 C116.473039,484.939298 138.434354,459.502628 154,430.242396" id="Path" fill="#FAD900" fill-rule="nonzero"></path>
                <path d="M137.542767,433.588339 C140.203601,431.389289 142.696317,428.993636 145,426.421481 L135.012871,408 C135.012871,408 44.9432776,445.78527 28.0949653,541.821174 C27.6260194,554.990366 28.8953243,568.163929 31.8699409,581 C54.6852335,524.026744 90.9450663,473.444941 137.542767,433.588339 L137.542767,433.588339 Z" id="Path" fill="url(#radialGradient-15)" fill-rule="nonzero"></path>
                <polygon id="Path" fill="#E9FAEC" fill-rule="nonzero" points="366.895655 413 381 534.457238 357.766201 569 293 481.421751"></polygon>
                <polygon id="Path" fill="#E9FAEC" fill-rule="nonzero" points="221 298.763117 119.24448 281 89 298.988302 159.742674 358"></polygon>
                <polygon id="Path" fill="#002646" fill-rule="nonzero" points="212.432799 485 174 448.764543 235.722599 404 254 421.229282"></polygon>
                <ellipse id="Oval" fill="#002646" fill-rule="nonzero" transform="translate(192.704914, 467.462999) rotate(-46.560000) translate(-192.704914, -467.462999) " cx="192.704914" cy="467.462999" rx="5.54523992" ry="27.7261996"></ellipse>
                <polygon id="Path" fill="#002646" fill-rule="nonzero" points="195.241928 507 152 466.293291 221.433879 416 242 435.370961"></polygon>
                <ellipse id="Oval" fill="#002646" fill-rule="nonzero" transform="translate(173.679724, 487.564731) rotate(-46.560000) translate(-173.679724, -487.564731) " cx="173.679724" cy="487.564731" rx="6.22019752" ry="31.0877531"></ellipse>
                <path d="M196.359889,509.51867 C196.841226,509.01458 196.881337,508.192117 196.547075,506.958423 L209.596657,486.993801 C211.308078,487.617281 212.524791,487.683608 213.113092,487.073394 C213.701393,486.46318 213.581058,485.8397 213.273538,484.791723 L230,459.215782 C229.331476,458.194336 228.662953,457.199421 227.900836,456.270834 C220.669077,446.913699 211.807278,438.916666 201.734819,432.658191 C200.892479,432.12757 199.969916,431.543887 199.060724,431 L182,443.336943 C182.329829,445.314301 183.142312,447.181554 184.366574,448.77581 C186.893593,452.27791 190.289694,455.090202 192.843454,458.565771 C198.867322,467.063237 199.624978,478.180352 194.808914,487.405032 C192.856825,491.079584 190.089136,494.303108 188.123677,498.017456 C186.749615,500.479585 186.01445,503.242168 185.984401,506.056367 C191.198886,509.386015 195.116435,510.831958 196.359889,509.51867 Z" id="Path" fill="#0B1726" fill-rule="nonzero"></path>
                <polygon id="Path" fill="#002646" fill-rule="nonzero" points="267.762742 509 223 489.877933 261.712654 431 283 440.110167"></polygon>
                <ellipse id="Oval" fill="#002646" fill-rule="nonzero" transform="translate(245.149365, 499.585751) rotate(-66.980000) translate(-245.149365, -499.585751) " cx="245.149365" cy="499.585751" rx="5.10850264" ry="25.5557477"></ellipse>
                <polygon id="Path" fill="#002646" fill-rule="nonzero" points="260.723604 533 210 511.665605 253.876983 446 278 456.146042"></polygon>
                <ellipse id="Oval" fill="#002646" fill-rule="nonzero" transform="translate(235.170046, 523.054340) rotate(-66.980000) translate(-235.170046, -523.054340) " cx="235.170046" cy="523.05434" rx="5.7305224" ry="28.652612"></ellipse>
                <path d="M261.569716,533.823393 C261.806489,533.242674 261.569716,532.503577 260.912014,531.579706 L265.660626,510.211896 C267.304882,510.211896 268.37036,509.881942 268.672903,509.18244 C268.824638,508.456396 268.602182,507.702469 268.08097,507.17632 L275,476.01548 C271.877466,472.38611 268.310838,469.166712 264.384683,466.43362 C258.176006,462.182335 251.135725,459.307288 243.732827,458 L230,478.971866 C233.946215,482.574962 238.944753,484.924233 243.68021,487.484675 C248.94183,490.322278 254.203449,493.7406 257.005262,498.993465 C261.083017,506.595602 259.017831,516.032281 255.689857,524.003966 C254.374452,527.369495 252.717042,531.012186 253.585209,534.562489 C258.018123,535.288388 261.0304,535.156406 261.569716,533.823393 Z" id="Path" fill="#0B1726" fill-rule="nonzero"></path>
                <polygon id="Path" fill="#002646" fill-rule="nonzero" points="154 396.661213 174.466803 436 225 396.70075 215.268365 378"></polygon>
                <ellipse id="Oval" fill="#002646" fill-rule="nonzero" transform="translate(163.351935, 416.190496) rotate(-27.450000) translate(-163.351935, -416.190496) " cx="163.351935" cy="416.190496" rx="4.65853091" ry="23.2926545"></ellipse>
                <polygon id="Path" fill="#002646" fill-rule="nonzero" points="132 404.929078 155.07131 449 212 404.968592 201.028192 384"></polygon>
                <ellipse id="Oval" fill="#002646" fill-rule="nonzero" transform="translate(142.737117, 426.898706) rotate(-27.450000) translate(-142.737117, -426.898706) " cx="142.737117" cy="426.898706" rx="5.22761281" ry="26.1115951"></ellipse>
                <path d="M195.708778,417.378386 C191.621313,408.107276 184.62589,400.40833 175.77334,395.438061 L172.18602,394 C174.012773,401.427783 170.862285,409.422874 165.726196,415.109152 C160.590107,420.79543 153.640502,424.502725 146.677659,427.72187 C144.022558,428.847612 141.45611,430.170661 139,431.679836 C145.287738,443.118358 151.946122,451.11345 154.328843,449.873287 C154.8451,449.609423 155.109847,448.923375 155.176033,447.907497 L170.928472,435.677382 C172.093358,436.627294 173.033209,436.996704 173.655365,436.69326 C174.27752,436.389816 174.356944,435.848894 174.409893,434.951755 L196,418.183172 C195.894101,417.853342 195.80144,417.615864 195.708778,417.378386 Z" id="Path" fill="#0B1726" fill-rule="nonzero"></path>
                <path d="M526.172394,268.673632 C573.721657,221.217872 606.564962,71.2237729 592.865899,57.5193332 C579.816018,45.7348392 429.086576,76.5334157 381.537312,124.002417 L380.212451,125.326517 L380.212451,125.326517 L379.497026,126.081254 L377.920442,127.73638 L188.968758,327.794717 L204.734605,343.564753 L158.722181,371.979949 C156.642149,371.569478 155.10531,371.781334 154.204404,372.681722 C148.388264,378.481282 163.756653,420.349338 197.712841,454.286033 C231.66903,488.222727 271.361867,501.490214 277.204505,495.677413 C278.10541,494.777024 278.317388,493.241068 277.906681,491.16223 L306.377945,445.202704 L322.130543,460.97274 L522.436285,272.275185 L524.145356,270.659782 L524.900527,269.944768 L524.900527,269.944768 L526.172394,268.673632 Z" id="Path" fill="url(#radialGradient-16)" fill-rule="nonzero"></path>
                <circle id="Oval" fill="#125E42" fill-rule="nonzero" opacity="0.3" cx="414.5" cy="241.5" r="69.5"></circle>
                <path d="M316.357367,414.994561 C372.840269,371.316907 425.67641,323.132468 474.344793,270.916373 C498.56397,245.021953 519.962653,217.290207 540.699247,188.593533 C560.734029,160.83535 580.119964,132.244421 591.918371,99.8995286 C592.283995,98.8272735 592.984908,97.9005651 593.917877,97.2558921 C595.357843,88.2428046 596.053169,79.1268127 596,70 C589.627547,84.3549461 583.284744,98.7231104 576.134194,112.721166 C565.636845,132.898179 553.761871,152.33069 540.593313,170.881168 C495.253531,236.060026 438.393418,291.087319 381.321437,345.837031 C335.081214,390.197251 288.404014,435.350562 235,471 L235,471 C263.123764,453.829239 290.283618,435.13272 316.357367,414.994561 Z" id="Path" fill="#0B1726" fill-rule="nonzero" opacity="0.1"></path>
                <path d="M542.370861,205.20534 C521.134183,234.626504 497.891302,262.547122 472.807947,288.768111 C447.788079,314.786309 421.576159,339.89089 394.807947,364.134819 C347.86755,406.611347 297.89404,445.777673 244,478.985632 C260.794702,491.948388 273.456954,498.529072 276.887417,495.099701 C277.788079,494.199326 278,492.663392 277.589404,490.584584 L306.066225,444.625722 L321.81457,460.39553 L522.066225,271.700703 L523.774834,270.085324 L524.529801,269.37032 L524.529801,269.37032 L525.854305,268.112443 C550.834437,243.166751 571.761589,189.912201 584,143 C571.708609,164.701693 557.006623,185.105786 542.370861,205.20534 Z" id="Path" fill="#0B1726" fill-rule="nonzero" opacity="0.1"></path>
                <path d="M421.923658,231.479153 C393.596979,203.921244 362.216887,184.50364 333.784462,175 L332,176.892786 C360.300243,186.158173 391.772862,205.562541 420.218506,233.239576 C447.025088,259.301787 466.548422,288.275976 477.162665,315 L479,313.266049 C468.266793,286.396426 448.664149,257.475182 421.923658,231.479153 Z" id="Path" fill="#125E42" fill-rule="nonzero"></path>
                <path d="M521,63 C490.588597,69.8629032 455.774152,80.6739631 426.936209,94.2937788 C371.045339,139.631336 297.462966,215.388249 201.85216,340.086406 L205.157747,343.398618 L194.090641,350.248272 C183.662615,363.974078 172.965735,378.296083 162,393.214286 C168.783065,403.574885 179.400611,416.823733 192.503959,431 C217.242974,382.615207 344.018858,148.349078 521,63 Z" id="Path" fill="url(#radialGradient-17)" fill-rule="nonzero" style="mix-blend-mode: overlay;"></path>
                <polygon id="Path" fill="url(#radialGradient-18)" fill-rule="nonzero" points="509 261 356 412 370.662886 379.639088"></polygon>
                <polygon id="Path" fill="#125E42" fill-rule="nonzero" points="286 281 153.800673 380 34 353.444862"></polygon>
                <ellipse id="Oval" fill="#125E42" fill-rule="nonzero" transform="translate(219.706609, 328.961681) rotate(-36.720000) translate(-219.706609, -328.961681) " cx="219.706609" cy="328.961681" rx="85.0975959" ry="9.89937818"></ellipse>
                <polygon id="Path" fill="#125E42" fill-rule="nonzero" points="378 350 276 496.470122 308.980132 625"></polygon>
                <ellipse id="Oval" fill="#125E42" fill-rule="nonzero" transform="translate(327.932429, 422.974197) rotate(-55.200000) translate(-327.932429, -422.974197) " cx="327.932429" cy="422.974197" rx="92.2045024" ry="10.7331493"></ellipse>
                <circle id="Oval" fill="#20AB78" fill-rule="nonzero" cx="414.5" cy="235.5" r="69.5"></circle>
                <path d="M367.210598,192.458493 C383.912005,175.782367 407.96023,168.77701 430.999623,173.876462 C454.039015,178.975914 472.888971,195.476192 481,217.644209 C474.54538,192.976561 455.04587,173.863716 430.261784,167.912105 C405.477698,161.960493 379.43075,170.135885 362.48697,189.184678 C345.54319,208.233471 340.452045,235.06462 349.239683,259 C342.958409,235.200539 349.80349,209.855026 367.210598,192.458493 L367.210598,192.458493 Z" id="Path" fill="url(#radialGradient-19)" fill-rule="nonzero" style="mix-blend-mode: overlay;"></path>
                <circle id="Oval" fill="#002646" fill-rule="nonzero" cx="414.5" cy="235.5" r="51.5"></circle>
                <circle id="Oval" fill="#5EC7A1" fill-rule="nonzero" cx="483.5" cy="165.5" r="2.5"></circle>
                <circle id="Oval" fill="#5EC7A1" fill-rule="nonzero" cx="561" cy="89" r="2"></circle>
                <circle id="Oval" fill="#125E42" fill-rule="nonzero" cx="575" cy="74" r="1"></circle>
                <circle id="Oval" fill="#125E42" fill-rule="nonzero" cx="567" cy="66" r="1"></circle>
                <circle id="Oval" fill="#125E42" fill-rule="nonzero" cx="582" cy="81" r="1"></circle>
                <circle id="Oval" fill="#125E42" fill-rule="nonzero" cx="589" cy="91" r="1"></circle>
                <circle id="Oval" fill="#125E42" fill-rule="nonzero" cx="558" cy="60" r="1"></circle>
                <circle id="Oval" fill="#5EC7A1" fill-rule="nonzero" cx="577" cy="108" r="2"></circle>
                <circle id="Oval" fill="#5EC7A1" fill-rule="nonzero" cx="522" cy="75" r="2"></circle>
                <circle id="Oval" fill="#5EC7A1" fill-rule="nonzero" cx="500" cy="82" r="2"></circle>
                <circle id="Oval" fill="#5EC7A1" fill-rule="nonzero" cx="482" cy="91" r="2"></circle>
                <circle id="Oval" fill="#5EC7A1" fill-rule="nonzero" cx="542" cy="73" r="2"></circle>
                <circle id="Oval" fill="#5EC7A1" fill-rule="nonzero" cx="457.5" cy="147.5" r="2.5"></circle>
                <circle id="Oval" fill="#5EC7A1" fill-rule="nonzero" cx="424.5" cy="132.5" r="2.5"></circle>
                <circle id="Oval" fill="#5EC7A1" fill-rule="nonzero" cx="393.5" cy="128.5" r="2.5"></circle>
                <circle id="Oval" fill="#5EC7A1" fill-rule="nonzero" cx="503.5" cy="193.5" r="2.5"></circle>
                <circle id="Oval" fill="#5EC7A1" fill-rule="nonzero" cx="516.5" cy="224.5" r="2.5"></circle>
                <circle id="Oval" fill="#5EC7A1" fill-rule="nonzero" cx="520.5" cy="255.5" r="2.5"></circle>
                <path d="M426.247904,118.719191 L426.247904,118.719191 C426.073662,118.537561 425.984526,118.291985 426.002208,118.042284 C426.01989,117.792582 426.142767,117.561676 426.340908,117.405814 C482.143531,69.7827641 539.394364,61.0882084 539.965677,61.0094058 C540.456818,60.9388202 540.913604,61.2730776 540.988725,61.7580307 C541.026721,61.9918119 540.967805,62.2308649 540.82529,62.4211743 C540.682775,62.6114836 540.468688,62.7369887 540.231404,62.769331 C539.660091,62.8612674 482.927425,71.503288 427.523393,118.758592 C427.159932,119.095264 426.589389,119.077639 426.247904,118.719191 Z" id="Path" fill="#5EC7A1" fill-rule="nonzero"></path>
                <path d="M509.728187,119.133426 C495.223953,107.68527 479.036358,98.5333908 461.73532,92 C461.247712,92.5075073 460.655736,92.903877 460,93.161918 C460.100902,93.2868898 460.233552,93.3826343 460.384155,93.4391939 C477.803617,99.8642086 494.0848,109.014579 508.615463,120.546213 C529.147879,136.707436 554.210674,164.210563 562.794548,206 C563.19195,205.036136 563.602598,204.059069 564,203.082001 C554.87301,162.203614 530.07515,135.149409 509.728187,119.133426 Z" id="Path" fill="#5EC7A1" fill-rule="nonzero"></path>
                <path d="M539.28245,59 C537.214808,59.3733333 535.120658,59.7733333 533,60.2 C557.516356,72.9510679 577.38883,93.1850338 589.767367,118 C590.204753,115.84 590.615631,113.72 591,111.626667 C578.946166,89.6078332 561.051007,71.3887662 539.308958,59 L539.28245,59 Z" id="Path" fill="#20AB78" fill-rule="nonzero"></path>
                <path d="M491.465216,158.58631 C526.496726,193.636697 539.938896,239.08607 526.153409,268 C528.292537,265.862138 530.431664,263.526325 532.557587,261.032152 C541.1273,230.864537 526.879656,188.925482 494.000478,156.03935 C461.1213,123.153218 419.210251,108.887605 388.985175,117.425859 C386.489526,119.550524 384.152332,121.67519 382,123.826249 C410.997058,110.06211 456.420502,123.535922 491.465216,158.58631 Z" id="Path" fill="#125E42" fill-rule="nonzero"></path>
                <circle id="Oval" fill="#125E42" fill-rule="nonzero" cx="457.5" cy="193.5" r="3.5"></circle>
                <circle id="Oval" fill="#125E42" fill-rule="nonzero" cx="374.5" cy="281.5" r="3.5"></circle>
                <circle id="Oval" fill="#125E42" fill-rule="nonzero" cx="459.5" cy="277.5" r="3.5"></circle>
                <circle id="Oval" fill="#125E42" fill-rule="nonzero" cx="371.5" cy="194.5" r="3.5"></circle>
                <circle id="Oval" fill="#125E42" fill-rule="nonzero" cx="417.5" cy="296.5" r="3.5"></circle>
                <circle id="Oval" fill="#125E42" fill-rule="nonzero" cx="415.5" cy="175.5" r="3.5"></circle>
                <circle id="Oval" fill="#125E42" fill-rule="nonzero" cx="354.5" cy="238.5" r="3.5"></circle>
                <circle id="Oval" fill="#125E42" fill-rule="nonzero" cx="475.5" cy="235.5" r="3.5"></circle>
                <path d="M217,302 C193.580858,303.970243 128.207921,310.054033 105,312.223962 L133.264026,336 L212.735974,306.153485 L217,302 Z" id="Path" fill="#125E42" fill-rule="nonzero" opacity="0.3"></path>
                <polygon id="Path" fill="#125E42" fill-rule="nonzero" opacity="0.3" points="351.996077 560 358 422 352.761412 426.830066 321 518.21861"></polygon>
                <path d="M238.617825,419.33887 C215.837433,398.435216 198.478431,375.126246 187.820321,353 L186,354.142857 C196.776827,376.508306 214.241355,399.963455 237.127273,420.986711 C254.592239,437.231762 274.395652,450.722097 295.865597,461 L297,459.152824 C275.6584,448.922312 255.975144,435.499239 238.617825,419.33887 Z" id="Path" fill="#125E42" fill-rule="nonzero"></path>
                <path d="M231.617825,429.33887 C208.837433,408.435216 191.478431,385.126246 180.820321,363 L179,364.142857 C189.776827,386.508306 207.241355,409.963455 230.127273,430.986711 C247.592239,447.231762 267.395652,460.722097 288.865597,471 L290,469.152824 C268.656585,458.925509 248.972873,445.502124 231.617825,429.33887 L231.617825,429.33887 Z" id="Path" fill="#125E42" fill-rule="nonzero"></path>
                <path d="M483.362928,72.9896579 C481.637666,91.4781225 485.382422,118.312808 509.549475,148 C509.549475,148 503.049647,102.412729 513,65 C503.357252,67.3506762 493.366777,69.9918854 483.362928,72.9896579 Z" id="Path" fill="url(#radialGradient-20)" fill-rule="nonzero" style="mix-blend-mode: overlay;"></path>
                <path d="M316.431745,193 L282,229.297755 C285.810995,273.986145 307.667784,338.587428 387.765078,399 L389,397.837203 C367.860263,374.647338 305.503351,296.607826 316.431745,193 Z" id="Path" fill="url(#radialGradient-21)" fill-rule="nonzero" style="mix-blend-mode: overlay;"></path>
                <polygon id="Path" fill="#125E42" fill-rule="nonzero" opacity="0.3" points="270.648976 351.296329 263 364 295 349"></polygon>
                <polygon id="Path" fill="#125E42" fill-rule="nonzero" opacity="0.3" points="351 311 334.270012 368.367004 307 399 307.775388 366.929835"></polygon>
                <polygon id="Path" fill="#20AB78" fill-rule="nonzero" points="353 309 326.789499 365.489032 297 395 304.716797 358.866544"></polygon>
                <polygon id="Path" fill="#20AB78" fill-rule="nonzero" points="344 301 287.51924 327.194623 258 357 294.124483 349.298834"></polygon>
                <path d="M133,405 C137.382362,420.042324 144.87586,434.007479 155,446" id="Path" stroke="#20AB78" stroke-width="0.87" stroke-linecap="round"></path>
                <path d="M155,467 C164.699621,483.465242 178.956516,496.67895 196,505" id="Path" stroke="#20AB78" stroke-width="0.87" stroke-linecap="round"></path>
                <path d="M212,512 C225.722603,521.702444 241.392292,528.515352 258,532" id="Path" stroke="#20AB78" stroke-width="0.87" stroke-linecap="round"></path>
                <path d="M174,453 C182.673913,466.231756 192.613043,479.701684 207,486" id="Path" stroke="#20AB78" stroke-width="0.87" stroke-linecap="round"></path>
                <path d="M152,400 C155.645701,412.704662 162.154324,424.35167 171,434" id="Path" stroke="#20AB78" stroke-width="0.87" stroke-linecap="round"></path>
                <path d="M225,493 C237.632284,499.899437 250.626256,506.927595 265,509" id="Path" stroke="#20AB78" stroke-width="0.87" stroke-linecap="round"></path>
                <path d="M136.445,408.07 C136.207518,408.100376 136.039624,408.317518 136.07,408.555 C136.100376,408.792482 136.317518,408.960376 136.555,408.93 C136.792482,408.899624 136.960376,408.682482 136.93,408.445 C136.899624,408.207518 136.682482,408.039624 136.445,408.07 L136.445,408.07 Z" id="Path" fill="#20AB78" fill-rule="nonzero"></path>
                <path d="M140.5,416.295 C140.403916,416.316351 140.335552,416.401572 140.335552,416.5 C140.335552,416.598428 140.403916,416.683649 140.5,416.705 C140.596084,416.683649 140.664448,416.598428 140.664448,416.5 C140.664448,416.401572 140.596084,416.316351 140.5,416.295 L140.5,416.295 Z" id="Path" fill="#20AB78" fill-rule="nonzero"></path>
                <path d="M146.463918,427.270325 C146.173918,427.270325 146.233918,427.760325 146.523918,427.730325 C146.650944,427.713757 146.740487,427.597351 146.723918,427.470325 C146.70735,427.3433 146.590944,427.253757 146.463918,427.270325 L146.463918,427.270325 Z" id="Path" fill="#20AB78" fill-rule="nonzero"></path>
                <path d="M153.46,435.21 C153.299837,435.232091 153.187909,435.379837 153.21,435.54 C153.232091,435.700163 153.379837,435.812091 153.54,435.79 C153.700163,435.767909 153.812091,435.620163 153.79,435.46 C153.767909,435.299837 153.620163,435.187909 153.46,435.21 Z" id="Path" fill="#20AB78" fill-rule="nonzero"></path>
                <path d="M161.459984,470.180014 C161.345659,470.194305 161.247643,470.268502 161.202856,470.374655 C161.15807,470.480809 161.173318,470.602792 161.242856,470.694655 C161.312395,470.786518 161.425659,470.834305 161.539984,470.820014 C161.716715,470.797923 161.842076,470.636745 161.819984,470.460014 C161.797893,470.283283 161.636715,470.157923 161.459984,470.180014 L161.459984,470.180014 Z" id="Path" fill="#20AB78" fill-rule="nonzero"></path>
                <path d="M168.454982,480.170017 C168.337084,480.186094 168.236719,480.263847 168.191693,480.373988 C168.146668,480.484129 168.163821,480.609924 168.236693,480.703988 C168.309565,480.798052 168.427084,480.846094 168.544982,480.830017 C168.727236,480.805164 168.854835,480.637271 168.829982,480.455017 C168.805129,480.272763 168.637236,480.145164 168.454982,480.170017 L168.454982,480.170017 Z" id="Path" fill="#20AB78" fill-rule="nonzero"></path>
                <path d="M178.445,489.075 C178.226189,489.121869 178.079899,489.328725 178.108619,489.550649 C178.137339,489.772573 178.331466,489.935375 178.555,489.925 C178.773811,489.878131 178.920101,489.671275 178.891381,489.449351 C178.862661,489.227427 178.668534,489.064625 178.445,489.075 Z" id="Path" fill="#20AB78" fill-rule="nonzero"></path>
                <path d="M191.455,499.175 C191.291462,499.215876 191.18502,499.373435 191.20814,499.540411 C191.23126,499.707388 191.376508,499.830097 191.545,499.825 C191.708538,499.784124 191.81498,499.626565 191.79186,499.459589 C191.76874,499.292612 191.623492,499.169903 191.455,499.175 L191.455,499.175 Z" id="Path" fill="#20AB78" fill-rule="nonzero"></path>
                <path d="M217.445,511.07 C217.207518,511.100376 217.039624,511.317518 217.07,511.555 C217.100376,511.792482 217.317518,511.960376 217.555,511.93 C217.792482,511.899624 217.960376,511.682482 217.93,511.445 C217.899624,511.207518 217.682482,511.039624 217.445,511.07 L217.445,511.07 Z" id="Path" fill="#20AB78" fill-rule="nonzero"></path>
                <path d="M229.455,518.155 C229.281501,518.197222 229.167604,518.363281 229.190699,518.540344 C229.213794,518.717406 229.366476,518.848694 229.545,518.845 C229.718499,518.802778 229.832396,518.636719 229.809301,518.459656 C229.786206,518.282594 229.633524,518.151306 229.455,518.155 Z" id="Path" fill="#20AB78" fill-rule="nonzero"></path>
                <path d="M240.459984,523.190015 C240.349232,523.204305 240.254516,523.276596 240.211516,523.379656 C240.168516,523.482715 240.183764,523.600887 240.251516,523.689656 C240.319268,523.778425 240.429232,523.824305 240.539984,523.810015 C240.711192,523.787923 240.832076,523.631223 240.809984,523.460015 C240.787893,523.288806 240.631192,523.167923 240.459984,523.190015 L240.459984,523.190015 Z" id="Path" fill="#20AB78" fill-rule="nonzero"></path>
                <path d="M253.445,527.07 C253.207518,527.100376 253.039624,527.317518 253.07,527.555 C253.100376,527.792482 253.317518,527.960376 253.555,527.93 C253.792482,527.899624 253.960376,527.682482 253.93,527.445 C253.899624,527.207518 253.682482,527.039624 253.445,527.07 L253.445,527.07 Z" id="Path" fill="#20AB78" fill-rule="nonzero"></path>
                <path d="M592.88603,57.4856434 C589.571118,54.5054177 577.23228,54.2832079 560,56.4007367 C568.681912,61.4723489 585.532714,73.3148248 594.504023,93 C596.858662,74.4650874 596.516648,61.1194274 592.88603,57.4856434 Z" id="Path" fill="#125E42" fill-rule="nonzero"></path>
                <polygon id="Path" fill="#125E42" fill-rule="nonzero" points="584 58.8580858 657 2 590.208831 66"></polygon>
                <circle id="Oval" fill="#125E42" fill-rule="nonzero" cx="656" cy="3" r="3"></circle>
                <path d="M205,383.484481 L232.657026,359 C232.657026,359 245.234451,372.344436 257,383.130204 L228.464551,411" id="Path" stroke="#125E42" stroke-width="1.75"></path>
                <path d="M295,492.587793 L314.765774,600 L372,373 C363.667761,380.865879 313.807433,429.938384 295,492.587793 Z" id="Path" fill="#20AB78" fill-rule="nonzero"></path>
                <path d="M173.745743,348 C213.857359,333.554732 246.884222,305.023332 265,287 C264.894186,287.049663 264.792356,287.107475 264.695422,287.172918 L90,337.37222 L173.745743,348 Z" id="Path" fill="#20AB78" fill-rule="nonzero"></path>
                <path d="M380.297002,203.35011 C391.575039,192.06621 407.404118,186.656069 423.182926,188.692347 C438.961734,190.728625 452.919914,199.982855 461,213.764949 C452.952351,196.506314 436.119288,185.097677 417.193183,184.074805 C398.267079,183.051934 380.315338,192.580606 370.475091,208.87248 C360.634843,225.164353 360.500924,245.578959 370.126576,262 C360.870189,242.250449 364.939789,218.782252 380.297002,203.35011 L380.297002,203.35011 Z" id="Path" fill="#002646" fill-rule="nonzero" opacity="0.7"></path>
                <path d="M453.077496,202 L372,265.200708 C373.670872,267.556492 375.537053,269.767484 377.578787,271.810277 C377.988604,272.220071 378.39842,272.603426 378.821456,273 L459,210.499907 C457.312561,207.477253 455.328626,204.629933 453.077496,202 L453.077496,202 Z" id="Path" fill="url(#linearGradient-22)" fill-rule="nonzero"></path>
                <path d="M450.485956,199.050818 C432.1613,180.676403 403.053645,178.911465 382.657321,194.938039 C362.260997,210.964614 356.989479,239.743262 370.373271,262 L452,200.715371 C451.565535,200.16052 451.052077,199.605669 450.485956,199.050818 Z" id="Path" fill="url(#linearGradient-23)" fill-rule="nonzero"></path>
                <path d="M632.596501,82 C629.241919,92.9073855 631.234871,104.70982 638,114" id="Path" fill="url(#radialGradient-24)" fill-rule="nonzero"></path>
                <path d="M473,1 C476.900451,4.17915309 478.356619,9.6514658 477.927569,14.6677524 C477.49852,19.6840391 475.457284,24.4267101 473.455053,29" id="Path" fill="url(#radialGradient-25)" fill-rule="nonzero"></path>
                <path d="M498.00316,133 C497.898515,140.666629 500.395488,148.146084 505.093865,154.239553 C506.101375,155.720354 507.497762,156.900745 509.132541,157.653518 C510.826777,158.386318 512.805733,157.930712 514,156.532904" id="Path" fill="url(#radialGradient-26)" fill-rule="nonzero"></path>
                <path d="M233,690 C235.878734,703.286957 244.778905,714.433984 257.02911,720.095276 C262.321866,722.472977 269.520013,723.274449 273,718.612553" id="Path" fill="url(#radialGradient-27)" fill-rule="nonzero"></path>
                <path d="M428,399 C447.952141,368.079346 471.441819,339.556166 498,314" id="Path" fill="url(#radialGradient-28)" fill-rule="nonzero"></path>
                <path d="M238,248 C261.443392,230.772632 282.613533,210.610592 301,188" id="Path" fill="url(#radialGradient-29)" fill-rule="nonzero"></path>
                <path d="M56,417 C83.356047,403.887121 108.360918,386.316131 130,365" id="Path" fill="url(#radialGradient-30)" fill-rule="nonzero"></path>
                <path d="M274.009674,534 C269.68805,563.192706 270.022579,592.918849 275,622" id="Path" fill="url(#radialGradient-31)" fill-rule="nonzero"></path>
                <path d="M416,456 C409.116811,467.394558 407.20859,481.14279 410.725693,494" id="Path" fill="url(#radialGradient-32)" fill-rule="nonzero"></path>
                <path d="M184.145777,464 C186.231368,467.716298 186.574705,472.120373 185.088939,476.098188 C183.603593,479.993849 181.553363,483.664641 179,487" id="Path" fill="url(#radialGradient-33)" fill-rule="nonzero"></path>
                <path d="M231,52 C231.448976,60.2674466 237.776273,67.0165642 246,68" id="Path" fill="url(#radialGradient-34)" fill-rule="nonzero"></path>
            </g>
            <g id="Group-2" transform="translate(523.890000, 178.500000)">
                <mask id="mask-36" fill="white">
                    <use xlink:href="#path-35"></use>
                </mask>
                <g id="Rectangle_2855"></g>
                <path d="M58.6494787,13.5 L57.3556964,13.5 C48.376397,13.4993239 39.7646694,17.0126723 33.4153459,23.2670055 C27.0660224,29.5213388 23.5,38.0042291 23.5,46.849192 L23.5,55.7956658 C23.5,56.5133414 23.7896022,57.2015856 24.3050255,57.7088197 C24.8204488,58.2160539 25.5194185,58.5006752 26.2479937,58.5 L33.5526888,58.5 C34.281264,58.5006752 34.9802337,58.2160539 35.4956571,57.7088197 C36.0110804,57.2015856 36.3006828,56.5133414 36.3006825,55.7956658 L36.3006825,46.2960909 C36.3006825,34.764273 45.7910504,25.4158875 57.4980125,25.4158875 L58.5330383,25.4158875 C70.2400004,25.4158875 79.7303683,34.764273 79.7303683,46.2960909 L79.7303683,55.7956658 C79.7303679,56.5133414 80.0199704,57.2015856 80.5353937,57.7088197 C81.050817,58.2160539 81.7497868,58.5006752 82.478362,58.5 L89.7830571,58.5 C91.2881757,58.484627 92.5,57.2783466 92.5,55.7956658 L92.5,46.849192 C92.5,38.0051123 88.9346879,29.5229946 82.5864837,23.2688079 C76.2382795,17.0146212 67.6278814,13.500676 58.6494787,13.5 Z" id="Path_28986" fill="url(#linearGradient-37)" fill-rule="nonzero" mask="url(#mask-36)"></path>
                <path d="M24.7979654,119.533592 C26.1134123,122.553164 29.0577176,124.5 32.307586,124.5 L41.6405718,124.5 C44.7298006,124.5 47.5578781,122.73915 48.9594638,119.941861 L66.0792624,119.941861 C67.4791224,122.738333 70.3053387,124.5 73.3930683,124.5 L82.7285972,124.5 C85.8828866,124.49782 88.7571502,122.659937 90.1237806,119.771318 C95.532989,118.851364 99.4970024,114.095985 99.5,108.523256 L99.5,65.1821731 C99.5010806,63.2033476 98.9925856,61.258673 98.0250305,59.5413465 L98.0250305,59.4870829 C98.0236263,55.0755226 94.5036059,51.5 90.1619263,51.5 L75.0536786,51.5 C73.0055931,51.4983045 71.0383232,52.3117917 69.5734103,53.7661529 L46.4876212,53.7661529 C45.0237924,52.3117126 43.0572604,51.498153 41.009896,51.5 L25.9016482,51.5 C21.5850954,51.5012899 18.0771457,55.0391701 18.0436301,59.4250674 C17.0327953,61.1697947 16.5,63.1575701 16.5,65.1821731 L16.5,108.523256 C16.5020919,113.676123 19.9026286,118.188199 24.7979654,119.533592 L24.7979654,119.533592 Z" id="Path_28987" fill="url(#linearGradient-38)" fill-rule="nonzero" mask="url(#mask-36)"></path>
                <path d="M51.9978628,40.2585841 C51.9978628,38.1827754 50.3194084,36.5 48.248931,36.5 C46.1784536,36.5 44.5,38.1827754 44.5,40.2585841 C44.5,42.3343928 46.1784536,44.0171691 48.248931,44.0171691 C49.2434148,44.0178408 50.1973598,43.6220642 50.9005662,42.9170471 C51.6037726,42.21203 51.9985327,41.2556286 51.9978628,40.2585841 M66.7535936,36.5025319 C65.2368332,36.5015084 63.8689021,37.4168823 63.287991,38.8215986 C62.7070799,40.2263149 63.0276619,41.8435629 64.1001737,42.9188363 C65.1726854,43.9941097 66.7857799,44.3155172 68.1868884,43.7331103 C69.587997,43.1507034 70.50102,41.77925 70.4999991,40.2585841 C70.4986049,38.1847531 68.8220983,36.5039297 66.7535936,36.5025319 M62.7116195,46.471392 C59.7501085,49.1481248 55.2498898,49.1481248 52.2883788,46.471392 C51.8908512,46.1349973 51.2996813,46.1717645 50.9466708,46.5548383 C50.5936604,46.937912 50.6038005,47.5316564 50.9696848,47.9023893 C54.6398636,51.3658702 60.3651872,51.3658702 64.035366,47.9023893 C64.2903326,47.6653159 64.3997791,47.3098777 64.322478,46.9699649 C64.245177,46.6300521 63.9928723,46.3573056 63.6606047,46.2544662 C63.3283372,46.1516269 62.966586,46.2343185 62.7116195,46.471392" id="Path_28981" fill="#56B14E" fill-rule="nonzero" mask="url(#mask-36)"></path>
                <g id="Group_37088" mask="url(#mask-36)" fill-rule="nonzero">
                    <g transform="translate(44.500000, 65.500000)">
                        <path d="M11.5349049,0.0775360401 C6.38829387,0.659573898 2.07908535,4.23695318 0.566846823,9.18289807 C-0.945391704,14.128843 0.628040462,19.4991256 4.5716415,22.8516661 L2.45677675,37.1488163 C2.242663,38.6177448 2.67830726,40.1070845 3.6505833,41.2300902 C4.62285934,42.3530958 6.03584258,42.9989719 7.52261557,43 L18.4800482,43 C19.9677088,42.9993084 21.3815145,42.3526614 22.3535944,41.2283158 C23.3256744,40.1039703 23.7599045,38.6131071 23.5432985,37.1436474 L21.4310223,22.8542506 C25.5765884,19.3280311 27.0806174,13.5953155 25.1988721,8.49281751 C23.3171268,3.39031954 18.4486983,0 13.0026262,0 C12.512281,0 12.0222933,0.0264380262 11.5349049,0.0801204852" id="Path_28989" fill="url(#linearGradient-39)"></path>
                        <path d="M11.5349049,0.0775360401 C6.38829387,0.659573898 2.07908535,4.23695318 0.566846823,9.18289807 C-0.945391704,14.128843 0.628040462,19.4991256 4.5716415,22.8516661 L2.45677675,37.1488163 C2.242663,38.6177448 2.67830726,40.1070845 3.6505833,41.2300902 C4.62285934,42.3530958 6.03584258,42.9989719 7.52261557,43 L18.4800482,43 C19.9677088,42.9993084 21.3815145,42.3526614 22.3535944,41.2283158 C23.3256744,40.1039703 23.7599045,38.6131071 23.5432985,37.1436474 L21.4310223,22.8542506 C25.5765884,19.3280311 27.0806174,13.5953155 25.1988721,8.49281751 C23.3171268,3.39031954 18.4486983,0 13.0026262,0 C12.512281,0 12.0222933,0.0264380262 11.5349049,0.0801204852" id="Path_28991" fill="url(#linearGradient-40)"></path>
                        <path d="M22.3396117,12.9765015 C22.3400811,8.53319478 19.2011217,4.70642392 14.8379371,3.83105352 C10.4747525,2.95568311 6.09882868,5.27476937 4.38009039,9.37334581 C2.66135209,13.4719222 4.07702583,18.2119741 7.76335293,20.7014078 C8.22182174,21.0107085 8.46069278,21.5561161 8.37684491,22.102177 L6.07819142,37.6760431 C6.01574676,38.0950731 6.13898631,38.5204957 6.41582488,38.8415529 C6.69266344,39.1626102 7.09570812,39.3475337 7.520027,39.3481791 L18.4904025,39.3481791 C18.9148787,39.3474157 19.3180826,39.1625675 19.5953092,38.8416366 C19.8725357,38.5207056 19.9964329,38.0953557 19.9348267,37.6760431 L17.6335846,22.102177 C17.5522447,21.5511433 17.7948421,21.0024009 18.2574309,20.69107 C20.8220233,18.9578601 22.3566642,16.0658695 22.3525628,12.973917" id="Path_28990" fill="#002646"></path>
                    </g>
                </g>
            </g>
        </g>
    </g>
</svg>