<svg xmlns="http://www.w3.org/2000/svg" xmlns:xlink="http://www.w3.org/1999/xlink" viewBox="0 0 516.48 601.46"><defs><style>.cls-1{fill:#fff;}.cls-2{isolation:isolate;}.cls-3{fill:url(#radial-gradient);}.cls-4{fill:url(#radial-gradient-2);}.cls-5{fill:url(#radial-gradient-3);}.cls-6{fill:#f7941d;}.cls-7{fill:#fad900;}.cls-8{fill:url(#radial-gradient-4);}.cls-9{fill:url(#radial-gradient-5);}.cls-10{fill:url(#radial-gradient-6);}.cls-11{fill:#e9faec;}.cls-12,.cls-27{fill:#002646;}.cls-13,.cls-16{fill:#0b1726;}.cls-14{fill:url(#radial-gradient-7);}.cls-15,.cls-17{fill:#125e42;}.cls-15{opacity:0.3;}.cls-16{opacity:0.1;}.cls-18,.cls-21,.cls-23,.cls-24{mix-blend-mode:overlay;}.cls-18{fill:url(#radial-gradient-8);}.cls-19{fill:url(#radial-gradient-9);}.cls-20{fill:#20ab78;}.cls-21{fill:url(#radial-gradient-10);}.cls-22{fill:#5ec7a1;}.cls-23{fill:url(#radial-gradient-11);}.cls-24{fill:url(#radial-gradient-12);}.cls-25,.cls-26{fill:none;stroke-miterlimit:10;}.cls-25{stroke:#20ab78;stroke-linecap:round;stroke-width:0.87px;}.cls-26{stroke:#125e42;stroke-width:1.75px;}.cls-27{opacity:0.7;}.cls-28{mask:url(#mask);}.cls-29{fill:#118011;}.cls-30{fill:#13773c;}.cls-31{fill:#39b44a;}.cls-32{fill:url(#radial-gradient-13);}.cls-33{fill:url(#linear-gradient);}.cls-34{fill:url(#linear-gradient-2);}.cls-35{fill:url(#radial-gradient-14);}.cls-36{fill:url(#radial-gradient-15);}.cls-37{fill:url(#radial-gradient-16);}.cls-38{fill:url(#radial-gradient-17);}.cls-39{fill:url(#radial-gradient-18);}.cls-40{fill:url(#radial-gradient-19);}.cls-41{fill:url(#radial-gradient-20);}.cls-42{fill:url(#radial-gradient-21);}.cls-43{fill:url(#radial-gradient-22);}.cls-44{fill:url(#radial-gradient-23);}.cls-45{fill:url(#radial-gradient-24);}</style><radialGradient id="radial-gradient" cx="986.56" cy="-315.2" r="10.89" gradientTransform="matrix(0.55, -0.84, 0.17, 0.11, 21.46, 978.96)" gradientUnits="userSpaceOnUse"><stop offset="0" stop-color="#f7941d"/><stop offset="1" stop-color="#f7941d" stop-opacity="0"/></radialGradient><radialGradient id="radial-gradient-2" cx="1173.59" cy="-6.93" r="19.51" gradientTransform="translate(-965.05 794.47) rotate(-29.95) scale(1 0.2)" gradientUnits="userSpaceOnUse"><stop offset="0.01" stop-color="#fad900"/><stop offset="0.63" stop-color="#f7941d"/><stop offset="1" stop-color="#f7941d" stop-opacity="0"/></radialGradient><radialGradient id="radial-gradient-3" cx="183.46" cy="119.08" r="4.54" gradientTransform="matrix(1, 0, 0, 1, 0, 0)" xlink:href="#radial-gradient-2"/><radialGradient id="radial-gradient-4" cx="136.64" cy="444.71" r="49.59" gradientUnits="userSpaceOnUse"><stop offset="0" stop-color="#fff"/><stop offset="1" stop-color="#fff" stop-opacity="0"/></radialGradient><radialGradient id="radial-gradient-5" cx="92.27" cy="456.16" r="81.2" xlink:href="#radial-gradient-4"/><radialGradient id="radial-gradient-6" cx="65.89" cy="373.61" r="55.67" xlink:href="#radial-gradient-4"/><radialGradient id="radial-gradient-7" cx="4.34" cy="353.61" r="410.67" gradientTransform="translate(106.22 -16.8) rotate(-7.23)" gradientUnits="userSpaceOnUse"><stop offset="0" stop-color="#20ab78"/><stop offset="0" stop-color="#24ad7a"/><stop offset="0.05" stop-color="#4dbd92"/><stop offset="0.1" stop-color="#72cba7"/><stop offset="0.16" stop-color="#92d8ba"/><stop offset="0.22" stop-color="#aee3ca"/><stop offset="0.29" stop-color="#c4ebd6"/><stop offset="0.37" stop-color="#d5f2e0"/><stop offset="0.47" stop-color="#e0f7e7"/><stop offset="0.61" stop-color="#e7f9eb"/><stop offset="1" stop-color="#e9faec"/></radialGradient><radialGradient id="radial-gradient-8" cx="922.6" cy="-78.77" r="133.11" gradientTransform="translate(-450.87 -423.33) rotate(45.02)" xlink:href="#radial-gradient-4"/><radialGradient id="radial-gradient-9" cx="1024.84" cy="-71.09" r="57.61" gradientTransform="translate(-450.87 -423.33) rotate(45.02)" xlink:href="#radial-gradient-4"/><radialGradient id="radial-gradient-10" cx="277.98" cy="126.17" r="63.11" xlink:href="#radial-gradient-4"/><radialGradient id="radial-gradient-11" cx="259" cy="131.95" r="23.55" gradientTransform="translate(106.22 -16.8) rotate(-7.23)" xlink:href="#radial-gradient-4"/><radialGradient id="radial-gradient-12" cx="114.57" cy="258.59" r="61.39" gradientTransform="translate(106.22 -16.8) rotate(-7.23)" xlink:href="#radial-gradient-4"/><mask id="mask" x="252.94" y="135.68" width="122.89" height="137.91" maskUnits="userSpaceOnUse"><circle class="cls-1" cx="313.48" cy="178.03" r="38.93"/></mask><radialGradient id="radial-gradient-13" cx="324.65" cy="176.92" r="13.21" gradientTransform="translate(-8.33 -0.31) rotate(0.53)" gradientUnits="userSpaceOnUse"><stop offset="0"/><stop offset="0.19" stop-color="#030303"/><stop offset="0.32" stop-color="#0c0c0c"/><stop offset="0.44" stop-color="#1c1c1c"/><stop offset="0.55" stop-color="#323232"/><stop offset="0.65" stop-color="#4e4e4e"/><stop offset="0.74" stop-color="#717171"/><stop offset="0.83" stop-color="#9a9a9a"/><stop offset="0.92" stop-color="#c9c9c9"/><stop offset="1" stop-color="#fefefe"/><stop offset="1" stop-color="#fff"/></radialGradient><linearGradient id="linear-gradient" x1="254.29" y1="224.82" x2="314.11" y2="180.22" gradientUnits="userSpaceOnUse"><stop offset="0" stop-color="#e9faec"/><stop offset="1" stop-color="#e9faec" stop-opacity="0"/></linearGradient><linearGradient id="linear-gradient-2" x1="293.99" y1="136.95" x2="314.14" y2="181.93" xlink:href="#linear-gradient"/><radialGradient id="radial-gradient-14" cx="480.17" cy="74.16" r="8.8" gradientTransform="matrix(1, 0, 0, 1, 0, 0)" xlink:href="#radial-gradient-2"/><radialGradient id="radial-gradient-15" cx="359.89" cy="11.81" r="7.73" gradientTransform="matrix(1, 0, 0, 1, 0, 0)" xlink:href="#radial-gradient-2"/><radialGradient id="radial-gradient-16" cx="382.95" cy="109.84" r="8.02" gradientTransform="matrix(1, 0, 0, 1, 0, 0)" xlink:href="#radial-gradient-2"/><radialGradient id="radial-gradient-17" cx="191.25" cy="533.67" r="13.64" gradientTransform="matrix(1, 0, 0, 1, 0, 0)" xlink:href="#radial-gradient-2"/><radialGradient id="radial-gradient-18" cx="350.16" cy="269.65" r="29.5" gradientTransform="matrix(1, 0, 0, 1, 0, 0)" xlink:href="#radial-gradient-2"/><radialGradient id="radial-gradient-19" cx="204.22" cy="164.85" r="23.28" gradientTransform="matrix(1, 0, 0, 1, 0, 0)" xlink:href="#radial-gradient-2"/><radialGradient id="radial-gradient-20" cx="70.67" cy="295.69" r="24.04" gradientTransform="matrix(1, 0, 0, 1, 0, 0)" xlink:href="#radial-gradient-2"/><radialGradient id="radial-gradient-21" cx="450.97" cy="790.28" r="23.43" gradientTransform="matrix(0.99, 0.17, -0.17, 0.99, -104.19, -417.91)" xlink:href="#radial-gradient-2"/><radialGradient id="radial-gradient-22" cx="311.79" cy="359.11" r="10.3" gradientTransform="matrix(1, 0, 0, 1, 0, 0)" xlink:href="#radial-gradient-2"/><radialGradient id="radial-gradient-23" cx="138.1" cy="359.77" r="6.29" gradientTransform="matrix(1, 0, 0, 1, 0, 0)" xlink:href="#radial-gradient-2"/><radialGradient id="radial-gradient-24" cx="180.42" cy="45.69" r="5.86" gradientTransform="matrix(1, 0, 0, 1, 0, 0)" xlink:href="#radial-gradient-2"/></defs><g class="cls-2"><g id="Layer_2" data-name="Layer 2"><g id="rocket"><path class="cls-3" d="M516.45,123.84c.24-.38-.78-1.51-2.53-2.94a3.81,3.81,0,0,1-.88-4.85c2.36-4.07,3.65-7.2,3-7.61s-3,2-5.76,5.82a3.8,3.8,0,0,1-4.79,1.14c-2-1-3.46-1.51-3.71-1.14s.78,1.51,2.53,2.94a3.81,3.81,0,0,1,.88,4.85c-2.36,4.07-3.66,7.2-3,7.6s3-2,5.76-5.82a3.8,3.8,0,0,1,4.79-1.14C514.76,123.73,516.2,124.21,516.45,123.84Z"/><path class="cls-4" d="M47.26,206.86a28.36,28.36,0,0,1,13.05-8.47,84.94,84.94,0,0,1,15.42-3.18"/><path class="cls-5" d="M177.83,116a6.33,6.33,0,0,0,11.26,3.84"/><path class="cls-6" d="M167.46,475.46A148.92,148.92,0,0,0,139.89,525"/><path class="cls-6" d="M150.26,575.35a22.65,22.65,0,0,0,9.23-20.24,30.43,30.43,0,0,1-11.2,17.49,30.8,30.8,0,0,1-18.75,6.13A23.76,23.76,0,0,0,150.26,575.35Z"/><path class="cls-6" d="M118.51,599.73c12.57,2.06,25.77-2.68,35.1-11.34a46.67,46.67,0,0,1-36.45,7.72c-8.42-1.77-15.54-6-22.06-11.46C100,592.7,109.35,598.24,118.51,599.73Z"/><path class="cls-7" d="M34.43,441.78c-3.78,3.92-3.56,10.09-3.08,15.51"/><path class="cls-6" d="M0,478.18a149.36,149.36,0,0,0,30.41,72.08"/><path class="cls-6" d="M24.49,355.16a95.45,95.45,0,0,1,39.57-31.5"/><path class="cls-6" d="M167.68,388.12s-76,56.55-84.08,156c0,0,10.1-24.95,34.94-49.5,28.91-28.56,73.41-59.94,77.13-103.32Z"/><path class="cls-7" d="M170.39,391.6c-2.34,4.14-6,7.33-9.37,10.68A105,105,0,0,0,131,464.48c7.67-8.87,19.78-12.46,28.77-20,5.21-4.36,9.25-9.94,13-15.61,5.86-8.84,11.27-18.2,13.71-28.53"/><path class="cls-8" d="M95.2,501.3l43.66-47.78c14.31-15.66,28.87-31.69,37.45-51.09a24.54,24.54,0,0,0,1.45-13.15l-10.08-1.16S125.19,408.61,95.2,501.3Z"/><path class="cls-6" d="M122.05,350.29S-25,460,94.78,601.46c0,0-68.88-78,56.3-225.54Z"/><path class="cls-7" d="M120.78,356.84c-15.37,14.31-29.07,30.6-39,49.12s-15.92,39.32-15.65,60.32c5.94-10.64,16.71-17.47,26-25.38,21.64-18.44,36-43.81,49.85-68.61"/><path class="cls-9" d="M85.8,426c9.68-15.71,22-29.65,35.05-42.69,6.05-6.05,12.48-12.26,15.9-20l-14.7-13S1.62,440.09,67.5,562c-4.59-22.56-7.13-45.53-4.75-68.36A161.4,161.4,0,0,1,85.8,426Z"/><path class="cls-6" d="M102.52,308.43S-28.1,363.1,38.86,513.51c0,0-12.61-66.09,24-108.44,21.22-24.52,33.48-44.33,54-70.1Z"/><path class="cls-7" d="M104,313.21c-15.13,10.23-29.52,21.88-40.69,36.32s-19,31.91-19.78,50.15a86.74,86.74,0,0,1,26.1-23.07A6.72,6.72,0,0,0,68.16,382a168.35,168.35,0,0,0,48.38-56.47"/><path class="cls-10" d="M104.43,327.71a52.15,52.15,0,0,0,5.63-5.4l-7.54-13.88s-68,28.47-80.72,100.83a112.74,112.74,0,0,0,2.85,29.52A286.13,286.13,0,0,1,104.43,327.71Z"/><polygon class="cls-11" points="277.78 312.48 288.44 403.97 270.88 429.99 221.93 364.02 277.78 312.48"/><polygon class="cls-11" points="167.34 225.72 90.53 212.31 67.7 225.89 121.1 270.44 167.34 225.72"/><polygon class="cls-12" points="160.85 366.88 131.79 339.35 178.46 305.34 192.28 318.43 160.85 366.88"/><ellipse class="cls-12" cx="146" cy="353.45" rx="4.19" ry="20.95" transform="translate(-211.02 216.4) rotate(-46.56)"/><polygon class="cls-12" points="148.28 383.69 115.69 352.82 168.02 314.68 183.52 329.37 148.28 383.69"/><ellipse class="cls-12" cx="131.62" cy="368.63" rx="4.7" ry="23.49" transform="translate(-226.53 210.71) rotate(-46.56)"/><path class="cls-13" d="M148.68,384.78c.36-.38.39-1,.14-1.93l9.76-15.05c1.28.47,2.19.52,2.63.06s.35-.93.12-1.72l12.51-19.28c-.5-.77-1-1.52-1.57-2.22a74.47,74.47,0,0,0-19.57-17.8c-.63-.4-1.32-.84-2-1.25l-12.76,9.3a9.26,9.26,0,0,0,1.77,4.1c1.89,2.64,4.43,4.76,6.34,7.38a21,21,0,0,1,1.47,21.74c-1.46,2.77-3.53,5.2-5,8a12.79,12.79,0,0,0-1.6,6.06C144.82,384.68,147.75,385.77,148.68,384.78Z"/><polygon class="cls-12" points="202.78 384.51 168.82 370.09 198.19 325.69 214.34 332.56 202.78 384.51"/><ellipse class="cls-12" cx="185.63" cy="377.7" rx="3.86" ry="19.31" transform="translate(-234.58 400.84) rotate(-66.98)"/><polygon class="cls-12" points="197.32 403.07 159.24 386.9 192.18 337.13 210.29 344.82 197.32 403.07"/><ellipse class="cls-12" cx="178.09" cy="395.43" rx="4.33" ry="21.65" transform="translate(-255.49 404.7) rotate(-66.98)"/><path class="cls-13" d="M198,403.89c.18-.44,0-1-.5-1.7L201.11,386c1.25,0,2.06-.25,2.29-.78a1.67,1.67,0,0,0-.45-1.52l5.26-23.61a43.17,43.17,0,0,0-8.07-7.26,40.22,40.22,0,0,0-15.7-6.39L174,362.33c3,2.73,6.8,4.51,10.4,6.45,4,2.15,8,4.74,10.13,8.72,3.1,5.76,1.53,12.91-1,18.95-1,2.55-2.26,5.31-1.6,8C195.3,405,197.59,404.9,198,403.89Z"/><polygon class="cls-12" points="116.43 299.57 131.93 329.42 170.2 299.6 162.83 285.41 116.43 299.57"/><ellipse class="cls-12" cx="123.83" cy="314.68" rx="3.52" ry="17.6" transform="translate(-131.12 92.51) rotate(-27.45)"/><polygon class="cls-12" points="99.94 305.84 117.33 339.3 160.24 305.87 151.97 289.95 99.94 305.84"/><ellipse class="cls-12" cx="108.25" cy="322.77" rx="3.95" ry="19.73" transform="translate(-136.6 86.24) rotate(-27.45)"/><path class="cls-13" d="M148.6,315.72a35.46,35.46,0,0,0-15.06-16.63L130.83,298c1.38,5.63-1,11.69-4.88,16s-9.13,7.12-14.39,9.56a43.5,43.5,0,0,0-5.8,3c4.75,8.67,9.78,14.73,11.58,13.79.39-.2.59-.72.64-1.49l11.9-9.27c.88.72,1.59,1,2.06.77s.53-.64.57-1.32l16.31-12.71C148.74,316.08,148.67,315.9,148.6,315.72Z"/><path class="cls-14" d="M397.9,202.84C433.79,167,458.58,53.72,448.24,43.37c-9.85-8.9-123.62,14.36-159.51,50.21l-1,1h0l-.54.57L286,96.4,143.38,247.49l11.9,11.91-34.73,21.46c-1.57-.31-2.73-.15-3.41.53-4.39,4.38,7.21,36,32.84,61.63s55.59,35.65,60,31.26c.68-.68.84-1.84.53-3.41L232,336.16l11.89,11.91L395.08,205.56l1.29-1.22.57-.54h0Z"/><circle class="cls-15" cx="313.64" cy="182.55" r="52.39"/><path class="cls-16" d="M239.4,314A996.59,996.59,0,0,0,358.71,205c18.29-19.59,34.45-40.57,50.11-62.28,15.13-21,29.77-42.63,38.68-67.1a4,4,0,0,1,1.51-2A126,126,0,0,0,450.58,53c-4.81,10.86-9.6,21.73-15,32.32a375.17,375.17,0,0,1-26.84,44c-34.24,49.31-77.18,90.94-120.28,132.36-34.92,33.56-70.17,67.72-110.5,94.69h0A681.37,681.37,0,0,0,239.4,314Z"/><path class="cls-16" d="M410.41,155.34a595.43,595.43,0,0,1-52.52,63.11C339,238.1,319.21,257.06,299,275.37c-35.44,32.08-73.17,61.66-113.86,86.74,12.68,9.79,22.24,14.76,24.83,12.17.68-.68.84-1.84.53-3.41L232,336.16l11.89,11.91L395.08,205.56l1.29-1.22.57-.54h0l1-.95c18.86-18.84,34.66-59.06,43.9-94.49C432.56,124.75,421.46,140.16,410.41,155.34Z"/><path class="cls-17" d="M318.94,174.83c-21.43-20.82-45.17-35.49-66.68-42.67l-1.35,1.43c21.41,7,45.22,21.66,66.74,42.57,20.28,19.69,35.05,41.58,43.08,61.77l1.39-1.31C354,216.32,339.17,194.47,318.94,174.83Z"/><path class="cls-18" d="M394.15,47.76c-23,5.18-49.33,13.34-71.14,23.62-42.27,34.22-97.92,91.4-170.23,185.52l2.5,2.5-8.37,5.17Q135.08,280.11,122.64,297c5.13,7.82,13.16,17.82,23.07,28.52C164.42,289,260.3,112.18,394.15,47.76Z"/><polygon class="cls-19" points="384.91 197.54 269.4 312 280.47 287.47 384.91 197.54"/><polygon class="cls-17" points="216.17 212.5 116.37 286.95 25.93 266.98 216.17 212.5"/><ellipse class="cls-17" cx="166.41" cy="248.77" rx="64.3" ry="7.48" transform="translate(-115.72 148.86) rotate(-36.72)"/><polygon class="cls-17" points="285.67 264.61 208.66 375.4 233.56 472.62 285.67 264.61"/><ellipse class="cls-17" cx="248.19" cy="319.82" rx="69.67" ry="8.11" transform="translate(-156.08 341.08) rotate(-55.2)"/><circle class="cls-20" cx="313.48" cy="178.03" r="52.39"/><path class="cls-21" d="M277.89,145.59a52.41,52.41,0,0,1,86.24,19.08A52.39,52.39,0,1,0,264.27,196,52.36,52.36,0,0,1,277.89,145.59Z"/><circle class="cls-12" cx="313.48" cy="178.03" r="38.93"/><circle class="cls-22" cx="365.94" cy="125.61" r="2.04"/><circle class="cls-22" cx="424.42" cy="67.66" r="1.7"/><circle class="cls-17" cx="434.62" cy="55.81" r="0.87"/><circle class="cls-17" cx="428.72" cy="50.15" r="0.87"/><circle class="cls-17" cx="440.14" cy="61.24" r="0.87"/><circle class="cls-17" cx="445.18" cy="69.08" r="0.87"/><circle class="cls-17" cx="421.77" cy="45.85" r="0.87"/><circle class="cls-22" cx="436.44" cy="82.1" r="1.7"/><circle class="cls-22" cx="394.59" cy="56.58" r="1.7"/><circle class="cls-22" cx="378.23" cy="62.35" r="1.7"/><circle class="cls-22" cx="364.28" cy="68.6" r="1.7"/><circle class="cls-22" cx="409.99" cy="55.62" r="1.7"/><circle class="cls-22" cx="345.98" cy="111.41" r="2.04"/><circle class="cls-22" cx="321.45" cy="100.33" r="2.04"/><circle class="cls-22" cx="297.87" cy="96.95" r="2.04"/><circle class="cls-22" cx="380.6" cy="146.06" r="2.04"/><circle class="cls-22" cx="390.7" cy="169.64" r="2.04"/><circle class="cls-22" cx="394.06" cy="193.22" r="2.04"/><path class="cls-22" d="M322.41,89.75l0,0a.68.68,0,0,1,.07-1c42-36.26,85.09-42.88,85.52-42.94a.68.68,0,0,1,.77.57.67.67,0,0,1-.57.77c-.43.07-43.13,6.65-84.83,42.63A.68.68,0,0,1,322.41,89.75Z"/><path class="cls-22" d="M385.92,90.14a135.94,135.94,0,0,0-36.23-20.55,3.69,3.69,0,0,1-1.31.88.68.68,0,0,0,.29.21,132,132,0,0,1,36.41,20.53c15.5,12.24,34.42,33.07,40.9,64.72.3-.73.61-1.47.91-2.21C420,122.76,401.28,102.27,385.92,90.14Z"/><path class="cls-20" d="M408.19,44.88q-2.34.42-4.74.9a98.57,98.57,0,0,1,42.83,43.35c.33-1.62.64-3.21.93-4.78a101.8,101.8,0,0,0-39-39.47Z"/><path class="cls-17" d="M371.72,119.84c26.53,26.56,36.71,61,26.27,82.91,1.62-1.62,3.24-3.39,4.85-5.28,6.49-22.86-4.3-54.64-29.2-79.56S317,82.18,294.11,88.65c-1.89,1.61-3.66,3.22-5.29,4.85C310.78,83.07,345.18,93.28,371.72,119.84Z"/><circle class="cls-17" cx="346.37" cy="146.13" r="2.62"/><circle class="cls-17" cx="283.02" cy="212.77" r="2.62"/><circle class="cls-17" cx="347.53" cy="209.95" r="2.62"/><circle class="cls-17" cx="280.84" cy="146.89" r="2.62"/><circle class="cls-17" cx="315.49" cy="224.58" r="2.62"/><circle class="cls-17" cx="314.14" cy="132.94" r="2.62"/><circle class="cls-17" cx="268" cy="180.25" r="2.62"/><circle class="cls-17" cx="359.34" cy="178.17" r="2.62"/><path class="cls-15" d="M164.65,228.32c-17.74,1.48-67.26,6.05-84.84,7.68l21.41,17.86,60.2-22.42Z"/><polygon class="cls-15" points="266.13 423.6 270.68 319.03 266.71 322.69 242.64 391.94 266.13 423.6"/><path class="cls-17" d="M180.83,317.32c-17.27-15.73-30.43-33.27-38.51-49.92l-1.38.86c8.17,16.83,21.41,34.48,38.76,50.3a178.71,178.71,0,0,0,44.53,30.11l.86-1.39A177.72,177.72,0,0,1,180.83,317.32Z"/><path class="cls-17" d="M175.29,324.47c-17.27-15.73-30.43-33.27-38.51-49.92l-1.38.86c8.17,16.83,21.41,34.48,38.76,50.3a178.71,178.71,0,0,0,44.53,30.11l.86-1.39A177.54,177.54,0,0,1,175.29,324.47Z"/><path class="cls-23" d="M365.75,55.27c-1.29,14,1.51,34.32,19.58,56.8,0,0-4.86-34.52,2.58-62.85C380.7,51,373.23,53,365.75,55.27Z"/><path class="cls-24" d="M239.58,145.59l-25.93,27.47c2.87,33.82,19.33,82.71,79.65,128.43l.93-.88C278.31,283.06,231.35,224,239.58,145.59Z"/><polygon class="cls-15" points="204.6 265.46 198.88 274.92 222.81 263.75 204.6 265.46"/><polygon class="cls-15" points="265.91 235.12 253.18 278.23 232.43 301.25 233.02 277.15 265.91 235.12"/><polygon class="cls-20" points="266.81 233.67 247.11 276.49 224.72 298.86 230.52 271.47 266.81 233.67"/><polygon class="cls-20" points="260.64 227.5 217.8 247.16 195.41 269.53 222.81 263.75 260.64 227.5"/><path class="cls-25" d="M100.92,306a85.81,85.81,0,0,0,16.71,31.3"/><path class="cls-25" d="M117.61,353.48a73,73,0,0,0,31,28.34"/><path class="cls-25" d="M160.45,386.72a91.06,91.06,0,0,0,34.42,15.46"/><path class="cls-25" d="M131.81,342.5c6.65,10,14.27,20.18,25.3,24.94"/><path class="cls-25" d="M115.49,302.49A63.35,63.35,0,0,0,130.11,328"/><path class="cls-25" d="M170.67,372.49c9.43,5.36,19.13,10.82,29.86,12.43"/><path class="cls-20" d="M103.75,308.15a.43.43,0,0,0,.11.86A.43.43,0,0,0,103.75,308.15Z"/><path class="cls-20" d="M106.76,314.78a.21.21,0,0,0,0,.41A.21.21,0,0,0,106.76,314.78Z"/><path class="cls-20" d="M111,322.89c-.29,0-.23.49.06.46A.23.23,0,0,0,111,322.89Z"/><path class="cls-20" d="M116.45,329.19a.29.29,0,0,0,.08.58A.29.29,0,0,0,116.45,329.19Z"/><path class="cls-20" d="M122.2,355.27a.32.32,0,0,0,.08.64A.32.32,0,0,0,122.2,355.27Z"/><path class="cls-20" d="M127.75,362.69a.33.33,0,0,0,.09.66A.33.33,0,0,0,127.75,362.69Z"/><path class="cls-20" d="M135.39,369.49a.43.43,0,0,0,.11.85A.43.43,0,0,0,135.39,369.49Z"/><path class="cls-20" d="M145.29,377a.33.33,0,0,0,.09.65A.33.33,0,0,0,145.29,377Z"/><path class="cls-20" d="M165,386.61a.43.43,0,0,0,.11.86A.43.43,0,0,0,165,386.61Z"/><path class="cls-20" d="M173.44,391.59a.35.35,0,0,0,.09.69A.35.35,0,0,0,173.44,391.59Z"/><path class="cls-20" d="M182.33,395.38a.31.31,0,0,0,.08.62A.31.31,0,0,0,182.33,395.38Z"/><path class="cls-20" d="M191.89,398.11a.43.43,0,0,0,.11.86A.43.43,0,0,0,191.89,398.11Z"/><path class="cls-17" d="M448.24,43.37c-2.52-2.28-11.9-2.45-25-.83,6.6,3.88,19.41,12.94,26.23,28C451.26,56.36,451,46.15,448.24,43.37Z"/><polygon class="cls-17" points="441.68 45.01 496.94 1.94 446.38 50.42 441.68 45.01"/><circle class="cls-17" cx="496.35" cy="2.37" r="2.37"/><path class="cls-26" d="M155.57,289.78l20.78-18.66s9.45,10.17,18.29,18.39L173.2,310.75"/><path class="cls-20" d="M223.41,372.63l14.85,81.25,43-171.71C275,288.12,237.54,325.24,223.41,372.63Z"/><path class="cls-20" d="M131.45,262.86C161.74,252,186.68,230.55,200.36,217a1.71,1.71,0,0,0-.23.13L68.21,254.87Z"/><path class="cls-27" d="M287.59,153.58a39,39,0,0,1,61.1,7.84,38.94,38.94,0,1,0-68.8,36.31A38.94,38.94,0,0,1,287.59,153.58Z"/><g class="cls-28"><path class="cls-29" d="M365.2,185.64h-5.59l0-5a45.21,45.21,0,0,0-90.42,0v5h-5.59a10.59,10.59,0,0,0-10.62,10.57v41.27c0,2.75.17,4.74,1.25,6.2s3,2,5.79,2h9l1.37,21.74v.24a6.43,6.43,0,0,0,.79,3.17,5,5,0,0,0,4.67,2.4h22.85l11.86-12.59h8.87l11.47,13h20.5c1.76,0,3.38,0,4.78-.85s2.24-2.64,2.64-5.66c.55-4.07.7-14.71.94-20.25h0l.08-1.18h9c2.8,0,4.67-.52,5.79-2s1.24-3.45,1.25-6.2V196.21A10.6,10.6,0,0,0,365.2,185.64Z"/><path class="cls-30" d="M359.8,245.65h9a11.43,11.43,0,0,0,3.5-.44v2.59a8.68,8.68,0,0,1-8.62,8.73h-4.56Z"/><path class="cls-31" d="M365.2,187.05h-7v-6.41a43.08,43.08,0,0,0-1.26-10.35l0,0a43.81,43.81,0,0,0-86.32,10.31v6.41h-7a9.2,9.2,0,0,0-9.21,9.16v41.27c0,2.69.25,4.43,1,5.35s2,1.41,4.66,1.42h10.31l1.47,23.13v.06a1.31,1.31,0,0,0,0,.19,5.11,5.11,0,0,0,.61,2.46,3.57,3.57,0,0,0,3.44,1.7H298L309.9,259.2H320l11.47,13h19.86c1.79,0,3.13,0,4-.62s1.62-1.78,2-4.66c.52-3.88.71-14,.92-19.72l.19-2.93h10.31c2.68,0,4-.5,4.65-1.42s1-2.66,1-5.35V196.21A9.19,9.19,0,0,0,365.2,187.05Z"/><rect class="cls-29" x="269.83" y="243.11" width="89.27" height="2.78"/><polygon class="cls-29" points="269.15 244.67 269.15 186.87 270.57 186.87 270.57 244.67 269.15 244.67 269.15 244.67"/><polygon class="cls-29" points="358.19 244.73 358.19 186.94 359.61 186.94 359.61 244.73 358.19 244.73 358.19 244.73"/><path class="cls-1" d="M342.17,188v-8.15a27.79,27.79,0,0,0-55.58,0V188Z"/><rect class="cls-1" x="305.05" y="219.01" width="18.65" height="13.93"/><path class="cls-1" d="M307.9,217.59a6.72,6.72,0,0,1,13,0h2.21a8.89,8.89,0,0,0-17.45,0Z"/><path class="cls-30" d="M269,245.65h-9a11.5,11.5,0,0,1-3.51-.44v2.59a8.68,8.68,0,0,0,8.62,8.73h4.57Z"/><path d="M318.42,165.69a5.13,5.13,0,1,0,5.09-5.15A5.13,5.13,0,0,0,318.42,165.69Z"/><path d="M300.15,165.81a5.13,5.13,0,1,0,5.1-5.16A5.13,5.13,0,0,0,300.15,165.81Z"/><path class="cls-32" d="M328.26,178.81a28,28,0,0,1-27.76-.22l1.46-2.5a25.17,25.17,0,0,0,24.89.18Z"/></g><path class="cls-33" d="M343.05,152.73l-61.33,47.81a38.94,38.94,0,0,0,4.22,5c.31.31.62.6.94.9l60.65-47.28A39.49,39.49,0,0,0,343.05,152.73Z"/><path class="cls-34" d="M341,150.51a38.93,38.93,0,0,0-60.85,47.65l62-46.39C341.82,151.35,341.43,150.93,341,150.51Z"/><path class="cls-35" d="M478.77,62a28.16,28.16,0,0,0,4,24.35"/><path class="cls-36" d="M358,1.05c3,2.44,4.12,6.64,3.79,10.49s-1.9,7.49-3.44,11"/><path class="cls-37" d="M376.87,100.26a26.27,26.27,0,0,0,5.39,16.3,7.53,7.53,0,0,0,3.07,2.62,3.18,3.18,0,0,0,3.7-.86"/><path class="cls-38" d="M176.14,521.69a32.39,32.39,0,0,0,18.16,22.53c4,1.78,9.44,2.38,12.07-1.11"/><path class="cls-39" d="M323.75,302a361.59,361.59,0,0,1,52.82-64.59"/><path class="cls-40" d="M180.3,187.47a259.7,259.7,0,0,0,47.84-45.25"/><path class="cls-41" d="M42.8,315.17a206.79,206.79,0,0,0,55.73-39"/><path class="cls-42" d="M207.79,403.56a203.84,203.84,0,0,0,.77,66.27"/><path class="cls-43" d="M314.46,344.79a36.47,36.47,0,0,0-4,28.63"/><path class="cls-44" d="M139.3,351.23a11,11,0,0,1,.68,9,32.54,32.54,0,0,1-4.39,8.11"/><path class="cls-45" d="M174.75,39.64a12.89,12.89,0,0,0,11.34,12.1"/></g></g></g></svg>