<svg xmlns="http://www.w3.org/2000/svg" xmlns:xlink="http://www.w3.org/1999/xlink" viewBox="0 0 944.63 689.89"><defs><style>.cls-1{opacity:0.87;}.cls-2{fill:#001b31;}.cls-3{opacity:0.1;fill:url(#radial-gradient);}.cls-4{fill:url(#linear-gradient);}.cls-16,.cls-5,.cls-6,.cls-9{fill:#cae5e8;}.cls-12,.cls-15,.cls-18,.cls-22,.cls-23,.cls-5{opacity:0.3;}.cls-10,.cls-19,.cls-27,.cls-6,.cls-7{opacity:0.5;}.cls-7{fill:url(#linear-gradient-2);}.cls-8{fill:url(#linear-gradient-3);}.cls-10,.cls-17,.cls-18,.cls-20{fill:#fff;}.cls-11,.cls-12,.cls-13{fill:#017e8b;}.cls-11,.cls-20,.cls-21{opacity:0.2;}.cls-14,.cls-15{fill:#01c8db;}.cls-16{opacity:0.4;}.cls-19{fill:#e9faec;}.cls-21{fill:url(#radial-gradient-2);}.cls-22{fill:url(#radial-gradient-3);}.cls-23{fill:url(#radial-gradient-4);}.cls-24{fill:url(#radial-gradient-5);}.cls-25{fill:url(#radial-gradient-6);}.cls-26{fill:url(#radial-gradient-7);}.cls-27{fill:url(#radial-gradient-8);}</style><radialGradient id="radial-gradient" cx="377.46" cy="663.8" r="691.27" gradientUnits="userSpaceOnUse"><stop offset="0" stop-color="#fff"/><stop offset="1" stop-color="#fff" stop-opacity="0"/></radialGradient><linearGradient id="linear-gradient" x1="352.04" y1="317.81" x2="143.54" y2="566.18" gradientUnits="userSpaceOnUse"><stop offset="0" stop-color="#336874"/><stop offset="1" stop-color="#336874" stop-opacity="0"/></linearGradient><linearGradient id="linear-gradient-2" x1="328.03" y1="574.65" x2="225.52" y2="300.56" gradientUnits="userSpaceOnUse"><stop offset="0" stop-color="#0095d5"/><stop offset="1" stop-color="#00ca8b"/></linearGradient><linearGradient id="linear-gradient-3" x1="750.1" y1="570.21" x2="307.22" y2="619.81" xlink:href="#linear-gradient-2"/><radialGradient id="radial-gradient-2" cx="686.28" cy="-239.84" r="13.56" gradientTransform="matrix(0.93, -0.36, 0.36, 0.93, 314.74, 992.54)" gradientUnits="userSpaceOnUse"><stop offset="0.01" stop-color="#fad900"/><stop offset="0.63" stop-color="#f7941d"/><stop offset="1" stop-color="#f7941d" stop-opacity="0"/></radialGradient><radialGradient id="radial-gradient-3" cx="941.57" cy="-180.28" r="10.89" gradientTransform="translate(-670.04 -361.93) rotate(47.4)" xlink:href="#radial-gradient-2"/><radialGradient id="radial-gradient-4" cx="136.74" cy="-2107.5" r="10.89" gradientTransform="translate(1681.62 1994.51) rotate(-28.01)" xlink:href="#radial-gradient-2"/><radialGradient id="radial-gradient-5" cx="1581.83" cy="440.68" r="27.84" gradientTransform="translate(-460.72 -733.85) rotate(31.57)" xlink:href="#radial-gradient-2"/><radialGradient id="radial-gradient-6" cx="1132.54" cy="-417.95" r="10.89" gradientTransform="translate(-670.04 -361.93) rotate(47.4)" xlink:href="#radial-gradient-2"/><radialGradient id="radial-gradient-7" cx="561.36" cy="-275.22" r="5.62" gradientTransform="matrix(0.99, 0.15, -0.15, 0.99, -98.47, 312.45)" xlink:href="#radial-gradient-2"/><radialGradient id="radial-gradient-8" cx="1650.58" cy="-431.28" r="15.57" gradientTransform="translate(-1088.63 -479.87) rotate(32.11)" xlink:href="#radial-gradient-2"/></defs><g id="Layer_2" data-name="Layer 2"><g id="Bk-circle"><g class="cls-1"><circle class="cls-2" cx="500.18" cy="344.92" r="344.92"/></g><circle class="cls-3" cx="500.18" cy="344.94" r="344.92"/></g><g id="Earth"><circle class="cls-4" cx="215" cy="481.06" r="208.83"/></g><g id="Earth-clouds"><path class="cls-5" d="M119.69,334.78c4.72-1.61,8.76-1.72,10.92,1.18,2.37,3.18.07,7.91-3.19,10.17-7.83,5.41-13.42,6.65-18.19,15.57-3.33,6.22-9.78,16.52-18.43,11.88-4.18-2.23-11.88.89-15.08-3.17C69.09,362,86.78,354,92,351,96.52,348.48,109.64,338.22,119.69,334.78Z"/><path class="cls-6" d="M234,260.19c26.18,2,50.68,13.12,74.55,24.05,1.4.65,3,1.63,3,3.17-.08,2-2.72,2.59-4.71,2.53-20.61-.58-40.92-9.06-61.33-6.09-10.68,1.55-22.08,6.62-33.35,5.23-10.82-1.34-18.54-13.48-29-13.08-9,.34-18.26-5.36-8.91-14,7.33-6.76,15.41-2.68,24-1.85C210.11,261.31,222,259.27,234,260.19Z"/><path class="cls-5" d="M69.23,263.44c31.59-14.24,67-16.89,101.55-19.34,2-.14,4.53,0,5.44,1.79,1.17,2.35-1.52,4.73-3.85,5.92-24.24,12.36-53.13,15.4-74.87,31.75-11.38,8.56-21.37,21.63-35.3,27.16-13.37,5.3-30-3.87-41.87,3.22C10.19,320-4.21,319.29,1.16,303.39,5.38,290.92,17.31,290.54,27.81,286,42.34,279.82,54.8,269.94,69.23,263.44Z"/></g><g id="clouds"><path class="cls-7" d="M344,415.79a148,148,0,0,0-77.3-21c-11.73,46.72-20,67.34-47.36,91.34,22.5-34.12,28.13-66,28.54-89.87a.36.36,0,0,0,0-.1v0h0a82.78,82.78,0,0,0-91.81-75.64q-.85,12.12-.87,24.44A343.89,343.89,0,0,0,182,478.38,442.46,442.46,0,0,0,224.28,552a346.15,346.15,0,0,0,136,108.3A148.83,148.83,0,0,0,344,415.79Z"/><path class="cls-8" d="M784.35,496.65a66,66,0,0,0-59.8,36.63c2.47,11.8,3.57,23.78-.06,35.11-1.8-11.17-3.87-22.87-9.11-32.68a90.61,90.61,0,0,0-48.91,2.5c28.31,63.3-10.24,100.44-10.24,100.44,22.31-40.43,2.31-89.1-.75-95.82l-.08-.11a127.32,127.32,0,0,0-150.11-30.27A71.47,71.47,0,0,0,411,554.82a80.92,80.92,0,0,0-74.77,93.59,343.86,343.86,0,0,0,160.64,41.46c135.53,1.41,253.64-75.45,311.36-188.49A65.93,65.93,0,0,0,784.35,496.65Z"/><circle class="cls-6" cx="768.08" cy="517.22" r="2.5"/><circle class="cls-9" cx="610.14" cy="628.84" r="2.5"/><circle class="cls-9" cx="594.71" cy="566.24" r="3.88"/><path class="cls-10" d="M526.19,577.6A37,37,0,0,1,475.44,623a37,37,0,1,0,50.75-45.38Z"/></g><g id="stars-bk"><circle class="cls-9" cx="240.89" cy="210.99" r="7.34"/><circle class="cls-11" cx="812.4" cy="624.83" r="14.47"/><circle class="cls-12" cx="881.85" cy="130.91" r="3.61"/><circle class="cls-9" cx="775.37" cy="438.67" r="1.59"/><circle class="cls-13" cx="228.98" cy="169.29" r="3.97"/><circle class="cls-14" cx="724.57" cy="386.93" r="1.43"/><circle class="cls-14" cx="792.82" cy="480.94" r="3.61"/><circle class="cls-15" cx="427.19" cy="27.82" r="1.8"/><circle class="cls-9" cx="209.62" cy="102.28" r="2.23"/><circle class="cls-9" cx="693.83" cy="499.66" r="2.78"/><circle class="cls-9" cx="520.55" cy="535.45" r="2.78"/><circle class="cls-16" cx="873.74" cy="79.65" r="3.19"/><circle class="cls-17" cx="534.95" cy="81.2" r="1.97"/><circle class="cls-17" cx="305.23" cy="240.67" r="0.87"/><circle class="cls-17" cx="171.88" cy="142.23" r="0.87"/><circle class="cls-17" cx="451.71" cy="196.15" r="0.87"/><circle class="cls-17" cx="426.55" cy="147.94" r="0.87"/><circle class="cls-10" cx="138.96" cy="62.11" r="0.87"/><circle class="cls-18" cx="204.72" cy="9.32" r="0.87"/><circle class="cls-17" cx="401.68" cy="102.27" r="0.87"/><circle class="cls-10" cx="376.5" cy="131.41" r="0.87"/><circle class="cls-10" cx="309.79" cy="206.22" r="0.87"/><circle class="cls-19" cx="903.66" cy="462.38" r="3.06"/><circle class="cls-14" cx="573.83" cy="81.56" r="3.47"/><circle class="cls-13" cx="893.78" cy="411.73" r="0.93"/><circle class="cls-10" cx="442.02" cy="226.2" r="0.87"/><circle class="cls-10" cx="902.06" cy="550.41" r="0.87"/><circle class="cls-10" cx="939.85" cy="518.62" r="0.87"/><circle class="cls-18" cx="943.75" cy="98.45" r="0.87"/><circle class="cls-10" cx="101.2" cy="161.31" r="0.87"/><circle class="cls-20" cx="55.66" cy="181.69" r="0.87"/><circle class="cls-18" cx="36.58" cy="107.69" r="0.87"/><path class="cls-21" d="M881.16,520.6c-.1-.24-.57-.33-1.34-.27A11.18,11.18,0,0,1,869,514.46c-1.61-3.12-3-5-3.59-4.74s-.41,2.53.46,5.93a11.16,11.16,0,0,1-4.21,11.59c-.61.47-.91.85-.82,1.1s.57.33,1.34.27A11.18,11.18,0,0,1,873,534.48c1.61,3.12,3,5,3.59,4.74s.41-2.53-.46-5.93a11.16,11.16,0,0,1,4.21-11.59C881,521.23,881.25,520.85,881.16,520.6Z"/><path class="cls-22" d="M106,215.51c.15-.14.07-.53-.2-1.08a9,9,0,0,1,1.14-9.84c1.85-2.13,2.84-3.7,2.47-4.09s-2,.45-4.29,2.11a9,9,0,0,1-9.89.32c-.54-.32-.91-.43-1.07-.29s-.07.53.2,1.08a9,9,0,0,1-1.14,9.84c-1.85,2.13-2.83,3.7-2.47,4.09s2-.45,4.29-2.11a9,9,0,0,1,9.9-.32C105.43,215.54,105.8,215.65,106,215.51Z"/><path class="cls-23" d="M820.26,65.57c-.1-.18-.49-.2-1.1-.08a9,9,0,0,1-9.23-3.58c-1.6-2.33-2.87-3.68-3.34-3.42s-.07,2.06,1,4.68a9,9,0,0,1-2.19,9.66c-.44.43-.64.77-.54,1s.49.21,1.1.09a9,9,0,0,1,9.23,3.58c1.6,2.32,2.86,3.67,3.34,3.42s.07-2.06-1-4.68a9,9,0,0,1,2.18-9.66C820.15,66.09,820.35,65.76,820.26,65.57Z"/></g><g id="stars-front"><path class="cls-24" d="M675.35,481.45c.28-.46-.18-1.34-1.23-2.52a22.92,22.92,0,0,1-4-25c3-6.54,4.38-11.07,3.2-11.8s-4.62,2.52-9.07,8.2A22.94,22.94,0,0,1,640.07,458c-1.53-.41-2.53-.42-2.81,0s.18,1.34,1.23,2.52a22.92,22.92,0,0,1,4,25c-3,6.53-4.38,11.07-3.2,11.79s4.62-2.51,9.07-8.19a22.94,22.94,0,0,1,24.13-7.68C674.07,481.9,675.07,481.91,675.35,481.45Z"/><path class="cls-25" d="M410.16,195.18c.16-.14.08-.52-.19-1.08a9,9,0,0,1,1.14-9.83c1.85-2.14,2.83-3.7,2.47-4.1s-2,.45-4.29,2.11a9,9,0,0,1-9.9.32c-.53-.32-.9-.43-1.06-.28s-.08.52.2,1.08a9,9,0,0,1-1.15,9.83c-1.84,2.14-2.83,3.7-2.46,4.1s2-.45,4.29-2.11a8.94,8.94,0,0,1,9.89-.32C409.64,195.22,410,195.33,410.16,195.18Z"/><path class="cls-26" d="M501.65,123.19c0-.1-.14-.23-.43-.37a4.64,4.64,0,0,1-2.74-4.32c0-1.46-.06-2.4-.34-2.45s-.66.84-1,2.25a4.65,4.65,0,0,1-3.88,3.34c-.31,0-.5.12-.52.23s.14.23.43.37a4.64,4.64,0,0,1,2.74,4.32c-.05,1.46.06,2.41.34,2.45s.66-.84,1-2.24a4.62,4.62,0,0,1,3.87-3.35C501.45,123.38,501.63,123.3,501.65,123.19Z"/><path class="cls-27" d="M549.33,38.71c.16-.25-.09-.75-.68-1.41a12.84,12.84,0,0,1-2.13-14c1.74-3.64,2.51-6.17,1.85-6.58s-2.6,1.38-5.11,4.54a12.84,12.84,0,0,1-13.54,4.17c-.86-.24-1.41-.25-1.57,0s.09.76.67,1.42a12.83,12.83,0,0,1,2.14,14c-1.74,3.63-2.51,6.16-1.86,6.58s2.6-1.39,5.12-4.54a12.83,12.83,0,0,1,13.54-4.17C548.61,39,549.17,39,549.33,38.71Z"/></g></g></svg>