<svg xmlns="http://www.w3.org/2000/svg" viewBox="0 0 118.76 118.76"><defs><style>.cls-1{fill:#fff;}.cls-2{fill:#e9faec;}.cls-2,.cls-3{opacity:0.5;}.cls-3{fill:#cae5e8;}.cls-4,.cls-5,.cls-6{fill:#00383d;}.cls-4{opacity:0.3;}.cls-5{opacity:0.2;}.cls-6{opacity:0.1;}</style></defs><g id="Layer_2" data-name="Layer 2"><g id="moon"><circle class="cls-1" cx="59.38" cy="59.38" r="59.38"/><path class="cls-2" d="M.06,57A59.13,59.13,0,0,0,34.81,68.25a59.37,59.37,0,0,0,59.32-57A59.36,59.36,0,0,0,.06,57Z"/><path class="cls-3" d="M18.2,16.62a59.35,59.35,0,0,0,36,101.89,59.18,59.18,0,0,0,18.2-42.75A59.38,59.38,0,0,0,18.2,16.62Z"/><path class="cls-4" d="M38.62,68.81c-.67-6.3-3-12.25-4.08-18.46-1.36-7.67,1-14.91.63-22.48C35,23.2,33,17.58,27.34,18.14c-3.1.3-3.46,2.4-4.63,4.94-1.51,3.3-4.61,6.27-6.38,9.54a62.76,62.76,0,0,0-4.92,11.76c-2.37,7.81-3.83,17.17-1,25C15.21,82.73,40.68,88,38.62,68.81Z"/><path class="cls-5" d="M57.42,105.24c5.2,2.59,11.28,3.45,16.49,1.89,2.84-.85,5.75-2.62,6.47-5.49.86-3.37-1.71-6.75-4.72-8.5-3.57-2.07-7.58-2.92-11.08-5.17s-6.52-5.15-10.66-5.71c-5.31-.72-9.14,2.77-8.35,8.15C46.52,96.94,51.38,102.25,57.42,105.24Z"/><path class="cls-6" d="M67.24,62.14c2.12,4.62-.57,10-5.08,11.89a9.3,9.3,0,0,1-5.53.26c-5.46-1.18-15.25-11.51-8.57-16.58C53.28,53.74,64.47,56.07,67.24,62.14Z"/></g></g></svg>