<?xml version="1.0" encoding="UTF-8"?>
<svg width="34px" height="30px" viewBox="0 0 34 30" version="1.1" xmlns="http://www.w3.org/2000/svg" xmlns:xlink="http://www.w3.org/1999/xlink">
    <title>Connected</title>
    <g id="Connected" stroke="none" stroke-width="1" fill="none" fill-rule="evenodd">
        <g id="Brand_Mascot-Copy-8" transform="translate(6.562500, 1.875000)" fill="#2FE567" fill-rule="nonzero">
            <g id="Lock" transform="translate(-0.000000, 0.000000)">
                <path d="M4.4263013,8.99822318 L4.4263013,7.64638887 C4.4263013,4.8842047 6.64586761,2.63667101 9.37427526,2.63667101 C12.1026829,2.63667101 14.3223199,4.88424049 14.3223199,7.67988767 L14.3223199,8.99822318 L16.926513,8.99822318 L16.926513,7.64638887 C16.926513,3.42346348 13.5410478,0 9.37427526,0 C5.20750267,0 1.82207285,3.42346348 1.82207285,7.64638887 L1.82207285,8.99822318 L4.4263013,8.99822318 Z" id="Path_30"></path>
                <path d="M5.46879863,8.9650104 C5.91257942,8.96473834 6.33527198,9.15671323 6.63017288,9.49247373 L6.63017288,9.49247373 L12.1174586,9.49247373 C12.4130942,9.15619297 12.8368317,8.96422088 13.281484,8.9650104 L13.281484,8.9650104 L16.6669491,8.9650104 C17.5295253,8.96588762 18.2285918,9.67367243 18.2293519,10.5470061 C18.4127979,10.7945741 18.5504955,11.0712204 18.6380595,11.3636204 C18.0868515,11.250646 17.5171408,11.1914063 16.9335939,11.1914063 C12.2736913,11.1914063 8.49609391,14.9690037 8.49609391,19.6289063 C8.49609391,21.3381136 9.00431359,22.9286198 9.87788129,24.2575533 L7.20069732,24.2578242 C6.980152,24.8892571 6.39081917,25.3116869 5.72931691,25.3124999 L5.72931691,25.3124999 L3.38546535,25.3124999 C2.68304853,25.3127706 2.0669885,24.8379395 1.88025645,24.1523531 C0.766466637,23.8270305 -0.000306911992,22.7947858 9.21557053e-08,21.6211174 L9.21557053e-08,21.6211174 L9.21557053e-08,12.1287868 C9.21557053e-08,11.5583042 0.1826268,11.0031903 0.520824665,10.5468988 C0.52074964,10.1273327 0.685335365,9.72492912 0.978358982,9.42825109 C1.2713826,9.13157306 1.66882944,8.9650104 2.08322741,8.9650104 L2.08322741,8.9650104 Z" id="Combined-Shape"></path>
            </g>
        </g>
        <g id="Group" transform="translate(16.875000, 15.000000)" fill="#2FE567" fill-rule="nonzero">
            <path d="M13.125,6.5625 C13.125,2.93835937 10.1866406,0 6.5625,0 C2.93835938,0 0,2.93835937 0,6.5625 C0,10.1866406 2.93835938,13.125 6.5625,13.125 C10.1866406,13.125 13.125,10.1866406 13.125,6.5625" id="Fill-4"></path>
        </g>
    </g>
</svg>