<?xml version="1.0" encoding="UTF-8"?>
<svg width="34px" height="30px" viewBox="0 0 34 30" version="1.1" xmlns="http://www.w3.org/2000/svg" xmlns:xlink="http://www.w3.org/1999/xlink">
    <title>Down</title>
    <g id="Down" stroke="none" stroke-width="1" fill="none" fill-rule="evenodd">
        <g id="Brand_Mascot-Copy-8" transform="translate(5.273437, 1.875000)" fill="#E93B76" fill-rule="nonzero">
            <g id="Brand_Mascot" transform="translate(-0.000000, -0.000000)">
                <g id="Pia_Logo_Vertical" transform="translate(-0.000000, -0.000000)">
                    <g id="Lock" transform="translate(-0.000000, -0.000000)">
                        <path d="M10.6633376,-3.19744231e-14 C14.8301102,-3.19744231e-14 18.2155753,3.42346348 18.2155753,7.64638887 L18.2155753,7.64638887 L18.215,7.84 L21.1642977,5.15538146 L23.0113636,6.98010032 L1.84706598,26.2491315 L-1.42108547e-13,24.4244127 L1.6354297,22.9350264 C1.44281965,22.5962229 1.32348326,22.2121207 1.29545257,21.8069949 L1.28906242,21.6211174 L1.28906242,12.1287868 C1.28906242,11.5583042 1.47168912,11.0031903 1.80988699,10.5468988 C1.80981196,10.1273327 1.97439769,9.72492912 2.26742131,9.42825109 C2.49810463,9.19469082 2.79350584,9.04177152 3.11094631,8.98727624 L3.11113518,7.64638887 C3.11113518,3.42346348 6.496565,-3.19744231e-14 10.6633376,-3.19744231e-14 Z M19.9666854,11.5109859 C19.9986032,11.6451158 20.0201663,11.7820009 20.030972,11.9204173 L20.0390621,12.1290374 L20.0390621,21.6211174 C20.0382674,22.7952536 19.2705773,23.8273158 18.1562252,24.1523531 C17.9830407,24.7919497 17.4355364,25.2482494 16.792704,25.3062467 L16.6535968,25.3124999 L14.3099927,25.3124999 C13.6955031,25.3124999 13.1431051,24.9479927 12.891253,24.3899588 L12.8385769,24.2578242 L8.48975965,24.2578242 C8.28496756,24.8441548 7.76219033,25.2502735 7.15891699,25.3059498 L7.01837923,25.3124999 L4.80606232,25.312008 L19.9666854,11.5109859 Z M10.6633376,2.63667101 C7.93492993,2.63667101 5.71536362,4.8842047 5.71536362,7.64638887 L5.71536362,7.64638887 L5.715,8.965 L6.75786095,8.9650104 C7.15233277,8.96476857 7.53014227,9.11642556 7.81634825,9.38594543 L7.91923521,9.49247373 L13.4065209,9.49247373 C13.6693081,9.1935575 14.0333116,9.00866293 14.4232505,8.97182008 L14.5705463,8.9650104 L15.611,8.965 L15.6113822,7.67988767 C15.6113822,4.95781016 13.5070311,2.75534369 10.87765,2.6413095 Z" id="Combined-Shape"></path>
                    </g>
                </g>
            </g>
        </g>
    </g>
</svg>