<?xml version="1.0" encoding="UTF-8"?>
<svg width="34px" height="30px" viewBox="0 0 34 30" version="1.1" xmlns="http://www.w3.org/2000/svg" xmlns:xlink="http://www.w3.org/1999/xlink">
    <title>Alert</title>
    <g id="Alert" stroke="none" stroke-width="1" fill="none" fill-rule="evenodd">
        <g id="Brand_Mascot-Copy-8" transform="translate(6.562500, 1.875000)" fill="#FFFFFF" fill-rule="nonzero">
            <g id="Lock" transform="translate(-0.000000, 0.000000)">
                <path d="M9.37427517,0 C13.4593463,0 16.7934492,3.29052622 16.9226278,7.39892337 L16.9265129,7.64638887 L16.9268495,8.98704404 C17.6656943,9.11295039 18.2286697,9.76332626 18.2293518,10.5470061 C18.5252391,10.9463183 18.7021086,11.4212802 18.7415593,11.9159785 L18.745,12.023 L18.0045326,10.9310009 C17.7867472,10.6074284 17.3747256,10.4143218 16.9371909,10.4306466 L16.9371331,10.4296875 C16.535888,10.4452378 16.171937,10.6349124 15.9718041,10.9310009 L6.60129644,24.7531994 C6.52215585,24.8702167 6.47313014,24.9975781 6.45421916,25.1274491 C6.27786011,25.2254138 6.07867996,25.2866773 5.86985457,25.3059498 L5.72931682,25.3124999 L3.38546526,25.3124999 C2.68304844,25.3127706 2.06698841,24.8379395 1.88025635,24.1523531 C0.825087061,23.8441528 0.0813672649,22.9014849 0.00626491348,21.8051758 L-3.2819969e-11,21.6211174 L-3.2819969e-11,12.1287868 C-3.2819969e-11,11.5583042 0.182626708,11.0031903 0.520824573,10.5468988 C0.520749548,10.1273327 0.685335272,9.72492912 0.97835889,9.42825109 C1.20921138,9.19451955 1.50487669,9.04154729 1.82258227,8.98715651 L1.82207276,7.64638887 C1.82207276,3.42346348 5.20750258,0 9.37427517,0 Z M9.37427517,2.63667101 C6.71766772,2.63667101 4.54347287,4.76746992 4.43088132,7.4294225 L4.42630121,7.64638887 L4.42599991,8.965 L5.46879853,8.9650104 C5.86327035,8.96476857 6.24107986,9.11642556 6.52728583,9.38594543 L6.63017279,9.49247373 L12.1174585,9.49247373 C12.3802457,9.1935575 12.7442492,9.00866293 13.1341881,8.97182008 L13.2814839,8.9650104 L14.3219999,8.965 L14.3223198,7.67988767 C14.3223198,4.95781016 12.2179687,2.75534369 9.58858759,2.6413095 L9.37427517,2.63667101 Z" id="Combined-Shape"></path>
            </g>
        </g>
        <path d="M23.6892212,15.8210585 C24.0173723,15.8083614 24.3263885,15.9585554 24.4897275,16.210223 L24.4897275,16.210223 L31.5236371,26.9608217 C31.6803537,27.2011423 31.6796172,27.4975314 31.5214296,27.7378349 C31.3639653,27.9774753 31.0726187,28.125 30.7584435,28.125 L30.7584435,28.125 L16.7024944,28.125 C16.3883192,28.125 16.0969607,27.9774719 15.9395077,27.7378349 C15.7813203,27.4975143 15.7805839,27.2011252 15.9373004,26.9608217 L15.9373004,26.9608217 L22.9651811,16.210223 C23.1152808,15.9799318 23.388244,15.8324072 23.6891779,15.8203125 Z M23.8103053,24.906851 C23.2380759,24.906851 22.774296,25.3888286 22.774296,25.9835111 C22.774296,26.5781936 23.2380759,27.0601713 23.8103053,27.0601713 C24.3825347,27.0601713 24.8463146,26.5781936 24.8463146,25.9835111 C24.8463146,25.3888286 24.3825347,24.906851 23.8103053,24.906851 Z M23.776953,18.8912262 C23.3188504,18.8912262 22.9481456,19.2675393 22.9481456,19.7325724 L22.9481456,19.7325724 L23.1553475,23.5186302 C23.1553475,23.8669896 23.4337853,24.1496398 23.776953,24.1496398 C24.1201207,24.1496398 24.3985586,23.8669896 24.3985586,23.5186302 L24.3985586,23.5186302 L24.6057604,19.7325724 C24.6057604,19.2675393 24.2350556,18.8912262 23.776953,18.8912262 Z" id="Combined-Shape" fill="#E6B400"></path>
    </g>
</svg>