<?xml version="1.0" encoding="UTF-8"?>
<svg width="40px" height="30px" viewBox="0 0 40 30" version="1.1" xmlns="http://www.w3.org/2000/svg" xmlns:xlink="http://www.w3.org/1999/xlink">
    <!-- Generator: Sketch 52.6 (67491) - http://www.bohemiancoding.com/sketch -->
    <title>icon/mac-white/alert@2x</title>
    <desc>Created with Sketch.</desc>
    <g id="icon/mac-white/alert" stroke="none" stroke-width="1" fill="none" fill-rule="evenodd">
        <path d="M4.73657658,30 C4.34018018,30 4.01585586,29.6904181 4.01585586,29.3120402 L4.01585586,26.2740098 L2.87817417,26.2740098 C1.66496096,26.2740098 0.672288288,25.3264599 0.672288288,24.1683942 C0.672288288,23.9702618 0.701021021,23.7785503 0.755411411,23.596562 C0.29366967,23.2171751 0,22.6563503 0,22.0325084 L0,13.4825442 C0,12.3474105 0.972972973,11.4149957 2.16216216,11.4149957 L4.01585586,11.4149957 L4.01585586,8.87101213 C4.01585586,6.431415 5.13835435,4.21343264 6.94678679,2.60589994 C8.75541141,0.99800033 11.2500661,0 13.993994,0 C19.3226671,0 23.7099921,3.76329124 23.9604612,8.44801377 L23.9604612,10.1264648 L10.4600079,30 L4.73657658,30 Z M7.54354354,9.65849676 L7.54354354,11.4149957 L20.3887087,11.4149957 L20.3887087,9.65849676 C20.3887087,6.2864848 17.4987147,3.52785778 13.9661261,3.52785778 C12.199976,3.52785778 10.5942102,4.2175604 9.43048649,5.32884478 C8.26628228,6.43976224 7.54354354,7.97253665 7.54354354,9.65849676 Z" id="Icon" fill="#FFFFFF"></path>
        <path d="M27.9801234,11.50978 L39.5982516,29.3819889 C39.7186558,29.5672071 39.6661136,29.814963 39.4808954,29.9353672 C39.4160079,29.9775484 39.3402771,30 39.2628844,30 L15.7468199,30 C15.525906,30 15.3468199,29.8209139 15.3468199,29.6 C15.3468199,29.5211191 15.3701425,29.443999 15.4138548,29.3783376 L27.3117911,11.5061286 C27.4342119,11.3222371 27.6825271,11.2724052 27.8664187,11.3948259 C27.9117503,11.4250043 27.9504423,11.4641213 27.9801234,11.50978 Z M28.6,16.5 L26.4,16.5 C26.1790861,16.5 26,16.6790861 26,16.9 L26.0002012,23.0984911 C26.0002012,23.3193264 26.1791647,23.4983799 26.4000001,23.498491 L28.5999999,23.4999999 C28.8209138,23.5001111 29.00009,23.3211151 29.0002011,23.1002012 L29.0002011,23.1 L29,16.9 C29,16.6790861 28.8209139,16.5 28.6,16.5 Z M28.6,25.2541604 L26.4,25.2541604 C26.1790861,25.2541604 26,25.4332465 26,25.6541604 L26.000079,27.6035676 C26.000079,27.8244506 26.179117,28.0035239 26.4,28.0035676 L28.6,28.0041604 C28.8209139,28.004204 29.0000354,27.8251533 29.000079,27.6042394 L29.000079,27.6041604 L29,25.6541604 C29,25.4332465 28.8209139,25.2541604 28.6,25.2541604 Z" id="Icon" fill="#E6B400"></path>
    </g>
</svg>