<?xml version="1.0" encoding="UTF-8"?>
<svg width="40px" height="30px" viewBox="0 0 40 30" version="1.1" xmlns="http://www.w3.org/2000/svg" xmlns:xlink="http://www.w3.org/1999/xlink">
    <!-- Generator: Sketch 52.6 (67491) - http://www.bohemiancoding.com/sketch -->
    <title>icon/mac-white/disconnecting@2x</title>
    <desc>Created with Sketch.</desc>
    <g id="icon/mac-white/disconnecting" stroke="none" stroke-width="1" fill="none" fill-rule="evenodd">
        <path d="M18,30 L17.5208168,30 L14.966967,27.1564329 L13.021021,27.1564329 L10.4673634,30 L4.73657658,30 C4.34018018,30 4.01585586,29.6904181 4.01585586,29.3120402 L4.01585586,26.2740098 L2.87817417,26.2740098 C1.66496096,26.2740098 0.672288288,25.3264599 0.672288288,24.1683942 C0.672288288,23.9702618 0.701021021,23.7785503 0.755411411,23.596562 C0.29366967,23.2171751 0,22.6563503 0,22.0325084 L0,13.4825442 C0,12.3474105 0.972972973,11.4149957 2.16216216,11.4149957 L4.01585586,11.4149957 L4.01585586,8.87101213 C4.01585586,6.431415 5.13835435,4.21343264 6.94678679,2.60589994 C8.75541141,0.99800033 11.2500661,0 13.993994,0 C19.4821381,0 23.9717477,3.99190959 23.9717477,8.87101213 L23.9717477,9.83808916 C20.3894719,12.0361897 18,15.9890493 18,20.5 C18,22.2955878 18,25.4622544 18,30 Z M7.54354354,9.65849676 L7.54354354,11.4149957 L20.3887087,11.4149957 L20.3887087,9.65849676 C20.3887087,6.2864848 17.4987147,3.52785778 13.9661261,3.52785778 C12.199976,3.52785778 10.5942102,4.2175604 9.43048649,5.32884478 C8.26628228,6.43976224 7.54354354,7.97253665 7.54354354,9.65849676 Z" id="PIA-HELMET" fill="#FFFFFF" opacity="0.400000006"></path>
        <path d="M36.3866337,21.7844662 C36.4123366,21.700354 36.4899684,21.6429013 36.57792,21.6429013 L39.4363448,21.6429193 C39.4518244,21.6429193 39.4672516,21.6447158 39.4823168,21.6482729 C39.5898491,21.6736626 39.6564389,21.7814171 39.6310493,21.8889494 L39.6309927,21.888936 C39.6190026,21.9397175 39.6103168,21.9760774 39.6049352,21.9980157 C38.7281075,25.4156853 36.7003126,27.7403404 33.5759598,28.8621465 C29.573733,30.3113237 25.9293523,29.3814617 22.8060459,26.1002856 C22.7946101,26.0886309 22.2250676,26.6961834 21.0974185,27.9229431 C21.0594997,27.9641946 21.0060315,27.9876714 20.95,27.9876714 C20.8394123,27.9876714 20.7497632,27.8980223 20.7497632,27.7874346 L20.75,27.4656876 L20.75,21.8429193 C20.75,21.7324623 20.8395431,21.6429193 20.95,21.6429193 L26.4937774,21.6429193 C26.5432593,21.6429193 26.5909806,21.6612825 26.6276987,21.6944523 C26.7095735,21.768415 26.7159874,21.8947463 26.6420247,21.976621 L26.6421877,21.9767682 C25.5788585,23.1538453 25.0583878,23.7534661 25.0807756,23.7756304 C26.5874963,25.6342882 28.4792678,26.4831072 30.6702908,26.2911632 C33.3834344,26.071494 35.3024106,24.6233831 36.3163081,21.9980157 C36.3256999,21.9783408 36.3491418,21.9071577 36.3866337,21.7844662 Z M24.1141309,18.7395974 C24.0885506,18.8238811 24.0108403,18.8815065 23.9227602,18.8815065 L21.0688646,18.881516 C21.0520697,18.881516 21.0353416,18.8794025 21.0190745,18.8752254 C20.9119874,18.8477271 20.8474679,18.7386241 20.8749661,18.6315369 L20.8751492,18.6315839 C20.9691681,18.265444 21.0330874,18.0277327 21.0669069,17.9184499 C22.022061,14.8320153 23.9886123,12.7163254 26.9240402,11.6633551 C30.926267,10.2131115 34.5706477,11.14404 37.6950004,14.4241497 C37.7058009,14.4358044 38.2749944,13.8273726 39.4025808,12.5988545 C39.4404784,12.5575646 39.4939551,12.5340605 39.5500005,12.5340604 C39.6605141,12.5340602 39.7501032,12.623649 39.7501034,12.7341626 L39.7500014,13.096206 L39.7501121,18.681595 C39.7501108,18.7920519 39.6605667,18.8815939 39.5501098,18.8815926 L34.0071408,18.8815213 C33.9576664,18.8815207 33.9099512,18.8631664 33.8732304,18.8300108 C33.7913198,18.7560528 33.784873,18.6296964 33.8588309,18.5477858 L33.8586994,18.547667 C34.9214951,17.3705899 35.4420189,16.7709692 35.4202707,16.7488048 C33.9125037,14.8901471 32.0207322,14.041328 29.8297092,14.233272 C27.1165656,14.4529413 25.1975894,15.9010522 24.1847383,18.5264196 C24.1748347,18.5460745 24.1512989,18.6171338 24.1141309,18.7395974 Z" id="Spinner" fill="#FFFFFF"></path>
    </g>
</svg>