<?xml version="1.0" encoding="UTF-8"?>
<svg width="34px" height="30px" viewBox="0 0 34 30" version="1.1" xmlns="http://www.w3.org/2000/svg" xmlns:xlink="http://www.w3.org/1999/xlink">
    <title>Snoozed</title>
    <g id="Snoozed" stroke="none" stroke-width="1" fill="none" fill-rule="evenodd" opacity="0.5">
        <g id="Brand_Mascot-Copy-8" transform="translate(6.562500, 1.875000)" fill="#FFFFFF" fill-rule="nonzero">
            <g id="Brand_Mascot" transform="translate(0.000000, 0.000000)">
                <g id="Pia_Logo_Vertical" transform="translate(0.000000, 0.000000)">
                    <g id="Lock" transform="translate(0.000000, 0.000000)">
                        <path d="M9.37427517,0 C13.5410478,0 16.9265129,3.42346348 16.9265129,7.64638887 L16.9265129,7.64638887 L16.9268495,8.98704404 C17.6656943,9.11295039 18.2286697,9.76332626 18.2293518,10.5470061 C18.4127978,10.7945741 18.5504954,11.0712204 18.6380594,11.3636204 C18.0868514,11.250646 17.5171407,11.1914063 16.9335938,11.1914063 C12.2736912,11.1914063 8.49609382,14.9690037 8.49609382,19.6289063 C8.49609382,21.3381136 9.00431351,22.9286198 9.8778812,24.2575533 L7.20069723,24.2578242 C6.99590515,24.8441548 6.47312792,25.2502735 5.86985457,25.3059498 L5.72931682,25.3124999 L3.38546526,25.3124999 C2.68304844,25.3127706 2.06698841,24.8379395 1.88025635,24.1523531 C0.825087061,23.8441528 0.0813672649,22.9014849 0.00626491351,21.8051758 L2.62900812e-13,21.6211174 L2.62900812e-13,12.1287868 C2.62900812e-13,11.5583042 0.182626708,11.0031903 0.520824573,10.5468988 C0.520749548,10.1273327 0.685335272,9.72492912 0.97835889,9.42825109 C1.20921138,9.19451955 1.50487669,9.04154729 1.82258227,8.98715651 L1.82207276,7.64638887 C1.82207276,3.42346348 5.20750258,0 9.37427517,0 Z M9.37427517,2.63667101 C6.64586751,2.63667101 4.42630121,4.8842047 4.42630121,7.64638887 L4.42630121,7.64638887 L4.426,8.965 L5.46879853,8.9650104 C5.86327035,8.96476857 6.24107986,9.11642556 6.52728583,9.38594543 L6.63017279,9.49247373 L12.1174585,9.49247373 C12.3802457,9.1935575 12.7442492,9.00866293 13.1341881,8.97182008 L13.2814839,8.9650104 L14.322,8.965 L14.3223198,7.67988767 C14.3223198,4.95781016 12.2179687,2.75534369 9.58858759,2.6413095 Z" id="Combined-Shape"></path>
                    </g>
                </g>
            </g>
        </g>
        <g id="Group" transform="translate(16.875000, 15.000000)" fill="#FFFFFF" fill-rule="nonzero">
            <path d="M6.5625,6.67910172e-13 C10.1866406,6.67910172e-13 13.125,2.93835938 13.125,6.5625 C13.125,10.1866406 10.1866406,13.125 6.5625,13.125 C2.93835938,13.125 0,10.1866406 0,6.5625 C0,2.93835938 2.93835938,6.67910172e-13 6.5625,6.67910172e-13 Z M9.28156146,3.75 L4.03031561,3.75 L4.03031561,4.78991597 L7.32869601,4.78991597 L3.75,8.39810924 L3.75,9.375 L9.375,9.375 L9.375,8.33508403 L5.70286545,8.33508403 L9.28156146,4.72689076 L9.28156146,3.75 Z" id="Combined-Shape"></path>
        </g>
    </g>
</svg>