<?xml version="1.0" encoding="UTF-8"?>
<svg width="36px" height="36px" viewBox="0 0 36 36" version="1.1" xmlns="http://www.w3.org/2000/svg" xmlns:xlink="http://www.w3.org/1999/xlink">
    <title>icon-encryption</title>
    <g id="Page-2" stroke="none" stroke-width="1" fill="none" fill-rule="evenodd">
        <g id="icon-encryption" fill="#889099">
            <path d="M18.0000438,8 C14.9698998,8 12.5312596,10.6091769 12.5312596,13.8398807 L12.5312596,16.1844421 C11.5272345,16.2900882 11,17.1725624 11,18.2450016 L11,25.9323266 C11,27.0757889 11.8886774,28 12.9892812,28 L23.0107188,28 C24.1113007,28 25,27.076698 25,25.9323266 L25,18.2450016 C25,17.1725397 24.4727655,16.2829882 23.4687404,16.1773284 L23.4687404,13.8398125 C23.4687404,10.6091087 21.0301002,8 17.9999562,8 L18.0000438,8 Z M18.0000438,10.2666063 C19.9397559,10.2666063 21.5000656,11.8655263 21.5000656,13.8541308 L21.5000656,16.1775557 L14.5000219,16.1775557 L14.5000219,13.8541308 C14.5000219,11.8645945 16.0603316,10.2666063 18.0000438,10.2666063 Z M18.0000438,19.1339394 C18.845999,19.1339394 19.5313033,19.8468306 19.5313033,20.7257457 C19.5313033,21.2841586 19.2527453,21.7777756 18.8340333,22.0618684 C18.857105,22.1435463 18.8750492,22.2287741 18.8750492,22.317552 L18.8750492,24.1366326 C18.8750492,24.6409087 18.4845343,25.0457297 18.0000438,25.0457297 C17.5155532,25.0457297 17.1250383,24.6399996 17.1250383,24.1366326 L17.1250383,22.317552 C17.1250383,22.2278855 17.1429825,22.1435463 17.1660542,22.0618684 C16.7473422,21.7777756 16.4687842,21.285045 16.4687842,20.7257457 C16.4687842,19.8468306 17.1540885,19.1339394 18.0000438,19.1339394 Z" id="Fill-1"></path>
        </g>
    </g>
</svg>