<?xml version="1.0" encoding="UTF-8"?>
<svg width="36px" height="36px" viewBox="0 0 36 36" version="1.1" xmlns="http://www.w3.org/2000/svg" xmlns:xlink="http://www.w3.org/1999/xlink">
    <title>icon-connection</title>
    <g id="Page-2" stroke="none" stroke-width="1" fill="none" fill-rule="evenodd">
        <g id="Group-15" transform="translate(8.000000, 8.000000)">
            <path d="M14.5198439,0.282679337 C14.8967497,0.663464594 14.8967497,1.27741616 14.5198439,1.65820142 L11.6910611,4.48698427 L10.315539,3.11146218 L13.1443218,0.282679337 C13.5251071,-0.0942264458 14.1390587,-0.0942264458 14.5198439,0.282679337 Z" id="Fill-4" fill="#9197A4"></path>
            <path d="M4.32379147,15.972912 L1.98849756,18.3082059 C1.53387797,18.7628255 0.795584296,18.7628255 0.340964698,18.3082059 C-0.113654899,17.8535863 -0.113654899,17.1152926 0.340964698,16.660673 L2.67625861,14.3253791 L4.32379147,15.972912 Z" id="Fill-1" fill="#889099"></path>
            <path d="M6.60845328,4.89875557 L13.750415,12.0407173 L11.8269919,13.9641404 C10.6496214,15.1415109 8.93205903,15.6039143 7.32356958,15.1725965 L6.52310486,15.9730612 C6.21612907,16.280037 5.72654447,16.280037 5.42344816,15.9730612 L2.67623374,13.2258467 C2.36925795,12.9227504 2.36925795,12.4331658 2.67623374,12.1261901 L3.47669846,11.3257253 C3.04538057,9.71703694 3.50778399,7.99957407 4.68515449,6.82230304 L6.60845328,4.89875557 Z" id="Fill-2" fill="#889099"></path>
            <path d="M8.80383745,2.69939245 L15.9495294,9.84508444 C16.2526257,10.1481807 16.2526257,10.6377653 15.9495294,10.9408368 L15.3977489,11.4926173 C15.0946526,11.7957136 14.605068,11.7957136 14.3019966,11.4926173 L7.15630458,4.34692532 C6.85320827,4.04382901 6.85320827,3.55424441 7.15630458,3.25117297 L7.7080851,2.69939245 C8.01118141,2.39629614 8.50076601,2.39629614 8.80383745,2.69939245 Z" id="Fill-3" fill="#889099"></path>
            <path d="M18.3664912,4.12932664 C18.743397,4.5101119 18.743397,5.12406347 18.3664912,5.50484872 L15.5377084,8.33363157 L14.1621863,6.95810949 L16.9909692,4.12932664 C17.3717544,3.75242086 17.985706,3.75242086 18.3664912,4.12932664 Z" id="Fill-5" fill="#889099"></path>
        </g>
    </g>
</svg>