<?xml version="1.0" encoding="UTF-8"?>
<svg width="36px" height="36px" viewBox="0 0 36 36" version="1.1" xmlns="http://www.w3.org/2000/svg" xmlns:xlink="http://www.w3.org/1999/xlink">
    <title>icon-authentication</title>
    <g id="Page-2" stroke="none" stroke-width="1" fill="none" fill-rule="evenodd">
        <g id="icon-authentication" fill="#889099">
            <path d="M26.5438383,8 L23.3196246,8.02137235 C23.2055329,8.02137235 23.0729153,8.08466867 22.9973549,8.16851663 L16.1881949,15.7025007 C14.2915986,15.1130987 12.1482551,15.6186527 10.6503233,17.2808052 C8.44989224,19.7223371 8.44989224,23.6992437 10.6503233,26.1611883 C12.8507543,28.623133 16.434942,28.6027202 18.6537701,26.1611883 C20.1517777,24.4990442 20.6074539,22.1413519 20.0762173,20.0165331 L21.8587144,18.0387281 C21.9535442,17.9335078 21.9913282,17.8069067 21.9913282,17.6811474 L21.9913282,15.1139825 L24.0398419,15.1139825 C24.3050619,15.1139825 24.4947215,14.8821611 24.4947215,14.587881 L24.4754597,12.336377 L26.5438876,12.3141818 C26.7905969,12.3141818 26.9987673,12.0823604 26.9987673,11.8094611 L26.9987673,8.52616675 C27.0180291,8.23188661 26.8091077,8 26.5438876,8 L26.5438383,8 Z M14.3862766,24.4981225 C13.7602481,25.1927448 12.7549004,25.1927448 12.1481033,24.4981225 C11.5220748,23.8035001 11.5220748,22.6879966 12.1481033,22.0147129 C12.7741318,21.3200906 13.7602102,21.3200906 14.3862766,22.0147129 C15.0123052,22.6887752 15.0123052,23.8042788 14.3862766,24.4981225 Z" id="Fill-1"></path>
        </g>
    </g>
</svg>