<?xml version="1.0" encoding="UTF-8"?>
<svg width="36px" height="36px" viewBox="0 0 36 36" version="1.1" xmlns="http://www.w3.org/2000/svg" xmlns:xlink="http://www.w3.org/1999/xlink">
    <title>icon-handshake</title>
    <g id="Page-2" stroke="none" stroke-width="1" fill="none" fill-rule="evenodd">
        <g id="Group-19" fill="#889099" transform="translate(7.000000, 11.000000)">
            <path d="M15.3199303,9.10639684 C15.3199303,9.10639684 15.8946695,9.01416397 16.3114314,8.50859283 C16.8289569,7.88090298 16.6701051,7.13963825 16.1389244,6.67847391 C16.1389244,6.67847391 14.3523553,5.12163432 12.6171189,3.62277368 L12.016757,4.10015989 C7.58875728,7.51877507 6.01401244,4.55107079 6.40600431,3.55189596 L9.08589079,0.861734172 C7.71094594,0.532093706 6.1301015,1.89763775 6.1301015,1.89763775 L2.96683853,3.96944492 L2.96683853,10.8748858 L5.64235254,11.0473928 L5.85328921,11.1703685 L6.94299602,11.9662891 C7.89177815,12.6110535 9.30434811,12.8151603 10.055757,12.2634859 C10.055757,12.2634859 11.5929423,12.795528 12.5297001,12.1259914 C13.1351778,11.6930076 13.1548321,11.3941056 13.1881284,11.4026538 C13.5954896,11.5094033 14.5348927,11.2907798 15.0387324,10.7100546 C15.6527583,10.0037915 15.3197073,9.10625473 15.3197073,9.10625473 L15.3199303,9.10639684 Z" id="Fill-1"></path>
            <path d="M9.53406016,1.10521513 C7.87645702,2.76196564 6.89090242,3.80718258 6.89090242,3.80718258 C6.89090242,3.80718258 6.73462162,4.90371045 8.23679222,5.15307238 C9.79789496,5.41268775 11.7773993,3.64148785 12.6254397,2.88485389 C12.6254397,2.88485389 16.3728646,6.15065127 16.6288727,6.36665125 C16.9047099,6.59893869 17.4546791,7.4426941 16.9491124,8.51018878 C16.6348411,9.17460736 15.9490849,9.38638792 15.9490849,9.38638792 C15.9490849,9.38638792 16.101096,10.2327012 15.5596728,10.8851611 C15.3683772,11.1157433 14.9968922,11.4137927 14.9968922,11.4137927 C15.8406476,11.7084315 17.5871431,11.575198 18.2336127,10.8749295 L18.2336127,3.59717288 L13.8458397,0.807100168 C10.9473297,-1.09730701 9.69461724,0.944594653 9.53392899,1.10514954 L9.53406016,1.10521513 Z" id="Fill-2"></path>
            <path d="M20.6471283,3.21733646 L19.3370928,3.21733646 C19.0313697,3.21733646 18.7845657,3.46499313 18.7845657,3.76901092 L18.7845657,10.7632129 C18.7845657,11.0680834 19.0313697,11.3148874 19.3370928,11.3148874 L20.6471283,11.3148874 C20.9528514,11.3148874 21.1996554,11.0680834 21.1996554,10.7632129 L21.1996554,3.76901092 C21.1996554,3.4641405 20.9528514,3.21733646 20.6471283,3.21733646 Z" id="Fill-3"></path>
            <path d="M1.86256264,3.21733646 L0.552527093,3.21733646 C0.246804034,3.21733646 -5.59552404e-14,3.46499313 -5.59552404e-14,3.76901092 L-5.59552404e-14,10.7632129 C-5.59552404e-14,11.0680834 0.246804034,11.3148874 0.552527093,11.3148874 L1.86256264,11.3148874 C2.16743307,11.3148874 2.4142371,11.0680834 2.4142371,10.7632129 L2.41509192,3.76901092 C2.41509192,3.4641405 2.16658262,3.21733646 1.86256483,3.21733646 L1.86256264,3.21733646 Z" id="Fill-4"></path>
        </g>
    </g>
</svg>