<?xml version="1.0" encoding="UTF-8"?>
<svg width="36px" height="36px" viewBox="0 0 36 36" version="1.1" xmlns="http://www.w3.org/2000/svg" xmlns:xlink="http://www.w3.org/1999/xlink">
    <title>icon-socket</title>
    <g id="Page-2" stroke="none" stroke-width="1" fill="none" fill-rule="evenodd">
        <g id="icon-socket" fill="#889099">
            <path d="M28.3820438,13.4046582 C27.5923845,11.6933105 26.1514218,10.3282988 24.3475048,9.58268683 C23.4204094,9.20304496 22.4214224,9.00428061 21.4106603,9 L13.414256,9 C11.4154079,9.01535559 9.50275631,9.77719242 8.09067825,11.1208447 C7.42049355,11.775188 6.89227551,12.5481217 6.5338287,13.3952452 C6.16280193,14.2773781 5.98134774,15.2217763 6.00199992,16.1713068 L6.00199992,19.8106972 C5.97864315,20.7636347 6.16011116,21.7114399 6.5338287,22.5952763 C7.09709569,23.8911648 8.05027076,24.9994055 9.27473115,25.7834556 C10.4982937,26.5666103 11.9383594,26.9897569 13.414371,27 L21.4107753,27 C22.4178347,26.9965875 23.414108,26.7978112 24.3384206,26.4173132 C25.2340776,26.0564536 26.0471029,25.5343286 26.7334322,24.8799852 C27.4305475,24.2281972 27.9902269,23.4561371 28.3819288,22.6047111 C28.7834968,21.7225783 28.9937215,20.7722178 29,19.8107408 L29,16.1713505 C28.9901178,15.2192647 28.7799022,14.2782735 28.3819288,13.40468 L28.3820438,13.4046582 Z M14.1186847,18.0320827 C14.1186847,18.127632 14.0369337,18.2052661 13.9363175,18.2052661 L12.2689625,18.2052661 C12.1701424,18.2027064 12.091986,18.1259263 12.091986,18.0320827 L12.091986,13.6641155 C12.091986,13.5711258 12.1710417,13.4960514 12.2689625,13.4960514 L13.9363175,13.4960514 C13.9839302,13.4943457 14.0306461,13.5114069 14.064782,13.543826 C14.0989202,13.5753911 14.1186847,13.6189004 14.1186847,13.6641155 L14.1186847,18.0320827 Z M18.6274424,24.2018365 L16.3752484,24.2018365 L16.3752484,21.844663 C16.3752484,20.9343786 16.8540667,20.1563344 17.5008855,20.1563344 C18.1477019,20.1563344 18.6265202,20.9113375 18.6265202,21.844663 L18.6274424,24.2018365 Z M22.4607466,18.0320827 L22.4598497,18.0320827 C22.4598497,18.1259263 22.3816933,18.2027064 22.2828732,18.2052661 L20.6155183,18.2052661 C20.514902,18.2052661 20.433151,18.127632 20.433151,18.0320827 L20.433151,13.6641155 C20.433151,13.6189004 20.4529155,13.5753911 20.4870537,13.543826 C20.521192,13.5114069 20.5670086,13.4943457 20.6155183,13.4960514 L22.2918654,13.4960514 C22.3394782,13.4960514 22.3843956,13.5131126 22.4176369,13.5446799 C22.4508759,13.5762451 22.4697411,13.6197544 22.4697411,13.6641176 L22.4607466,18.0320827 Z" id="Fill-1"></path>
        </g>
    </g>
</svg>