<?xml version="1.0" encoding="UTF-8"?>
<svg width="36px" height="36px" viewBox="0 0 36 36" version="1.1" xmlns="http://www.w3.org/2000/svg" xmlns:xlink="http://www.w3.org/1999/xlink">
    <title>icon-port</title>
    <g id="Page-2" stroke="none" stroke-width="1" fill="none" fill-rule="evenodd">
        <g id="Group-18" fill="#889099" transform="translate(9.000000, 8.000000)">
            <path d="M16.2492521,18.3687198 L0.706489222,18.3687198 C0.316145449,18.3687198 -4.26325641e-14,18.0525743 -4.26325641e-14,17.6622306 L-4.26325641e-14,0.706489222 C-4.26325641e-14,0.316145449 0.316145449,-3.73034936e-14 0.706489222,-3.73034936e-14 L16.2492521,-3.73034936e-14 C16.4364706,-3.73034936e-14 16.6166265,0.074180238 16.7490848,0.206647532 C16.8815521,0.339114827 16.9557323,0.519266187 16.9557323,0.706480179 L16.9557323,17.6622215 C16.9557323,17.84944 16.8815521,18.0295959 16.7490848,18.1620542 C16.6166175,18.2945215 16.4364661,18.3687198 16.2492521,18.3687198 L16.2492521,18.3687198 Z M1.41297844,16.9557413 L15.5427629,16.9557413 L15.5427629,1.41297844 L1.41297844,1.41297844 L1.41297844,16.9557413 Z" id="Fill-1"></path>
            <path d="M13.4232952,2.82595689 L12.0103168,2.82595689 L12.0103168,4.06232433 C12.0518222,4.49946595 11.7392058,4.88980973 11.3038276,4.94542456 C10.8684493,4.88978938 10.5558307,4.49944334 10.5973383,4.06232433 L10.5973383,2.82595689 L9.18435989,2.82595689 L9.18435989,4.06232433 C9.22586529,4.49946595 8.91324889,4.88980973 8.47787067,4.94542456 C8.04249245,4.88978938 7.72987379,4.49944334 7.77138145,4.06232433 L7.77138145,2.82595689 L6.358403,2.82595689 L6.358403,4.06232433 C6.3999084,4.49946595 6.087292,4.88980973 5.65191378,4.94542456 C5.21653556,4.88978938 4.9039169,4.49944334 4.94542456,4.06232433 L4.94542456,2.82595689 L3.53244611,2.82595689 C3.14210234,2.82595689 2.82595689,3.14210234 2.82595689,3.53244611 L2.82595689,12.716806 C2.82595689,12.9040245 2.90013713,13.0841804 3.03260442,13.2166387 C3.16507172,13.3491059 3.34522308,13.4232862 3.53243707,13.4232862 L5.65190474,13.4232862 L5.65190474,14.8362646 C5.65190474,15.0234831 5.72608497,15.203639 5.85855227,15.3360973 C5.99101956,15.4685646 6.17117092,15.5427448 6.35838492,15.5427448 L10.5973203,15.5427448 C10.7845388,15.5427448 10.9646946,15.4685646 11.0971529,15.3360973 C11.2296202,15.20363 11.3038004,15.0234786 11.3038004,14.8362646 L11.3038004,13.4232862 L13.4232681,13.4232862 C13.6104866,13.4232862 13.7906425,13.3491059 13.9231007,13.2166387 C14.055568,13.0841714 14.1297483,12.90402 14.1297483,12.716806 L14.1297483,3.53244611 C14.1297483,3.3452276 14.055568,3.16507172 13.9231007,3.03261347 C13.7906334,2.90014617 13.6104821,2.82595689 13.4232681,2.82595689 L13.4232952,2.82595689 Z" id="Fill-2"></path>
        </g>
    </g>
</svg>