<?xml version="1.0" encoding="UTF-8"?>
<svg width="14px" height="14px" viewBox="0 0 14 14" version="1.1" xmlns="http://www.w3.org/2000/svg" xmlns:xlink="http://www.w3.org/1999/xlink">
    <title>checkmark-black</title>
    <g id="Page-3" stroke="none" stroke-width="1" fill="none" fill-rule="evenodd">
        <path d="M5.66388039,9.65368397 C5.69697201,9.63672678 5.72789436,9.61429831 5.75501843,9.58694751 L10.6645986,4.63632838 C10.8040173,4.49574435 10.8040173,4.2681828 10.6651416,4.12814492 L10.4128854,3.87378011 C10.2745514,3.73428978 10.0488749,3.73428978 9.90945626,3.87432766 L5.5028886,8.31772959 L3.55208319,6.35061749 C3.41266455,6.20948732 3.18753103,6.21003346 3.04865401,6.35006994 L2.7963978,6.60443475 C2.65752079,6.74392508 2.65752079,6.97203418 2.79693942,7.11207206 L5.25061851,9.58626133 C5.36291307,9.70004211 5.53053902,9.72192303 5.66399983,9.65354533 L5.66388039,9.65368397 Z M0,7 C0,3.13417983 3.13305995,0 7,0 C10.8658198,0 14,3.13305983 14,7 C14,10.8658194 10.8669398,14 7,14 C3.13417995,14 0,10.8669394 0,7 Z" id="checkmark-black" fill="#212B36"></path>
    </g>
</svg>