<svg xmlns="http://www.w3.org/2000/svg" xmlns:xlink="http://www.w3.org/1999/xlink" viewBox="0 0 400 421.42"><defs><style>.cls-1{fill:#e6e6e6;}.cls-2{fill:#ccc;}.cls-3{fill:url(#linear-gradient);}.cls-4{fill:url(#linear-gradient-2);}.cls-5{fill:#565656;}.cls-6{fill:url(#linear-gradient-3);}.cls-7{fill:url(#linear-gradient-4);}.cls-8{fill:#8c8c8c;}.cls-9{fill:#bfbfbf;}.cls-10{fill:url(#linear-gradient-5);}.cls-11{fill:url(#linear-gradient-6);}.cls-12{fill:#999;}.cls-13{fill:#3bb44a;}.cls-14{fill:#216734;}.cls-15{fill:#297f3f;}.cls-16{fill:#fff;}.cls-17{fill:url(#radial-gradient);}.cls-18{fill:#1c4c25;}.cls-19{fill:#0e1c10;}</style><linearGradient id="linear-gradient" x1="87.69" y1="138.33" x2="181.55" y2="138.33" gradientUnits="userSpaceOnUse"><stop offset="0" stop-color="#0095d5"/><stop offset="1" stop-color="#00ca8b"/></linearGradient><linearGradient id="linear-gradient-2" x1="93.5" y1="94.21" x2="175.74" y2="94.21" xlink:href="#linear-gradient"/><linearGradient id="linear-gradient-3" x1="227.11" y1="137.51" x2="323" y2="137.51" xlink:href="#linear-gradient"/><linearGradient id="linear-gradient-4" x1="233.07" y1="92.28" x2="317.39" y2="92.28" xlink:href="#linear-gradient"/><linearGradient id="linear-gradient-5" x1="40.88" y1="236.29" x2="66.17" y2="236.29" xlink:href="#linear-gradient"/><linearGradient id="linear-gradient-6" x1="3255.05" y1="255.05" x2="3283.95" y2="255.05" gradientTransform="matrix(1, 0, 0, -1, -2908.6, 510.09)" xlink:href="#linear-gradient"/><radialGradient id="radial-gradient" cx="222.76" cy="315.95" r="17.45" gradientTransform="translate(-14.51 -20.05) rotate(0.53)" gradientUnits="userSpaceOnUse"><stop offset="0"/><stop offset="0.19" stop-color="#030303"/><stop offset="0.32" stop-color="#0c0c0c"/><stop offset="0.44" stop-color="#1c1c1c"/><stop offset="0.55" stop-color="#323232"/><stop offset="0.65" stop-color="#4e4e4e"/><stop offset="0.74" stop-color="#717171"/><stop offset="0.83" stop-color="#9a9a9a"/><stop offset="0.92" stop-color="#c9c9c9"/><stop offset="1" stop-color="#fefefe"/><stop offset="1" stop-color="#fff"/></radialGradient></defs><g id="Layer_2" data-name="Layer 2"><g id="Split_Tunneling-light" data-name="Split Tunneling-light"><circle class="cls-1" cx="200" cy="200" r="200"/><path class="cls-2" d="M368.76,108.07H331.13v1.27h37.63a.63.63,0,0,0,.62-.6h0A.62.62,0,0,0,368.76,108.07Z"/><rect class="cls-2" x="331.13" y="118.23" width="45.39" height="1.27" rx="0.63"/><path class="cls-2" d="M386.78,128.39H332.09c-.53,0-1,.29-1,.64s.43.63,1,.63h55.18C387.11,129.24,387,128.82,386.78,128.39Z"/><path class="cls-2" d="M377.87,138.56H331.13v1.27h46.74a.64.64,0,0,0,.63-.64A.63.63,0,0,0,377.87,138.56Z"/><path class="cls-2" d="M339.39,119.3a.63.63,0,0,1-.63-.63v-9.55a.63.63,0,0,1,.63-.63.64.64,0,0,1,.64.63v9.55A.64.64,0,0,1,339.39,119.3Z"/><path class="cls-2" d="M359.69,119.3a.63.63,0,0,1-.64-.63v-9.55a.64.64,0,0,1,1.27,0v9.55A.63.63,0,0,1,359.69,119.3Z"/><path class="cls-2" d="M339.39,139.52a.63.63,0,0,1-.63-.64v-9.54a.63.63,0,0,1,.63-.63.64.64,0,0,1,.64.63v9.54A.64.64,0,0,1,339.39,139.52Z"/><path class="cls-2" d="M359.69,139.52a.63.63,0,0,1-.64-.64v-9.54a.64.64,0,0,1,1.27,0v9.54A.63.63,0,0,1,359.69,139.52Z"/><path class="cls-2" d="M350,129.22a.63.63,0,0,1-.63-.63V119a.63.63,0,0,1,.63-.63.64.64,0,0,1,.64.63v9.55A.64.64,0,0,1,350,129.22Z"/><path class="cls-2" d="M370,129.22a.63.63,0,0,1-.63-.63V119a.63.63,0,0,1,.63-.63.64.64,0,0,1,.64.63v9.55A.64.64,0,0,1,370,129.22Z"/><path class="cls-2" d="M370,149.69a.64.64,0,0,1-.63-.64v-9.54a.64.64,0,0,1,.63-.64.64.64,0,0,1,.64.64v9.54A.64.64,0,0,1,370,149.69Z"/><rect class="cls-2" x="195.6" y="69.96" width="40.85" height="1.27" rx="0.64"/><path class="cls-2" d="M241.08,80.76a.63.63,0,0,0-.63-.63H171.82a.63.63,0,0,0-.63.63.64.64,0,0,0,.63.64h68.63a.64.64,0,0,0,.63-.64Z"/><path class="cls-2" d="M177.29,60.87a.63.63,0,0,1-.64-.63V50.69a.64.64,0,0,1,1.27,0v9.55A.63.63,0,0,1,177.29,60.87Z"/><path class="cls-2" d="M203.87,81.09a.63.63,0,0,1-.64-.63V70.91a.64.64,0,0,1,1.27,0v9.55A.63.63,0,0,1,203.87,81.09Z"/><path class="cls-2" d="M224.16,81.09a.64.64,0,0,1-.64-.63V70.91a.64.64,0,0,1,1.28,0v9.55A.64.64,0,0,1,224.16,81.09Z"/><path class="cls-2" d="M214.46,70.79a.64.64,0,0,1-.64-.63V60.61a.64.64,0,0,1,.64-.63.63.63,0,0,1,.63.63v9.55A.63.63,0,0,1,214.46,70.79Z"/><path class="cls-2" d="M234.5,70.79a.64.64,0,0,1-.64-.63V60.61a.64.64,0,0,1,.64-.63.63.63,0,0,1,.63.63v9.55A.63.63,0,0,1,234.5,70.79Z"/><path class="cls-2" d="M234.5,91.26a.64.64,0,0,1-.64-.64V81.08a.64.64,0,0,1,.64-.64.64.64,0,0,1,.63.64v9.54A.64.64,0,0,1,234.5,91.26Z"/><rect class="cls-3" x="87.69" y="100.03" width="93.86" height="76.61"/><polygon class="cls-4" points="134.62 84.58 93.5 103.84 175.74 103.84 134.62 84.58"/><path class="cls-2" d="M134.85,75.26l36.3,17,.29.14h14.5v83.53H83.77V92.38H98.26l.29-.14,36.3-17m0-1.6L97.94,90.93H82.32v86.42H187.39V90.93H171.77L134.85,73.66Z"/><path class="cls-5" d="M161.9,166.19V131.83a27.28,27.28,0,0,0-27.28-27.28h0a27.28,27.28,0,0,0-27.28,27.28v33.78c6.07-2.52,15.73-4.15,26.62-4.15C145.68,161.46,156,163.35,161.9,166.19Z"/><path class="cls-1" d="M161.9,176.08v-9.89c-5.93-2.84-16.22-4.73-27.94-4.73-10.89,0-20.55,1.63-26.62,4.15v10.47Z"/><polygon class="cls-1" points="161.9 176.08 161.9 131.83 150.94 163.84 161.9 176.08"/><rect class="cls-6" x="227.11" y="98.24" width="95.89" height="78.54"/><polygon class="cls-7" points="275.23 82.4 233.07 102.16 317.39 102.16 275.23 82.4"/><path class="cls-5" d="M303.2,166.08V130.85a28,28,0,0,0-28-28h0a28,28,0,0,0-28,28v34.63c6.22-2.58,15.6-3.3,26.76-3.3C286,162.18,297.12,163.16,303.2,166.08Z"/><path class="cls-1" d="M303.2,176.22V165.88c-6.08-2.92-16.53-3.75-28.55-3.75-11.16,0-21.17.77-27.39,3.35v10.74Z"/><polygon class="cls-1" points="247.25 176.22 247.25 130.85 259.98 163.67 247.25 176.22"/><path class="cls-2" d="M274.73,74.46l39.41,17.07.32.14H330.2v84H219.26V91.67H235l.32-.14,39.41-17.07m0-1.6L234.66,90.21h-17v86.86H331.77V90.21h-17L274.73,72.86Z"/><path class="cls-2" d="M203.94,35.87h-54.7a.63.63,0,0,1-.63-.63.64.64,0,0,1,.63-.64h54.7a.64.64,0,0,1,.63.64A.63.63,0,0,1,203.94,35.87Z"/><path class="cls-2" d="M236.15,45.86h-54.7a.64.64,0,0,1-.64-.63.64.64,0,0,1,.64-.64h54.7a.64.64,0,0,1,.63.64A.63.63,0,0,1,236.15,45.86Z"/><path class="cls-2" d="M160.88,45.57a.63.63,0,0,1-.63-.63V35.39a.63.63,0,0,1,.63-.63.64.64,0,0,1,.64.63v9.55A.64.64,0,0,1,160.88,45.57Z"/><path class="cls-2" d="M196.76,45.57a.64.64,0,0,1-.64-.63V35.39a.64.64,0,0,1,1.28,0v9.55A.64.64,0,0,1,196.76,45.57Z"/><path class="cls-2" d="M221.83,56a.64.64,0,0,1-.63-.64V45.79a.64.64,0,0,1,.63-.64.64.64,0,0,1,.64.64v9.54A.64.64,0,0,1,221.83,56Z"/><rect class="cls-2" x="346.71" y="255.53" width="10.84" height="2.3" rx="1.15"/><rect class="cls-2" x="292.95" y="319.19" width="20.24" height="4.29" rx="2.15"/><rect class="cls-8" x="99.88" y="313.92" width="16.82" height="3.57" rx="1.78"/><rect class="cls-9" x="106.07" y="232.6" width="11.94" height="2.53" rx="1.27"/><rect class="cls-9" x="315.86" y="202.79" width="7.24" height="1.45" rx="0.72"/><rect class="cls-9" x="12.72" y="196.64" width="7.24" height="1.45" rx="0.72"/><rect class="cls-2" x="184.94" y="190.07" width="6.3" height="1.26" rx="0.63"/><rect class="cls-9" x="365.14" y="187.13" width="7.24" height="1.45" rx="0.72"/><rect class="cls-8" x="295.99" y="219.56" width="12.3" height="1.81" rx="0.9"/><rect class="cls-9" x="36.33" y="181.9" width="12.3" height="1.81" rx="0.9"/><rect class="cls-2" x="324.6" y="232.59" width="14.53" height="3.39" rx="1.7"/><rect class="cls-9" x="84.71" y="203.36" width="10.86" height="2.53" rx="1.27"/><rect class="cls-8" x="13.68" y="235.06" width="10.86" height="2.53" rx="1.27"/><rect class="cls-9" x="345.52" y="205.43" width="8.68" height="2.89" rx="1.45"/><rect class="cls-2" x="205.05" y="203.73" width="7.55" height="2.52" rx="1.26"/><rect class="cls-8" x="373.85" y="210.56" width="8.68" height="2.89" rx="1.45"/><path class="cls-2" d="M83.44,158.21H49.1a.64.64,0,1,1,0-1.27H83.44a.64.64,0,1,1,0,1.27Z"/><path class="cls-2" d="M366.19,161.12H331.84a.64.64,0,0,1-.64-.64.64.64,0,0,1,.64-.63h34.35a.63.63,0,0,1,.63.63A.64.64,0,0,1,366.19,161.12Z"/><path class="cls-2" d="M74.16,120.81H39.81a.64.64,0,0,1-.64-.63.64.64,0,0,1,.64-.64H74.16a.64.64,0,0,1,.63.64A.63.63,0,0,1,74.16,120.81Z"/><path class="cls-2" d="M149.12,57.48H103.27a.64.64,0,0,1-.64-.64.64.64,0,0,1,.64-.63h45.85a.64.64,0,0,1,.64.63A.64.64,0,0,1,149.12,57.48Z"/><path class="cls-2" d="M56,120.31a.63.63,0,0,1-.64-.63v-9.55a.64.64,0,0,1,1.27,0v9.55A.63.63,0,0,1,56,120.31Z"/><path class="cls-2" d="M127.66,67.9a.64.64,0,0,1-.64-.64V57.72a.64.64,0,0,1,.64-.64.64.64,0,0,1,.63.64v9.54A.64.64,0,0,1,127.66,67.9Z"/><path class="cls-2" d="M217.92,106.35H186.85a.64.64,0,0,0-.63.64.63.63,0,0,0,.63.63h31.09A3.19,3.19,0,0,1,217.92,106.35Z"/><path class="cls-2" d="M217.92,117.12H186.85a.64.64,0,0,0-.63.64.63.63,0,0,0,.63.63h31.09A3.19,3.19,0,0,1,217.92,117.12Z"/><path class="cls-2" d="M203.65,118.05a.64.64,0,0,1-.63-.64v-9.54a.64.64,0,0,1,.63-.64.64.64,0,0,1,.64.64v9.54A.64.64,0,0,1,203.65,118.05Z"/><path class="cls-2" d="M294.94,61.83a.6.6,0,0,0-.6-.61H263.93a.63.63,0,0,0-.64.63.64.64,0,0,0,.64.64h30.41a.61.61,0,0,0,.6-.64Z"/><path class="cls-2" d="M280.72,62.14a.63.63,0,0,1-.63-.63V52a.64.64,0,0,1,1.27,0v9.55A.63.63,0,0,1,280.72,62.14Z"/><path class="cls-2" d="M195.65,107.28a.64.64,0,0,1-.63-.64V97.1a.63.63,0,0,1,.63-.63.64.64,0,0,1,.64.63v9.54A.64.64,0,0,1,195.65,107.28Z"/><path class="cls-2" d="M83.22,130.13H26.6a.59.59,0,0,0-.59.63v0a.6.6,0,0,0,.59.6H83.22a.64.64,0,0,0,0-1.27Z"/><path class="cls-2" d="M74.12,141.56H19.42a.63.63,0,0,1-.63-.63.64.64,0,0,1,.63-.64h54.7a.64.64,0,0,1,.63.64A.63.63,0,0,1,74.12,141.56Z"/><path class="cls-2" d="M35.65,141.26a.64.64,0,0,1-.64-.64v-9.54a.64.64,0,1,1,1.27,0v9.54A.64.64,0,0,1,35.65,141.26Z"/><path class="cls-2" d="M55.94,141.26a.64.64,0,0,1-.63-.64v-9.54a.64.64,0,0,1,.63-.64.64.64,0,0,1,.64.64v9.54A.64.64,0,0,1,55.94,141.26Z"/><path class="cls-2" d="M46.24,131a.64.64,0,0,1-.64-.64v-9.54a.64.64,0,0,1,.64-.64.64.64,0,0,1,.63.64v9.54A.64.64,0,0,1,46.24,131Z"/><path class="cls-2" d="M66.28,131a.64.64,0,0,1-.64-.64v-9.54a.64.64,0,0,1,.64-.64.64.64,0,0,1,.63.64v9.54A.64.64,0,0,1,66.28,131Z"/><path class="cls-2" d="M203.51,132h0a3.21,3.21,0,0,1,3.21,3.21V182.8a0,0,0,0,1,0,0H200.3a0,0,0,0,1,0,0V135.25A3.21,3.21,0,0,1,203.51,132Z"/><path class="cls-2" d="M203.51,132h0a3.21,3.21,0,0,1,3.21,3.21V182.8a0,0,0,0,1,0,0H200.3a0,0,0,0,1,0,0V135.25A3.21,3.21,0,0,1,203.51,132Z"/><path class="cls-8" d="M203.51,132a3.21,3.21,0,0,0-3.21,3.21V147.5h6.41V135.25A3.21,3.21,0,0,0,203.51,132Z"/><ellipse class="cls-2" cx="203.51" cy="182.8" rx="3.65" ry="0.81"/><path class="cls-5" d="M254.72,271.66l5.69,12.63c-.48-68.3,26.23-101.65,42.8-118.42v-4.46C259,201.75,255.05,252.83,254.72,271.66Z"/><path class="cls-5" d="M208.11,269.92C211.88,197.86,268,155.35,268,155.35l-1-2.94c-54.06,41.68-63.21,97.25-64.72,117.51Z"/><path class="cls-5" d="M152.57,285.47l5.57-13.74c-.38-19.13-6.09-70.49-50.8-110.78v4.39C123.76,181.72,149.41,209.47,152.57,285.47Z"/><path class="cls-5" d="M198,269.92h6.8A169,169,0,0,0,139,152.41l-1,2.94S193.88,197.66,198,269.92Z"/><rect class="cls-5" x="208.06" y="261.5" width="48.03" height="3.44"/><rect class="cls-5" x="153.3" y="261.5" width="48.03" height="3.44"/><rect class="cls-5" x="211.35" y="242.44" width="48.03" height="3.19"/><rect class="cls-5" x="150.17" y="242.44" width="48.03" height="3.19"/><rect class="cls-5" x="214.64" y="224.95" width="48.03" height="2.89"/><rect class="cls-5" x="145.66" y="224.95" width="47.66" height="2.89"/><rect class="cls-5" x="221.97" y="210.09" width="48.03" height="2.93"/><rect class="cls-5" x="141.01" y="210.09" width="45.12" height="2.93"/><rect class="cls-5" x="228.85" y="197.45" width="48.03" height="2.55"/><rect class="cls-5" x="135.16" y="197.45" width="42.15" height="2.55"/><rect class="cls-5" x="236.04" y="185.39" width="48.03" height="2.34"/><rect class="cls-5" x="127.44" y="185.39" width="41.46" height="2.34"/><rect class="cls-5" x="244.56" y="174.51" width="48.03" height="2.3"/><rect class="cls-5" x="118.37" y="174.51" width="41.77" height="2.3"/><rect class="cls-5" x="253.09" y="166.72" width="46.67" height="2.16"/><rect class="cls-5" x="111.04" y="166.72" width="42.19" height="2.16"/><path class="cls-8" d="M48.19,330.2q3.8,4.41,7.83,8.6V257.36H48.19Z"/><rect class="cls-10" x="40.88" y="204.78" width="25.29" height="63.01" rx="12.65"/><rect class="cls-5" x="53.3" y="214.1" width="20.86" height="51.96" rx="10.43"/><circle class="cls-9" cx="63.73" cy="253.91" r="8.36"/><circle class="cls-8" cx="63.73" cy="225.41" r="8.36"/><path class="cls-8" d="M365.79,311.9V262.76H358v59.9Q362,317.43,365.79,311.9Z"/><rect class="cls-11" x="346.44" y="232.6" width="28.9" height="44.88" rx="14.45" transform="translate(721.79 510.09) rotate(-180)"/><rect class="cls-5" x="343.37" y="243.06" width="22.13" height="34.38" rx="11.07" transform="translate(708.87 520.49) rotate(180)"/><circle class="cls-9" cx="354.44" cy="265.29" r="8.46"/><path class="cls-9" d="M371.19,303.46a20.06,20.06,0,0,0-8.35-3.61c-5.46-.72-10.72,2.14-15.24,5.29a95.07,95.07,0,0,0-25.19,26c-3.57,5.48-6.64,11.41-11.39,15.9-10,9.49-25.17,10.57-37.74,16.32-13.82,6.32-23.59,18-29.69,31.85A200.21,200.21,0,0,0,371.19,303.46Z"/><path class="cls-8" d="M123.39,353.12h-9c-2.47-9.28-6.09-18.29-13.65-23.88-5.59-4.14-13-6.08-17.14-11.68-4.92-6.63-5.15-17.94-13.15-20-3.23-.83-6.62.39-9.61,1.88a52.5,52.5,0,0,0-21.39,19.84,201,201,0,0,0,39,39.54h44.91a2.87,2.87,0,0,0,0-5.73Z"/><path class="cls-12" d="M189.13,383.14c-2.76-.42-5.67-.44-8.15-1.72s-4.12-3.59-5.72-5.83q-8-11.31-16-22.6c-4.6-6.48-10.22-13.56-18.14-14.18-9-.7-16.09,7.23-24.44,10.65-15.18,6.22-32.83-3-48.72.71A199.22,199.22,0,0,0,200,400c4.07,0,8.1-.14,12.11-.38C206.82,391.34,198.76,384.62,189.13,383.14Z"/><rect class="cls-13" x="115.14" y="243.53" width="24" height="91.77" rx="7.78" transform="translate(-158.12 153.21) rotate(-40.76)"/><path class="cls-14" d="M115.86,258.06l-4.51-5.34a7.78,7.78,0,0,0-11-.81L94,257.41a7.79,7.79,0,0,0-.82,11l4.52,5.34C104.93,267.15,109.24,263.84,115.86,258.06Z"/><path class="cls-15" d="M149.24,329.55h0a8.51,8.51,0,0,1-6.89-2.95L92.6,268.88a8.56,8.56,0,0,1,.89-12l6.39-5.5a8.52,8.52,0,0,1,12,.89L161.67,310a8.56,8.56,0,0,1-.89,12l-6.39,5.5A8.45,8.45,0,0,1,149.24,329.55Zm-44.13-78.77a7,7,0,0,0-4.25,1.7L94.48,258a7,7,0,0,0-.74,9.91l49.76,57.72a7,7,0,0,0,9.91.74l6.38-5.51a7,7,0,0,0,.74-9.91l-49.75-57.72A7,7,0,0,0,105.11,250.78Z"/><rect class="cls-13" x="235.55" y="278.84" width="91.77" height="24" rx="7.78" transform="translate(-122.97 306.67) rotate(-48.18)"/><path class="cls-14" d="M293.28,259.7l4.62-5.26a7.77,7.77,0,0,1,11-.61l6.29,5.62a7.79,7.79,0,0,1,.61,11l-4.61,5.26C304.05,269,299.79,265.6,293.28,259.7Z"/><path class="cls-15" d="M253.48,328.4l-6.28-5.62a8.54,8.54,0,0,1-.67-12l50.8-56.79a8.53,8.53,0,0,1,12.06-.67l6.28,5.62a8.54,8.54,0,0,1,.67,12.05l-50.81,56.79a8.51,8.51,0,0,1-6.93,2.83h0A8.47,8.47,0,0,1,253.48,328.4Zm45-73.46-50.81,56.79a7,7,0,0,0,.55,9.93l6.29,5.62a7,7,0,0,0,9.92-.55l50.81-56.79a7.05,7.05,0,0,0-.55-9.93l-6.29-5.62a7,7,0,0,0-9.92.55Z"/><path class="cls-15" d="M145.23,305.41v-6.6a59.58,59.58,0,0,1,119.16.33l0,6.6,0,79.09-1.89,28.64c0,.06,0,.17,0,.32a8.59,8.59,0,0,1-1.07,4.17,6.61,6.61,0,0,1-6.15,3.15L225.19,421,209.6,404.39l-11.68,0-15.17,17.06h-.42l-11.54,0-15,0h0c-2.33,0-4.46,0-6.3-1.15s-2.94-3.48-3.46-7.46c-.76-5.78-.9-21.57-1.23-28.24Z"/><path class="cls-13" d="M146.52,382.65l0,.88c.31,6.28.48,23.09,1.26,29,.5,3.8,1.48,5.41,2.63,6.15s2.92.85,5.28.84h0l26.16.07,15.17-17.06,13.33,0L226,419.17l29.3.08c2.67,0,3.81-1,4.54-2.23a6.78,6.78,0,0,0,.81-3.24,2.06,2.06,0,0,0,0-.25v-.07l2-30.49-.16-75.38,0-8.45a57.71,57.71,0,0,0-115.42-.32l0,8.45Z"/><rect class="cls-15" x="202.62" y="324.59" width="3.66" height="117.11" transform="translate(-179.25 586.53) rotate(-89.84)"/><path class="cls-16" d="M168.15,308.63l0-10.74a36.63,36.63,0,1,1,73.25.21l0,10.74Z"/><path d="M210.29,281.39a6.77,6.77,0,1,0,6.79-6.75A6.77,6.77,0,0,0,210.29,281.39Z"/><path d="M186.17,281.32a6.77,6.77,0,1,0,6.79-6.74A6.77,6.77,0,0,0,186.17,281.32Z"/><rect class="cls-16" x="196.32" y="346.43" width="18.36" height="24.58" transform="translate(-153.79 563.23) rotate(-89.84)"/><path class="cls-16" d="M214.07,347.7a8.86,8.86,0,0,0-17.18-.05H194a11.71,11.71,0,0,1,23,.07Z"/><path class="cls-17" d="M223.25,296.89a37,37,0,0,1-36.66-.28l1.93-3.31a33.2,33.2,0,0,0,32.87.24Z"/><path class="cls-18" d="M245.72,237.71c-.36-3.65-18.9-7.35-41.74-7.35s-41.39,3.7-41.75,7.35h0v19.21l42.48-7.84,41,7.84V237.71Z"/><path class="cls-19" d="M164.94,254.19l4.47,10.15a7.82,7.82,0,0,0,7.3,4.53h52.93a8,8,0,0,0,6.88-3.7l7.06-11-42.2-4.38Z"/><path class="cls-13" d="M245.65,256.49c-1.37-4.13-19.5-7.39-41.67-7.39-21.09,0-38.52,3-41.35,6.79a2.88,2.88,0,0,1,2.09,1.65c5.83-3,21.2-5.2,39.26-5.2,18.39,0,34,2.25,39.57,5.37A2.87,2.87,0,0,1,245.65,256.49Z"/><circle class="cls-19" cx="243.65" cy="256.11" r="2.19"/><circle class="cls-19" cx="164.26" cy="256.11" r="2.19"/><ellipse class="cls-13" cx="203.98" cy="240.01" rx="6.97" ry="7.06"/></g></g></svg>