<svg xmlns="http://www.w3.org/2000/svg" xmlns:xlink="http://www.w3.org/1999/xlink" viewBox="0 0 360 415.63"><defs><style>.cls-1,.cls-10,.cls-11,.cls-2{fill:none;stroke-miterlimit:10;}.cls-1{stroke-width:10px;stroke:url(#linear-gradient);}.cls-10,.cls-2{stroke:#b3b3b3;}.cls-2{stroke-width:8.2px;}.cls-3{fill:#39b44a;}.cls-4{fill:#118011;}.cls-5{fill:#fff;}.cls-6{fill:url(#radial-gradient);}.cls-7{opacity:0.2;fill:url(#linear-gradient-2);}.cls-8{opacity:0.3;fill:url(#linear-gradient-3);}.cls-9{opacity:0.7;}.cls-10,.cls-11{stroke-width:3.15px;}.cls-11{stroke:url(#linear-gradient-4);}.cls-12,.cls-15{fill:#9c9ca3;}.cls-13{fill:url(#linear-gradient-5);}.cls-14{fill:#e6e6e6;}.cls-15{opacity:0.5;}.cls-16{fill:url(#linear-gradient-6);}</style><linearGradient id="linear-gradient" y1="270.63" x2="360" y2="270.63" gradientUnits="userSpaceOnUse"><stop offset="0" stop-color="#0095d5"/><stop offset="1" stop-color="#00ca8b"/></linearGradient><radialGradient id="radial-gradient" cx="79.82" cy="199.19" r="7.29" gradientUnits="userSpaceOnUse"><stop offset="0"/><stop offset="0.19" stop-color="#030303"/><stop offset="0.32" stop-color="#0c0c0c"/><stop offset="0.44" stop-color="#1c1c1c"/><stop offset="0.55" stop-color="#323232"/><stop offset="0.65" stop-color="#4e4e4e"/><stop offset="0.74" stop-color="#717171"/><stop offset="0.83" stop-color="#9a9a9a"/><stop offset="0.92" stop-color="#c9c9c9"/><stop offset="1" stop-color="#fefefe"/><stop offset="1" stop-color="#fff"/></radialGradient><linearGradient id="linear-gradient-2" x1="5" y1="318.96" x2="355" y2="318.96" xlink:href="#linear-gradient"/><linearGradient id="linear-gradient-3" x1="5" y1="360.1" x2="355" y2="360.1" xlink:href="#linear-gradient"/><linearGradient id="linear-gradient-4" x1="55.53" y1="24.57" x2="156.38" y2="24.57" xlink:href="#linear-gradient"/><linearGradient id="linear-gradient-5" x1="253.04" y1="57.24" x2="319.77" y2="57.24" xlink:href="#linear-gradient"/><linearGradient id="linear-gradient-6" x1="141.62" y1="-109.67" x2="164.47" y2="-109.67" gradientTransform="translate(93.66 249.14) rotate(-22.25)" xlink:href="#linear-gradient"/></defs><g id="Layer_2" data-name="Layer 2"><g id="Icon-Terminal-light"><rect class="cls-1" x="5" y="130.63" width="350" height="280" rx="20"/><line class="cls-2" x1="210.78" y1="243.53" x2="253.15" y2="243.53"/><polyline class="cls-2" points="154.74 202.05 180.92 221.31 155.09 240.36"/><path class="cls-3" d="M108.15,240.46h5.64a6.79,6.79,0,0,0,2.2-.27v1.63a5.45,5.45,0,0,1-5.41,5.48h-2.87Z"/><path class="cls-3" d="M51.14,240.46H45.5a6.79,6.79,0,0,1-2.2-.27v1.63a5.45,5.45,0,0,0,5.41,5.48h2.87Z"/><path class="cls-4" d="M111.54,202.8H108l0-3.14a28.37,28.37,0,0,0-56.74,0v3.14H47.75a6.66,6.66,0,0,0-6.67,6.63v25.9c0,1.73.12,3,.79,3.89s1.88,1.25,3.63,1.24h5.64L52,254.1v.16a4.11,4.11,0,0,0,.5,2,3.14,3.14,0,0,0,2.93,1.51H69.77l7.45-7.9h5.56L90,258h12.86a5.43,5.43,0,0,0,3-.54c.88-.57,1.41-1.66,1.66-3.55.34-2.55.44-9.23.59-12.71h0l.05-.74h5.64c1.75,0,2.93-.32,3.63-1.24s.78-2.16.79-3.89v-25.9A6.66,6.66,0,0,0,111.54,202.8Z"/><path class="cls-3" d="M111.54,203.69h-4.4v-4a27.21,27.21,0,0,0-.8-6.49l0,0a27.49,27.49,0,0,0-54.17,6.47v4h-4.4A5.77,5.77,0,0,0,42,209.43v25.9c0,1.7.16,2.79.61,3.36s1.24.89,2.92.89H52l.93,14.52v.16a3.32,3.32,0,0,0,.38,1.54,2.26,2.26,0,0,0,2.16,1.07h14l7.44-7.9h6.35l7.2,8.14h12.46a4.67,4.67,0,0,0,2.52-.39c.55-.35,1-1.12,1.26-2.93.33-2.43.45-8.78.58-12.37l.12-1.84h6.47c1.68,0,2.49-.31,2.92-.89s.61-1.66.61-3.36v-25.9A5.77,5.77,0,0,0,111.54,203.69Z"/><rect class="cls-4" x="51.68" y="238.87" width="56.02" height="1.74"/><polygon class="cls-4" points="51.26 239.85 51.26 203.58 52.15 203.58 52.15 239.85 51.26 239.85 51.26 239.85"/><polygon class="cls-4" points="107.14 239.88 107.14 203.62 108.03 203.62 108.03 239.88 107.14 239.88 107.14 239.88"/><path class="cls-5" d="M97.08,204.31V199.2a17.44,17.44,0,0,0-34.88,0v5.11Z"/><rect class="cls-6" x="71.87" y="198.18" width="15.55" height="1.82"/><rect class="cls-5" x="73.79" y="223.74" width="11.7" height="8.74"/><path class="cls-5" d="M75.58,222.85a4.21,4.21,0,0,1,8.17,0h1.39a5.58,5.58,0,0,0-11,0Z"/><path d="M82.18,190.28a3.22,3.22,0,1,0,3.19-3.23A3.22,3.22,0,0,0,82.18,190.28Z"/><path d="M70.71,190.36a3.22,3.22,0,1,0,3.2-3.24A3.23,3.23,0,0,0,70.71,190.36Z"/><path class="cls-7" d="M312.45,237.56a188.12,188.12,0,0,0-46.09,24.74c-26.92,19.76-48.34,46.51-76.42,64.57a153.08,153.08,0,0,1-56.41,22c-30.17,5.25-61.07,1.31-91.68.47A250.94,250.94,0,0,0,5,350.71v39.92a20,20,0,0,0,20,20H335a20,20,0,0,0,20-20V227.28A187,187,0,0,0,312.45,237.56Z"/><path class="cls-8" d="M329.23,328.69c-23.3,14.51-43.48,33.61-66.68,48.29s-51.2,24.95-78,18.86c-32.61-7.41-54.94-36.37-81.69-56.44C75.09,318.56,39.26,307.35,5,310v80.68a20,20,0,0,0,20,20H335a20,20,0,0,0,20-20V317.19C345.94,319.27,337.2,323.72,329.23,328.69Z"/><g class="cls-9"><polyline class="cls-10" points="117.27 13.11 133.77 25.24 117.49 37.24"/><polyline class="cls-10" points="94.64 37.24 78.14 25.11 94.42 13.11"/><line class="cls-10" x1="109.17" y1="9.79" x2="103.92" y2="39.35"/><rect class="cls-11" x="57.1" y="1.58" width="97.7" height="45.99" rx="6.29"/></g><circle class="cls-12" cx="330.78" cy="96.37" r="2.5"/><circle class="cls-12" cx="135.17" cy="74.2" r="2.5"/><circle class="cls-12" cx="31.68" cy="58.16" r="3.75"/><circle class="cls-13" cx="286.4" cy="57.24" r="33.36"/><path class="cls-14" d="M306,58.39c-3.36,0-3.83,2-3.83,3.5a26,26,0,0,0,.37,3.83,25.49,25.49,0,0,1,.38,3.88c0,4.78-3,6.48-6.85,6.48h-1v-2.6h.81c2.65,0,3.78-1.47,3.78-4.11a28.9,28.9,0,0,0-.33-3.41,21.24,21.24,0,0,1-.38-3.59c0-3,1.32-4.64,3.4-5.16v-.09c-2.08-.57-3.4-2.08-3.4-5.11a21.93,21.93,0,0,1,.38-3.59,28.28,28.28,0,0,0,.33-3.36c0-2.55-1-4-3.74-4.07h-.85v-2.6H296c4,0,6.9,1.85,6.9,6.2a26,26,0,0,1-.38,3.92,28,28,0,0,0-.37,4c0,1.66.47,3.5,3.83,3.5Z"/><path class="cls-14" d="M266.83,56c3.36,0,3.83-1.85,3.83-3.5a26.54,26.54,0,0,0-.38-4,27.63,27.63,0,0,1-.37-3.93c0-4.35,2.83-6.19,6.85-6.19h1V41h-.85c-2.8,0-3.74,1.51-3.74,4.06a20.55,20.55,0,0,0,.33,3.36,22,22,0,0,1,.33,3.59c.05,3-1.28,4.54-3.4,5.11v.1c2.12.52,3.45,2.12,3.4,5.15A21.37,21.37,0,0,1,273.5,66a21.26,21.26,0,0,0-.33,3.41c0,2.65,1.09,4.11,3.74,4.11h.85v2.6h-1c-3.92,0-6.85-1.7-6.85-6.47a26.67,26.67,0,0,1,.37-3.88,24.85,24.85,0,0,0,.38-3.83c0-1.47-.47-3.5-3.83-3.5Z"/><circle class="cls-15" cx="196.29" cy="10.6" r="3.75"/><circle class="cls-12" cx="220.93" cy="52.6" r="3.75"/><ellipse class="cls-12" cx="72.34" cy="93.77" rx="5.02" ry="5"/><path class="cls-16" d="M192.58,80l1.77,1.56a4,4,0,0,0,3.63.89l2.29-.57a2.87,2.87,0,0,1,3.32,3.92L202.65,88a4,4,0,0,0,.27,3.73l1.25,2a2.86,2.86,0,0,1-2.69,4.36l-2.35-.22a4,4,0,0,0-3.47,1.42l-1.51,1.8a2.86,2.86,0,0,1-5-1.21l-.51-2.31a4,4,0,0,0-2.42-2.86l-2.18-.88a2.86,2.86,0,0,1-.39-5.11l2-1.2a4.05,4.05,0,0,0,2-3.19l.16-2.35A2.86,2.86,0,0,1,192.58,80Z"/></g></g></svg>