<svg xmlns="http://www.w3.org/2000/svg" viewBox="0 0 1302.58 793.94"><defs><style>.cls-1,.cls-4{fill:#019dad;}.cls-1{opacity:0.3;}.cls-2{fill:#002342;}.cls-2,.cls-3{opacity:0.1;}.cls-3{fill:#002745;}.cls-4{opacity:0.2;}</style></defs><g id="Layer_2" data-name="Layer 2"><g id="BK-wave-04"><path class="cls-1" d="M1302.58,466A830.52,830.52,0,0,0,919.67,324.1c-76.76-8.08-154.29-5.36-231.25-11.32s-155.19-21.35-220.7-62C376.28,194,321.07,96.13,271.75,0H0A1182.25,1182.25,0,0,1,207.15,262.93c59.7,103.12,110,222,214.26,280.12C493,583,579.48,587,661,577.48S822.09,546,903.66,537.38c135.86-14.35,275.46,9.74,398.92,67.87Z"/></g><g id="BK-wave-03"><path class="cls-2" d="M1302.58,722.47c-73.89-21.85-138-78.84-189.75-138.52-66.19-76.38-125-163.56-213.09-213.3-118.38-66.81-266.1-53-393.79-99.81-23.42-8.58-46.2-19.22-70.48-25-37.47-8.86-76.58-5.64-115.06-7.2s-79.09-9-107.62-34.81c-25.91-23.4-37.85-58.22-46.45-92s-15.22-68.93-33.86-98.41A113.65,113.65,0,0,0,122.5,0H57.3c7.23,8.79,15.89,17.31,20.62,25.27,13.66,23,21.59,49.88,32.76,74.18,13.9,30.21,29.42,59.75,47.89,87.47,38.25,57.39,90.85,107.65,156,130.83,79.28,28.21,168.48,14,248.69,39.47,70.1,22.26,127.38,72.84,194.22,103.47,65.19,29.86,139.39,40.73,198.65,81,47.33,32.18,81.06,80.49,124.61,117.59,62.47,53.21,141.48,80.67,221.86,101.17Z"/></g><g id="BK-wave-02"><path class="cls-3" d="M1302.58,687.92c-44.91-12.95-89.66-26.44-134-41.14-73.8-24.45-147.61-52.85-209.7-99.51C888.42,494.35,834.61,419.11,756,379.18c-116.28-59.06-268.89-31.47-371.29-112.09C321.87,217.59,292.84,138.25,254,68.42,240.42,43.91,224.17,19.36,204,0H31C47.37,21.36,67.38,40.87,83.56,62.35c18.56,24.64,36.1,50,53.11,75.75,18.74,28.34,36.8,57.1,54.87,85.86C248,313.82,305.29,404.5,381.1,478.9s173,132.13,279,140.86c55,4.53,111.51-4,164.73,10.46,39.45,10.72,74.33,33.38,110,53.31a892.31,892.31,0,0,0,367.72,110.41Z"/></g><g id="BK-wave-01"><path class="cls-4" d="M1302.58,716.35c-78.33-43.73-147.19-107.05-227.93-147.84C987.39,524.42,884,505.13,815.43,435.61c-26.09-26.45-45.59-58.9-72.57-84.46C676.19,288,574.05,275.46,503.79,216.26,445.31,167,416.56,92.3,385.1,22.73A232.84,232.84,0,0,0,373.72,0h-52.4c44.45,77.5,89.48,155.06,145.22,224.92,57.71,72.35,127.84,136.68,211.72,176.15,41.57,19.56,86.7,33.21,123,61.37,31.75,24.67,55.18,59.43,89.46,80.49,45.77,28.12,103.1,27.45,154.68,42.62,96.55,28.39,169.05,110.85,257.23,156.7Z"/></g></g></svg>