<?xml version="1.0" encoding="UTF-8" standalone="no"?>
<svg
   xmlns:dc="http://purl.org/dc/elements/1.1/"
   xmlns:cc="http://creativecommons.org/ns#"
   xmlns:rdf="http://www.w3.org/1999/02/22-rdf-syntax-ns#"
   xmlns:svg="http://www.w3.org/2000/svg"
   xmlns="http://www.w3.org/2000/svg"
   xmlns:sodipodi="http://sodipodi.sourceforge.net/DTD/sodipodi-0.dtd"
   xmlns:inkscape="http://www.inkscape.org/namespaces/inkscape"
   width="16px"
   height="16px"
   viewBox="0 0 16 16"
   version="1.1"
   id="svg6174"
   sodipodi:docname="alert.svg"
   inkscape:version="0.92.4 (5da689c313, 2019-01-14)">
  <metadata
     id="metadata6180">
    <rdf:RDF>
      <cc:Work
         rdf:about="">
        <dc:format>image/svg+xml</dc:format>
        <dc:type
           rdf:resource="http://purl.org/dc/dcmitype/StillImage" />
        <dc:title>icon/windows-dark/alert</dc:title>
      </cc:Work>
    </rdf:RDF>
  </metadata>
  <defs
     id="defs6178" />
  <sodipodi:namedview
     pagecolor="#ffffff"
     bordercolor="#666666"
     borderopacity="1"
     objecttolerance="10"
     gridtolerance="10"
     guidetolerance="10"
     inkscape:pageopacity="0"
     inkscape:pageshadow="2"
     inkscape:window-width="1920"
     inkscape:window-height="1017"
     id="namedview6176"
     showgrid="true"
     inkscape:pagecheckerboard="true"
     inkscape:zoom="41.7193"
     inkscape:cx="4.2735038"
     inkscape:cy="9.1756145"
     inkscape:window-x="-8"
     inkscape:window-y="111"
     inkscape:window-maximized="1"
     inkscape:current-layer="icon/windows-dark/alert">
    <inkscape:grid
       type="xygrid"
       id="grid6725"
       empspacing="2"
       spacingx="0.5"
       spacingy="0.5" />
  </sodipodi:namedview>
  <!-- Generator: Sketch 52.6 (67491) - http://www.bohemiancoding.com/sketch -->
  <title
     id="title6165">icon/windows-dark/alert</title>
  <desc
     id="desc6167">Created with Sketch.</desc>
  <g
     id="icon/windows-dark/alert"
     stroke="none"
     stroke-width="1"
     fill="none"
     fill-rule="evenodd">
    <path
       d="M14.880875,12.5915859 L15.8130876,13.9727107 C16.2147586,14.5678087 16.0579551,15.3758496 15.4628571,15.7775206 C15.2884059,15.8952693 15.0886067,15.9684899 14.880875,15.991855 L14.880875,15.9999125 L14.7506894,15.9999125 C14.7456512,15.9999711 14.7406104,16.0000004 14.7355674,16.0000004 L6.79064026,16.0000004 C6.78554103,16.0000004 6.78044866,15.9999711 6.7753633,15.9999125 L3.22075,15.9999125 C2.49405033,15.9999125 1.883,15.4205058 1.883,14.6787875 L1.883,14.208384 C1.01113031,14.0073053 0.344051469,13.2553103 0.316744934,12.3372393 C0.113966873,12.028222 0,11.6648852 0,11.2820375 L0,7.2920375 C0,6.24248929 0.843654513,5.39793504 1.883,5.33194036 L1.883,5.1404125 C1.883,3.73630576 2.51216502,2.42523134 3.59425952,1.46709217 C4.65175075,0.531829024 6.06576909,-8.75e-05 7.56075,-8.75e-05 C10.6599897,-8.75e-05 13.237625,2.28220067 13.237625,5.1404125 L13.237625,5.33160876 C14.2799946,5.3950474 15.125,6.24067186 15.125,7.2920375 L15.125,11.2820375 C15.125,11.6138656 15.0382337,11.9314178 14.880875,12.212632 L14.880875,12.5915859 Z"
       id="dark"
       fill="#000000"
       opacity="0.5"
       style="opacity:1;fill:#000000;fill-opacity:0.50196081" />
    <path
       d="M5.52540586,14.9999125 L3.22075,14.9999125 C3.03525,14.9999125 2.883,14.8564125 2.883,14.6787875 L2.883,13.2612875 L2.34925,13.2612875 C1.781375,13.2612875 1.315875,12.8185375 1.315875,12.2786625 C1.315875,12.1867875 1.329,12.0966625 1.354375,12.0126625 C1.13825,11.8341625 1,11.5734125 1,11.2820375 L1,7.2920375 C1,6.7626625 1.45675,6.3277875 2.014125,6.3277875 L2.883,6.3277875 L2.883,5.1404125 C2.883,4.0011625 3.408875,2.9669125 4.25675,2.2161625 C5.104625,1.4662875 6.273625,0.9999125 7.56075,0.9999125 C10.13325,0.9999125 12.237625,2.8636625 12.237625,5.1404125 L12.237625,6.3277875 L13.11175,6.3277875 C13.67,6.3277875 14.125,6.7626625 14.125,7.2920375 L14.125,11.2820375 C14.125,11.3388306 14.1195895,11.39441 14.109279,11.4484234 L11.9974216,8.31958918 C11.9132808,8.19492987 11.8081464,8.08581667 11.6866971,7.99710537 C11.1069232,7.57361582 10.2936175,7.70030932 9.87012794,8.28008322 L5.74086674,13.9332048 C5.57826836,14.1558084 5.49064026,14.4243365 5.49064026,14.7000004 C5.49064026,14.8032228 5.50267067,14.9036354 5.52540586,14.9999125 Z M4.53675,5.5079125 L4.53675,6.3277875 L10.557625,6.3277875 L10.557625,5.5079125 C10.557625,3.9337875 9.203125,2.6457875 7.54675,2.6457875 C6.719,2.6457875 5.9665,2.9686625 5.421375,3.4866625 C4.875375,4.0055375 4.53675,4.7212875 4.53675,5.5079125 Z"
       id="white"
       fill="#FFFFFF" />
    <path
       d="M11.16856,8.87904279 L14.9842259,14.5321643 C15.0769192,14.6694946 15.0407338,14.8559656 14.9034035,14.9486589 C14.8538272,14.9821213 14.79538,15.0000004 14.7355674,15.0000004 L6.79064026,15.0000004 C6.62495483,15.0000004 6.49064026,14.8656858 6.49064026,14.7000004 C6.49064026,14.6363857 6.51086213,14.5744176 6.54838483,14.5230476 L10.677646,8.86992603 C10.7753744,8.73613206 10.9630603,8.7068951 11.0968543,8.80462345 C11.1248811,8.82509529 11.1491428,8.85027526 11.16856,8.87904279 Z"
       id="yellow"
       fill="#E6B400" />
    <path
       d="M10.4999998,14.475 C10.3343144,14.475 10.1999998,14.3406854 10.1999998,14.175 L10.1999998,13.55 C10.1999998,13.3843146 10.3343144,13.25 10.4999998,13.25 L11.2124998,13.25 C11.3781852,13.25 11.5124998,13.3843146 11.5124998,13.55 L11.5124998,14.175 C11.5124998,14.3406854 11.3781852,14.475 11.2124998,14.475 L10.4999998,14.475 Z M11.2124998,10.1875 C11.3781852,10.1875 11.5124998,10.3218146 11.5124998,10.4875 L11.5127754,12.5125 C11.5127754,12.5125919 11.5127754,12.5126838 11.5127753,12.5127757 C11.512623,12.6784611 11.378185,12.8126522 11.2124997,12.8124999 L10.4999999,12.8112935 C10.3344223,12.8111413 10.2002757,12.6768714 10.2002757,12.5112937 L10.1999998,10.4875 C10.1999998,10.3218146 10.3343144,10.1875 10.4999998,10.1875 L11.2124998,10.1875 Z"
       id="black"
       fill="#000000" />
  </g>
</svg>
