<?xml version="1.0" encoding="UTF-8" standalone="no"?>
<svg
   xmlns:dc="http://purl.org/dc/elements/1.1/"
   xmlns:cc="http://creativecommons.org/ns#"
   xmlns:rdf="http://www.w3.org/1999/02/22-rdf-syntax-ns#"
   xmlns:svg="http://www.w3.org/2000/svg"
   xmlns="http://www.w3.org/2000/svg"
   xmlns:sodipodi="http://sodipodi.sourceforge.net/DTD/sodipodi-0.dtd"
   xmlns:inkscape="http://www.inkscape.org/namespaces/inkscape"
   width="16px"
   height="16px"
   viewBox="0 0 16 16"
   version="1.1"
   id="svg6815"
   sodipodi:docname="connecting.svg"
   inkscape:version="0.92.4 (5da689c313, 2019-01-14)">
  <metadata
     id="metadata6821">
    <rdf:RDF>
      <cc:Work
         rdf:about="">
        <dc:format>image/svg+xml</dc:format>
        <dc:type
           rdf:resource="http://purl.org/dc/dcmitype/StillImage" />
        <dc:title>icon/windows-dark/connecting</dc:title>
      </cc:Work>
    </rdf:RDF>
  </metadata>
  <defs
     id="defs6819" />
  <sodipodi:namedview
     pagecolor="#ffffff"
     bordercolor="#666666"
     borderopacity="1"
     objecttolerance="10"
     gridtolerance="10"
     guidetolerance="10"
     inkscape:pageopacity="0"
     inkscape:pageshadow="2"
     inkscape:window-width="1920"
     inkscape:window-height="1017"
     id="namedview6817"
     showgrid="true"
     inkscape:pagecheckerboard="true"
     inkscape:zoom="41.7193"
     inkscape:cx="4.5857864"
     inkscape:cy="9.0238633"
     inkscape:window-x="-8"
     inkscape:window-y="111"
     inkscape:window-maximized="1"
     inkscape:current-layer="icon/windows-dark/connecting">
    <inkscape:grid
       type="xygrid"
       id="grid7366"
       spacingx="0.5"
       spacingy="0.5"
       empspacing="2" />
  </sodipodi:namedview>
  <!-- Generator: Sketch 52.6 (67491) - http://www.bohemiancoding.com/sketch -->
  <title
     id="title6805">icon/windows-dark/connecting</title>
  <desc
     id="desc6807">Created with Sketch.</desc>
  <g
     id="icon/windows-dark/connecting"
     stroke="none"
     stroke-width="1"
     fill="none"
     fill-rule="evenodd">
    <path
       d="M15.125,8.83315931 C15.6749823,9.57949229 16,10.5017902 16,11.5 C16,13.9852814 13.9852814,16 11.5,16 C11.4905393,16 11.4810854,15.9999708 11.4716385,15.9999125 L3.22075,15.9999125 C2.49405033,15.9999125 1.883,15.4205058 1.883,14.6787875 L1.883,14.208384 C1.01113031,14.0073053 0.344051469,13.2553103 0.316744934,12.3372393 C0.113966873,12.028222 0,11.6648852 0,11.2820375 L0,7.2920375 C0,6.24248929 0.843654513,5.39793504 1.883,5.33194036 L1.883,5.1404125 C1.883,3.73630576 2.51216502,2.42523134 3.59425952,1.46709217 C4.65175075,0.531829024 6.06576909,-8.75e-05 7.56075,-8.75e-05 C10.6599897,-8.75e-05 13.237625,2.28220067 13.237625,5.1404125 L13.237625,5.33160876 C14.2799946,5.3950474 15.125,6.24067186 15.125,7.2920375 L15.125,8.83315931 Z"
       id="Combined-Shape"
       fill="#000000"
       opacity="0.5"
       style="opacity:1;fill:#000000;fill-opacity:0.50196081" />
    <path
       d="M8.6712247,14.9999125 L3.22075,14.9999125 C3.03525,14.9999125 2.883,14.8564125 2.883,14.6787875 L2.883,13.2612875 L2.34925,13.2612875 C1.781375,13.2612875 1.315875,12.8185375 1.315875,12.2786625 C1.315875,12.1867875 1.329,12.0966625 1.354375,12.0126625 C1.13825,11.8341625 1,11.5734125 1,11.2820375 L1,7.2920375 C1,6.7626625 1.45675,6.3277875 2.014125,6.3277875 L2.883,6.3277875 L2.883,5.1404125 C2.883,4.0011625 3.408875,2.9669125 4.25675,2.2161625 C5.104625,1.4662875 6.273625,0.9999125 7.56075,0.9999125 C10.13325,0.9999125 12.237625,2.8636625 12.237625,5.1404125 L12.237625,6.3277875 L13.11175,6.3277875 C13.67,6.3277875 14.125,6.7626625 14.125,7.2920375 L14.125,7.84453553 C13.3861611,7.31303568 12.4796372,7 11.5,7 C9.01471863,7 7,9.01471863 7,11.5 C7,12.9135831 7.65178738,14.1749331 8.6712247,14.9999125 Z M4.53675,5.5079125 L4.53675,6.3277875 L10.557625,6.3277875 L10.557625,5.5079125 C10.557625,3.9337875 9.203125,2.6457875 7.54675,2.6457875 C6.719,2.6457875 5.9665,2.9686625 5.421375,3.4866625 C4.875375,4.0055375 4.53675,4.7212875 4.53675,5.5079125 Z"
       id="path6810"
       fill="#FFFFFF"
       style="fill:#ffffff;fill-opacity:1" />
    <path
       d="M14.6422223,8.92873966 L14.618889,10.5465174 L14.6111112,11.0676286 L12.588889,11.0442952 C12.8066667,10.8109619 12.9700001,10.6398508 13.0711112,10.5309619 C13.1566667,10.4298508 13.2033334,10.3754063 13.2033334,10.3676286 C12.7211112,9.76096189 12.1066667,9.48096189 11.3911112,9.53540633 C10.6522223,9.58985077 10.0922223,9.90096189 9.73444452,10.4842952 C9.64888897,10.6087397 9.58666674,10.7409619 9.52444452,10.8887397 C9.51666674,10.9042952 9.48555563,11.0054063 9.48555563,11.0054063 L8.42000008,10.989073 C8.42000008,10.989073 8.44333341,10.8965174 8.45111119,10.8731841 C8.49000008,10.7331841 8.53666674,10.5931841 8.59111119,10.4679619 C8.92555563,9.59762855 9.55555563,8.99873966 10.4500001,8.69540633 C11.7644445,8.252073 12.9466667,8.56318411 13.9577779,9.62796189 C13.9733334,9.62796189 14.198889,9.39540633 14.6422223,8.92873966 Z M14.6346779,11.824873 C14.6346779,11.824873 14.6113445,11.9174286 14.6113445,11.9407619 C14.5724556,12.0807619 14.525789,12.2215397 14.4713445,12.3459841 C14.1291223,13.2163174 13.4991223,13.8159841 12.6124556,14.1185397 C11.2980112,14.5626508 10.1080112,14.2507619 9.09690008,13.1859841 C9.0891223,13.1859841 8.85578897,13.4193174 8.42023341,13.8852063 L8.43578897,12.2674286 L8.44356674,11.7463174 L10.4735667,11.7704286 C10.255789,12.0029841 10.0924556,12.1740952 9.99134452,12.2837619 C9.89801119,12.384873 9.85134452,12.4385397 9.85134452,12.4470952 C10.3335667,13.0529841 10.955789,13.3329841 11.6713445,13.2785397 C12.4024556,13.224873 12.9624556,12.9129841 13.3202334,12.3296508 C13.405789,12.2052063 13.4680112,12.0729841 13.5302334,11.9259841 C13.5380112,11.9096508 13.5691223,11.8085397 13.5691223,11.8085397 L14.6346779,11.824873 Z"
       id="path6812"
       fill="#FFFFFF" />
  </g>
</svg>
