<?xml version="1.0" encoding="UTF-8"?>
<svg width="18px" height="16px" viewBox="0 0 18 16" version="1.1" xmlns="http://www.w3.org/2000/svg" xmlns:xlink="http://www.w3.org/1999/xlink">
    <title>Down</title>
    <g id="Down" stroke="none" stroke-width="1" fill="none" fill-rule="evenodd">
        <path d="M8.497951,2.48689958e-14 L8.60403095,0.002 L8.72106664,0.0047256758 C8.72820385,0.00503966693 8.73531584,0.00544382001 8.7424026,0.00593813504 L8.94508151,0.0209011005 C10.9052688,0.204935914 12.5196628,1.50807449 13.1857322,3.2716874 L14.1273298,2.4145182 L16.4926963,4.75126691 L14.3584023,6.69730154 C14.443911,6.95034286 14.4858661,7.20808557 14.4858661,7.46854945 L14.4858661,12.5311257 L14.4787292,12.7084869 L14.4540274,12.9104273 L14.4107181,13.1181361 L14.3585443,13.2925215 C14.1655952,13.8636419 13.7844842,14.3306751 13.2812838,14.6202699 L13.221866,14.6508631 L13.1197612,14.7969863 C12.7569469,15.2471987 12.2361642,15.5000773 11.6798994,15.4998632 L10.4302304,15.4998632 L10.2469341,15.4892671 L10.0445159,15.454765 L9.86298652,15.4041159 L9.70538747,15.3426453 C9.50133458,15.2533127 9.32178208,15.1347851 9.16893466,14.9905686 L9.11903095,14.937 L8.49203095,14.936 L7.86503095,14.937 L7.81693136,14.9905686 C7.70229579,15.0987309 7.57263862,15.1924433 7.42888994,15.2702266 L7.28047854,15.3426453 L7.1228795,15.4041159 L6.94135007,15.454765 L6.73893188,15.4892671 L6.55563558,15.4998632 L5.30596666,15.4998632 C5.12365535,15.4999334 4.94515534,15.4728177 4.77477868,15.420479 L3.77039756,16.3342816 L1.40503095,13.997533 L2.54203095,12.962 L2.53183864,12.9104273 L2.50713681,12.7084869 L2.49999994,12.5311257 L2.49999994,7.46854945 C2.49999994,7.09964475 2.5841622,6.73619874 2.7570288,6.3838376 L2.7570288,6.3838376 L2.811,6.28586313 L2.82353271,6.21536266 C2.85753917,6.06519985 2.91008989,5.92006731 2.98629832,5.77351344 L2.98629832,5.77351344 L3.07058205,5.62624685 L3.19121238,5.45937205 L3.32899654,5.30759463 L3.47132086,5.18132533 L3.47177208,5.07793719 C3.47177208,2.45295628 5.45553464,0.263620752 8.0407845,0.0209011005 L8.0407845,0.0209011005 L8.24346341,0.00593813504 C8.25055018,0.00544382001 8.25766216,0.00503966693 8.26479937,0.0047256758 L8.38103095,0.002 L8.48791502,2.48689958e-14 L8.497951,2.48689958e-14 Z" id="Combined-Shape" fill="#000000" fill-rule="nonzero"></path>
        <g id="Brand_Mascot-Copy-8" transform="translate(2.812500, 0.999863)" fill="#FFFFFF" fill-opacity="0.5" fill-rule="nonzero">
            <g id="Lock">
                <path d="M5.68711338,0 C7.90939209,0 9.71497352,1.82584719 9.71497352,4.07807406 L9.71497352,4.07807406 L9.714,4.181 L11.2876254,2.74953678 L12.2727273,3.72272017 L0.985101857,13.9995368 L0,13.0263534 L0.872469552,12.2324367 C0.777419798,12.065377 0.715781451,11.8776493 0.695159371,11.6794915 L0.687499955,11.5312626 L0.687499955,6.46868632 C0.687499955,6.1644289 0.784900866,5.86836818 0.965273061,5.62501267 C0.965233047,5.40124409 1.0530121,5.18662886 1.20929136,5.02840058 C1.33222131,4.90393752 1.48961073,4.82241229 1.65875378,4.79328579 L1.65927209,4.07807406 C1.65927209,1.82584719 3.46483466,0 5.68711338,0 Z M10.6489997,6.13961607 C10.6659783,6.21106367 10.6774486,6.28397557 10.6831965,6.35770159 L10.6875,6.46881993 L10.6875,11.5312626 C10.687076,12.1574686 10.2776412,12.7079018 9.68332013,12.881255 C9.59425381,13.2101904 9.31955542,13.4482255 8.99264076,13.4925431 L8.88191828,13.4999999 L7.63199609,13.4999999 C7.31827376,13.4999999 7.03489706,13.3218568 6.89342385,13.0455616 L6.84724101,12.9375062 L4.52787181,12.9375062 C4.42331699,13.2368522 4.16335542,13.4481245 3.85909342,13.4916827 L3.74313559,13.4999999 L2.56349991,13.4993376 L10.6489997,6.13961607 Z M5.68711338,1.40622454 C4.23196263,1.40622454 3.04819393,2.60490918 3.04819393,4.07807406 L3.04819393,4.07807406 L3.048,4.781 L3.60419251,4.78133888 C3.80142842,4.78121796 3.99085387,4.85229962 4.1395357,4.97962665 L4.22359211,5.06265265 L7.15014448,5.06265265 C7.28153808,4.91319454 7.46037684,4.81718408 7.65357829,4.78957589 L7.77095802,4.78133888 L8.326,4.781 L8.32607053,4.09594009 C8.32607053,2.66227487 7.23157496,1.49886492 5.85375928,1.41149266 Z" id="Combined-Shape"></path>
            </g>
        </g>
    </g>
</svg>