<?xml version="1.0" encoding="UTF-8"?>
<svg width="18px" height="16px" viewBox="0 0 18 16" version="1.1" xmlns="http://www.w3.org/2000/svg" xmlns:xlink="http://www.w3.org/1999/xlink">
    <title>Snoozed</title>
    <g id="Snoozed" stroke="none" stroke-width="1" fill="none" fill-rule="evenodd">
        <path d="M8.48791502,0.000136870037 L8.27477848,0.0051249254 L8.0407845,0.0210379705 C5.45553464,0.263757622 3.47177208,2.45309315 3.47177208,5.07807406 L3.47132086,5.1814622 L3.32899654,5.3077315 L3.19121238,5.45950892 L3.07058205,5.62638372 L2.98629832,5.77365031 C2.91008989,5.92020418 2.85753917,6.06533672 2.82353271,6.21549953 L2.811,6.286 L2.7570288,6.38397447 C2.5841622,6.73633561 2.49999994,7.09978162 2.49999994,7.46868632 L2.49999994,12.5312626 L2.50713681,12.7086237 L2.53183864,12.9105641 L2.5751479,13.118273 L2.62732172,13.2926584 C2.82027084,13.8637788 3.20138183,14.3308119 3.70458221,14.6204068 L3.764,14.651 L3.86610484,14.7971232 C4.22891907,15.2473356 4.74970185,15.5002142 5.30596666,15.5 L6.55563558,15.5 L6.73893188,15.489404 L6.94135007,15.4549018 L7.1228795,15.4042528 L7.28047854,15.3427822 C7.48453144,15.2534495 7.66408393,15.1349219 7.81693136,14.9907054 L7.868,14.936 L9.599,14.939 L9.64918289,14.9820796 C10.4419432,15.6321354 11.4416793,16 12.4999999,16 C14.9851597,16 16.9999999,13.9851598 16.9999999,11.5 L16.9940746,11.2655534 C16.9190566,9.79133487 16.1324146,8.51908494 14.6739094,7.47031051 L14.588,7.411 L14.3987886,6.77546893 L14.337761,6.59789988 L14.2541573,6.40619567 L14.19,6.291 L14.1486393,6.109415 L14.0898674,5.94252819 C13.9808011,5.67156079 13.8169715,5.43722433 13.610418,5.25068616 L13.527,5.182 L13.527473,5.07844315 L13.522252,4.850624 L13.5058508,4.61279265 C13.2665107,2.07340227 11.2180698,0.114714585 8.72106664,0.00486254584 L8.48791502,0.000136870037 Z" id="Path" fill="#000000" fill-rule="nonzero"></path>
        <g id="Brand_Mascot-Copy-8" transform="translate(3.500000, 1.000000)" fill="#FFFFFF" fill-opacity="0.5" fill-rule="nonzero">
            <g id="Brand_Mascot" transform="translate(0.000000, 0.000000)">
                <g id="Pia_Logo_Vertical" transform="translate(0.000000, 0.000000)">
                    <g id="Lock" transform="translate(0.000000, 0.000000)">
                        <path d="M9.00000007,7 C10.9328751,7 12.5000001,8.567125 12.5000001,10.5 C12.5000001,12.432875 10.9328751,14 9.00000007,14 C7.06712507,14 5.50000007,12.432875 5.50000007,10.5 C5.50000007,8.567125 7.06712507,7 9.00000007,7 Z M4.99961342,0 C7.22189214,0 9.02747356,1.82584719 9.02747356,4.07807406 L9.02747356,4.07807406 L9.02786513,4.79312632 C9.42181133,4.86036466 9.72195726,5.20718231 9.72232096,5.62506994 C9.82037352,5.75739592 9.89391974,5.90529853 9.94060545,6.06162433 C9.64564898,6.00027474 9.34213101,5.96875 9.03125004,5.96875 C6.54596867,5.96875 4.53125004,7.98346863 4.53125004,10.46875 C4.53125004,11.3807994 4.80258138,12.2294759 5.26892738,12.9384629 L3.84037186,12.9375062 C3.73581704,13.2368522 3.47585547,13.4481245 3.17159347,13.4916827 L3.05563564,13.4999999 L1.80558147,13.4999999 C1.43095917,13.5001443 1.10239382,13.246901 1.00280339,12.881255 C0.451212245,12.7201429 0.0592013682,12.2339427 0.00614515073,11.6641318 L2.71782596e-13,11.5312626 L2.71782596e-13,6.46868632 C2.71782596e-13,6.1644289 0.0974009108,5.86836818 0.277773106,5.62501267 C0.277733092,5.40124409 0.365512145,5.18662886 0.521791408,5.02840058 C0.644721357,4.90393752 0.802110772,4.82241229 0.971253825,4.79328579 L0.971772138,4.07807406 C0.971772138,1.82584719 2.77733471,0 4.99961342,0 Z M10.4501662,9 L7.64950173,9 L7.64950173,9.55462185 L9.40863795,9.55462185 L7.50000007,11.4789916 L7.50000007,12 L10.5000001,12 L10.5000001,11.4453782 L8.54152831,11.4453782 L10.4501662,9.5210084 L10.4501662,9 Z M4.99961342,1.40622454 C3.54446267,1.40622454 2.36069398,2.60490918 2.36069398,4.07807406 L2.36069398,4.07807406 L2.36,4.781 L2.91669255,4.78133888 C3.11392846,4.78121796 3.30335391,4.85229962 3.45203575,4.97962665 L3.53609215,5.06265265 L6.46264453,5.06265265 C6.59403813,4.91319454 6.77287689,4.81718408 6.96607834,4.78957589 L7.08345807,4.78133888 L7.638,4.781 L7.63857057,4.09594009 C7.63857057,2.66227487 6.54407501,1.49886492 5.16625933,1.41149266 Z" id="Combined-Shape"></path>
                    </g>
                </g>
            </g>
        </g>
        <g id="Group" transform="translate(9.000000, 8.000000)"></g>
    </g>
</svg>